<svg width="4697" height="4658" viewBox="0 0 4697 4658" fill="none" xmlns="http://www.w3.org/2000/svg">
<path d="M1931.25 110.149C2240.82 23.9555 2572.55 27.6065 2883.16 106.759C2908.16 112.872 2933.84 115.764 2959.58 115.365L2932.58 124.493L2988.4 129.057C3045.77 148.617 3104.58 163.352 3162.74 181.217L3163.65 187.215C3211.63 204.401 3258.64 224.163 3304.48 246.416C3320.26 251.111 3336.17 255.414 3352.21 259.456C3337.73 277.973 3323 296.229 3309.44 315.267C3323.26 303.401 3336.82 291.274 3350.12 278.755C3383.37 277.843 3425.62 283.45 3440.36 317.875C3450.8 316.867 3461.32 318.621 3470.87 322.96C3480.41 327.376 3488.67 334.153 3494.86 342.651C3548.33 363.515 3594.23 398.853 3640.91 431.322C3802.35 544.248 3957.13 668.91 4086.22 818.347C4141.38 882.503 4187.67 953.571 4235.79 1022.94C4333.85 1162.73 4434.52 1303.69 4496.59 1464.21C4501.55 1477.17 4506.5 1490.21 4511.46 1503.33C4552.53 1612.61 4566.75 1729.32 4599.48 1841.07C4630.64 1933.52 4619.69 2033.02 4645.51 2126.77C4654.61 2266.62 4655.09 2406.89 4646.94 2546.79C4628.82 2633.24 4620.86 2722.44 4589.7 2805.76C4586.96 2818.8 4584.22 2831.84 4581.74 2845.66C4570.39 2875.45 4560.98 2905.94 4553.57 2936.94C4543.93 2966.67 4535.06 2996.66 4525.54 3026.53C4521.24 3039.57 4516.8 3052.61 4512.5 3065.65C4508.2 3078.69 4503.37 3091.73 4498.68 3104.77C4483.16 3142.19 4466.6 3179.22 4454.47 3217.95L4439.74 3211.17C4442.47 3219.85 4443.27 3229.02 4442.08 3238.03C4440.8 3247.08 4437.5 3255.73 4432.44 3263.33C4430.87 3271.02 4427.61 3286.54 4426.05 3294.37L4404.01 3293.45C4402.44 3308.67 4400.88 3324.05 4399.31 3339.61C4363.32 3407.55 4324.59 3474.06 4281.95 3538.47C4253.79 3575.25 4226.92 3612.93 4198.24 3649.31C4055.56 3819.98 3894.21 3974.12 3717.19 4108.84C3651.99 4154.35 3589.67 4205.07 3517.82 4239.24L3514.69 4244.45C3465.9 4264.63 3418.66 4288.34 3373.33 4315.39C3331.18 4339.66 3287.64 4361.43 3242.93 4380.59L3240.33 4387.37C3189.86 4406.28 3140.96 4429.36 3089.45 4445.79C3068.72 4452.44 3047.86 4458.83 3027.77 4467.44L2993.87 4469.91L2992.96 4480.61L2946.41 4486.08C2879.77 4509.29 2808.7 4513.47 2740.64 4530.42C2708.04 4533.55 2675.44 4535.24 2642.71 4535.9L2641.27 4545.68C2478.27 4549.46 2315.27 4555.59 2152.01 4543.85C2122.3 4535.29 2091.64 4530.38 2060.74 4529.25C2023.31 4519.47 1984.06 4516.21 1948.33 4499.65C1918.05 4499.11 1888.13 4493.01 1860.05 4481.65V4435.75L1867.61 4424.67C1875.96 4412.67 1884.04 4400.67 1892.13 4388.54C2010.79 4411.37 2130.24 4438.1 2252.03 4432.1C2276.6 4442.42 2301.83 4451.13 2327.53 4458.18L2352.18 4474.74L2369.39 4443.7C2469.93 4430.66 2576.72 4436.01 2670.87 4394.02L2695.91 4382.42L2703.6 4381.5C2802.18 4379.03 2893.46 4337.04 2985.79 4306.78C3082.8 4274.58 3172.52 4216.29 3276.71 4208.59C3310.74 4209.38 3344.78 4208.59 3378.81 4205.99C3345.3 4200.25 3311.39 4197.51 3278.01 4191.38C3305.66 4161 3349.08 4173 3384.94 4166.35C3411.26 4162.64 3437.37 4157.59 3463.18 4151.22C3464.87 4160.87 3468 4180.17 3469.57 4190.34C3488.47 4181.99 3507.38 4173.91 3525.51 4164.26C3520.81 4147.44 3514.95 4131.27 3509.34 4114.97C3586.54 4078.85 3654.47 4025.91 3720.2 3972.44C3804.17 3903.2 3867.81 3796.27 3850.59 3684.13C3890.89 3613.71 3956.61 3563.51 4001.6 3496.35C4065.2 3410.99 4123.64 3321.9 4176.59 3229.56C4204.37 3196.04 4236.71 3165.53 4256.14 3125.24C4284.69 3072.3 4294.08 3012.18 4303.21 2953.5C4452.78 2605.08 4485.77 2210.23 4408.57 1839.5C4370.76 1729.58 4348.46 1613.91 4295.78 1509.46C4237.1 1519.24 4176.59 1544.8 4117.13 1531.5C4036.28 1481.04 3966.91 1395.89 3964.17 1296.78C4008.43 1291.54 4053.01 1289.5 4097.57 1290.65L4120.78 1292.61L4146.86 1280.48L4165.9 1270.83L4118.3 1191.68C4083.62 1209.67 4045.28 1251.79 4003.81 1227.67C3980.73 1217.24 3984.64 1187.77 3977.73 1167.56C4013.07 1161.3 4048.54 1155.3 4084.01 1149.82C4026.24 1066.63 3954.91 994.386 3891.28 915.885C3886.58 936.88 3882.41 958.004 3877.06 978.738C3882.65 940.733 3883.35 902.17 3879.15 863.987C3873.54 850.947 3868.07 837.907 3862.85 824.867C3768.57 624.574 3530.99 489.741 3310.87 544.639C3341.78 536.033 3372.94 528.339 3404.11 520.515L3381.16 501.868C3421.19 499.782 3460.96 495.87 3500.99 492.61C3541.29 502.261 3580.59 515.708 3618.35 532.773C3617.57 526.513 3616.27 513.865 3615.48 507.475C3583.85 489.347 3550.31 474.783 3515.47 464.052C3431.62 428.584 3334.6 471.224 3252.32 427.019C3164.63 380.114 3074.53 337.85 2982.4 300.402C2977.57 278.886 2982.4 251.502 2961.92 236.767C2911.07 189.041 2835.96 205.21 2772.71 204.167L2747.42 225.552V192.561C2709.99 201.559 2670.74 208.601 2632.93 197.256C2556.9 176.783 2477.75 178.739 2399.77 174.045C2371.61 137.794 2336.4 105.846 2290.76 94.1101C2314.62 120.19 2342.92 142.488 2368.22 167.134L2329.88 175.61C2234.43 115.235 2113.55 92.4147 2006.36 134.664C1933.07 152.137 1874.39 201.689 1833.58 263.498C1742.3 281.754 1661.19 328.698 1577.61 366.253C1480.39 418.701 1386.93 477.826 1297.9 543.205C1236.22 593.8 1150.81 576.065 1079.35 601.363C983.768 627.443 887.142 664.215 816.335 736.195C778.389 764.492 744.876 797.874 709.799 829.431C628.49 891.029 568.12 976.168 536.891 1073.28C522.156 1113.18 532.066 1155.17 540.151 1195.2C535.456 1233.15 528.154 1271.88 538.325 1309.56C541.063 1322.6 545.104 1335.64 548.495 1348.68C480.18 1458.2 423.953 1574.8 380.802 1696.45C354.435 1705.35 329.49 1717.99 306.736 1734.01C313.517 1750.44 320.818 1766.61 328.642 1782.52C284.698 1826.98 235.928 1877.58 237.363 1944.87C234.725 1972.05 238.847 1999.46 249.36 2024.67C259.86 2050.03 276.428 2072.41 297.607 2089.87L279.352 2099.52C283.525 2107.47 287.567 2115.43 291.609 2123.51V2128.34C276.352 2196.54 279.352 2266.43 280.526 2335.67C274.788 2523.05 308.821 2709.27 357.982 2889.35C418.61 3113.17 515.095 3325.69 643.687 3518.65C700.671 3592.46 752.832 3671.61 823.638 3733.29C830.119 3785.63 841.025 3837.32 856.238 3887.81C856.238 3892.51 854.803 3902.03 854.282 3906.72C790.18 3844.68 730.69 3778.04 676.287 3707.34C651.38 3676.04 626.995 3644.1 604.045 3611.24C567.533 3564.29 534.282 3515 498.944 3467.8C443.938 3390.45 393.811 3309.75 348.855 3226.17C324.442 3175.28 302.977 3123.04 284.567 3069.69C277.656 3046.61 270.093 3023.79 263.442 3000.58C233.711 2897.43 210.109 2791.94 185.203 2687.62C155.61 2563.99 141.117 2437.23 142.042 2310.11C152.734 2166.67 158.08 2021.67 185.595 1879.8C189.376 1853.72 189.899 1827.64 201.113 1803.12C202.547 1795.82 205.154 1781.34 206.458 1774.17C226.54 1718.62 240.884 1661.12 262.791 1606.22C267.616 1593.18 272.572 1580.14 277.657 1567.88C299.695 1511.42 317.819 1453.52 340.639 1397.32C345.855 1384.28 351.332 1372.15 356.678 1359.63C377.542 1311.13 398.45 1262.83 419.401 1214.76C424.356 1201.72 429.441 1188.68 434.657 1176.55C450.781 1134.97 472.734 1095.9 499.856 1060.5L519.547 1029.46C655.553 818.086 836.938 638.266 1041.14 493.783C1155.09 418.337 1274.72 351.851 1398.96 294.925L1427.91 334.044L1449.55 325.829L1426.08 322.96C1410.3 277.321 1457.9 266.628 1491.28 263.498C1502.76 278.755 1514.36 293.881 1524.66 309.921L1537.7 306.791C1536.27 314.224 1533.53 329.22 1532.23 336.653L1546.83 337.696L1543.18 309.269C1526.75 290.361 1504.06 274.191 1501.45 246.938C1528.59 237.952 1556.48 231.406 1584.78 227.378V218.902C1604.34 210.948 1623.9 202.472 1643.07 193.735L1670.45 187.867C1724.57 162.57 1783.9 152.268 1839.19 130.1C1854.31 128.144 1869.57 126.449 1884.83 124.754V114.583C1900.08 113.279 1915.34 111.844 1930.6 110.149H1931.25ZM3822.04 683.906C3838.07 711.029 3869.63 730.979 3869.89 765.144L3879.54 761.884C3888.28 803.481 3898.06 844.948 3906.8 886.676L3919.84 885.894C3926.09 807.393 3882.28 732.023 3822.69 683.645L3822.04 683.906ZM3895.58 3688.69C3901.06 3755.46 3858.03 3810.22 3847.99 3873.47C3865.59 3876.08 3869.76 3854.43 3878.76 3843.87C3906.14 3797.58 3918.66 3739.55 3895.58 3688.69ZM2458.58 218.25C2485.58 214.599 2527.43 207.688 2538 241.461C2539.82 259.717 2547.12 287.753 2522.87 293.621C2498.61 299.489 2451.8 308.616 2439.94 275.625C2424.29 256.718 2438.89 225.553 2458.58 218.12V218.25ZM2431.72 334.305C2498.48 303.922 2593.94 357.125 2587.29 433.93C2582.72 467.312 2552.86 484.916 2523 492.088C2481.2 506.909 2438.68 519.617 2395.6 530.165C2351.26 542.292 2300.15 496.392 2316.19 450.752C2338.88 400.157 2384.25 361.559 2431.72 334.305ZM1110.52 368.209C1131.92 363.552 1153.82 361.494 1175.72 362.08C1060.18 430.67 945.039 503.954 848.935 598.755C858.193 583.367 867.582 567.981 876.971 552.594C909.964 499.783 954.559 455.187 1007.37 422.194C1039.92 401.043 1074.41 383.053 1110.39 368.47L1110.52 368.209ZM4314.16 1059.32C4342.98 1070.54 4383.93 1081.36 4390.84 1116.31C4456.04 1158.56 4486.42 1236.8 4514.59 1306.04C4521.51 1334.79 4523.71 1364.47 4521.11 1393.93L4534.93 1402.4H4512.11C4508.85 1387.41 4505.46 1372.41 4502.07 1357.55C4473.9 1315.17 4452.78 1268.88 4426.17 1225.58C4403.88 1186.46 4361.89 1153.47 4364.63 1105.23C4353.55 1101.35 4343.37 1095.28 4334.68 1087.4C4325.99 1079.52 4318.97 1069.97 4314.03 1059.32H4314.16ZM1235.7 1951.25C1256.69 1906.79 1297.12 1859.98 1351.89 1871.32C1381.62 1904.96 1425.04 1935.74 1427.52 1984.64C1429.99 2033.54 1385.66 2058.96 1352.54 2083.22C1333.37 2098.74 1302.59 2103.3 1284.47 2083.22C1251.87 2047.88 1217.44 2001.72 1235.7 1950.86V1951.25ZM36.0271 2402.04C49.8494 2362.93 58.7158 2317.42 97.1835 2295.12C106.181 2326.93 70.0616 2363.32 95.0983 2389.27C95.2004 2448.16 100.743 2506.91 111.658 2564.78L87.6646 2585.12C137.868 2590.34 120.787 2650.32 129.002 2683.97C113.565 2683.08 98.2281 2686.95 85.0573 2695.05L113.614 2691.27L111.398 2704.31C138.782 2711.09 147.257 2737.69 155.994 2760.9L129.914 2757.64C76.4502 2714.87 49.0661 2649.54 41.6334 2582.78C26.7679 2523.71 33.9401 2461.9 35.3745 2401.78L36.0271 2402.04ZM2623.8 3502.61C2653.27 3482.79 2703.99 3500.4 2707.25 3537.82C2712.6 3580.85 2656.27 3615.02 2620.93 3587.89C2590.42 3568.47 2597.2 3521.91 2623.8 3502.61ZM3003.91 3699.39C3038.13 3700.7 3070.64 3714.64 3095.19 3738.51C3126.62 3785.32 3107.06 3847 3077.46 3889.51C3023.73 3956.27 2937.93 3989.52 2854.74 3999.3C2813.92 4004.52 2757.46 3989.13 2755.76 3939.71C2741.94 3874.51 2786.01 3821.57 2824.09 3775.41C2866.47 3721.68 2937.67 3701.08 3003.65 3698.99L3003.91 3699.39ZM2651.83 3750.37C2703.08 3734.07 2726.68 3802.53 2700.6 3837.87C2682.74 3864.86 2644.27 3860.3 2617.67 3852.21C2577.12 3822.22 2606.19 3757.02 2651.83 3750.37ZM1784.42 3835.39C1778.92 3822.37 1778.55 3807.75 1783.39 3794.47C1788.23 3781.19 1797.91 3770.23 1810.5 3763.8C1831.98 3764.6 1853.37 3766.91 1874.52 3770.71C1877.53 3799.03 1876.34 3827.63 1871 3855.6C1842.32 3853.13 1796.03 3871.9 1783.77 3835.39H1784.42ZM854.021 3795.49L895.878 3793.01C932.651 3900.33 1006.59 3990.57 1092.65 4062.81C1156.29 4114.97 1223.05 4167.13 1302.59 4193.99C1354.75 4212.25 1410.17 4203.25 1464.03 4205.33C1424.91 4212.77 1385.79 4214.72 1347.71 4220.33C1397.65 4230.76 1449.29 4231.02 1498.71 4244.72C1466.64 4247.98 1434.56 4250.06 1402.61 4253.45C1449.42 4285.14 1506.93 4272.1 1559.09 4262.45C1654.02 4314.61 1758.34 4346.04 1861.48 4377.07C1857.83 4395.72 1854.31 4414.1 1851.18 4432.88C1849.36 4445.92 1847.79 4458.96 1846.49 4472L1794.33 4467.7L1796.15 4453.35H1748.43C1706.31 4436.14 1662.1 4424.67 1619.2 4410.06L1580.08 4395.33L1525.45 4372.9C1480.46 4351.9 1435.6 4330.52 1390.87 4309.26L1387.22 4303.26C1343.59 4282.66 1301.61 4258.73 1261.65 4231.68C1225.27 4206.77 1187.84 4183.69 1150.81 4159.69C1072.57 4109.23 1009.72 4038.29 935.781 3981.7L933.825 3978.05C903.964 3918.72 864.714 3862.52 854.151 3795.49H854.021ZM1807.63 3989C1812.32 3951.97 1836.45 3905.03 1879.48 3905.55C1933.07 3903.46 1999.97 3892.51 2040 3937.49C2064.12 3979.35 2041.7 4029.82 2040 4074.94C1989.67 4096.32 1925.25 4105.45 1878.96 4070.24C1849.88 4048.86 1821.06 4023.3 1807.63 3989ZM3174.73 4466.78L3195.34 4448.79C3174.21 4499.12 3119.18 4521.03 3077.07 4550.63C3007.29 4583.74 2933.65 4608.01 2857.87 4622.87C2817.18 4626.52 2778.06 4614.14 2738.42 4608.4L2686.26 4585.84C2732.29 4568.1 2777.54 4588.58 2823.57 4591.84C2808.84 4583.1 2793.97 4574.36 2778.97 4565.76C2809.36 4561.98 2841.17 4561.98 2870.25 4549.07C2890.07 4547.5 2910.15 4546.85 2930.24 4546.46L2927.63 4535.51C2980.7 4528.2 3030.38 4504.08 3084.11 4502.91C3112.04 4485.83 3142.56 4473.41 3174.47 4466.13L3174.73 4466.78Z" fill="#F05F00"/>
<path d="M2076.13 32.0411C2314.11 -20.1185 2563.3 -0.558643 2801.02 45.0811C2893.6 68.1617 2987.1 89.2864 3076.81 122.538C3155.05 148.618 3228.6 188.781 3311.53 200.778C3362.54 221.118 3412.04 245.041 3459.67 272.367C3502.05 299.881 3545.6 325.309 3588.63 351.78C3756.73 458.034 3913.04 581.871 4054.94 721.201C4140.22 808.177 4209.59 908.193 4277.79 1008.73C4430.62 1047.85 4529.2 1197.16 4557.11 1345.16C4571.45 1409.71 4551.37 1476.47 4565.45 1540.76C4571.19 1557.71 4576.41 1574.79 4582.14 1591.88C4584.62 1604.92 4587.23 1619.13 4590.1 1632.82C4610.96 1709.89 4624.26 1789.3 4646.3 1865.84C4648.78 1888.14 4651.26 1910.44 4654.25 1932.74C4666.51 2027.93 4689.59 2121.95 4693.37 2218.18C4698.59 2370.62 4700.55 2524.75 4668.86 2674.58C4664.56 2696.1 4661.04 2717.87 4655.82 2739.78C4624.78 2844.1 4599.62 2948.42 4561.93 3050.78C4544.85 3105.42 4525.03 3159.27 4504.17 3212.61C4494.38 3233.99 4485 3255.77 4475.74 3277.81C4459.83 3313.14 4443.14 3348.09 4426.19 3382.91C4378.63 3471.02 4324.22 3555.26 4263.45 3634.84C4159.91 3770.32 4037.07 3889.9 3910.07 4002.96C3799.98 4097.15 3683.04 4183.01 3560.21 4259.84C3480.14 4296.61 3405.55 4343.43 3329.27 4387.11C3301.49 4401.98 3273.72 4416.58 3246.07 4431.58C3212.56 4518.95 3122.06 4569.28 3041.74 4608.27C2939.11 4652.74 2820.06 4680.38 2713.26 4631.35C2693.18 4617.01 2674.14 4601.23 2653.41 4587.93C2417.78 4611.4 2177.19 4605.4 1945.99 4550.76C1931.52 4547.89 1917.18 4545.29 1902.7 4542.68C1886.01 4537.07 1868.93 4532.51 1851.98 4528.2C1791.21 4510.6 1729.01 4497.17 1670.59 4472.52L1643.73 4465.74C1630.69 4460 1617.65 4454.53 1604.61 4449.18C1570.53 4436.14 1536.71 4422.71 1503.16 4408.89C1378.2 4351.72 1258.81 4283.1 1146.52 4203.9C1084.58 4161.91 1035.16 4104.8 974.128 4061.64C719.198 3867.34 527.772 3605.24 356.297 3337.66C326.374 3287.92 300.221 3236 278.058 3182.35C247.544 3116.37 229.549 3045.7 208.034 2976.58C192.907 2922.73 180.65 2868.09 162.394 2815.28C97.1942 2793.9 54.0324 2734.95 27.431 2674.45C-2.82158 2590.6 -2.16876 2500.37 3.8296 2412.74C7.61543 2376.15 18.6534 2340.69 36.2989 2308.42L65.2471 2281.17C81.4166 2268.13 104.366 2255.09 106.713 2232.14C113.494 2162.76 103.324 2091.3 120.797 2023.5C124.448 1992.85 126.535 1962.08 129.143 1931.3C147.268 1853.07 155.222 1773.13 186.909 1699.06C188.474 1692.02 191.864 1678.2 193.559 1671.16C199.036 1658.12 204.382 1645.08 209.598 1632.04C229.81 1574.92 250.674 1518.07 273.233 1462.52C295.01 1410.36 314.179 1357.03 335.695 1304.61C345.605 1283.35 354.993 1261.97 364.251 1240.45C382.507 1201.33 400.504 1162.21 420.846 1124.92C487.108 1004.75 565.777 891.865 655.564 788.096C698.726 734.632 749.712 688.471 796.656 638.528C803.767 612.874 813.377 587.979 825.344 564.2C898.889 445.798 1017.29 342.522 1159.69 325.179C1190.2 319.963 1221.5 325.178 1251.88 319.31C1326.73 285.016 1398.84 244.461 1475.78 214.991C1491.94 207.819 1508.24 200.908 1524.41 193.867C1580.49 171.177 1637.86 152.139 1693.93 129.319L1721.97 122.929C1735.01 117.453 1748.05 112.106 1762 106.891C1825.9 84.4619 1893.83 74.6819 1957.6 49.7756C1978.18 48.4715 1998.83 48.4715 2019.41 49.7756C2012.63 44.2989 2006.11 38.6916 1999.85 32.954C2025.28 33.8449 2050.75 33.3659 2076.13 31.5194V32.0411ZM1931.91 110.281C1916.65 111.976 1901.4 113.41 1886.14 114.714V124.885C1870.88 126.58 1855.63 128.276 1840.5 130.232C1785.21 152.4 1725.88 162.701 1671.76 187.998L1644.38 193.867C1625.08 202.603 1605.26 211.079 1586.09 219.033V227.51C1557.79 231.538 1529.91 238.084 1502.77 247.07C1505.24 274.323 1528.06 290.493 1544.49 309.4L1548.15 337.827L1533.54 336.784C1534.85 329.351 1537.58 314.356 1539.02 306.923L1525.98 310.052C1515.68 294.013 1504.07 278.887 1492.6 263.63C1458.69 266.76 1411.1 277.452 1427.4 323.092L1450.87 325.961L1429.22 334.176L1400.27 295.056C1276.04 351.982 1156.4 418.468 1042.46 493.915C837.731 638.528 656.346 818.218 520.861 1029.59L500.258 1060.24C473.136 1095.64 451.184 1134.71 435.059 1176.29C429.843 1189.33 424.757 1201.72 419.802 1214.5C398.851 1262.75 377.944 1311.04 357.08 1359.37C351.734 1372.41 346.258 1384.41 341.042 1397.06C318.222 1453.26 300.095 1511.16 278.058 1567.62C272.972 1580.66 268.017 1593.7 263.192 1605.96C241.285 1660.86 226.942 1718.36 206.86 1773.91C205.556 1781.09 202.948 1795.56 201.514 1802.86C190.299 1826.86 189.778 1853.72 185.997 1879.54C158.483 2020.89 153.137 2166.41 142.444 2309.85C141.264 2436.77 155.495 2563.35 184.824 2686.84C209.86 2791.16 233.463 2895.48 263.063 2999.8C269.714 3023.01 277.277 3045.83 284.188 3068.91C302.598 3122.26 324.061 3174.5 348.474 3225.39C393.43 3308.97 443.557 3389.67 498.563 3467.02C533.901 3514.87 567.154 3564.16 603.666 3610.45C626.616 3643.32 651 3675.65 675.906 3706.56C730.341 3777.35 789.875 3844.08 854.031 3906.2L852.989 3914.55C878.306 3937.22 905.143 3958.13 933.313 3977.14L935.27 3980.79C1009.21 4037.38 1071.67 4108.32 1150.3 4158.78C1187.33 4182.78 1224.76 4205.86 1261.14 4230.76C1301.09 4257.82 1343.08 4281.75 1386.71 4302.35L1390.36 4308.35C1435.09 4329.61 1479.95 4350.99 1524.93 4371.99L1580.22 4393.89L1618.17 4409.02C1661.07 4423.62 1705.28 4435.1 1747.4 4452.31H1795.12L1793.3 4466.66L1845.46 4470.96C1846.76 4457.92 1848.33 4444.88 1850.15 4431.84L1867.49 4423.23L1859.93 4434.32V4480.22C1888.01 4491.58 1917.93 4497.68 1948.21 4498.21C1983.94 4514.25 2023.19 4518.03 2060.62 4527.81C2091.52 4528.95 2122.18 4533.85 2151.89 4542.42C2314.76 4554.15 2477.89 4548.02 2641.15 4544.24L2642.59 4534.46C2675.32 4534.46 2707.79 4532.12 2740.52 4528.99C2808.58 4512.03 2879.65 4507.86 2946.29 4484.65L2992.84 4479.17L2993.75 4468.48L3027.65 4466C3047.74 4457.4 3068.6 4451.01 3089.33 4444.36C3141.49 4427.93 3189.74 4405.24 3240.21 4385.94L3242.81 4379.16C3287.52 4360 3331.06 4338.23 3373.21 4313.96C3418.54 4286.9 3465.78 4263.2 3514.57 4243.02L3517.7 4237.8C3589.54 4203.12 3652.01 4152.39 3717.07 4107.41C3893.85 3972.99 4055.07 3819.25 4197.73 3649.05C4226.41 3612.67 4253.28 3574.99 4281.44 3538.21C4323.82 3473.8 4362.55 3407.81 4398.8 3339.36C4400.37 3323.88 4401.93 3308.49 4403.5 3293.19L4425.53 3294.11C4427.1 3286.28 4430.36 3270.76 4431.92 3263.07C4436.99 3255.47 4440.29 3246.82 4441.57 3237.77C4442.76 3228.76 4441.96 3219.59 4439.22 3210.91L4453.96 3217.69C4466.09 3178.57 4482.65 3141.93 4498.17 3104.51C4502.86 3091.47 4507.42 3078.43 4511.99 3065.39C4516.55 3052.35 4520.99 3039.31 4525.03 3026.27C4534.55 2996.41 4543.42 2966.41 4553.06 2936.68C4560.47 2905.68 4569.88 2875.19 4581.23 2845.4C4583.71 2832.36 4586.45 2819.32 4589.18 2805.5C4620.61 2722.18 4628.3 2632.98 4646.43 2546.53C4654.73 2406.77 4654.43 2266.63 4645.52 2126.9C4619.44 2033.15 4630.65 1933.65 4599.49 1841.2C4566.76 1729.45 4552.54 1612.74 4511.47 1503.47L4496.6 1464.35C4435.05 1303.82 4334.38 1162.86 4235.8 1023.07C4187.69 953.702 4141.39 882.635 4086.23 818.478C3957.14 669.041 3802.36 544.64 3640.92 431.454C3594.24 398.984 3548.34 363.646 3494.88 342.783C3488.68 334.285 3480.42 327.508 3470.88 323.092C3461.33 318.752 3450.81 316.998 3440.37 318.006C3425.63 283.32 3383.38 277.713 3350.13 278.887C3337.09 291.927 3323.27 303.532 3309.45 315.399C3322.49 296.36 3337.74 278.105 3352.22 259.588C3336.18 255.154 3320.27 250.721 3304.49 246.548C3258.65 224.295 3211.64 204.532 3163.66 187.347L3162.75 181.348C3104.59 164.005 3045.39 149.27 2988.41 129.189L2932.59 124.625L2959.59 115.497C2933.85 115.903 2908.17 113.011 2883.17 106.891C2572.17 27.7382 2240.44 24.0868 1931.26 110.281H1931.91ZM1110.4 368.862C1074.42 383.445 1039.93 401.435 1007.38 422.587C954.57 455.579 909.974 500.175 876.982 552.986C867.593 568.373 858.204 583.76 848.946 599.147C945.05 504.347 1060.19 431.062 1175.73 362.473C1153.83 361.886 1131.93 363.944 1110.53 368.601L1110.4 368.862ZM4313 1058.93C4317.94 1069.58 4324.96 1079.13 4333.65 1087.01C4342.34 1094.89 4352.52 1100.96 4363.59 1104.84C4360.86 1153.08 4402.71 1186.46 4425.14 1225.19C4451.22 1268.49 4472.87 1314.78 4501.04 1357.16C4504.43 1372.02 4507.81 1387.02 4511.07 1402.01H4533.76L4519.94 1393.54C4522.54 1364.08 4520.34 1334.4 4513.42 1305.65C4485.26 1236.41 4454.22 1158.17 4389.67 1115.92C4383.15 1080.84 4342.21 1070.02 4313.39 1058.8L4313 1058.93ZM35.9073 2402.05C34.4729 2462.16 27.3007 2523.97 42.1662 2583.04C49.5989 2649.8 76.983 2715.13 130.447 2757.91L156.526 2761.17C147.79 2737.95 139.313 2711.35 111.929 2704.57L114.147 2691.53L85.5885 2695.31C98.7593 2687.21 114.096 2683.34 129.533 2684.23C121.318 2650.46 138.401 2590.6 88.1975 2585.39L112.19 2565.04C101.276 2507.17 95.7317 2448.42 95.6295 2389.53C70.5929 2363.45 106.714 2327.2 97.7164 2295.38C58.5966 2317.68 50.3806 2363.84 36.5583 2402.31L35.9073 2402.05ZM3174.09 4467.57C3142.18 4474.84 3111.65 4487.26 3083.73 4504.34C3029.61 4505.51 2979.41 4529.64 2927.25 4536.94L2929.85 4547.89C2909.77 4547.89 2889.69 4548.94 2869.87 4550.5C2841.44 4563.54 2809.63 4563.54 2778.59 4567.19C2793.59 4575.28 2808.45 4583.88 2823.19 4593.27C2777.03 4590.01 2731.91 4569.54 2685.88 4587.27L2738.04 4609.83C2777.16 4615.57 2816.28 4627.96 2857.48 4624.31C2933.27 4609.45 3006.91 4585.18 3076.68 4552.07C3118.8 4522.47 3173.83 4500.56 3194.96 4450.22L3174.35 4468.22L3174.09 4467.57ZM2747.82 225.684L2773.12 204.298C2836.36 205.342 2911.47 189.172 2962.33 236.898C2982.54 251.633 2977.97 279.017 2982.8 300.533C2963.34 315.875 2943.1 330.195 2922.16 343.434C2894.15 348.317 2865.45 347.568 2837.73 341.232C2810.01 334.896 2783.83 323.099 2760.73 306.532C2752.89 294.725 2747.65 281.392 2745.34 267.412C2743.11 253.452 2743.91 239.176 2747.69 225.553L2747.82 225.684ZM2765.29 240.941C2769.86 261.283 2778.33 289.319 2805.46 286.059L2792.42 291.927C2833.47 309.552 2878.59 315.509 2922.81 309.139C2926.47 290.934 2933.36 273.533 2943.16 257.762C2931.41 249.738 2918.06 244.355 2904.04 241.984C2861 217.99 2809.76 222.685 2765.68 240.941H2765.29ZM3310.62 544.771C3530.74 489.873 3768.32 624.705 3862.6 824.998C3867.82 838.038 3873.29 851.078 3878.9 864.118C3883.1 902.301 3882.4 940.864 3876.81 978.87C3847.21 1065.45 3769.76 1125.96 3687.47 1159.6C3466.58 1241.88 3182.05 1130 3100.68 902.064C3086.85 816.044 3100.16 727.852 3138.75 649.742C3168.09 603.711 3219.21 577.631 3268.37 557.55C3281.41 552.986 3295.89 548.813 3309.97 544.51L3310.62 544.771ZM3263.29 603.581C3177.74 641.005 3144.49 736.849 3130.28 822.13C3130.28 852.382 3130.28 891.502 3165.36 901.673C3169.13 922.118 3175.57 941.979 3184.52 960.744C3200.82 1006.12 3243.07 1034.03 3280.24 1061.28C3392.64 1132.35 3536.08 1168.99 3665.05 1122.96C3749.67 1085.67 3832.87 1014.08 3838.35 915.365C3825.31 803.874 3749.02 690.035 3629.71 672.301L3652.14 644.656L3624.1 631.617C3515.35 572.155 3377.78 542.424 3262.89 603.059L3263.29 603.581ZM3821.92 683.385C3881.51 731.763 3925.32 806.612 3919.06 885.373L3906.02 886.156C3897.29 844.428 3887.51 802.961 3878.77 761.364L3869.12 764.623C3869.77 729.937 3838.48 709.986 3821.92 682.863V683.385ZM1114.05 701.38C1186.19 691.931 1259.56 699.799 1328.06 724.334C1396.56 748.869 1458.24 789.365 1507.98 842.472C1578.92 912.887 1615.95 1011.99 1624.56 1110.57C1629.78 1239.41 1555.45 1355.72 1468.99 1445.18C1351.64 1570.1 1195.16 1675.2 1017.55 1679.11C881.677 1668.29 746.582 1598.13 672.776 1481.04C606.403 1385.85 595.711 1262.36 614.358 1150.61C630.136 1055.67 683.99 974.045 740.975 898.935C830.95 784.966 973.346 723.026 1114.05 701.38ZM792.483 911.714C736.803 962.569 706.942 1033.25 675.124 1099.49C641.612 1198.72 633.526 1314.91 689.337 1408.01L688.425 1411.27C756.624 1544.8 905.539 1639.08 1056.54 1626.17C1188.77 1608.7 1305.34 1531.63 1397.27 1438.27C1479.56 1361.85 1553.75 1265.49 1567.71 1150.61C1581.79 1050.72 1515.55 941.967 1413.18 921.755C1414.62 907.672 1416.18 893.719 1417.75 879.636C1442.52 891.893 1467.3 904.021 1492.47 915.365C1482.03 899.717 1478.25 874.681 1456.34 871.551C1420.69 832.807 1377.05 802.253 1328.45 781.992C1279.85 761.732 1227.43 752.247 1174.81 754.192C1031.37 749.758 893.672 814.175 792.873 913.018L792.483 911.714ZM1730.7 1094.27C1737.39 1119.88 1737.75 1146.73 1731.75 1172.51L1737.62 1180.08L1726.92 1181.12C1722.72 1234.47 1709.07 1286.66 1686.63 1335.25C1662.77 1418.84 1595.35 1473.86 1530.15 1526.55C1566.27 1466.04 1630.17 1425.75 1653.64 1357.03C1687.67 1293 1702.93 1222.32 1723.4 1153.47C1725.36 1133.39 1727.57 1113.44 1730.18 1093.49L1730.7 1094.27ZM3344.39 1193.38C3358.61 1198.2 3372.82 1203.42 3387.17 1208.63C3401.64 1210.2 3416.24 1211.89 3430.98 1213.85C3493.7 1233.41 3561.38 1226.89 3626.58 1220.89C3649.53 1209.55 3675.61 1210.85 3700.65 1210.72V1196.9L3712.64 1197.68L3699.6 1220.89C3584.33 1263.53 3456.67 1250.1 3344.26 1205.24V1193.38H3344.39ZM600.145 1528.63C652.304 1641.56 769.663 1706.76 887.935 1727.62C968.913 1750.57 1053.54 1742.23 1135.69 1749.92C1033.46 1766.61 925.098 1774.17 827.168 1733.88C730.282 1698.02 632.613 1631 599.492 1528.63H600.145ZM3755.15 1571.79C3826.65 1551.08 3902.05 1547.64 3975.13 1561.75C4034.88 1575.7 4089.74 1605.55 4133.9 1648.13C4178.07 1690.72 4209.9 1744.45 4226.02 1803.64C4279.09 1973.16 4190.95 2167.2 4037.34 2251.3C3934.71 2303.46 3813.96 2301.12 3703.77 2279.73C3628.4 2269.3 3580.03 2206.19 3538.69 2149.33C3511.83 2112.82 3488.36 2071.09 3488.36 2024.8C3475.32 1929.87 3471.27 1825.03 3523.69 1740.4C3571.94 1653.42 3665.05 1605.18 3755.15 1572.32V1571.79ZM3609.76 1696.59C3505.44 1776.39 3509.87 1920.35 3520.56 2037.97C3526.17 2129.25 3600.24 2194.45 3674.3 2237.35C3765.58 2255.35 3861.43 2270.6 3951.79 2242.83C3991.53 2232.69 4028.21 2213.05 4058.69 2185.62C4089.17 2158.18 4112.54 2123.76 4126.79 2085.31C4150 1974.73 4094.06 1865.06 4018.69 1787.6C3970.18 1733.88 3903.02 1705.32 3836.91 1680.03H3816.83C3816.05 1675.85 3814.35 1666.99 3813.44 1663.6C3878.64 1686.68 3946.84 1701.93 4006.82 1737.79L4037.47 1710.41C4029.12 1725.27 4011.39 1747.44 4031.6 1761.39C4064.76 1795.73 4095.27 1832.52 4122.88 1871.45C4134.09 1848.37 4145.44 1825.16 4157.17 1802.34C4151.17 1833.47 4142.45 1864.02 4131.09 1893.62C4149.1 1939.83 4161.75 1987.96 4168.78 2037.06C4209.59 1931.96 4212.59 1798.82 4131.22 1711.71C4118.18 1713.67 4108.92 1724.75 4098.23 1732.19L4102.93 1680.03C4041.64 1620.82 3955.97 1591.22 3871.86 1587.57C3774.71 1592.96 3682.19 1630.8 3609.1 1695.02L3609.76 1696.59ZM2062.44 1779.78C2116.43 1675.46 2232.87 1625.65 2344.75 1614.04C2297.55 1632.56 2247.35 1644.17 2203.92 1671.55C2151.76 1701.15 2109.25 1743.27 2062.44 1779.78ZM2132.33 1808.47C2273.04 1660.86 2514.01 1616.39 2694.35 1715.62C2758.26 1750.94 2811.22 1803.17 2847.42 1866.58C2883.62 1929.99 2901.68 2002.15 2899.6 2075.13C2897.91 2203.58 2829.19 2326.81 2727.48 2403.48C2652.89 2462.16 2557.96 2489.15 2464.07 2492.54C2402.15 2488.56 2341.01 2476.59 2282.16 2456.94C2247.48 2435.3 2211.49 2415.61 2178.63 2391.74C2087.35 2314.42 2024.36 2198.49 2030.36 2076.7C2023.19 1977.08 2068.44 1881.1 2133.9 1808.99L2132.33 1808.47ZM2250.61 1766.87C2179.02 1797.25 2128.42 1862.32 2098.43 1932.09C2072.35 1958.17 2078.35 1995.07 2088.78 2027.28C2074.28 2049.87 2067.01 2076.34 2067.92 2103.17C2078.61 2196.41 2120.99 2288.99 2195.06 2348.84C2269.77 2412.74 2368.88 2440.12 2464.98 2448.6C2551.18 2439.99 2642.32 2420.04 2709.87 2362.27C2783.42 2304.79 2832.55 2221.66 2847.44 2129.51C2842.49 2067.05 2833.1 2000.68 2797.24 1946.95C2807.83 1949.83 2817.59 1955.17 2825.73 1962.53C2833.86 1969.9 2840.14 1979.08 2844.05 1989.33C2827.49 1859.98 2715.74 1761.39 2597.47 1720.58C2481.41 1688.76 2358.45 1718.23 2251.13 1765.96L2250.61 1766.87ZM329.436 1783.95L352.386 1775.22C389.68 1768.44 437.667 1777.04 451.62 1817.6C484.872 1891.53 456.314 1972.9 422.15 2040.71C432.973 2045.27 453.576 2039.93 453.707 2056.62L449.794 2062.09C433.755 2082.7 419.411 2104.61 403.763 2125.6L390.723 2133.16C383.681 2136.81 369.859 2144.38 362.817 2148.16C338.954 2140.99 314.962 2135.12 290.577 2129.38V2124.56C286.535 2116.47 282.492 2108.52 278.319 2100.56C304.683 2118.96 332.763 2134.77 362.166 2147.77C384.073 2125.86 405.588 2103.69 426.452 2081L404.807 2057.14C382.378 2096.26 335.304 2095.35 296.575 2090.91C275.396 2073.46 258.828 2051.07 248.328 2025.71C237.815 2000.51 233.693 1973.09 236.331 1945.91C235.027 1878.62 283.796 1828.55 327.61 1783.56L329.436 1783.95ZM299.052 1857.11L328.653 1882.4C302.573 1897.01 284.317 1921.52 263.453 1943.82C262.54 1986.33 273.234 2028.71 306.747 2057.27H355.646C388.246 2023.11 416.934 1980.6 420.846 1932.61C416.803 1906.53 407.805 1868.06 374.684 1866.24L388.767 1861.67L427.886 1881.36C429.675 1862.49 425.636 1843.52 416.309 1827.01C406.983 1810.5 392.818 1797.25 375.727 1789.04C345.971 1806.91 319.506 1829.76 297.487 1856.59L299.052 1857.11ZM4303.35 2084.52C4322.39 2201.88 4220.94 2288.34 4129.27 2339.58C4116.23 2342.45 4103.19 2345.06 4090.15 2347.67C4197.34 2300.07 4281.83 2201.1 4302.96 2084.52H4303.35ZM678.254 2229.14C761.448 2135.12 922.23 2119.21 1020.29 2199.67C1021.2 2207.49 1023.16 2223.01 1024.2 2230.83C1019.25 2220.27 1014.29 2209.71 1009.47 2199.15C982.345 2187.54 954.961 2176.45 927.838 2165.11C878.938 2167.2 828.213 2159.11 781.139 2175.93C742.801 2185.06 711.114 2208.79 678.254 2229.14ZM791.049 2231.35C857.944 2220.14 930.054 2222.75 990.559 2257.43C1110.4 2317.42 1206.5 2435.3 1218.11 2571.56C1222.6 2616.27 1216.7 2661.41 1200.86 2703.46C1185.03 2745.51 1159.69 2783.34 1126.83 2813.98C999.818 2934.07 769.533 2920.64 662.215 2780.2C584.888 2686.58 576.281 2554.22 601.057 2439.86C621.79 2342.71 698.335 2264.74 790.527 2232.01L791.049 2231.35ZM686.73 2348.71C652.957 2395.13 640.569 2453.03 634.57 2508.84L652.694 2499.85C682.556 2454.86 708.766 2404.65 760.665 2381.18C718.504 2420.79 683.247 2467.15 656.346 2518.36C654.39 2567 650.347 2616.42 659.475 2664.54C671.081 2702.49 694.944 2734.82 715.287 2768.86C744.91 2796.22 778.497 2818.95 814.912 2836.28C955.221 2900.56 1137.65 2796.37 1165.69 2647.59C1175.99 2584.73 1171.55 2516.41 1136.74 2461.51C1108.96 2410.39 1066.58 2351.84 1001.51 2354.06L1024.33 2329.8C988.733 2307.64 953.787 2282.99 913.103 2270.99C831.473 2244.91 736.932 2280.9 687.25 2349.23L686.73 2348.71ZM3522 2271.52C3555.38 2323.68 3613.28 2349.76 3666.61 2375.84C3696.45 2380.66 3725.6 2389.02 3753.46 2400.74C3777.45 2402.57 3801.57 2404.52 3825.44 2408.3C3795.31 2415.74 3753.46 2430.21 3730.38 2401.92C3685.91 2403.74 3645.62 2384.96 3606.37 2366.71C3574.55 2338.8 3533.08 2315.72 3522 2271.65V2271.52ZM871.896 2336.72C911.016 2311.68 958.481 2322.5 1002.3 2320.81L1004.51 2341.02C960.438 2339.45 916.493 2338.41 872.549 2336.72H871.896ZM2354.27 2365.01C2417 2388.48 2490.02 2394.74 2552.74 2368.01C2552.63 2371.24 2552.85 2374.48 2553.39 2377.66C2521.55 2391.59 2487.26 2399.03 2452.52 2399.57C2417.77 2400.11 2383.27 2393.72 2351.01 2380.79C2351.01 2377.27 2352.58 2368.79 2353.36 2364.88L2354.27 2365.01ZM2132.6 2492.67C2145.64 2503.76 2158.68 2515.1 2171.72 2526.45C2212.01 2567.91 2270.69 2578.61 2324.93 2589.69C2376.31 2599.21 2427.17 2612.9 2479.2 2617.99C2524.71 2623.72 2568.65 2601.3 2614.16 2609.12C2492.76 2661.28 2358.32 2628.16 2238.22 2590.21C2194.55 2568.76 2158.23 2534.81 2133.9 2492.67H2132.6ZM3971.87 2713.05C3960.01 2597.64 4067.85 2499.06 4178.69 2496.45C4217.02 2509.49 4256.93 2521.49 4287.31 2550.44C4319.06 2581.16 4337.56 2623.06 4338.87 2667.22C4340.19 2711.37 4324.21 2754.3 4294.35 2786.85C4240.78 2825.03 4175.76 2843.71 4110.1 2839.8C4039.94 2844.62 3969.14 2785.81 3971.87 2713.05ZM4004.21 2683.71C3993.65 2730 4027.69 2776.68 4071.24 2790.11C4114.53 2805.76 4159.13 2771.21 4201.64 2790.11C4251.45 2772.25 4297.35 2730.39 4299.44 2674.32C4304.65 2619.29 4264.49 2573.65 4219.11 2549.01C4210.63 2555.92 4202.29 2563.09 4194.21 2570.39C4247.67 2609.51 4241.8 2689.45 4222.24 2745.78C4216.5 2690.62 4231.89 2630.64 4193.16 2583.56C4184.29 2573 4175.95 2561.91 4168.13 2550.57C4152.61 2547.18 4137.09 2544.31 4121.57 2542.09C4091.4 2553.33 4064.7 2572.26 4044.11 2597.01C4023.52 2621.77 4009.77 2651.47 4004.21 2683.19V2683.71ZM2867.39 2866.27C2919.55 2825.97 2983.71 2786.07 3052.95 2800.02C3143.32 2807.59 3237.08 2867.05 3255.33 2960.54C3268.37 3068.65 3186.87 3177.14 3082.81 3204.39C2978.5 3218.87 2868.7 3172.18 2813.8 3080.9C2795.28 3007.1 2805.98 2917.64 2867.39 2866.27ZM2927.64 2855.57C2913.16 2866.27 2898.69 2877.22 2884.48 2888.17C2862.18 2927.29 2832.32 2966.41 2837.79 3014.27C2837.79 3057.04 2875.87 3087.68 2910.95 3105.55C2887.87 3135.28 2939.11 3150.54 2960.63 3157.71C3007.44 3164.49 3058.69 3176.49 3103.03 3153.93C3142.85 3135.03 3174.96 3103.01 3193.95 3063.23C3212.95 3023.46 3217.68 2978.36 3207.34 2935.51L3208.91 2932.64L3190.26 2898.08L3151.14 2911.12C3146.23 2893.66 3134.6 2878.85 3118.8 2869.92C3090.08 2852.89 3057.76 2842.84 3024.45 2840.58C2991.13 2838.32 2957.75 2843.9 2926.99 2856.88L2927.64 2855.57ZM1096.57 2905.65C1127.61 2876.44 1161.77 2850.36 1191.11 2819.58C1186.1 2841.9 1174.34 2862.14 1157.42 2877.53C1140.51 2892.93 1119.26 2902.75 1096.57 2905.65ZM641.611 2833.67C689.989 2890.78 763.535 2913.21 831.734 2937.2C888.979 2957.02 950.266 2947.37 1009.34 2954.81C994.211 2960.68 978.824 2965.63 963.698 2971.11C877.764 2983.1 794.179 2942.94 715.939 2912.69C684.774 2892.87 655.172 2869.4 641.741 2833.67H641.611ZM3992.87 2861.96C4018.54 2865.99 4043.43 2873.95 4066.68 2885.57L4113.62 2890.52C4099.03 2897.32 4083.45 2901.72 4067.46 2903.56C4043.07 2888.96 4017.51 2876.31 3992.87 2862.49V2861.96ZM3984.91 3242.86C3984.91 3214.3 4005.13 3176.36 4039.03 3190.7C4070.46 3194.09 4067.72 3227.86 4071.5 3251.34L4056.76 3277.42L4013.86 3280.02C4004.08 3266.98 3994.17 3255.38 3984.91 3242.73V3242.86ZM4009.04 3256.68L4050.9 3259.81C4056.5 3228.78 4048.55 3200.87 4011.78 3197.22C4010.47 3217.04 4009.56 3236.34 4008.91 3256.68H4009.04ZM983.778 3368.56C1026.55 3333.62 1077.93 3306.36 1135.04 3311.45C1158.12 3320.19 1181.99 3327.23 1204.94 3336.36C1181.16 3338.04 1157.33 3334.01 1135.43 3324.62L1094.23 3322.01C1061.83 3334.77 1030.59 3350.3 1000.86 3368.43H983.778V3368.56ZM895.368 3593.76C939.965 3456.32 1089.66 3336.75 1237.93 3389.56C1394.4 3446.28 1506.68 3580.72 1595.09 3715.56C1648.94 3804.1 1681.54 3915.07 1649.86 4017.17C1625.86 4105.32 1555.06 4183.43 1464.82 4204.81C1410.97 4202.73 1355.29 4211.73 1303.39 4193.47C1224.1 4167.39 1157.08 4115.23 1093.44 4062.29C1007.38 3990.05 933.445 3899.81 896.672 3792.49C878.054 3727.48 877.603 3658.62 895.368 3593.37V3593.76ZM1107.4 3427.5C1047.67 3433.5 1014.42 3494.14 1006.08 3547.86C993.451 3633.21 1000.45 3720.3 1026.55 3802.53C1043.37 3856.78 1086.79 3896.68 1131.65 3928.63L1118.61 3936.97C1065.83 3884.83 1022.07 3824.28 989.125 3757.81C987.299 3751.29 983.518 3738.38 981.693 3731.73C960.959 3668.48 976.477 3601.33 967.088 3536.13C915.841 3632.36 924.969 3749.59 967.088 3847.13C989.81 3895.53 1024.06 3937.62 1066.84 3969.7C1144.3 4044.29 1230.23 4111.71 1330.64 4152.26C1375.05 4156.96 1419.8 4157.48 1464.3 4153.83C1497.42 4135.05 1533.67 4118.75 1558.84 4088.63C1584.01 4058.51 1599.52 4017.82 1614.26 3980.01L1597.83 3996.18C1570.97 4013.13 1543.84 4029.95 1516.98 4047.16C1446.7 4057.72 1376.15 4067.11 1304.95 4059.03C1261.4 4043.38 1213.67 4031.9 1182.38 3994.74C1191.77 4000.09 1201.15 4005.43 1210.67 4010.52C1271.05 4029.04 1333.9 4044.68 1397.66 4037.77C1471.34 4029.43 1553.23 4009.08 1596.78 3943.49C1601.62 3920.57 1604.98 3897.35 1606.83 3873.99C1586.87 3780.76 1532.5 3699.52 1470.43 3628.97C1421.53 3574.73 1378.5 3511.61 1311.6 3478.1C1252.4 3437.15 1180.03 3405.6 1106.88 3425.94L1107.4 3427.5ZM3487.05 3613.85C3527.68 3590.37 3572.72 3575.54 3619.35 3570.29C3665.98 3565.04 3713.19 3569.48 3758.02 3583.33C3804.05 3597.54 3834.96 3637.19 3851.91 3680.61C3868.99 3792.75 3805.36 3899.68 3721.51 3968.92C3656.31 4022.39 3587.85 4075.33 3510.65 4111.45C3473.36 4126.31 3435.15 4138.31 3398.12 4153.44C3351.83 4153.44 3301.49 4161.26 3259.63 4137.01C3230.15 4120.98 3204.93 4098.12 3186.08 4070.36C3167.23 4042.59 3155.29 4010.72 3151.27 3977.4C3155.84 3903.46 3198.09 3835.26 3255.59 3789.36C3330.83 3728.2 3401.77 3660.4 3487.7 3613.85H3487.05ZM3587.2 3626.1C3501.13 3657.14 3424.98 3711.12 3358.09 3772.8C3310.1 3815.31 3246.47 3844.39 3216.21 3903.98C3194.96 3939.84 3203.17 3982.22 3203.17 4022.52C3232.51 4057.98 3264.33 4099.58 3312.97 4106.75C3396.68 4124.36 3473.88 4077.41 3542.73 4036.08C3647.05 3974.66 3754.63 3899.03 3797.4 3780.36C3802.49 3747.5 3810.44 3711.12 3793.23 3680.35C3779.15 3644.62 3740.16 3631.84 3708.47 3616.45C3728.66 3664.49 3732.37 3717.86 3719.03 3768.24C3692.17 3821.44 3656.05 3869.44 3612.36 3909.98L3595.8 3933.58C3595.8 3926.67 3595.15 3912.59 3595.02 3905.55C3634.14 3860.95 3677.69 3815.18 3695.04 3756.5C3702.73 3719.08 3705.47 3671.09 3672.61 3644.49C3647.44 3630.28 3616.67 3615.02 3587.46 3626.1H3587.2ZM3530.87 3972.44C3530.46 3978.13 3529.72 3983.79 3528.65 3989.39C3448.45 4050.29 3335.4 4069.85 3241.77 4028.51C3340.74 4041.55 3445.98 4029.43 3530.47 3972.57L3530.87 3972.44ZM2262.6 4035.56C2301.72 4022.52 2344.88 4003.35 2387 4016.78C2439.16 4032.56 2491.32 4053.94 2543.48 4070.76C2605.56 4090.58 2658.79 4131.44 2693.96 4186.3C2698.01 4233.63 2701.92 4286.83 2665.67 4323.61C2588.73 4415.93 2454.94 4419.58 2348.93 4382.68C2277.34 4353.86 2200.53 4307.05 2183.58 4226.2C2160.76 4156.44 2190.36 4066.2 2261.82 4038.16L2262.6 4035.56ZM2243.17 4084.32C2231.57 4114.45 2233.52 4147.05 2233.78 4178.73L2205.1 4149C2216.57 4184.21 2219.44 4223.98 2243.04 4253.97C2278.58 4298.62 2327.85 4330.29 2383.22 4344.08C2399.66 4356.24 2419.27 4363.36 2439.68 4364.55C2480.5 4365.21 2527.18 4372.25 2560.43 4342.78C2574.39 4337.3 2588.21 4331.3 2601.64 4324.65C2633.07 4317.61 2614.68 4291.53 2596.03 4280.84L2625.37 4269.36C2631.37 4246.02 2647.02 4222.29 2639.98 4197.64C2608.29 4142.61 2545.05 4122.27 2489.24 4101.28C2445.94 4086.02 2406.56 4060.59 2361.71 4049.9C2321.02 4046.38 2270.43 4051.46 2243.17 4084.72V4084.32ZM3114.24 4071.28C3163.14 4117.45 3206.95 4178.6 3278.28 4189.69C3311.66 4195.82 3345.57 4198.55 3379.08 4204.29C3345.05 4206.9 3311.01 4207.68 3276.98 4206.9C3204.74 4189.3 3154.53 4129.83 3114.24 4071.28ZM2132.47 4268.45C2161.81 4317.61 2191.8 4370.29 2242.39 4400.54C2278.25 4420.23 2317.63 4432.49 2355.06 4448.92L2327.8 4456.48C2302.1 4449.44 2276.88 4440.73 2252.3 4430.4C2190.75 4395.59 2155.81 4332.34 2132.47 4268.06V4268.45Z" fill="#2A1C13"/>
<path d="M2291.55 93.7197C2337.19 105.456 2372.4 137.404 2400.56 173.654C2411.02 203.474 2413.85 235.438 2408.78 266.629C2394.57 233.769 2383.48 199.604 2369.66 166.743C2343.58 142.098 2316.07 120.06 2292.2 93.7197H2291.55ZM2003.24 167.917C2086.56 141.055 2180.97 139.751 2260.26 180.957C2218.53 185.912 2176.67 188.389 2134.94 193.084C2158.67 200.02 2182.74 205.722 2207.05 210.166C2135.2 206.645 2061.4 206.906 1993.33 233.377C1954.99 207.297 1918.74 257.892 1880.4 265.846C1903.48 215.643 1953.56 186.824 2003.24 168.438V167.917ZM2765.42 240.94C2809.5 222.685 2860.74 217.99 2903.77 241.984C2870.39 255.023 2838.58 271.323 2805.59 286.058C2778.07 289.318 2769.99 261.283 2765.42 240.94ZM1910.92 442.016C1889.38 447.24 1866.67 444.137 1847.33 433.329C1827.98 422.52 1813.44 404.804 1806.6 383.727C1802.01 369.769 1801.02 354.877 1803.73 340.435C1819.77 392.594 1868.54 414.632 1910.92 442.016ZM3263.68 603.841C3378.56 543.206 3516.13 572.937 3624.88 632.399L3596.98 669.562C3534.78 660.174 3472.84 644.786 3409.46 646.873L3410.51 622.227L3358.35 603.581C3360.17 615.838 3361.87 628.095 3363.69 640.353C3311.53 657.957 3257.55 676.604 3218.3 716.897C3180.22 751.844 3162.49 801.657 3146.58 849.383C3140.97 840.385 3135.5 831.388 3130.02 822.39C3144.23 737.109 3177.48 641.266 3263.03 603.841H3263.68ZM793.265 911.974C894.063 813.132 1032.29 748.715 1175.2 753.148C1279.52 751.062 1386.71 791.486 1456.74 870.508C1412.92 859.293 1373.02 836.865 1329.47 824.477C1280.04 817.044 1230.88 831.127 1183.16 842.863C1248.36 850.165 1315.25 844.167 1376.15 871.029C1295.56 879.505 1213.67 868.943 1134 886.025C1004.38 910.279 870.071 953.963 777.487 1052.81C733.282 1100.92 690.25 1167.69 715.417 1235.36C709.679 1293.26 706.419 1351.94 689.337 1408.01C633.526 1314.91 641.612 1198.72 675.124 1099.49C707.594 1033.25 737.455 962.569 792.483 911.713L793.265 911.974ZM1642.95 885.895C1675.55 904.411 1700.84 935.837 1695.11 975.739C1662.77 956.962 1649.73 920.581 1642.95 885.634V885.895ZM3297.71 1019.81C3258.59 994.647 3221.69 954.615 3245.55 904.411C3272.54 937.663 3284.67 979.26 3297.71 1019.55V1019.81ZM3573.51 1024.77C3630.36 1011.73 3679.13 977.826 3732.33 955.137C3708.08 998.951 3667.13 1030.51 3631.01 1063.5C3610.93 1082.28 3582.76 1067.8 3559.03 1067.41C3531.13 1087.23 3501.39 1108.36 3465.01 1100.92L3470.1 1087.88C3471.53 1083.45 3474.53 1074.84 3476.1 1070.15C3468.67 1068.32 3460.94 1068.06 3453.41 1069.37C3445.91 1070.76 3438.8 1073.74 3432.54 1078.1C3394.21 1086.97 3337.48 1072.23 3321.05 1031.55C3405.03 1034.81 3490.57 1047.72 3573.51 1024.51V1024.77ZM3795.18 1156.47C3824.52 1129.22 3844.47 1084.1 3888.55 1079.28C3870.43 1112.13 3845.49 1140.72 3815.4 1163.12L3795.18 1156.47ZM931.359 1521.59C976.866 1540.92 1025.42 1552.09 1074.8 1554.58C1034.9 1593.31 953.787 1570.75 931.359 1521.2V1521.59ZM3610.67 1695.54C3683.75 1631.32 3776.28 1593.48 3873.42 1588.09C3957.53 1591.75 4042.94 1621.35 4104.49 1680.55L4099.8 1732.71C4110.49 1725.53 4119.36 1714.19 4132.79 1712.23C4214.16 1799.34 4211.03 1932.48 4170.34 2037.58C4163.31 1988.48 4150.67 1940.35 4132.66 1894.14C4144.01 1864.54 4152.74 1833.99 4158.74 1802.86C4147 1825.68 4135.66 1848.89 4124.44 1871.97C4096.84 1833.04 4066.32 1796.25 4033.16 1761.92C4012.3 1747.96 4030.69 1725.8 4039.03 1710.93L4008 1738.31C3948.01 1702.45 3879.81 1687.2 3814.61 1664.12C3815.53 1668.16 3817.22 1676.37 3818 1680.55C3748.63 1679.11 3678.48 1679.11 3610.93 1697.11L3610.67 1695.54ZM2629.02 1622C2668.14 1601.79 2631.11 1665.42 2629.02 1622V1622ZM2250.87 1767.52C2358.19 1719.8 2481.15 1690.33 2597.21 1722.14C2715.48 1762.96 2827.23 1861.54 2843.79 1990.9C2839.88 1980.64 2833.6 1971.46 2825.47 1964.1C2817.33 1956.73 2807.57 1951.39 2796.98 1948.52C2764.51 1914.48 2737.39 1871.32 2691.36 1854.24C2616.25 1822.68 2534.88 1801.3 2452.72 1808.6C2377.48 1811.73 2309.29 1846.41 2239.78 1871.19C2178.1 1871.19 2138.07 1921.26 2098.3 1961.04V1932.74C2128.29 1862.98 2178.89 1797.91 2250.48 1767.52H2250.87ZM2441.12 1758C2425.73 1769.48 2441.12 1802.73 2459.64 1789.04C2474.5 1777.43 2459.64 1744.31 2441.12 1757.61V1758ZM2984.36 1763.35C2994.27 1729.71 3026.48 1720.71 3058.3 1726.32C3042 1751.35 3011.09 1755.4 2984.36 1762.96V1763.35ZM300.227 1855.67C322.246 1828.84 348.711 1806 378.466 1788.13C395.557 1796.34 409.721 1809.59 419.047 1826.09C428.374 1842.6 432.415 1861.57 430.626 1880.45L391.506 1860.76L377.422 1865.32C361.644 1870.15 345.865 1875.62 330.217 1880.97L300.227 1855.67ZM690.249 2347.54C739.931 2279.21 834.472 2243.22 916.102 2269.3C956.786 2281.3 991.733 2305.94 1027.33 2328.11L1004.38 2352.1C1004.38 2349.36 1003.47 2343.63 1003.21 2340.89L1000.99 2320.68C957.829 2322.37 909.712 2311.55 870.592 2336.59L847.903 2355.23L790.527 2356.54C781.53 2364.23 772.531 2371.92 763.664 2379.75C711.504 2403.22 685.426 2453.42 655.695 2498.41L637.569 2507.41C643.567 2451.21 655.955 2393.7 689.729 2347.28L690.249 2347.54ZM536.249 2653.85C551.636 2644.59 568.588 2670.67 557.373 2682.93C541.856 2692.71 524.643 2666.63 536.249 2654.37V2653.85ZM1057.85 2751.78C1097.32 2719.17 1134.32 2683.69 1168.55 2645.63C1140.52 2794.42 958.09 2898.61 817.78 2834.32C781.366 2816.99 747.778 2794.26 718.155 2766.9C721.415 2746.04 724.675 2725.04 727.804 2704.18L797.959 2773.42C766.272 2778.25 802.523 2813.19 806.044 2781.25L815.434 2790.24L828.474 2802.37C868.839 2805.89 909.381 2806.94 949.874 2805.5L968.653 2789.07C990.951 2762.99 1023.94 2753.99 1057.32 2751.78H1057.85ZM1010.51 2765.86C1012.47 2784.11 1021.07 2787.51 1036.59 2776.03C1034.9 2758.17 1025.77 2755.43 1010.51 2766.38V2765.86ZM4253.54 2860.27C4257.78 2853.9 4264.25 2849.34 4271.68 2847.49C4279.1 2845.63 4286.96 2846.61 4293.7 2850.23V2868.74C4275.71 2877.87 4262.14 2875 4253.02 2860.27H4253.54ZM2881.61 2888.43C2895.82 2877.48 2910.3 2866.53 2924.77 2855.83L2977.84 2875.26C2951.76 2892.65 2925.16 2909.52 2898.04 2925.86C2894 2916.99 2885.65 2898.87 2881.61 2888.96V2888.43ZM4150.52 2885.04C4163.56 2868.61 4201.12 2884.26 4184.03 2904.47C4170.99 2921.16 4133.96 2905 4150.52 2885.83V2885.04ZM2737.52 3063.82C2775.85 3068.65 2812.63 3106.07 2782.5 3143.63C2764.88 3118.6 2749.8 3091.86 2737.52 3063.82ZM3267.85 3172.97C3259.07 3170.99 3251.29 3165.93 3245.93 3158.7C3240.57 3151.47 3237.98 3142.56 3238.64 3133.58C3239.49 3124.55 3243.59 3116.12 3250.19 3109.88C3256.79 3103.65 3265.43 3100.02 3274.5 3099.68C3273.07 3124.07 3270.72 3148.84 3267.85 3173.49V3172.97ZM823.779 3733.68L842.948 3721.42C846.469 3746.07 849.467 3770.98 854.031 3795.49C864.594 3862.52 903.844 3918.72 933.705 3978.05C905.534 3959.04 878.696 3938.13 853.379 3915.46L854.423 3907.11C854.423 3902.42 855.858 3892.9 856.379 3888.2C841.166 3837.71 830.26 3786.02 823.779 3733.68ZM2540.09 4036.21C2574.52 4023.17 2608.68 4041.68 2641.41 4051.2C2641.41 4057.85 2641.41 4071.02 2640.63 4077.28C2609.47 4058.34 2575.55 4044.35 2540.09 4035.82V4036.21ZM2388.7 4290.49C2457.29 4300.4 2530.44 4310.31 2596.03 4280.97C2615.07 4291.66 2633.07 4317.74 2601.64 4324.78C2530.44 4331.17 2444.38 4347.34 2388.7 4290.49Z" fill="#F64F00"/>
<path d="M2007.14 134.405C2114.33 92.1556 2235.21 114.976 2330.66 175.35C2367.04 223.989 2371.09 298.969 2319.97 339.132C2244.99 392.726 2151.36 414.763 2061.26 425.456C1988.49 429.629 1902.3 425.456 1850.01 367.298C1822.89 339.392 1830.84 297.925 1834.36 262.978C1875.18 201.169 1933.86 151.618 2007.14 134.144V134.405ZM2003.23 167.787C1953.55 186.173 1903.47 214.992 1880.39 265.195C1918.73 257.241 1954.98 206.516 1993.32 232.726C1938.81 249.548 1877.92 289.58 1881.18 353.997C1992.02 414.111 2130.5 394.421 2238.08 337.045C2277.2 321.528 2309.8 266.76 2277.98 229.987C2257.06 215.916 2232.25 208.757 2207.04 209.515C2182.73 205.071 2158.66 199.369 2134.93 192.433C2176.66 187.738 2218.52 185.26 2260.25 180.305C2180.96 139.621 2086.55 141.186 2003.23 167.265V167.787ZM2266.37 399.506C2294.28 383.728 2322.45 368.08 2351.66 354.649C2334.44 390.9 2294.8 405.244 2264.03 427.281C2264.03 420.37 2265.72 406.548 2266.37 399.506ZM3201.08 486.222C3300.31 444.625 3411.15 457.795 3515.86 463.011C3550.7 473.742 3584.25 488.305 3615.88 506.434C3616.66 512.823 3617.96 525.472 3618.75 531.731C3580.98 514.667 3541.69 501.219 3501.39 491.568C3412.19 473.965 3316.87 472.399 3229.76 500.566C3196.88 520.668 3162.68 538.53 3127.4 554.029C3150.46 529.754 3175.16 507.098 3201.34 486.222H3201.08ZM3359.25 602.408L3411.41 621.055L3410.37 645.7C3343.73 674.518 3266.93 695.773 3222.33 756.8C3179.43 814.698 3179.43 891.242 3185.82 959.831C3176.93 941.043 3170.48 921.191 3166.65 900.761C3131.31 890.589 3131.44 851.47 3131.57 821.217C3137.05 830.215 3142.53 839.212 3148.14 848.21C3164.04 800.484 3181.78 750.671 3219.85 715.724C3258.97 675.431 3313.35 656.784 3365.25 639.18C3363.42 626.922 3361.73 614.665 3359.9 602.408H3359.25ZM1008.81 661.087C1075.31 639.441 1145.85 636.442 1215.23 635.008C1126.69 667.607 1029.67 669.563 943.345 709.335C857.021 749.107 755.049 785.618 706.931 875.854L712.148 828.389C747.225 796.833 780.738 763.19 818.684 735.154C882.189 710.9 943.997 681.951 1008.81 661.217V661.087ZM1437.3 722.114L1469.77 727.721C1495.85 752.627 1529.62 774.143 1540.05 811.046C1503.54 783.141 1472.64 749.628 1436.65 722.114H1437.3ZM3045.64 729.155C3052.16 761.605 3052.16 795.027 3045.64 827.476C3029.99 796.572 3036.64 761.103 3044.99 729.155H3045.64ZM1184.71 842.733C1232.44 830.997 1281.6 816.653 1331.02 824.347C1374.57 836.735 1414.48 859.163 1458.29 870.378C1480.2 873.507 1484.37 898.544 1494.41 914.192C1469.24 902.847 1444.47 890.72 1419.69 878.463C1418.13 892.546 1416.56 906.498 1415.13 920.582C1236.61 882.635 1042.58 904.543 884.535 998.821C796.255 1046.03 728.056 1133.78 716.972 1234.84C691.805 1167.43 734.837 1100.66 779.042 1052.28C871.626 953.442 1005.94 909.758 1135.55 885.504C1215.23 868.422 1297.12 878.984 1377.71 870.508C1316.81 843.646 1249.26 849.644 1184.71 842.342V842.733ZM542.368 1194.81C553.843 1147.48 565.71 1100.01 580.575 1053.46C584.226 1141.22 542.759 1222.19 540.542 1309.17C530.371 1271.49 537.673 1232.76 542.368 1194.81ZM3434.88 1077.45C3441.14 1073.09 3448.25 1070.11 3455.75 1068.71C3463.28 1067.41 3471.01 1067.67 3478.44 1069.5C3476.87 1073.93 3473.87 1082.54 3472.44 1087.23L3434.88 1077.45ZM3671.69 1539.33C3689.16 1518.59 3716.54 1519.24 3741.06 1515.72L3745.23 1528.76C3720.96 1533.8 3696.4 1537.28 3671.69 1539.2V1539.33ZM4177.77 1593.44C4189.5 1601.4 4200.98 1609.61 4212.71 1617.83C4211.41 1626.43 4208.93 1643.91 4207.63 1651.99C4192.6 1635.57 4182.21 1615.46 4177.5 1593.7L4177.77 1593.44ZM2653.66 1631.52C2681.69 1635.99 2708.93 1644.51 2734.51 1656.82C2791.88 1692.02 2867.38 1712.63 2899.07 1777.17C2848.35 1754.75 2810.14 1712.89 2762.02 1685.89C2727.86 1663.86 2687.69 1653.56 2653.66 1631.52ZM1230.35 1701.54C1247.96 1674.55 1273.39 1649.38 1307.03 1667.64C1285.17 1679.92 1264.78 1694.67 1246.26 1711.58L1230.35 1701.54ZM2443.07 1754.61C2461.32 1741.57 2476.45 1774.04 2461.58 1785.65C2443.2 1798.95 2427.03 1766.35 2442.41 1754.88L2443.07 1754.61ZM492.686 1844.98C511.464 1847.85 509.637 1897.14 489.816 1898.71C485.496 1890.3 483.473 1880.89 483.949 1871.45C484.289 1862.16 487.077 1853.11 492.034 1845.24L492.686 1844.98ZM2926.98 1837.81C2947.04 1853.8 2962.15 1875.15 2970.55 1899.39C2978.96 1923.63 2980.3 1949.75 2974.44 1974.73C2951.88 1931.96 2943.8 1883.45 2926.98 1837.81ZM1770.21 1854.5C1779.07 1843.03 1811.41 1843.55 1809.33 1862.19C1799.68 1873.67 1767.47 1873.41 1769.55 1854.76L1770.21 1854.5ZM2099.86 1957.65C2138.98 1918.53 2179.66 1867.67 2241.34 1867.8C2180.96 1909.15 2129.66 1962.4 2090.6 2024.28C2080.16 1992.07 2073.91 1955.56 2100.25 1929.09V1957.39L2099.86 1957.65ZM3179.3 2179.32L3231.46 2184.67L3187.64 2197.71L3188.69 2222.49C3219.2 2225.89 3248.29 2237.21 3273.06 2255.35C3197.56 2242.31 3129.62 2198.75 3050.34 2210.36L3036.51 2193.93C3087.24 2185.71 3134.83 2207.75 3184.52 2212.84L3179.82 2179.06L3179.3 2179.32ZM1981.71 2289.25C1968.67 2264.34 1952.24 2238 1959.15 2208.4C1974.46 2237.41 1992.59 2264.84 2013.27 2290.29L1981.71 2289.25ZM1175.06 2343.5C1234.27 2397.87 1284.86 2474.68 1272.99 2558.66C1255.78 2520.45 1251.48 2477.29 1229.05 2441.3C1208.83 2409.93 1190.79 2377.21 1175.06 2343.37V2343.5ZM544.846 2440.77C537.676 2498.37 537.019 2556.59 542.89 2614.34L519.548 2613.55C519.548 2555.79 497.772 2486.28 544.846 2440.77ZM4127.69 2458.64C4143.86 2455.25 4160.16 2451.47 4176.46 2447.82C4195.76 2455.64 4215.58 2463.2 4234.75 2470.77H4185.85C4145.56 2472.85 4105.26 2475.85 4064.84 2474.03C4085.57 2467.9 4106.44 2462.55 4127.69 2457.99V2458.64ZM1970.24 2493.2C1988.1 2486.02 2006.1 2478.85 2024.09 2471.94C2017.7 2481.2 2005.06 2499.98 1998.01 2509.36C2014.18 2504.02 2030.35 2498.54 2046.26 2492.8L2062.82 2491.63C1999.71 2565.18 1910.12 2618.38 1872.05 2710.83C1874 2629.59 1950.29 2580.43 2004.79 2531.27C1993.19 2518.23 1981.32 2505.19 1969.59 2493.2H1970.24ZM2716.64 2534.14C2741.7 2518.08 2767.84 2503.79 2794.88 2491.37C2791.42 2504.44 2785.1 2516.58 2776.37 2526.91C2767.64 2537.24 2756.73 2545.5 2744.42 2551.09C2721.08 2557.74 2697.73 2564.13 2674.13 2569.74C2687.96 2557.48 2702.04 2545.49 2716.77 2534.14H2716.64ZM2847.04 2841.36C2880.95 2761.43 2977.44 2742.13 3055.68 2746.17C3019.66 2764.03 2981.08 2776.18 2941.32 2782.16C2903.5 2789.46 2877.43 2819.58 2847.69 2841.36H2847.04ZM1013.76 2763.12C1029.15 2751.52 1037.88 2754.91 1039.84 2773.29C1023.8 2785.42 1015.19 2781.51 1013.24 2763.77L1013.76 2763.12ZM808.774 2778.51C805.253 2810.46 769.654 2775.51 800.689 2770.68L808.774 2778.51ZM3112.93 2778.51C3125.97 2770.55 3153.48 2785.03 3147.61 2801.59C3134.31 2809.28 3107.06 2795.59 3112.4 2779.16L3112.93 2778.51ZM817.901 2787.9C869.148 2787.9 920.395 2787.9 971.642 2786.72L952.864 2803.15C912.371 2804.59 871.828 2803.55 831.463 2800.02L818.423 2787.9H817.901ZM3152.05 2908L3191.17 2894.96L3209.81 2929.51L3208.25 2932.38C3190.66 2963.6 3177.16 2996.95 3168.08 3031.61C3162.61 2990.54 3158.17 2949.2 3151.52 2908.26L3152.05 2908ZM3063.9 3111.16C3096.5 3099.55 3121.4 3073.99 3148.79 3053.52C3139.01 3073.99 3135.75 3100.33 3114.1 3112.72C3067.68 3146.76 3007.82 3136.32 2954.23 3135.8C2955.79 3140.63 2958.93 3150.54 2960.36 3155.36C2938.84 3148.32 2887.6 3133.06 2910.68 3103.2C2960.75 3113.9 3013.17 3122.76 3063.9 3111.03V3111.16ZM2842.22 3194.61C2860.8 3203.57 2878.91 3213.5 2896.46 3224.34C2923.67 3226.43 2950.97 3228.3 2978.35 3229.95C2979.53 3235.69 2981.88 3247.16 2982.92 3252.9C2930.76 3251.6 2870.51 3245.47 2842.22 3194.61ZM1437.95 3433.5C1503.15 3472.62 1544.75 3540.17 1586.86 3601.72L1572.13 3611.11C1537.83 3544.73 1482.42 3493.36 1437.95 3433.5ZM3515.47 3546.3C3593.71 3500.14 3695.16 3481.1 3781.48 3517.22C3810.69 3532.88 3837.62 3552.45 3861.55 3575.38C3831.43 3562.34 3802.35 3547.08 3773.14 3532.09C3707.48 3510.08 3636.48 3509.76 3570.63 3531.17C3542.46 3546.3 3514.03 3560.64 3484.96 3573.55C3495 3564.42 3505.17 3555.3 3515.47 3546.3ZM3896.23 3688.04C3919.32 3738.64 3906.8 3796.93 3879.41 3843.22C3870.42 3853.78 3866.37 3875.43 3848.64 3872.82C3858.68 3809.57 3901.71 3754.81 3896.23 3688.04ZM1691.44 3782.06C1726.26 3828.61 1730.57 3889.38 1718.31 3944.67C1696.92 3894.07 1692.23 3837.74 1691.44 3782.45V3782.06ZM2216.17 3990.7C2266.11 3954.97 2328.44 3974.79 2385.69 3968.92C2435.24 3963.45 2493.14 3979.35 2516.09 4027.34C2487.63 4012.14 2458.38 3998.48 2428.46 3986.4C2371.48 3978.57 2313.71 3983.14 2256.47 3984.96L2208.35 4016.78L2216.17 3990.7ZM2730.07 4172.48C2741.81 4206.38 2759.81 4240.28 2756.15 4276.79C2746.77 4314.74 2722.51 4346.82 2703.99 4380.33L2696.3 4381.24L2671.26 4392.85C2693.32 4364.06 2712.04 4332.87 2727.08 4299.88C2745.59 4259.58 2733.2 4214.33 2730.73 4172.08L2730.07 4172.48ZM1498.85 4244.33C1548.27 4241.07 1592.08 4216.42 1637.59 4199.73C1616.46 4226.38 1589.41 4247.72 1558.57 4262.06C1506.41 4271.71 1449.56 4284.75 1402.09 4253.06C1434.04 4249.67 1466.12 4247.59 1498.19 4244.33H1498.85ZM2382.69 4344.08C2441.16 4356.5 2501.62 4356.05 2559.9 4342.78C2526.65 4372.25 2479.97 4365.21 2439.15 4364.55C2418.74 4363.36 2399.12 4356.25 2382.69 4344.08Z" fill="#5A5046"/>
<path d="M2330.66 175.22L2369 166.744C2383.47 199.605 2395.08 233.769 2408.12 266.63C2413.19 235.439 2410.36 203.475 2399.9 173.655C2478.14 178.35 2556.38 176.394 2633.06 196.866C2670.87 208.211 2710.12 201.169 2747.55 192.172V225.684C2743.77 239.307 2742.97 253.583 2745.2 267.542C2747.51 281.523 2752.75 294.856 2760.59 306.662C2775.06 330.525 2784.71 360.126 2807.53 377.208C2839.87 385.684 2873.77 383.598 2907.02 384.902C2911.98 371.079 2916.93 357.388 2922.02 343.565C2943.01 330.525 2962.84 315.66 2982.66 300.664C3074.79 338.112 3164.89 380.376 3252.58 427.281C3334.86 471.487 3431.88 428.846 3515.73 464.315C3411.41 459.099 3300.18 445.928 3200.94 487.526C3109.66 445.407 3008.87 419.718 2908.59 433.541C2835.7 444.103 2754.72 432.367 2691.87 478.398C2618.71 518.952 2563.94 594.323 2559.9 679.213C2566.16 710.378 2598.24 727.591 2622.49 744.412C2703.6 790.704 2789.53 831.519 2881.21 851.992C2925.15 862.293 2971.05 862.945 3014.6 875.203C3029.18 904.833 3041.26 935.627 3050.72 967.264L3075.24 956.311L3056.59 929.188C3065.29 911.106 3074.28 892.98 3083.58 874.811C3089.58 883.809 3095.71 892.676 3101.58 901.804C3182.3 1129.74 3466.7 1241.62 3688.38 1159.34C3770.66 1125.7 3848.12 1065.19 3877.72 978.609C3883.06 957.876 3887.23 936.751 3891.93 915.757C3955.56 993.996 4026.89 1066.5 4084.66 1149.69C4049.19 1155.34 4013.77 1161.25 3978.38 1167.43C3985.69 1187.64 3981.77 1217.11 4004.46 1227.54C4045.93 1251.66 4084.27 1209.55 4118.95 1191.55L4166.55 1270.7L4147.51 1280.35C4088.83 1254.27 4022.72 1245.41 3963.13 1273.83C4008.72 1275.54 4054.09 1281.13 4098.74 1290.52C4054.19 1289.37 4009.61 1291.42 3965.34 1296.65C3968.08 1395.63 4037.45 1480.78 4118.3 1531.37C4177.76 1544.41 4238.27 1519.11 4296.95 1509.33C4349.11 1613.65 4371.93 1729.45 4409.75 1839.37C4487.2 2209.84 4453.95 2604.95 4304.38 2953.37C4301.51 2925.47 4297.34 2897.82 4294.99 2869.92V2851.4C4294.99 2830.15 4293.95 2809.02 4293.3 2787.9C4323.16 2755.34 4339.13 2712.42 4337.82 2668.26C4336.5 2624.1 4318 2582.2 4286.26 2551.48C4256.52 2522.54 4215.97 2510.41 4177.63 2497.5L4183.63 2474.55H4232.53C4213.1 2466.99 4193.41 2459.42 4174.24 2451.6C4157.94 2455.25 4141.64 2459.03 4125.47 2462.42C4108.83 2459.33 4092.5 2454.7 4076.71 2448.6C4074.93 2427.16 4079.21 2405.65 4089.08 2386.53C4098.95 2367.42 4114.01 2351.46 4132.52 2340.5C4223.8 2289.25 4325.64 2202.41 4306.6 2085.44C4285.47 2202.01 4200.97 2300.99 4093.79 2348.58C4075.66 2316.24 4057.28 2283.38 4038.89 2251.7C4192.5 2167.59 4280.65 1973.55 4227.58 1804.04C4211.45 1744.84 4179.62 1691.11 4135.46 1648.53C4091.29 1605.94 4036.43 1576.1 3976.69 1562.15C3903.6 1548.03 3828.2 1551.47 3756.71 1572.19C3752.53 1559.15 3748.36 1545.06 3743.67 1531.5L3739.49 1518.46L3736.36 1509.99C3700.76 1503.07 3663.21 1503.21 3629.96 1487.82C3602.05 1443.35 3592.01 1378.28 3533.98 1361.72C3457.44 1338.64 3381.81 1294.96 3299.27 1306.95C3215.16 1315.56 3132.88 1362.9 3092.58 1438.66C3064.16 1491.6 3068.98 1553.41 3063.63 1611.31C2999.09 1602.31 2972.35 1533.07 2914.07 1512.85C2876.25 1500.73 2837.26 1514.68 2800.23 1522.5C2762.15 1502.94 2724.99 1479.47 2682.87 1469.43C2621.58 1458.22 2558.86 1469.43 2500.31 1488.08C2480.62 1417.01 2491.7 1327.95 2427.68 1277.35C2430.42 1343.34 2478.01 1409.45 2453.76 1474C2406.42 1424.84 2413.33 1349.07 2374.74 1294.57C2343.83 1242.41 2286.59 1217.11 2233.51 1194.29C2240.56 1110.18 2288.54 1030.64 2267.42 944.706C2257.12 856.425 2172.62 811.568 2107.55 765.537C2067.38 741.022 2048.35 695.252 2012.49 666.303C1963.85 642.44 1908.17 642.049 1856.92 625.358C1798.5 609.188 1746.08 567.982 1682.97 573.198C1601.47 577.24 1521.27 594.323 1441.47 610.623C1379.01 622.88 1318.5 594.714 1256.04 596.54C1197.49 598.496 1138.68 602.277 1080.13 602.668C1151.59 577.371 1236.61 595.105 1298.68 544.511C1387.61 478.839 1480.98 419.408 1578.13 366.646C1661.71 328.569 1743.08 282.147 1834.1 263.891C1830.58 298.577 1822.63 340.044 1849.75 368.211C1901.91 425.977 1988.23 430.542 2060.99 426.369C2151.1 415.676 2244.73 393.638 2319.71 340.044C2370.82 299.881 2366.78 224.902 2330.4 176.263L2330.66 175.22ZM2458.32 218.643C2438.63 226.076 2424.03 257.763 2439.67 276.149C2451.54 309.14 2496.01 300.403 2522.61 294.144C2546.86 288.146 2539.56 260.11 2537.73 241.984C2527.17 208.211 2485.57 215.122 2458.32 218.773V218.643ZM2431.46 334.959C2383.99 362.212 2339.14 400.81 2315.93 451.405C2299.89 497.045 2351 542.685 2395.34 530.818C2438.42 520.27 2480.94 507.562 2522.74 492.742C2552.6 485.57 2582.46 467.966 2587.03 434.584C2593.68 357.779 2498.22 303.924 2431.46 334.959ZM1910.65 442.017C1868.14 414.633 1819.37 393.117 1803.07 340.436C1799 362.268 1803.35 384.829 1815.22 403.596C1827.09 422.362 1845.62 435.946 1867.09 441.625C1881.38 445.274 1896.36 445.274 1910.65 441.625V442.017ZM2266.11 400.68C2266.11 407.722 2264.42 421.544 2263.77 428.455C2294.54 406.417 2334.18 392.074 2351.39 355.823C2322.18 368.863 2294.02 384.902 2266.11 400.68ZM2129.32 434.584C2101.29 443.19 2116.28 481.136 2142.36 464.445C2173.66 459.36 2153.97 420.24 2129.32 434.323V434.584ZM3796.09 1157.65L3816.3 1164.3C3846.39 1141.89 3871.34 1113.3 3889.45 1080.45C3845.38 1085.28 3825.43 1130.39 3796.09 1157.65ZM3345.04 1192.59V1204.46C3457.44 1249.32 3585.1 1262.75 3700.37 1220.11L3713.41 1196.9L3701.42 1196.12V1209.94C3676.38 1209.94 3650.3 1208.76 3627.35 1220.11C3562.15 1226.5 3495 1233.15 3431.75 1213.07C3417.02 1211.11 3402.41 1209.42 3387.94 1207.85C3373.59 1202.64 3359.38 1197.42 3345.17 1192.59H3345.04ZM4078.01 1231.71C4079.57 1250.36 4114.78 1256.75 4130.17 1249.97C4132.65 1226.63 4093.14 1219.33 4078.01 1231.71ZM2503.96 1412.32C2498.35 1440.61 2507.61 1469.56 2540.86 1470.08C2525.74 1461.35 2534.47 1390.8 2503.96 1412.32ZM4176.59 1594.88C4181.18 1616.69 4191.48 1636.9 4206.45 1653.42C4207.76 1644.82 4210.23 1627.34 4211.54 1619.26C4199.8 1610.65 4188.33 1602.44 4176.59 1594.88ZM4272.3 2496.32C4262.13 2511.84 4285.34 2535.44 4301.51 2525.53C4313.12 2509.5 4288.47 2484.72 4272.3 2495.93V2496.32ZM3229.89 501.218C3317 473.052 3412.45 475.138 3501.51 492.22C3461.48 495.48 3421.71 499.392 3381.68 501.479L3404.63 520.126C3373.46 527.949 3342.3 535.643 3311.39 544.249C3297.31 548.031 3283.49 552.204 3269.8 557.289C3256.32 538.773 3243.02 520.256 3229.89 501.74V501.218ZM381.454 1697.5C424.605 1575.85 480.832 1459.24 549.147 1349.73C566.882 1419.88 533.89 1490.56 538.845 1561.88C517.069 1588.88 467.909 1591.62 452.913 1627.08C447.028 1661.26 444.711 1695.96 446.001 1730.62C419.921 1727.36 394.494 1724.36 368.675 1721.49L417.053 1762.18C395.537 1765.96 374.151 1769.61 352.896 1774.57L329.294 1783.43C321.471 1767.52 314.167 1751.35 307.387 1734.92C330.141 1718.91 355.087 1706.26 381.454 1697.37V1697.5ZM406.361 2056.49L428.006 2080.35C407.142 2103.04 385.627 2125.21 363.72 2147.12C334.317 2134.12 306.237 2118.31 279.873 2099.91L298.129 2090.26C337.249 2094.3 383.932 2094.83 406.361 2056.1V2056.49ZM291.609 2128.73C315.994 2133.95 339.988 2140.34 363.851 2147.51C370.892 2143.73 384.715 2136.16 391.756 2132.51C419.531 2188.58 456.956 2239.7 481.34 2297.21C468.441 2314.06 454.596 2330.17 439.873 2345.45C446.914 2418.22 383.149 2473.24 388.886 2545.62C391.364 2631.16 449.522 2699.62 474.168 2778.38C466.996 2816.32 441.698 2852.84 451.217 2892.48C480.296 2924.82 521.763 2942.03 555.537 2967.98C626.474 3021.7 703.279 3074.12 746.18 3154.71C717.595 3231.06 712.554 3314.23 731.706 3393.47C765.383 3474.59 821.753 3544.28 894.052 3594.16C876.287 3659.4 876.739 3728.27 895.358 3793.28L853.498 3795.75C848.934 3771.24 845.936 3746.33 842.415 3721.69L823.247 3733.94C752.44 3672.26 700.279 3593.11 643.295 3519.31C514.632 3326.27 418.104 3113.66 357.461 2889.74C308.301 2709.66 274.266 2523.45 280.003 2336.06C278.83 2266.82 275.83 2196.93 291.087 2128.73H291.609ZM2178.09 2391.61C2210.95 2415.87 2246.94 2435.56 2281.63 2456.81C2304.32 2492.15 2329.36 2535.05 2375.91 2540.27C2464.97 2557.35 2541.65 2485.89 2630.06 2496.06C2662.26 2498.67 2688.35 2519.41 2713.9 2537.14C2699.17 2548.48 2685.09 2560.48 2671.26 2572.74C2694.73 2567 2718.16 2560.79 2741.55 2554.09C2783.41 2551.48 2797.23 2596.21 2785.23 2629.2C2760.06 2707.44 2714.82 2782.16 2719.12 2866.53C2721.47 2910.6 2764.76 2932.64 2787.84 2965.24C2796.84 3004.36 2787.84 3047.39 2811.57 3081.56C2866.47 3172.84 2976.27 3219.52 3080.59 3205.04L3036.12 3218.08C3039.51 3253.42 3034.42 3292.67 3054.64 3324.1C3085.39 3372.42 3131.93 3408.59 3186.34 3426.46C3370.59 3488.79 3590.58 3351.35 3614.57 3157.97C3626.18 3085.99 3593.84 3018.7 3568.8 2953.5C3607.92 2944.38 3647.04 2929.77 3688.64 2927.42C3723.9 2934.72 3756.53 2951.44 3783.05 2975.8C3796.09 3014.92 3777.83 3056.91 3780.05 3097.33C3812 3181.96 3901.32 3222.65 3983.99 3241.69C3993.25 3254.73 4003.16 3266.59 4012.94 3278.98L4055.84 3276.37L4070.58 3250.29C4073.84 3244.82 4080.23 3233.99 4083.62 3228.52C4114.91 3228.52 4146.08 3227.34 4177.37 3227.08C4124.56 3320.13 4066.21 3409.92 4002.64 3495.96C3957.65 3563.12 3891.93 3613.32 3851.64 3683.74C3834.68 3640.32 3803.78 3600.68 3757.75 3586.46C3712.92 3572.42 3665.67 3567.79 3618.97 3572.89C3572.27 3577.98 3527.13 3592.68 3486.39 3616.06C3400.46 3662.61 3329.91 3730.42 3254.28 3791.58C3197.29 3837.48 3155.04 3905.68 3149.96 3979.62C3153.98 4012.94 3165.91 4044.81 3184.76 4072.58C3203.61 4100.34 3228.83 4123.19 3258.32 4139.22C3300.18 4163.48 3350.51 4156.18 3396.8 4155.65L3383.76 4165.7C3347.9 4172.35 3304.48 4160.35 3276.84 4190.73C3205.51 4179.65 3161.69 4118.49 3112.79 4072.33C3153.09 4130.88 3203.29 4189.69 3275.53 4207.94C3171.21 4215.64 3081.63 4273.93 2984.61 4306.13C2892.29 4336.39 2801.01 4378.38 2702.43 4380.85C2721.6 4347.34 2745.85 4315.65 2754.59 4277.32C2758.24 4240.41 2740.24 4206.51 2728.51 4173C2730.99 4215.25 2743.37 4260.5 2724.86 4300.79C2709.82 4333.79 2691.1 4364.98 2669.05 4393.76C2574.9 4435.75 2468.1 4430.54 2367.56 4443.45L2352.05 4473.05L2327.4 4456.49L2354.65 4448.92C2317.23 4432.49 2277.85 4420.23 2241.99 4400.54C2191.39 4370.29 2161.4 4317.61 2132.06 4268.45C2155.4 4332.74 2190.35 4395.98 2251.9 4430.8C2130.11 4436.79 2010.66 4410.06 1892 4387.24C1883.91 4399.37 1875.83 4411.37 1867.48 4423.36L1850.14 4431.97C1853.27 4413.19 1856.79 4394.81 1860.44 4376.16C1757.3 4345.12 1652.98 4313.57 1558.05 4261.54C1588.86 4247.17 1615.92 4225.83 1637.07 4199.21C1591.56 4215.9 1547.74 4240.54 1498.32 4243.8C1448.9 4230.76 1397.26 4229.85 1347.32 4219.42C1386.44 4213.81 1425.56 4211.86 1463.64 4204.42C1553.87 4183.04 1624.68 4104.93 1648.67 4016.78C1680.36 3914.68 1647.76 3803.71 1593.91 3715.17C1661.45 3699.13 1743.6 3687.78 1780.64 3620.5C1818.71 3528.04 1847.14 3427.51 1829.02 3326.84C1888.48 3294.5 1961.63 3273.63 1995.54 3209.48C2038.57 3143.5 2013.27 3060.56 2035.44 2988.84C2063.34 2935.51 2129.19 2915.69 2156.97 2861.96C2202.48 2776.29 2187.48 2676.15 2188.26 2583.17C2204.35 2585.17 2220.39 2587.39 2236.38 2589.82C2356.48 2627.77 2490.92 2660.5 2612.32 2608.73C2566.81 2600.91 2522.87 2623.33 2477.36 2617.6C2425.2 2612.51 2374.48 2598.82 2323.1 2589.3C2268.85 2578.35 2210.17 2567.52 2169.88 2526.06C2169.65 2480.76 2172.44 2435.5 2178.22 2390.57L2178.09 2391.61ZM2165.05 3065.65C2152.01 3090.68 2161.79 3117.81 2167.92 3143.89C2199.87 3141.54 2252.81 3140.24 2242.25 3093.42C2249.81 3051.04 2190.09 3049.74 2165.05 3065.78V3065.65ZM2737.64 3065.65C2749.92 3093.69 2765 3120.42 2782.62 3145.45C2812.62 3107.51 2775.84 3070.21 2737.51 3065.39L2737.64 3065.65ZM2841.95 3198.65C2870.25 3249.51 2930.37 3255.64 2982.66 3256.94C2981.61 3251.21 2979.27 3239.73 2978.09 3233.99L2896.2 3228.39C2878.65 3217.54 2860.54 3207.61 2841.95 3198.65ZM2075.99 3250.81C2030.29 3271.56 1989.16 3301.17 1954.98 3337.92C1929.94 3372.44 1912.27 3411.73 1903.07 3453.37C1893.88 3495.01 1893.35 3538.09 1901.52 3579.94C1920.82 3653.36 1987.32 3704.73 2058 3725.08C2076.95 3729.55 2096.79 3728.42 2115.11 3721.82C2133.4 3715.25 2149.42 3703.57 2161.27 3688.17C2190.61 3652.44 2228.69 3625.45 2259.59 3591.42C2297.67 3532.22 2269.5 3458.28 2231.17 3406.9C2196.37 3362.17 2170.92 3310.91 2156.32 3256.16C2130.24 3249.38 2101.29 3234.51 2075.47 3250.55L2075.99 3250.81ZM2625.88 3503.79C2599.8 3523.09 2592.5 3568.99 2623.02 3589.07C2658.35 3616.19 2714.3 3582.03 2709.34 3539C2706.08 3501.57 2655.35 3483.97 2625.88 3503.79ZM3516.38 3548.12C3506.08 3557.12 3495.91 3566.25 3485.87 3575.38C3514.95 3562.34 3543.37 3548.12 3571.54 3533C3637.4 3511.59 3708.39 3511.91 3774.05 3533.91C3803.26 3548.91 3832.34 3563.9 3862.46 3577.2C3838.53 3554.27 3811.6 3534.71 3782.39 3519.05C3696.07 3482.53 3595.01 3501.96 3516.38 3548.12ZM3005.74 3701.08C2939.76 3703.17 2868.56 3723.77 2826.18 3777.5C2788.1 3823.66 2744.03 3877.25 2757.85 3941.8C2759.54 3991.22 2816.01 4007 2856.82 4001.39C2940.02 3991.61 3026.34 3958.36 3079.54 3891.6C3109.14 3849.09 3128.7 3787.28 3097.28 3740.59C3072.73 3716.73 3040.21 3702.79 3006 3701.47L3005.74 3701.08ZM2653.66 3753.24C2608.02 3759.89 2578.94 3825.09 2619.49 3855.08C2645.57 3863.17 2684.69 3868.12 2702.43 3840.74C2728.51 3805.14 2704.91 3736.42 2653.66 3753.24ZM1786.37 3837.74C1798.63 3874.25 1844.92 3855.48 1873.61 3857.95C1878.95 3829.98 1880.14 3801.38 1877.13 3773.06C1855.98 3769.26 1834.58 3766.95 1813.11 3766.15C1800.52 3772.58 1790.83 3783.54 1785.99 3796.82C1781.16 3810.1 1781.53 3824.72 1787.03 3837.74H1786.37ZM1691.44 3782.58C1689.61 3838.02 1698.74 3893.28 1718.31 3945.19C1730.17 3889.9 1726 3829 1691.44 3782.45V3782.58ZM1806.98 3988.74C1820.02 4023.04 1849.23 4048.6 1878.31 4069.98C1924.6 4105.19 1989.02 4096.06 2039.35 4074.68C2041.04 4029.56 2063.47 3979.09 2039.35 3937.24C1999.32 3892.25 1932.42 3903.2 1878.83 3905.29C1835.8 3905.29 1811.67 3951.71 1806.98 3988.74ZM2216.17 3990.83L2208.35 4016.91L2256.46 3985.74C2313.71 3983.92 2371.48 3979.35 2428.46 3987.18C2458.38 3999.26 2487.63 4012.93 2516.09 4028.12C2492.62 3980.14 2434.72 3964.23 2385.69 3969.71C2328.96 3975.57 2266.63 3955.75 2216.17 3991.48V3990.83ZM2261.81 4037.9C2190.35 4065.94 2160.75 4156.18 2183.57 4225.94C2200.52 4307.44 2277.33 4354.25 2348.92 4382.42C2454.93 4419.32 2588.72 4415.67 2665.66 4323.35C2701.91 4286.57 2697.99 4233.37 2693.95 4186.04C2658.26 4132 2604.94 4092 2543.08 4072.85C2490.92 4056.03 2439.67 4034.64 2386.6 4018.87C2344.48 4005.83 2301.71 4024.21 2262.2 4037.64L2261.81 4037.9ZM2540.47 4036.86C2575.93 4045.39 2609.85 4059.38 2641.01 4078.33C2641.01 4071.68 2641.01 4058.51 2641.79 4052.25C2609.06 4042.73 2574.9 4024.47 2540.47 4037.25V4036.86ZM966.555 3537.82C975.944 3603.02 960.426 3669.79 981.16 3733.42C982.985 3739.81 986.766 3752.72 988.592 3759.5C1021.54 3825.98 1065.3 3886.52 1118.08 3938.67L1124.6 3945.58C1142.85 3963.97 1162.55 3980.92 1182.11 3997.74C1213.27 4034.91 1261.13 4046.38 1304.68 4062.03C1375.88 4070.11 1446.42 4060.72 1516.71 4050.16C1543.57 4032.95 1570.69 4016.13 1597.56 3999.18L1613.99 3983.01C1599.25 4020.82 1584.91 4059.94 1558.57 4091.63C1532.23 4123.31 1497.15 4137.66 1464.03 4156.83C1419.52 4160.48 1374.78 4159.96 1330.37 4155.26C1229.96 4114.45 1144.03 4047.03 1066.57 3972.7C1023.79 3940.62 989.538 3898.53 966.816 3850.13C924.436 3752.59 914.656 3635.36 966.816 3539.13L966.555 3537.82ZM3707.54 3620.37C3739.23 3635.75 3778.22 3648.53 3792.3 3684.26C3809.65 3715.04 3801.56 3751.42 3796.48 3784.28C3753.71 3902.94 3646 3978.57 3541.81 4039.99C3472.96 4081.33 3395.76 4128.27 3312.04 4110.67C3263.41 4103.49 3231.59 4061.9 3202.25 4026.43L3241.37 4032.3C3334.6 4073.76 3447.66 4054.2 3528.25 3993.18C3552.07 3976.38 3574.53 3957.72 3595.4 3937.37L3611.96 3913.76C3655.65 3873.22 3691.77 3825.22 3718.63 3772.02C3731.97 3721.65 3728.26 3668.27 3708.07 3620.24L3707.54 3620.37ZM2234.03 4181.08C2234.03 4149.4 2231.82 4116.8 2243.42 4086.67C2245.9 4132.44 2235.21 4180.82 2250.33 4225.16C2272.24 4280.97 2342.4 4272.23 2388.95 4292.7C2444.63 4349.56 2530.69 4333.39 2601.89 4327C2588.53 4333.86 2574.77 4339.91 2560.68 4345.12C2502.41 4358.4 2441.94 4358.84 2383.47 4346.43C2327.69 4332.5 2278.14 4300.38 2242.64 4255.15C2219.04 4225.16 2216.56 4185.39 2204.69 4150.18L2233.38 4179.91L2234.03 4181.08Z" fill="#FF7900"/>
<path d="M1993.33 232.856C2061.4 206.776 2135.2 206.124 2207.05 209.645C2232.26 208.887 2257.07 216.047 2277.99 230.118C2309.81 266.89 2277.99 321.397 2238.09 337.175C2130.51 394.551 1992.03 414.242 1881.19 354.128C1877.93 289.71 1938.82 249.808 1993.33 232.856ZM2805.59 285.016C2838.32 270.281 2870.78 254.372 2903.78 240.941C2917.8 243.313 2931.15 248.695 2942.9 256.719C2933.1 272.49 2926.21 289.892 2922.55 308.097C2878.33 314.466 2833.21 308.51 2792.15 290.884L2805.19 285.016H2805.59ZM2760.99 305.489C2784.1 322.056 2810.27 333.853 2837.99 340.189C2865.71 346.525 2894.41 347.274 2922.42 342.392C2917.34 356.214 2912.38 369.906 2907.43 383.728C2874.18 382.424 2840.27 384.511 2807.93 376.035C2785.11 358.952 2775.46 330.004 2760.99 305.489ZM2129.86 433.541C2154.5 419.197 2174.19 458.317 2142.9 463.402C2117.21 480.093 2101.82 442.147 2130.25 433.541H2129.86ZM2692.27 477.224C2755.12 431.194 2835.71 442.929 2908.99 432.367C3009.27 418.545 3110.59 444.233 3201.35 486.352C3175.17 507.228 3150.47 529.884 3127.41 554.16C3162.69 538.66 3196.89 520.798 3229.77 500.696C3242.99 519.213 3256.29 537.73 3269.68 556.246C3220.52 576.328 3169.4 602.408 3140.06 648.439C3101.46 726.549 3088.16 814.74 3101.98 900.761C3096.12 891.633 3089.99 882.766 3083.99 873.768C3075.29 891.763 3066.3 909.889 3056.99 928.145L3075.64 955.268L3051.13 966.221C3041.67 934.584 3029.58 903.79 3015.01 874.159C2971.45 861.902 2925.55 861.12 2881.61 850.948C2790.33 830.476 2704.01 789.661 2622.9 743.369C2598.64 726.417 2566.56 709.205 2560.3 678.17C2564.35 593.28 2619.11 517.909 2692.27 477.355V477.224ZM3044.35 729.416C3036 761.364 3029.22 796.833 3045 827.737C3051.24 795.239 3051.02 761.829 3044.35 729.416ZM1441.74 608.536C1521.54 592.236 1601.74 575.154 1683.24 571.112C1746.35 566.156 1798.77 607.363 1857.19 623.271C1908.18 639.962 1964.12 640.354 2012.76 664.217C2048.62 693.165 2067.66 738.935 2107.82 763.45C2173.02 809.481 2257.39 854.73 2267.69 942.619C2288.81 1028.55 2240.83 1108.1 2233.78 1192.2C2286.86 1215.02 2344.1 1240.45 2375.01 1292.48C2414.13 1346.99 2406.69 1422.88 2454.03 1471.91C2478.41 1407.36 2430.82 1341.51 2427.95 1275.27C2491.98 1325.86 2480.89 1414.92 2500.58 1485.99C2559.13 1467.34 2621.85 1456.13 2683.14 1467.35C2725.13 1477.39 2762.29 1500.86 2800.5 1520.42C2837.53 1512.59 2876.52 1498.64 2914.34 1510.77C2972.89 1530.59 2999.36 1600.22 3063.91 1609.22C3069.25 1551.32 3063.91 1489.51 3092.85 1436.57C3133.15 1360.81 3215.43 1313.47 3299.54 1304.87C3382.08 1292.87 3457.71 1336.55 3534.26 1359.64C3592.28 1376.2 3602.33 1441.27 3630.23 1485.73C3663.48 1501.12 3701.04 1500.99 3736.64 1507.9L3739.77 1516.38C3715.25 1519.9 3687.61 1519.24 3670.39 1539.98C3695.11 1538.13 3719.68 1534.64 3743.94 1529.55C3747.98 1542.59 3752.15 1556.67 3756.98 1570.23C3666.87 1603.09 3574.42 1651.34 3525.52 1738.31C3473.36 1822.94 3476.88 1927.78 3490.18 2022.71C3490.18 2069.4 3513.65 2110.73 3540.52 2147.25C3581.85 2204.62 3630.23 2267.73 3705.6 2277.65C3815.79 2299.03 3936.54 2300.99 4039.16 2249.22C4057.55 2281.43 4075.93 2314.42 4094.06 2346.1C4107.1 2343.5 4120.14 2340.89 4133.18 2338.02C4114.67 2348.98 4099.62 2364.94 4089.75 2384.06C4079.88 2403.17 4075.59 2424.68 4077.37 2446.12C4093.16 2452.23 4109.49 2456.85 4126.14 2459.94C4104.88 2464.51 4084.02 2469.85 4063.29 2475.98C4103.71 2477.81 4144 2474.81 4184.3 2472.72L4178.3 2495.67C4067.46 2498.28 3959.62 2596.86 3971.48 2712.27C3968.75 2785.03 4039.55 2843.84 4109.71 2839.01C4175.37 2842.93 4240.4 2824.25 4293.96 2786.07C4293.96 2807.2 4295.01 2828.32 4295.66 2849.58C4288.91 2845.95 4281.06 2844.98 4273.64 2846.83C4266.21 2848.69 4259.74 2853.25 4255.49 2859.62C4264.62 2874.35 4278.18 2877.22 4296.18 2868.09C4298.53 2896 4302.7 2923.64 4305.57 2951.55C4296.44 3010.23 4287.05 3070.34 4258.49 3123.28C4239.06 3162.4 4206.33 3193.44 4178.95 3227.6C4147.65 3227.6 4116.49 3228.65 4085.19 3229.04C4082.06 3234.51 4075.67 3245.34 4072.15 3250.81C4068.37 3227.34 4071.11 3193.57 4039.68 3190.18C4005.78 3175.7 3985.7 3213.65 3985.57 3242.34C3902.9 3223.3 3813.57 3182.62 3781.62 3097.99C3779.41 3057.56 3797.01 3016.23 3784.62 2976.45C3758.09 2952.11 3725.47 2935.39 3690.21 2928.08C3649.14 2929.9 3610.02 2944.51 3570.38 2954.16C3595.41 3019.36 3627.75 3086.64 3616.15 3158.62C3592.41 3352 3372.17 3489.44 3187.92 3427.11C3133.5 3409.24 3086.96 3373.07 3056.21 3324.75C3036 3293.32 3041.09 3254.07 3037.7 3218.74L3082.16 3205.7C3186.48 3178.44 3267.07 3069.95 3254.68 2961.85C3236.42 2868.35 3142.67 2808.89 3052.3 2801.33C2983.06 2787.38 2919.29 2827.41 2866.74 2867.57C2805.32 2918.95 2794.63 3008.4 2813.15 3082.21C2789.42 3048.04 2798.41 3003.97 2789.42 2965.89C2766.34 2933.29 2723.04 2911.25 2720.7 2867.18C2716.39 2782.81 2761.64 2707.7 2786.81 2629.85C2798.8 2596.86 2784.98 2551.61 2743.12 2554.74C2755.43 2549.15 2766.35 2540.89 2775.07 2530.56C2783.8 2520.23 2790.13 2508.09 2793.59 2495.02C2766.55 2507.44 2740.4 2521.73 2715.35 2537.79C2689.27 2520.06 2663.19 2498.67 2631.5 2496.72C2543.09 2486.54 2466.42 2558 2377.35 2540.92C2330.8 2535.97 2305.77 2492.8 2283.08 2457.47C2342.4 2477.77 2404.12 2490.26 2466.68 2494.63C2560.44 2491.24 2655.5 2464.25 2730.08 2405.57C2831.8 2328.89 2900.52 2205.66 2902.21 2077.22C2904.44 2004.07 2886.45 1931.71 2850.22 1868.12C2813.98 1804.53 2760.91 1752.17 2696.83 1716.8C2516.49 1617.56 2275.51 1662.03 2134.81 1809.64C2069.61 1882.28 2024.1 1977.73 2031.28 2077.35C2025.28 2199.15 2088.13 2315.07 2179.54 2392.4C2173.76 2437.32 2170.97 2482.58 2171.19 2527.88C2158.15 2516.54 2145.11 2505.19 2132.07 2494.11C2156.41 2536.24 2192.72 2570.19 2236.39 2591.65C2220.22 2589.04 2204.18 2586.82 2188.28 2585C2187.49 2677.97 2202.49 2778.12 2156.98 2863.79C2129.21 2917.51 2063.35 2937.33 2035.45 2990.67C2013.28 3062.39 2038.58 3145.32 1995.55 3211.3C1961.64 3275.59 1888.49 3296.45 1829.03 3328.66C1847.15 3429.33 1818.72 3529.87 1780.65 3622.32C1743.61 3689.61 1661.46 3700.56 1593.92 3716.99C1505.51 3581.77 1392.71 3447.33 1236.75 3390.99C1088.49 3338.83 938.791 3457.76 894.195 3595.2C822.117 3545.19 765.979 3475.47 732.501 3394.38C713.349 3315.14 718.39 3231.97 746.975 3155.62C704.074 3075.04 627.269 3022.62 556.332 2968.89C522.037 2942.81 480.57 2925.73 452.012 2893.39C442.493 2854.27 467.791 2817.24 474.963 2779.29C450.317 2701.05 392.159 2632.07 389.681 2546.53C383.944 2474.16 447.709 2419.13 440.668 2346.37C455.391 2331.08 469.234 2314.97 482.134 2298.12C457.619 2240.61 420.325 2189.5 392.549 2133.42L405.589 2125.86C421.237 2104.87 435.582 2082.96 451.621 2062.36L455.532 2056.88C455.532 2040.19 434.799 2045.53 423.976 2040.97C458.141 1973.16 486.698 1891.79 453.446 1817.86C439.494 1777.3 391.507 1768.7 354.213 1775.48C375.468 1770.52 396.852 1766.87 418.368 1763.09L369.991 1722.41C396.071 1725.27 422.149 1728.27 447.316 1731.53C446.026 1696.88 448.343 1662.18 454.228 1628C469.224 1592.4 518.386 1589.66 540.162 1562.8C535.207 1491.47 568.197 1420.79 550.463 1350.64C547.072 1337.6 543.03 1324.56 540.291 1311.52C542.508 1224.54 583.976 1143.56 580.325 1055.81C565.459 1102.36 554.244 1149.82 542.117 1197.16C534.032 1157.13 524.122 1115.14 538.857 1075.23C570.002 977.87 630.431 892.487 711.897 830.736L706.681 878.202C754.798 787.966 855.857 752.106 943.094 711.682C1030.33 671.258 1126.44 669.954 1214.98 637.355C1145.61 638.919 1075.06 641.919 1008.55 663.434C942.051 684.95 881.938 713.116 818.434 737.371C889.24 665.39 985.865 628.487 1081.45 602.538C1140.13 602.538 1198.81 598.365 1257.36 596.409C1319.82 594.583 1380.32 622.489 1442.78 610.492L1441.74 608.536ZM1116.79 702.815C976.086 724.461 833.69 786.401 743.715 900.369C686.731 975.479 632.875 1056.85 617.096 1152.04C598.449 1263.79 609.142 1386.76 675.515 1482.47C749.321 1599.83 884.154 1669.72 1020.29 1680.55C1197.24 1676.64 1353.85 1571.53 1471.73 1446.61C1558.19 1357.16 1632.52 1240.84 1627.3 1112.01C1618.69 1013.69 1581.66 914.322 1510.72 843.907C1460.98 790.8 1399.3 750.304 1330.8 725.769C1262.3 701.234 1188.94 693.365 1116.79 702.815ZM1437.7 723.939C1473.69 751.454 1504.59 784.966 1540.45 812.872C1530.02 775.969 1496.38 754.453 1470.17 729.547L1437.7 723.939ZM1643.34 886.286C1650.12 921.234 1663.16 957.615 1695.5 976.131C1701.24 936.229 1675.94 904.803 1643.34 886.286ZM1730.71 1092.84C1728.1 1112.79 1725.88 1132.74 1723.92 1152.82C1703.45 1221.67 1688.2 1292.35 1654.16 1356.38C1630.69 1424.97 1566.79 1465.26 1530.67 1525.89C1594.96 1473.73 1662.77 1418.18 1687.15 1334.6C1709.6 1286.01 1723.24 1233.82 1727.45 1180.47L1738.14 1179.42L1732.27 1171.86C1738.38 1145.87 1738.03 1118.78 1731.23 1092.97L1730.71 1092.84ZM600.146 1527.72C633.267 1630.08 730.544 1697.24 827.822 1732.97C925.752 1773.26 1034.11 1765.7 1136.35 1749.01C1053.54 1741.31 968.914 1749.66 888.588 1726.71C770.447 1705.84 652.304 1640.65 600.797 1527.72H600.146ZM2065.05 1779.91C2111.86 1743.4 2154.63 1701.67 2206.53 1671.68C2249.95 1644.3 2300.16 1632.56 2347.36 1614.17C2235.48 1625.78 2119.03 1675.46 2065.05 1779.91ZM2629.42 1620.04C2631.5 1663.47 2668.54 1599.83 2629.42 1620.04V1620.04ZM2653.15 1633.08C2687.18 1655.12 2727.35 1665.42 2761.51 1687.46C2809.63 1714.45 2847.84 1756.31 2898.56 1778.74C2866.87 1713.54 2791.37 1693.59 2734 1658.38C2708.42 1646.08 2681.18 1637.55 2653.15 1633.08ZM1229.19 1703.11L1245.1 1713.15C1263.59 1696.2 1283.98 1681.46 1305.87 1669.2C1272.22 1650.82 1246.79 1676.11 1229.19 1703.11ZM2984.36 1761.26C3010.44 1753.7 3042 1749.66 3058.3 1724.23C3026.48 1718.62 2994.27 1727.62 2984.36 1761.26ZM490.74 1846.28C485.576 1854.05 482.561 1863.05 482.003 1872.36C481.527 1881.81 483.552 1891.21 487.872 1899.62C507.693 1897.79 509.518 1849.15 490.74 1846.28ZM2925.03 1839.11C2941.85 1884.36 2949.94 1933.26 2972.5 1976.03C2978.36 1951.06 2977.01 1924.93 2968.61 1900.69C2960.2 1876.46 2945.09 1855.1 2925.03 1839.11ZM1768.26 1855.67C1766.04 1874.32 1798.25 1874.58 1807.38 1863.37C1809.6 1844.85 1777.26 1844.33 1768.26 1855.67ZM1235.32 1950.34C1217.06 2001.2 1251.49 2047.36 1284.09 2082.7C1302.21 2102.39 1332.99 2097.82 1352.16 2082.7C1385.28 2058.44 1430.4 2031.19 1427.14 1984.12C1423.88 1937.04 1381.24 1904.44 1351.51 1870.8C1296.74 1860.11 1256.31 1906.27 1235.32 1950.73V1950.34ZM681.123 2228.88C713.983 2208.53 746.323 2184.8 784.008 2175.67C831.082 2158.85 881.807 2166.94 930.707 2164.85C957.83 2176.2 985.214 2187.28 1012.34 2198.88C1017.16 2209.45 1022.12 2220.01 1027.07 2230.57C1026.03 2222.75 1024.07 2207.23 1023.16 2199.41C925.099 2118.95 764.318 2134.21 681.123 2228.88ZM3176.96 2181.54L3181.66 2215.31C3131.98 2210.23 3084.38 2188.19 3033.65 2196.41L3047.48 2212.84C3125.72 2201.23 3194.7 2245.44 3270.2 2257.82C3245.43 2239.69 3216.34 2228.36 3185.83 2224.96L3184.79 2200.19L3228.6 2187.15C3211.26 2185.19 3194.04 2183.5 3176.44 2181.8L3176.96 2181.54ZM1978.33 2291.99L2009.89 2293.03C1989.21 2267.58 1971.08 2240.15 1955.77 2211.14C1948.86 2240.74 1964.64 2267.08 1978.33 2291.99ZM793.918 2230.57C701.726 2263.3 625.182 2341.28 604.448 2438.43C579.672 2552.79 588.279 2685.14 665.606 2778.77C772.925 2919.21 1003.21 2932.64 1130.22 2812.54C1163.08 2781.9 1188.42 2744.08 1204.25 2702.03C1220.09 2659.98 1225.99 2614.84 1221.5 2570.13C1209.89 2433.86 1113.79 2315.98 993.95 2256C933.445 2221.97 861.335 2219.36 794.441 2229.92L793.918 2230.57ZM3521.09 2271.13C3532.17 2315.2 3573.25 2338.28 3605.45 2366.19C3644.57 2384.44 3685 2403.22 3729.46 2401.39C3752.54 2429.69 3794.66 2415.22 3824.53 2407.78C3800.66 2404 3776.54 2402.05 3752.55 2400.22C3724.69 2388.5 3695.53 2380.13 3665.7 2375.31C3612.24 2349.23 3554.47 2323.15 3521.09 2270.99V2271.13ZM1171.82 2345.58C1187.54 2379.43 1205.58 2412.15 1225.8 2443.51C1248.23 2479.37 1251.88 2522.54 1269.74 2560.87C1281.61 2476.9 1230.62 2400.09 1171.82 2345.71V2345.58ZM541.596 2443.12C494.522 2488.63 516.298 2558.13 516.298 2615.9L539.64 2616.68C533.77 2558.94 534.426 2500.72 541.596 2443.12ZM1966.99 2496.19C1978.72 2509.23 1990.59 2521.36 2002.2 2534.27C1947.69 2583.43 1871.8 2632.59 1869.45 2713.83C1907.53 2621.38 1997.11 2568.17 2060.22 2494.63L2043.66 2495.8C2027.75 2501.54 2011.59 2507.02 1995.42 2512.36C2001.81 2502.97 2014.45 2484.2 2021.5 2474.94C2003.5 2481.85 1985.51 2489.02 1967.64 2496.19H1966.99ZM536.772 2654.37C525.166 2666.63 542.379 2692.71 557.896 2683.45C569.111 2671.19 552.42 2645.11 536.772 2654.37ZM2844.84 2844.49C2874.57 2822.71 2900.65 2792.33 2938.46 2785.29C2978.22 2779.31 3016.8 2767.16 3052.82 2749.3C2974.58 2745.26 2878.74 2764.56 2844.18 2844.49H2844.84ZM3109.42 2781.38C3104.07 2797.81 3130.67 2811.5 3144.1 2804.46C3149.97 2787.9 3122.72 2773.42 3109.42 2781.51V2781.38ZM1095.66 2905C1118.33 2902.04 1139.55 2892.21 1156.45 2876.82C1173.36 2861.43 1185.14 2841.23 1190.2 2818.93C1160.6 2849.71 1126.18 2875.79 1095.66 2905ZM641.612 2833.67C654.651 2869.4 684.644 2892.87 715.809 2912.69C794.049 2942.94 877.765 2983.1 963.568 2971.11C978.694 2965.63 994.081 2960.68 1009.21 2954.81C950.137 2947.38 888.849 2957.02 831.604 2937.2C763.405 2913.21 689.859 2890.78 641.481 2833.67H641.612ZM3992.87 2861.96C4017.52 2875.79 4043.07 2888.04 4067.46 2903.04C4083.45 2901.2 4099.03 2896.8 4113.62 2890L4066.68 2885.04C4043.43 2873.43 4018.54 2865.47 3992.87 2861.44V2861.96ZM4152.09 2884.65C4135.53 2904.6 4172.95 2920.25 4185.6 2904.08C4202.55 2884.26 4164.48 2868.61 4151.44 2885.04L4152.09 2884.65ZM3268.11 3172.71C3270.98 3148.06 3273.33 3123.28 3275.28 3098.64C3268.52 3098.91 3261.95 3101 3256.28 3104.7C3250.61 3108.39 3246.04 3113.56 3243.06 3119.64C3240.08 3125.72 3238.8 3132.49 3239.35 3139.24C3239.91 3145.98 3242.27 3152.46 3246.2 3157.97C3251.46 3165.4 3259.25 3170.64 3268.11 3172.71ZM982.736 3368.3H999.819C1029.55 3350.17 1060.78 3334.64 1093.18 3321.88L1134.39 3324.49C1156.29 3333.88 1180.12 3337.91 1203.89 3336.23C1180.94 3327.1 1157.08 3320.06 1134 3311.32C1076.88 3306.23 1025.51 3333.49 982.736 3368.43V3368.3ZM1437.7 3433.5C1482.17 3492.97 1537.59 3544.34 1571.88 3611.11L1586.62 3601.72C1545.02 3540.56 1503.55 3473.28 1438.22 3433.5H1437.7ZM3624.88 631.486L3652.92 644.526L3630.49 672.171C3749.42 689.905 3826.09 803.744 3839.13 915.235C3833.65 1013.95 3750.46 1085.54 3665.83 1122.83C3536.86 1168.86 3393.43 1132.22 3281.02 1061.15C3243.86 1033.9 3201.61 1005.99 3185.31 960.614C3178.92 892.024 3178.92 815.48 3221.82 757.583C3267.07 696.556 3343.22 675.301 3409.86 646.482C3473.23 644.396 3535.17 659.522 3597.37 669.172L3625.28 632.008L3624.88 631.486ZM3298.89 1020.34C3285.85 980.044 3272.81 938.446 3246.73 904.934C3224.43 955.007 3260.68 995.039 3299.8 1021.12L3298.89 1020.34ZM3574.68 1025.29C3492.27 1048.5 3406.2 1035.59 3322.23 1032.33C3338.66 1073.02 3395.38 1087.75 3433.72 1078.89L3471.27 1088.67L3466.19 1101.71C3502.57 1109.14 3532.3 1088.67 3560.21 1068.19C3583.94 1068.19 3612.37 1083.06 3632.19 1064.28C3668.7 1031.29 3709.25 999.734 3733.51 955.92C3680.3 978.609 3631.53 1012.12 3574.68 1025.55V1025.29ZM883.372 999.212C1041.42 904.803 1235.45 882.896 1413.97 920.973C1515.68 940.663 1582.57 1049.94 1568.49 1149.82C1555.45 1264.7 1480.34 1361.07 1398.06 1437.48C1306.78 1530.85 1189.42 1607.92 1057.32 1625.39C905.931 1638.43 757.406 1544.02 688.947 1411.27L689.86 1408.01C706.812 1351.94 710.072 1293.26 715.94 1235.36C726.763 1134.31 795.222 1046.55 883.503 999.342L883.372 999.212ZM931.88 1520.81C954.57 1570.36 1035.42 1593.18 1075.32 1553.8C1026.3 1551.45 978.064 1540.55 932.794 1521.59L931.88 1520.81ZM4078.67 1230.93C4094.06 1218.54 4133.57 1225.85 4130.83 1249.19C4116.1 1256.75 4080.89 1249.97 4079.59 1231.71L4078.67 1230.93ZM3963.53 1272.92C4023.12 1244.49 4089.24 1252.97 4147.91 1279.44L4121.83 1291.57L4098.62 1289.61C4053.97 1280.22 4008.61 1274.64 3963.01 1272.92H3963.53ZM2503.06 1411.14C2533.57 1390.02 2524.84 1460.56 2539.96 1468.91C2507.62 1469.69 2498.37 1440.22 2503.97 1412.32L2503.06 1411.14ZM3610.15 1694.37C3677.7 1676.38 3747.85 1676.37 3817.22 1677.81H3838.48C3904.59 1703.11 3971.74 1731.66 4020.25 1785.39C4095.62 1862.85 4151.57 1972.51 4128.35 2083.09C4114.1 2121.54 4090.73 2155.96 4060.25 2183.4C4029.78 2210.84 3993.1 2230.47 3953.36 2240.61C3862.99 2268.39 3766.5 2253.65 3675.87 2235.13C3601.8 2192.76 3527.74 2126.9 3522.13 2035.75C3511.44 1918.4 3507.65 1774.17 3611.32 1694.37H3610.15ZM2239.39 1868.71C2309.03 1843.94 2377.09 1809.25 2452.33 1806.12C2534.35 1798.82 2615.85 1820.21 2690.97 1851.76C2737 1868.84 2764.12 1912.01 2796.59 1946.04C2832.45 1999.24 2841.84 2065.62 2846.79 2128.6C2831.82 2220.38 2782.9 2303.18 2709.74 2360.58C2642.2 2418.35 2551.05 2438.82 2464.85 2446.9C2368.75 2438.3 2269.25 2411.04 2194.93 2347.15C2120.86 2287.29 2078.48 2194.71 2067.79 2101.48C2066.88 2074.65 2074.15 2048.18 2088.65 2025.58C2127.71 1963.7 2179.01 1910.45 2239.39 1869.1V1868.71ZM2353.1 2365.27C2352.32 2369.19 2350.75 2377.14 2349.84 2381.05C2382.09 2393.99 2416.6 2400.37 2451.35 2399.83C2486.09 2399.29 2520.38 2391.85 2552.22 2377.92C2552.54 2374.71 2552.54 2371.48 2552.22 2368.27C2488.85 2395.53 2415.82 2389.27 2353.1 2365.8V2365.27ZM330.74 1881.75C346.388 1876.41 362.167 1870.93 377.945 1866.11C411.457 1867.93 420.064 1906.01 424.107 1932.48C419.543 1980.47 390.854 2022.98 358.254 2057.14H309.355C275.842 2028.58 265.15 1986.2 266.063 1943.69C286.405 1922.05 304.27 1896.88 331.263 1882.28L330.74 1881.75ZM848.294 2356.02L871.244 2337.37C915.189 2339.06 959.133 2340.11 1003.21 2341.67C1003.21 2344.41 1004.12 2350.15 1004.38 2352.89C1069.58 2350.67 1111.83 2409.22 1139.61 2460.33C1174.42 2515.23 1178.73 2583.56 1168.55 2646.41C1134.32 2684.48 1097.32 2719.96 1057.85 2752.56C1024.46 2754.78 991.472 2763.12 969.174 2789.85C917.927 2790.64 866.682 2790.77 815.435 2791.03L806.045 2782.03L797.96 2774.21L727.805 2704.96C724.676 2725.83 721.416 2746.82 718.156 2767.69C697.814 2734.17 673.952 2702.49 662.346 2663.37C653.218 2615.25 657.259 2565.83 659.215 2517.19C686.117 2465.98 721.374 2419.62 763.534 2380.01C772.402 2372.19 781.4 2364.49 790.397 2356.8L847.773 2355.49L848.294 2356.02ZM4271.27 2496.06C4286.79 2484.85 4312.09 2509.1 4300.48 2525.27C4284.44 2534.53 4260.97 2511.32 4270.88 2495.8L4271.27 2496.06ZM4001.87 2683.84C4007.42 2652.13 4021.17 2622.42 4041.76 2597.67C4062.35 2572.92 4089.06 2553.98 4119.23 2542.75C4134.74 2544.96 4150.26 2547.83 4165.78 2551.22C4173.6 2562.57 4181.95 2573.65 4190.82 2584.21C4229.94 2631.29 4214.16 2691.27 4219.9 2746.43C4239.46 2690.1 4245.97 2610.68 4191.86 2571.04C4199.94 2563.74 4208.29 2556.57 4216.77 2549.66C4262.14 2574.3 4302.31 2619.94 4297.09 2674.97C4295.01 2731.04 4249.11 2772.9 4199.29 2790.77C4156.13 2771.34 4111.53 2805.89 4068.89 2790.77C4025.34 2777.73 3990.65 2730.65 4001.87 2684.36V2683.84ZM2925.68 2856.62C2956.45 2843.64 2989.83 2838.05 3023.14 2840.32C3056.46 2842.58 3088.78 2852.63 3117.5 2869.66C3133.3 2878.58 3144.92 2893.4 3149.84 2910.86C3156.49 2951.81 3160.92 2993.15 3166.4 3034.22C3175.48 2999.56 3188.98 2966.21 3206.56 2934.99C3217.03 2978.09 3212.24 3023.48 3193.01 3063.45C3173.78 3103.42 3141.29 3135.48 3101.07 3154.19C3056.73 3176.75 3005.49 3164.75 2958.67 3157.97C2957.24 3153.15 2954.11 3143.23 2952.55 3138.41C3006.14 3138.41 3065.99 3149.36 3112.41 3115.33C3133.8 3102.29 3137.32 3076.21 3147.1 3056.13C3119.72 3076.6 3094.94 3102.16 3062.21 3113.76C3011.49 3125.5 2959.07 3116.63 2908.99 3105.94C2873.91 3088.47 2835.84 3057.82 2835.84 3014.66C2829.71 2967.07 2860.22 2927.29 2882.52 2888.57C2886.56 2897.82 2895.56 2916.6 2898.95 2925.99C2925.03 2909.3 2952.28 2892.35 2978.76 2875.4L2925.68 2855.97V2856.62ZM2164.67 3065.26C2189.84 3049.22 2249.43 3050.52 2241.87 3092.9C2252.43 3139.71 2199.49 3141.02 2167.54 3143.37C2161.41 3117.29 2151.11 3090.29 2164.67 3065.13V3065.26ZM4008.39 3256.94C4008.39 3236.99 4009.95 3217.82 4011.26 3197.48C4047.9 3201.13 4055.85 3229.04 4050.38 3260.07L4008.52 3256.94H4008.39ZM2075.09 3249.64C2101.17 3233.6 2129.86 3248.47 2155.94 3255.25C2170.31 3309.75 2195.45 3360.83 2229.87 3405.47C2268.21 3456.84 2296.38 3530.78 2258.3 3589.98C2227.4 3624.02 2189.32 3651.01 2159.98 3686.74C2148.13 3702.14 2132.11 3713.81 2113.82 3720.38C2095.5 3726.98 2075.65 3728.12 2056.7 3723.64C1986.16 3703.3 1919.65 3651.92 1900.22 3578.51C1892.05 3536.66 1892.58 3493.57 1901.78 3451.94C1910.98 3410.3 1928.65 3371 1953.69 3336.49C1987.84 3299.71 2028.98 3270.1 2074.7 3249.38L2075.09 3249.64ZM1106.09 3428.03C1179.25 3407.42 1251.62 3438.98 1310.82 3480.19C1377.72 3514.09 1420.75 3576.81 1469.65 3631.06C1531.72 3701.6 1586.09 3782.84 1606.04 3876.08C1604.2 3899.44 1600.84 3922.65 1596 3945.58C1552.45 4010.78 1470.56 4031.51 1396.88 4039.86C1333.12 4046.77 1270.27 4031.12 1209.89 4012.61C1200.37 4007.52 1190.98 4002.17 1181.59 3996.83C1162.04 3980.01 1142.47 3963.05 1124.09 3944.67L1117.57 3937.76C1121.74 3934.89 1126.04 3932.15 1130.61 3929.41C1085.75 3897.46 1042.33 3857.56 1025.51 3803.32C999.41 3721.09 992.407 3633.99 1005.03 3548.65C1013.38 3494.92 1046.63 3434.29 1106.35 3428.29L1106.09 3428.03ZM3586.02 3628.19C3615.23 3617.11 3646.01 3632.36 3671.18 3646.58C3704.04 3672.66 3701.3 3721.16 3693.6 3758.59C3676.26 3817.27 3633.23 3862.91 3593.59 3907.63C3593.59 3914.68 3593.59 3928.76 3594.37 3935.67C3573.5 3956.02 3551.04 3974.69 3527.21 3991.48C3527.21 3987.18 3528.91 3978.44 3529.43 3974.53C3444.93 4031.38 3339.7 4043.9 3240.73 4030.47L3201.61 4024.6C3201.61 3985.48 3193.65 3941.93 3214.65 3906.07C3244.9 3846.48 3308.54 3817.4 3356.52 3774.89C3422.46 3711.34 3500.32 3661.48 3585.63 3628.19H3586.02ZM2242.91 4084.59C2270.82 4051.33 2321.15 4045.47 2361.45 4050.16C2406.3 4060.85 2445.68 4086.28 2488.98 4101.54C2544.79 4122.53 2608.03 4142.87 2639.72 4197.9C2646.76 4222.55 2631.11 4246.28 2625.11 4269.62L2595.77 4281.1C2530.57 4310.44 2457.03 4300.53 2388.44 4290.62C2341.89 4270.14 2271.08 4278.88 2249.83 4223.07C2234.7 4178.73 2245.39 4130.36 2242.91 4084.59ZM3397.47 4155.39C3434.5 4140.27 3472.71 4128.27 3510 4113.4C3515.61 4129.7 3521.48 4145.87 3526.17 4162.7C3508.05 4172.48 3489.14 4180.56 3470.23 4188.78C3468.67 4179.13 3465.54 4159.83 3463.84 4149.66C3438.04 4156.03 3411.92 4161.08 3385.6 4164.78L3398.64 4154.74L3397.47 4155.39Z" fill="#FFA230"/>
</svg>
