<svg width="4697" height="4658" viewBox="0 0 4697 4658" fill="none" xmlns="http://www.w3.org/2000/svg">
<path d="M1930.92 110.149C2240.48 23.9555 2572.22 27.6065 2882.83 106.759C2907.83 112.872 2933.51 115.764 2959.24 115.365L2932.25 124.493L2988.06 129.057C3045.44 148.617 3104.25 163.352 3162.41 181.217L3163.32 187.215C3211.29 204.401 3258.31 224.163 3304.15 246.416C3319.93 251.111 3335.84 255.414 3351.88 259.456C3337.4 277.973 3322.67 296.229 3309.11 315.267C3322.93 303.401 3336.49 291.274 3349.79 278.755C3383.04 277.843 3425.29 283.45 3440.03 317.875C3450.47 316.867 3460.99 318.621 3470.54 322.96C3480.08 327.376 3488.34 334.153 3494.53 342.651C3548 363.515 3593.9 398.853 3640.58 431.322C3802.01 544.248 3956.8 668.91 4085.89 818.347C4141.05 882.503 4187.34 953.571 4235.46 1022.94C4333.52 1162.73 4434.19 1303.69 4496.26 1464.21C4501.21 1477.17 4506.17 1490.21 4511.12 1503.33C4552.2 1612.61 4566.41 1729.32 4599.14 1841.07C4630.31 1933.52 4619.36 2033.02 4645.17 2126.77C4654.27 2266.62 4654.75 2406.89 4646.61 2546.79C4628.48 2633.24 4620.53 2722.44 4589.36 2805.76C4586.63 2818.8 4583.89 2831.84 4581.41 2845.66C4570.06 2875.45 4560.65 2905.94 4553.24 2936.94C4543.59 2966.67 4534.73 2996.66 4525.21 3026.53C4520.9 3039.57 4516.47 3052.61 4512.17 3065.65C4507.86 3078.69 4503.04 3091.73 4498.35 3104.77C4482.83 3142.19 4466.27 3179.22 4454.14 3217.95L4439.4 3211.17C4442.14 3219.85 4442.94 3229.02 4441.75 3238.03C4440.47 3247.08 4437.17 3255.73 4432.1 3263.33C4430.54 3271.02 4427.28 3286.54 4425.71 3294.37L4403.68 3293.45C4402.11 3308.67 4400.55 3324.05 4398.98 3339.61C4362.99 3407.55 4324.26 3474.06 4281.62 3538.47C4253.46 3575.25 4226.59 3612.93 4197.91 3649.31C4055.23 3819.98 3893.88 3974.12 3716.86 4108.84C3651.66 4154.35 3589.33 4205.07 3517.48 4239.24L3514.35 4244.45C3465.57 4264.63 3418.33 4288.34 3373 4315.39C3330.85 4339.66 3287.31 4361.43 3242.6 4380.59L3239.99 4387.37C3189.53 4406.28 3140.63 4429.36 3089.12 4445.79C3068.39 4452.44 3047.52 4458.83 3027.44 4467.44L2993.54 4469.91L2992.63 4480.61L2946.07 4486.08C2879.44 4509.29 2808.37 4513.47 2740.3 4530.42C2707.7 4533.55 2675.1 4535.24 2642.37 4535.9L2640.94 4545.68C2477.94 4549.46 2314.94 4555.59 2151.68 4543.85C2121.96 4535.29 2091.31 4530.38 2060.4 4529.25C2022.98 4519.47 1983.73 4516.21 1948 4499.65C1917.72 4499.11 1887.79 4493.01 1859.72 4481.65V4435.75L1867.28 4424.67C1875.63 4412.67 1883.71 4400.67 1891.8 4388.54C2010.46 4411.37 2129.9 4438.1 2251.7 4432.1C2276.27 4442.42 2301.49 4451.13 2327.2 4458.18L2351.84 4474.74L2369.06 4443.7C2469.59 4430.66 2576.39 4436.01 2670.54 4394.02L2695.58 4382.42L2703.27 4381.5C2801.85 4379.03 2893.13 4337.04 2985.45 4306.78C3082.47 4274.58 3172.19 4216.29 3276.38 4208.59C3310.41 4209.38 3344.44 4208.59 3378.48 4205.99C3344.96 4200.25 3311.06 4197.51 3277.68 4191.38C3305.32 4161 3348.75 4173 3384.61 4166.35C3410.93 4162.64 3437.04 4157.59 3462.85 4151.22C3464.54 4160.87 3467.67 4180.17 3469.23 4190.34C3488.14 4181.99 3507.05 4173.91 3525.18 4164.26C3520.48 4147.44 3514.61 4131.27 3509.01 4114.97C3586.2 4078.85 3654.14 4025.91 3719.86 3972.44C3803.84 3903.2 3867.47 3796.27 3850.26 3684.13C3890.56 3613.71 3956.28 3563.51 4001.26 3496.35C4064.87 3410.99 4123.3 3321.9 4176.26 3229.56C4204.04 3196.04 4236.37 3165.53 4255.8 3125.24C4284.36 3072.3 4293.75 3012.18 4302.88 2953.5C4452.44 2605.08 4485.44 2210.23 4408.24 1839.5C4370.42 1729.58 4348.12 1613.91 4295.44 1509.46C4236.76 1519.24 4176.26 1544.8 4116.8 1531.5C4035.95 1481.04 3966.58 1395.89 3963.84 1296.78C4008.1 1291.54 4052.68 1289.5 4097.24 1290.65L4120.45 1292.61L4146.53 1280.48L4165.57 1270.83L4117.97 1191.68C4083.28 1209.67 4044.95 1251.79 4003.48 1227.67C3980.4 1217.24 3984.31 1187.77 3977.4 1167.56C4012.74 1161.3 4048.21 1155.3 4083.68 1149.82C4025.91 1066.63 3954.58 994.386 3890.95 915.885C3886.25 936.88 3882.08 958.004 3876.73 978.738C3882.31 940.733 3883.02 902.17 3878.82 863.987C3873.21 850.947 3867.73 837.907 3862.52 824.867C3768.24 624.574 3530.65 489.741 3310.54 544.639C3341.44 536.033 3372.61 528.339 3403.77 520.515L3380.83 501.868C3420.86 499.782 3460.63 495.87 3500.66 492.61C3540.96 502.261 3580.26 515.708 3618.02 532.773C3617.24 526.513 3615.93 513.865 3615.15 507.475C3583.52 489.347 3549.98 474.783 3515.14 464.052C3431.29 428.584 3334.27 471.224 3251.99 427.019C3164.3 380.114 3074.19 337.85 2982.06 300.402C2977.24 278.886 2982.06 251.502 2961.59 236.767C2910.74 189.041 2835.63 205.21 2772.38 204.167L2747.08 225.552V192.561C2709.66 201.559 2670.41 208.601 2632.59 197.256C2556.57 176.783 2477.42 178.739 2399.44 174.045C2371.27 137.794 2336.07 105.846 2290.43 94.1101C2314.29 120.19 2342.59 142.488 2367.88 167.134L2329.55 175.61C2234.09 115.235 2113.21 92.4147 2006.03 134.664C1932.74 152.137 1874.06 201.689 1833.25 263.498C1741.97 281.754 1660.86 328.698 1577.27 366.253C1480.06 418.701 1386.6 477.826 1297.57 543.205C1235.89 593.8 1150.48 576.065 1079.02 601.363C983.436 627.443 886.81 664.215 816.003 736.195C778.057 764.492 744.544 797.874 709.466 829.431C628.158 891.029 567.788 976.168 536.559 1073.28C521.824 1113.18 531.734 1155.17 539.819 1195.2C535.124 1233.15 527.822 1271.88 537.993 1309.56C540.731 1322.6 544.772 1335.64 548.163 1348.68C479.847 1458.2 423.621 1574.8 380.47 1696.45C354.103 1705.35 329.158 1717.99 306.404 1734.01C313.185 1750.44 320.486 1766.61 328.31 1782.52C284.365 1826.98 235.596 1877.58 237.031 1944.87C234.393 1972.05 238.515 1999.46 249.028 2024.67C259.528 2050.03 276.096 2072.41 297.275 2089.87L279.02 2099.52C283.193 2107.47 287.235 2115.43 291.277 2123.51V2128.34C276.02 2196.54 279.02 2266.43 280.193 2335.67C274.456 2523.05 308.489 2709.27 357.65 2889.35C418.278 3113.17 514.763 3325.69 643.355 3518.65C700.339 3592.46 752.5 3671.61 823.306 3733.29C829.787 3785.63 840.693 3837.32 855.906 3887.81C855.906 3892.51 854.471 3902.03 853.95 3906.72C789.848 3844.68 730.358 3778.04 675.955 3707.34C651.048 3676.04 626.663 3644.1 603.713 3611.24C567.201 3564.29 533.95 3515 498.612 3467.8C443.606 3390.45 393.479 3309.75 348.523 3226.17C324.11 3175.28 302.645 3123.04 284.235 3069.69C277.324 3046.61 269.761 3023.79 263.11 3000.58C233.379 2897.43 209.777 2791.94 184.871 2687.62C155.278 2563.99 140.785 2437.23 141.71 2310.11C152.402 2166.67 157.748 2021.67 185.263 1879.8C189.044 1853.72 189.567 1827.64 200.781 1803.12C202.215 1795.82 204.822 1781.34 206.126 1774.17C226.208 1718.62 240.552 1661.12 262.459 1606.22C267.284 1593.18 272.24 1580.14 277.325 1567.88C299.363 1511.42 317.487 1453.52 340.307 1397.32C345.523 1384.28 351 1372.15 356.346 1359.63C377.21 1311.13 398.118 1262.83 419.069 1214.76C424.024 1201.72 429.109 1188.68 434.325 1176.55C450.449 1134.97 472.402 1095.9 499.524 1060.5L519.215 1029.46C655.221 818.086 836.606 638.266 1040.81 493.783C1154.76 418.337 1274.39 351.851 1398.63 294.925L1427.58 334.044L1449.22 325.829L1425.75 322.96C1409.97 277.321 1457.57 266.628 1490.95 263.498C1502.42 278.755 1514.03 293.881 1524.33 309.921L1537.37 306.791C1535.94 314.224 1533.2 329.22 1531.89 336.653L1546.5 337.696L1542.85 309.269C1526.42 290.361 1503.73 274.191 1501.12 246.938C1528.26 237.952 1556.14 231.406 1584.45 227.378V218.902C1604.01 210.948 1623.57 202.472 1642.73 193.735L1670.12 187.867C1724.23 162.57 1783.57 152.268 1838.86 130.1C1853.98 128.144 1869.24 126.449 1884.49 124.754V114.583C1899.75 113.279 1915.01 111.844 1930.26 110.149H1930.92ZM3821.7 683.906C3837.74 711.029 3869.3 730.979 3869.56 765.144L3879.21 761.884C3887.95 803.481 3897.73 844.948 3906.46 886.676L3919.5 885.894C3925.76 807.393 3881.95 732.023 3822.36 683.645L3821.7 683.906ZM3895.25 3688.69C3900.73 3755.46 3857.69 3810.22 3847.65 3873.47C3865.26 3876.08 3869.43 3854.43 3878.43 3843.87C3905.81 3797.58 3918.33 3739.55 3895.25 3688.69ZM2458.25 218.25C2485.24 214.599 2527.1 207.688 2537.66 241.461C2539.49 259.717 2546.79 287.753 2522.54 293.621C2498.28 299.489 2451.47 308.616 2439.6 275.625C2423.96 256.718 2438.56 225.553 2458.25 218.12V218.25ZM2431.39 334.305C2498.15 303.922 2593.61 357.125 2586.96 433.93C2582.39 467.312 2552.53 484.916 2522.67 492.088C2480.87 506.909 2438.35 519.617 2395.27 530.165C2350.93 542.292 2299.82 496.392 2315.85 450.752C2338.54 400.157 2383.92 361.559 2431.39 334.305ZM1110.18 368.209C1131.59 363.552 1153.48 361.494 1175.38 362.08C1059.85 430.67 944.707 503.954 848.603 598.755C857.861 583.367 867.25 567.981 876.639 552.594C909.631 499.783 954.227 455.187 1007.04 422.194C1039.59 401.043 1074.08 383.053 1110.05 368.47L1110.18 368.209ZM4313.83 1059.32C4342.65 1070.54 4383.59 1081.36 4390.5 1116.31C4455.7 1158.56 4486.09 1236.8 4514.25 1306.04C4521.17 1334.79 4523.38 1364.47 4520.77 1393.93L4534.6 1402.4H4511.78C4508.52 1387.41 4505.13 1372.41 4501.74 1357.55C4473.57 1315.17 4452.44 1268.88 4425.84 1225.58C4403.54 1186.46 4361.56 1153.47 4364.29 1105.23C4353.22 1101.35 4343.04 1095.28 4334.35 1087.4C4325.66 1079.52 4318.64 1069.97 4313.7 1059.32H4313.83ZM1235.37 1951.25C1256.36 1906.79 1296.79 1859.98 1351.55 1871.32C1381.28 1904.96 1424.71 1935.74 1427.18 1984.64C1429.66 2033.54 1385.33 2058.96 1352.2 2083.22C1333.04 2098.74 1302.26 2103.3 1284.14 2083.22C1251.54 2047.88 1217.11 2001.72 1235.37 1950.86V1951.25ZM35.6951 2402.04C49.5174 2362.93 58.3837 2317.42 96.8515 2295.12C105.849 2326.93 69.7296 2363.32 94.7663 2389.27C94.8684 2448.16 100.411 2506.91 111.326 2564.78L87.3326 2585.12C137.536 2590.34 120.455 2650.32 128.67 2683.97C113.233 2683.08 97.8961 2686.95 84.7253 2695.05L113.282 2691.27L111.066 2704.31C138.45 2711.09 146.925 2737.69 155.662 2760.9L129.582 2757.64C76.1182 2714.87 48.7341 2649.54 41.3013 2582.78C26.4358 2523.71 33.608 2461.9 35.0424 2401.78L35.6951 2402.04ZM2623.47 3502.61C2652.94 3482.79 2703.66 3500.4 2706.92 3537.82C2712.27 3580.85 2655.94 3615.02 2620.6 3587.89C2590.08 3568.47 2596.86 3521.91 2623.47 3502.61ZM3003.58 3699.39C3037.79 3700.7 3070.31 3714.64 3094.86 3738.51C3126.29 3785.32 3106.73 3847 3077.12 3889.51C3023.4 3956.27 2937.6 3989.52 2854.4 3999.3C2813.59 4004.52 2757.12 3989.13 2755.43 3939.71C2741.61 3874.51 2785.68 3821.57 2823.76 3775.41C2866.14 3721.68 2937.34 3701.08 3003.32 3698.99L3003.58 3699.39ZM2651.5 3750.37C2702.75 3734.07 2726.35 3802.53 2700.27 3837.87C2682.41 3864.86 2643.94 3860.3 2617.34 3852.21C2576.78 3822.22 2605.86 3757.02 2651.5 3750.37ZM1784.09 3835.39C1778.59 3822.37 1778.22 3807.75 1783.06 3794.47C1787.89 3781.19 1797.58 3770.23 1810.17 3763.8C1831.64 3764.6 1853.04 3766.91 1874.19 3770.71C1877.2 3799.03 1876.01 3827.63 1870.67 3855.6C1841.98 3853.13 1795.69 3871.9 1783.44 3835.39H1784.09ZM853.689 3795.49L895.546 3793.01C932.319 3900.33 1006.26 3990.57 1092.32 4062.81C1155.95 4114.97 1222.72 4167.13 1302.26 4193.99C1354.42 4212.25 1409.84 4203.25 1463.7 4205.33C1424.58 4212.77 1385.46 4214.72 1347.38 4220.33C1397.32 4230.76 1448.96 4231.02 1498.38 4244.72C1466.3 4247.98 1434.23 4250.06 1402.28 4253.45C1449.09 4285.14 1506.6 4272.1 1558.76 4262.45C1653.69 4314.61 1758.01 4346.04 1861.15 4377.07C1857.5 4395.72 1853.98 4414.1 1850.85 4432.88C1849.03 4445.92 1847.46 4458.96 1846.16 4472L1794 4467.7L1795.82 4453.35H1748.1C1705.98 4436.14 1661.77 4424.67 1618.87 4410.06L1579.75 4395.33L1525.11 4372.9C1480.13 4351.9 1435.27 4330.52 1390.54 4309.26L1386.89 4303.26C1343.26 4282.66 1301.27 4258.73 1261.32 4231.68C1224.94 4206.77 1187.51 4183.69 1150.48 4159.69C1072.24 4109.23 1009.39 4038.29 935.449 3981.7L933.493 3978.05C903.631 3918.72 864.382 3862.52 853.819 3795.49H853.689ZM1807.3 3989C1811.99 3951.97 1836.12 3905.03 1879.15 3905.55C1932.74 3903.46 1999.64 3892.51 2039.67 3937.49C2063.79 3979.35 2041.36 4029.82 2039.67 4074.94C1989.33 4096.32 1924.92 4105.45 1878.63 4070.24C1849.55 4048.86 1820.73 4023.3 1807.3 3989ZM3174.4 4466.78L3195.01 4448.79C3173.88 4499.12 3118.85 4521.03 3076.73 4550.63C3006.96 4583.74 2933.32 4608.01 2857.53 4622.87C2816.85 4626.52 2777.73 4614.14 2738.09 4608.4L2685.93 4585.84C2731.96 4568.1 2777.21 4588.58 2823.24 4591.84C2808.5 4583.1 2793.64 4574.36 2778.64 4565.76C2809.02 4561.98 2840.84 4561.98 2869.92 4549.07C2889.74 4547.5 2909.82 4546.85 2929.9 4546.46L2927.3 4535.51C2980.37 4528.2 3030.05 4504.08 3083.78 4502.91C3111.7 4485.83 3142.22 4473.41 3174.14 4466.13L3174.4 4466.78Z" fill="#FD3468"/>
<path d="M2075.8 32.0411C2313.78 -20.1185 2562.97 -0.558643 2800.69 45.0811C2893.27 68.1617 2986.77 89.2864 3076.48 122.538C3154.72 148.618 3228.27 188.781 3311.2 200.778C3362.21 221.118 3411.71 245.041 3459.33 272.367C3501.71 299.881 3545.27 325.309 3588.3 351.78C3756.4 458.034 3912.71 581.871 4054.61 721.201C4139.89 808.177 4209.26 908.193 4277.46 1008.73C4430.29 1047.85 4528.87 1197.16 4556.77 1345.16C4571.12 1409.71 4551.04 1476.47 4565.12 1540.76C4570.86 1557.71 4576.07 1574.79 4581.81 1591.88C4584.29 1604.92 4586.9 1619.13 4589.77 1632.82C4610.63 1709.89 4623.93 1789.3 4645.97 1865.84C4648.44 1888.14 4650.92 1910.44 4653.92 1932.74C4666.18 2027.93 4689.26 2121.95 4693.04 2218.18C4698.26 2370.62 4700.21 2524.75 4668.53 2674.58C4664.22 2696.1 4660.7 2717.87 4655.49 2739.78C4624.45 2844.1 4599.28 2948.42 4561.6 3050.78C4544.52 3105.42 4524.7 3159.27 4503.83 3212.61C4494.05 3233.99 4484.66 3255.77 4475.41 3277.81C4459.5 3313.14 4442.8 3348.09 4425.85 3382.91C4378.3 3471.02 4323.88 3555.26 4263.11 3634.84C4159.58 3770.32 4036.74 3889.9 3909.73 4002.96C3799.65 4097.15 3682.71 4183.01 3559.87 4259.84C3479.81 4296.61 3405.22 4343.43 3328.94 4387.11C3301.16 4401.98 3273.39 4416.58 3245.74 4431.58C3212.23 4518.95 3121.73 4569.28 3041.41 4608.27C2938.78 4652.74 2819.73 4680.38 2712.93 4631.35C2692.85 4617.01 2673.81 4601.23 2653.08 4587.93C2417.45 4611.4 2176.86 4605.4 1945.66 4550.76C1931.19 4547.89 1916.84 4545.29 1902.37 4542.68C1885.68 4537.07 1868.6 4532.51 1851.64 4528.2C1790.88 4510.6 1728.68 4497.17 1670.26 4472.52L1643.4 4465.74C1630.36 4460 1617.32 4454.53 1604.28 4449.18C1570.2 4436.14 1536.38 4422.71 1502.83 4408.89C1377.87 4351.72 1258.48 4283.1 1146.19 4203.9C1084.25 4161.91 1034.82 4104.8 973.796 4061.64C718.866 3867.34 527.44 3605.24 355.965 3337.66C326.042 3287.92 299.889 3236 277.726 3182.35C247.212 3116.37 229.217 3045.7 207.701 2976.58C192.575 2922.73 180.318 2868.09 162.062 2815.28C96.8622 2793.9 53.7004 2734.95 27.099 2674.45C-3.15361 2590.6 -2.50079 2500.37 3.49757 2412.74C7.2834 2376.15 18.3213 2340.69 35.9668 2308.42L64.9151 2281.17C81.0846 2268.13 104.034 2255.09 106.381 2232.14C113.162 2162.76 102.992 2091.3 120.465 2023.5C124.116 1992.85 126.203 1962.08 128.811 1931.3C146.936 1853.07 154.89 1773.13 186.577 1699.06C188.142 1692.02 191.532 1678.2 193.227 1671.16C198.704 1658.12 204.05 1645.08 209.266 1632.04C229.478 1574.92 250.342 1518.07 272.901 1462.52C294.678 1410.36 313.847 1357.03 335.363 1304.61C345.273 1283.35 354.661 1261.97 363.919 1240.45C382.175 1201.33 400.172 1162.21 420.514 1124.92C486.776 1004.75 565.445 891.865 655.232 788.096C698.394 734.632 749.38 688.471 796.323 638.528C803.435 612.874 813.045 587.979 825.012 564.2C898.557 445.798 1016.96 342.522 1159.35 325.179C1189.87 319.963 1221.16 325.178 1251.55 319.31C1326.4 285.016 1398.51 244.461 1475.44 214.991C1491.61 207.819 1507.91 200.908 1524.08 193.867C1580.15 171.177 1637.53 152.139 1693.6 129.319L1721.64 122.929C1734.68 117.453 1747.72 112.106 1761.67 106.891C1825.56 84.4619 1893.5 74.6819 1957.27 49.7756C1977.85 48.4715 1998.49 48.4715 2019.08 49.7756C2012.3 44.2989 2005.78 38.6916 1999.52 32.954C2024.95 33.8449 2050.42 33.3659 2075.8 31.5194V32.0411ZM1931.58 110.281C1916.32 111.976 1901.07 113.41 1885.81 114.714V124.885C1870.55 126.58 1855.3 128.276 1840.17 130.232C1784.88 152.4 1725.55 162.701 1671.43 187.998L1644.05 193.867C1624.75 202.603 1604.93 211.079 1585.76 219.033V227.51C1557.46 231.538 1529.57 238.084 1502.44 247.07C1504.91 274.323 1527.73 290.493 1544.16 309.4L1547.81 337.827L1533.21 336.784C1534.51 329.351 1537.25 314.356 1538.69 306.923L1525.65 310.052C1515.34 294.013 1503.74 278.887 1492.26 263.63C1458.36 266.76 1410.76 277.452 1427.06 323.092L1450.54 325.961L1428.89 334.176L1399.94 295.056C1275.7 351.982 1156.07 418.468 1042.13 493.915C837.399 638.528 656.014 818.218 520.529 1029.59L499.926 1060.24C472.804 1095.64 450.851 1134.71 434.727 1176.29C429.511 1189.33 424.425 1201.72 419.47 1214.5C398.519 1262.75 377.612 1311.04 356.748 1359.37C351.402 1372.41 345.926 1384.41 340.71 1397.06C317.89 1453.26 299.763 1511.16 277.726 1567.62C272.64 1580.66 267.685 1593.7 262.86 1605.96C240.953 1660.86 226.61 1718.36 206.528 1773.91C205.224 1781.09 202.616 1795.56 201.182 1802.86C189.967 1826.86 189.446 1853.72 185.665 1879.54C158.151 2020.89 152.805 2166.41 142.112 2309.85C140.932 2436.77 155.163 2563.35 184.492 2686.84C209.528 2791.16 233.131 2895.48 262.731 2999.8C269.382 3023.01 276.945 3045.83 283.856 3068.91C302.266 3122.26 323.729 3174.5 348.142 3225.39C393.098 3308.97 443.225 3389.67 498.231 3467.02C533.569 3514.87 566.822 3564.16 603.334 3610.45C626.284 3643.32 650.667 3675.65 675.574 3706.56C730.009 3777.35 789.543 3844.08 853.699 3906.2L852.657 3914.55C877.974 3937.22 904.811 3958.13 932.981 3977.14L934.938 3980.79C1008.87 4037.38 1071.34 4108.32 1149.97 4158.78C1187 4182.78 1224.42 4205.86 1260.81 4230.76C1300.76 4257.82 1342.75 4281.75 1386.38 4302.35L1390.03 4308.35C1434.76 4329.61 1479.61 4350.99 1524.6 4371.99L1579.89 4393.89L1617.84 4409.02C1660.74 4423.62 1704.95 4435.1 1747.06 4452.31H1794.79L1792.96 4466.66L1845.12 4470.96C1846.43 4457.92 1847.99 4444.88 1849.82 4431.84L1867.16 4423.23L1859.6 4434.32V4480.22C1887.67 4491.58 1917.6 4497.68 1947.88 4498.21C1983.61 4514.25 2022.86 4518.03 2060.28 4527.81C2091.19 4528.95 2121.84 4533.85 2151.56 4542.42C2314.43 4554.15 2477.56 4548.02 2640.82 4544.24L2642.25 4534.46C2674.98 4534.46 2707.45 4532.12 2740.18 4528.99C2808.25 4512.03 2879.32 4507.86 2945.95 4484.65L2992.51 4479.17L2993.42 4468.48L3027.32 4466C3047.4 4457.4 3068.27 4451.01 3089 4444.36C3141.16 4427.93 3189.41 4405.24 3239.87 4385.94L3242.48 4379.16C3287.19 4360 3330.73 4338.23 3372.88 4313.96C3418.21 4286.9 3465.45 4263.2 3514.23 4243.02L3517.36 4237.8C3589.21 4203.12 3651.67 4152.39 3716.74 4107.41C3893.52 3972.99 4054.73 3819.25 4197.4 3649.05C4226.08 3612.67 4252.94 3574.99 4281.11 3538.21C4323.49 3473.8 4362.22 3407.81 4398.47 3339.36C4400.03 3323.88 4401.6 3308.49 4403.16 3293.19L4425.2 3294.11C4426.77 3286.28 4430.03 3270.76 4431.59 3263.07C4436.66 3255.47 4439.95 3246.82 4441.24 3237.77C4442.43 3228.76 4441.63 3219.59 4438.89 3210.91L4453.63 3217.69C4465.75 3178.57 4482.32 3141.93 4497.83 3104.51C4502.53 3091.47 4507.09 3078.43 4511.66 3065.39C4516.22 3052.35 4520.65 3039.31 4524.7 3026.27C4534.22 2996.41 4543.08 2966.41 4552.73 2936.68C4560.14 2905.68 4569.55 2875.19 4580.9 2845.4C4583.38 2832.36 4586.11 2819.32 4588.85 2805.5C4620.28 2722.18 4627.97 2632.98 4646.1 2546.53C4654.4 2406.77 4654.1 2266.63 4645.19 2126.9C4619.11 2033.15 4630.32 1933.65 4599.15 1841.2C4566.42 1729.45 4552.21 1612.74 4511.13 1503.47L4496.27 1464.35C4434.72 1303.82 4334.05 1162.86 4235.47 1023.07C4187.35 953.702 4141.06 882.635 4085.9 818.478C3956.81 669.041 3802.02 544.64 3640.59 431.454C3593.91 398.984 3548.01 363.646 3494.54 342.783C3488.35 334.285 3480.09 327.508 3470.55 323.092C3461 318.752 3450.48 316.998 3440.04 318.006C3425.3 283.32 3383.05 277.713 3349.8 278.887C3336.76 291.927 3322.94 303.532 3309.12 315.399C3322.16 296.36 3337.41 278.105 3351.89 259.588C3335.85 255.154 3319.94 250.721 3304.16 246.548C3258.32 224.295 3211.3 204.532 3163.33 187.347L3162.42 181.348C3104.26 164.005 3045.06 149.27 2988.07 129.189L2932.26 124.625L2959.25 115.497C2933.52 115.903 2907.84 113.011 2882.84 106.891C2571.84 27.7382 2240.1 24.0868 1930.93 110.281H1931.58ZM1110.06 368.862C1074.09 383.445 1039.6 401.435 1007.05 422.587C954.238 455.579 909.642 500.175 876.65 552.986C867.261 568.373 857.872 583.76 848.614 599.147C944.718 504.347 1059.86 431.062 1175.39 362.473C1153.49 361.886 1131.6 363.944 1110.2 368.601L1110.06 368.862ZM4312.67 1058.93C4317.6 1069.58 4324.62 1079.13 4333.31 1087.01C4342 1094.89 4352.19 1100.96 4363.26 1104.84C4360.52 1153.08 4402.38 1186.46 4424.81 1225.19C4450.89 1268.49 4472.54 1314.78 4500.7 1357.16C4504.09 1372.02 4507.48 1387.02 4510.74 1402.01H4533.43L4519.61 1393.54C4522.21 1364.08 4520.01 1334.4 4513.09 1305.65C4484.92 1236.41 4453.89 1158.17 4389.34 1115.92C4382.82 1080.84 4341.88 1070.02 4313.06 1058.8L4312.67 1058.93ZM35.5753 2402.05C34.1409 2462.16 26.9687 2523.97 41.8342 2583.04C49.2669 2649.8 76.651 2715.13 130.115 2757.91L156.194 2761.17C147.458 2737.95 138.981 2711.35 111.597 2704.57L113.815 2691.53L85.2565 2695.31C98.4273 2687.21 113.764 2683.34 129.201 2684.23C120.986 2650.46 138.069 2590.6 87.8654 2585.39L111.858 2565.04C100.944 2507.17 95.3996 2448.42 95.2975 2389.53C70.2608 2363.45 106.382 2327.2 97.3843 2295.38C58.2646 2317.68 50.0486 2363.84 36.2263 2402.31L35.5753 2402.05ZM3173.76 4467.57C3141.84 4474.84 3111.32 4487.26 3083.39 4504.34C3029.28 4505.51 2979.08 4529.64 2926.92 4536.94L2929.52 4547.89C2909.44 4547.89 2889.36 4548.94 2869.54 4550.5C2841.11 4563.54 2809.3 4563.54 2778.26 4567.19C2793.26 4575.28 2808.12 4583.88 2822.86 4593.27C2776.7 4590.01 2731.58 4569.54 2685.55 4587.27L2737.71 4609.83C2776.83 4615.57 2815.95 4627.96 2857.15 4624.31C2932.94 4609.45 3006.58 4585.18 3076.35 4552.07C3118.47 4522.47 3173.5 4500.56 3194.63 4450.22L3174.02 4468.22L3173.76 4467.57ZM2747.49 225.684L2772.78 204.298C2836.03 205.342 2911.14 189.172 2961.99 236.898C2982.21 251.633 2977.64 279.017 2982.47 300.533C2963.01 315.875 2942.77 330.195 2921.83 343.434C2893.82 348.317 2865.12 347.568 2837.4 341.232C2809.68 334.896 2783.5 323.099 2760.4 306.532C2752.56 294.725 2747.32 281.392 2745.01 267.412C2742.78 253.452 2743.58 239.176 2747.36 225.553L2747.49 225.684ZM2764.96 240.941C2769.52 261.283 2778 289.319 2805.12 286.059L2792.08 291.927C2833.14 309.552 2878.26 315.509 2922.48 309.139C2926.13 290.934 2933.02 273.533 2942.82 257.762C2931.08 249.738 2917.73 244.355 2903.7 241.984C2860.67 217.99 2809.43 222.685 2765.35 240.941H2764.96ZM3310.29 544.771C3530.4 489.873 3767.99 624.705 3862.27 824.998C3867.48 838.038 3872.96 851.078 3878.57 864.118C3882.76 902.301 3882.06 940.864 3876.48 978.87C3846.88 1065.45 3769.42 1125.96 3687.14 1159.6C3466.25 1241.88 3181.72 1130 3100.35 902.064C3086.52 816.044 3099.83 727.852 3138.42 649.742C3167.76 603.711 3218.88 577.631 3268.04 557.55C3281.08 552.986 3295.55 548.813 3309.64 544.51L3310.29 544.771ZM3262.95 603.581C3177.41 641.005 3144.16 736.849 3129.95 822.13C3129.95 852.382 3129.95 891.502 3165.02 901.673C3168.8 922.118 3175.24 941.979 3184.19 960.744C3200.49 1006.12 3242.74 1034.03 3279.91 1061.28C3392.31 1132.35 3535.75 1168.99 3664.71 1122.96C3749.34 1085.67 3832.54 1014.08 3838.01 915.365C3824.97 803.874 3748.69 690.035 3629.38 672.301L3651.8 644.656L3623.77 631.617C3515.02 572.155 3377.44 542.424 3262.56 603.059L3262.95 603.581ZM3821.58 683.385C3881.18 731.763 3924.99 806.612 3918.73 885.373L3905.69 886.156C3896.96 844.428 3887.17 802.961 3878.44 761.364L3868.79 764.623C3869.44 729.937 3838.14 709.986 3821.58 682.863V683.385ZM1113.71 701.38C1185.86 691.931 1259.23 699.799 1327.73 724.334C1396.23 748.869 1457.91 789.365 1507.65 842.472C1578.59 912.887 1615.62 1011.99 1624.23 1110.57C1629.44 1239.41 1555.12 1355.72 1468.66 1445.18C1351.3 1570.1 1194.82 1675.2 1017.22 1679.11C881.344 1668.29 746.25 1598.13 672.444 1481.04C606.071 1385.85 595.379 1262.36 614.026 1150.61C629.804 1055.67 683.658 974.045 740.643 898.935C830.618 784.966 973.014 723.026 1113.71 701.38ZM792.151 911.714C736.471 962.569 706.61 1033.25 674.792 1099.49C641.28 1198.72 633.194 1314.91 689.005 1408.01L688.093 1411.27C756.292 1544.8 905.207 1639.08 1056.21 1626.17C1188.43 1608.7 1305.01 1531.63 1396.94 1438.27C1479.22 1361.85 1553.42 1265.49 1567.37 1150.61C1581.46 1050.72 1515.21 941.967 1412.85 921.755C1414.29 907.672 1415.85 893.719 1417.41 879.636C1442.19 891.893 1466.97 904.021 1492.13 915.365C1481.7 899.717 1477.92 874.681 1456.01 871.551C1420.35 832.807 1376.72 802.253 1328.12 781.992C1279.52 761.732 1227.1 752.247 1174.48 754.192C1031.04 749.758 893.34 814.175 792.541 913.018L792.151 911.714ZM1730.37 1094.27C1737.06 1119.88 1737.42 1146.73 1731.42 1172.51L1737.28 1180.08L1726.59 1181.12C1722.38 1234.47 1708.74 1286.66 1686.3 1335.25C1662.43 1418.84 1595.02 1473.86 1529.82 1526.55C1565.94 1466.04 1629.83 1425.75 1653.31 1357.03C1687.34 1293 1702.6 1222.32 1723.07 1153.47C1725.03 1133.39 1727.24 1113.44 1729.85 1093.49L1730.37 1094.27ZM3344.06 1193.38C3358.28 1198.2 3372.49 1203.42 3386.83 1208.63C3401.31 1210.2 3415.91 1211.89 3430.65 1213.85C3493.37 1233.41 3561.05 1226.89 3626.25 1220.89C3649.2 1209.55 3675.28 1210.85 3700.31 1210.72V1196.9L3712.31 1197.68L3699.27 1220.89C3584 1263.53 3456.34 1250.1 3343.93 1205.24V1193.38H3344.06ZM599.813 1528.63C651.972 1641.56 769.331 1706.76 887.603 1727.62C968.581 1750.57 1053.21 1742.23 1135.36 1749.92C1033.13 1766.61 924.766 1774.17 826.836 1733.88C729.95 1698.02 632.281 1631 599.16 1528.63H599.813ZM3754.82 1571.79C3826.32 1551.08 3901.71 1547.64 3974.8 1561.75C4034.55 1575.7 4089.41 1605.55 4133.57 1648.13C4177.74 1690.72 4209.57 1744.45 4225.69 1803.64C4278.76 1973.16 4190.61 2167.2 4037 2251.3C3934.38 2303.46 3813.63 2301.12 3703.44 2279.73C3628.07 2269.3 3579.69 2206.19 3538.36 2149.33C3511.49 2112.82 3488.02 2071.09 3488.02 2024.8C3474.98 1929.87 3470.94 1825.03 3523.36 1740.4C3571.61 1653.42 3664.71 1605.18 3754.82 1572.32V1571.79ZM3609.42 1696.59C3505.1 1776.39 3509.54 1920.35 3520.23 2037.97C3525.84 2129.25 3599.91 2194.45 3673.97 2237.35C3765.25 2255.35 3861.09 2270.6 3951.46 2242.83C3991.2 2232.69 4027.88 2213.05 4058.36 2185.62C4088.84 2158.18 4112.21 2123.76 4126.46 2085.31C4149.67 1974.73 4093.73 1865.06 4018.36 1787.6C3969.85 1733.88 3902.69 1705.32 3836.58 1680.03H3816.5C3815.72 1675.85 3814.02 1666.99 3813.11 1663.6C3878.31 1686.68 3946.51 1701.93 4006.49 1737.79L4037.13 1710.41C4028.79 1725.27 4011.05 1747.44 4031.27 1761.39C4064.43 1795.73 4094.94 1832.52 4122.55 1871.45C4133.76 1848.37 4145.1 1825.16 4156.84 1802.34C4150.84 1833.47 4142.11 1864.02 4130.76 1893.62C4148.77 1939.83 4161.42 1987.96 4168.44 2037.06C4209.26 1931.96 4212.26 1798.82 4130.89 1711.71C4117.85 1713.67 4108.59 1724.75 4097.9 1732.19L4102.59 1680.03C4041.31 1620.82 3955.64 1591.22 3871.53 1587.57C3774.38 1592.96 3681.86 1630.8 3608.77 1695.02L3609.42 1696.59ZM2062.11 1779.78C2116.09 1675.46 2232.54 1625.65 2344.42 1614.04C2297.22 1632.56 2247.01 1644.17 2203.59 1671.55C2151.43 1701.15 2108.92 1743.27 2062.11 1779.78ZM2132 1808.47C2272.7 1660.86 2513.68 1616.39 2694.02 1715.62C2757.93 1750.94 2810.89 1803.17 2847.09 1866.58C2883.29 1929.99 2901.34 2002.15 2899.27 2075.13C2897.58 2203.58 2828.86 2326.81 2727.14 2403.48C2652.56 2462.16 2557.62 2489.15 2463.74 2492.54C2401.82 2488.56 2340.68 2476.59 2281.83 2456.94C2247.15 2435.3 2211.15 2415.61 2178.29 2391.74C2087.01 2314.42 2024.03 2198.49 2030.03 2076.7C2022.86 1977.08 2068.11 1881.1 2133.57 1808.99L2132 1808.47ZM2250.27 1766.87C2178.68 1797.25 2128.09 1862.32 2098.1 1932.09C2072.02 1958.17 2078.02 1995.07 2088.45 2027.28C2073.95 2049.87 2066.67 2076.34 2067.58 2103.17C2078.28 2196.41 2120.66 2288.99 2194.72 2348.84C2269.44 2412.74 2368.55 2440.12 2464.65 2448.6C2550.84 2439.99 2641.99 2420.04 2709.54 2362.27C2783.08 2304.79 2832.22 2221.66 2847.11 2129.51C2842.16 2067.05 2832.77 2000.68 2796.91 1946.95C2807.5 1949.83 2817.26 1955.17 2825.39 1962.53C2833.53 1969.9 2839.81 1979.08 2843.72 1989.33C2827.16 1859.98 2715.41 1761.39 2597.14 1720.58C2481.08 1688.76 2358.11 1718.23 2250.8 1765.96L2250.27 1766.87ZM329.104 1783.95L352.054 1775.22C389.348 1768.44 437.335 1777.04 451.288 1817.6C484.54 1891.53 455.982 1972.9 421.817 2040.71C432.641 2045.27 453.244 2039.93 453.375 2056.62L449.462 2062.09C433.423 2082.7 419.079 2104.61 403.431 2125.6L390.391 2133.16C383.349 2136.81 369.527 2144.38 362.485 2148.16C338.622 2140.99 314.63 2135.12 290.245 2129.38V2124.56C286.203 2116.47 282.16 2108.52 277.987 2100.56C304.351 2118.96 332.431 2134.77 361.834 2147.77C383.741 2125.86 405.256 2103.69 426.12 2081L404.475 2057.14C382.046 2096.26 334.972 2095.35 296.243 2090.91C275.064 2073.46 258.496 2051.07 247.996 2025.71C237.483 2000.51 233.361 1973.09 235.999 1945.91C234.695 1878.62 283.464 1828.55 327.278 1783.56L329.104 1783.95ZM298.72 1857.11L328.321 1882.4C302.241 1897.01 283.985 1921.52 263.121 1943.82C262.208 1986.33 272.902 2028.71 306.415 2057.27H355.314C387.914 2023.11 416.602 1980.6 420.514 1932.61C416.471 1906.53 407.473 1868.06 374.352 1866.24L388.435 1861.67L427.554 1881.36C429.343 1862.49 425.304 1843.52 415.977 1827.01C406.651 1810.5 392.486 1797.25 375.395 1789.04C345.639 1806.91 319.174 1829.76 297.155 1856.59L298.72 1857.11ZM4303.02 2084.52C4322.06 2201.88 4220.61 2288.34 4128.94 2339.58C4115.9 2342.45 4102.86 2345.06 4089.82 2347.67C4197 2300.07 4281.5 2201.1 4302.63 2084.52H4303.02ZM677.922 2229.14C761.116 2135.12 921.898 2119.21 1019.96 2199.67C1020.87 2207.49 1022.83 2223.01 1023.87 2230.83C1018.92 2220.27 1013.96 2209.71 1009.14 2199.15C982.013 2187.54 954.629 2176.45 927.506 2165.11C878.606 2167.2 827.881 2159.11 780.807 2175.93C742.469 2185.06 710.782 2208.79 677.922 2229.14ZM790.717 2231.35C857.612 2220.14 929.722 2222.75 990.227 2257.43C1110.06 2317.42 1206.17 2435.3 1217.77 2571.56C1222.27 2616.27 1216.36 2661.41 1200.53 2703.46C1184.7 2745.51 1159.36 2783.34 1126.49 2813.98C999.486 2934.07 769.201 2920.64 661.883 2780.2C584.556 2686.58 575.949 2554.22 600.725 2439.86C621.458 2342.71 698.003 2264.74 790.195 2232.01L790.717 2231.35ZM686.398 2348.71C652.625 2395.13 640.237 2453.03 634.238 2508.84L652.362 2499.85C682.224 2454.86 708.434 2404.65 760.333 2381.18C718.172 2420.79 682.915 2467.15 656.014 2518.36C654.058 2567 650.015 2616.42 659.143 2664.54C670.749 2702.49 694.612 2734.82 714.955 2768.86C744.578 2796.22 778.165 2818.95 814.58 2836.28C954.889 2900.56 1137.32 2796.37 1165.35 2647.59C1175.66 2584.73 1171.22 2516.41 1136.41 2461.51C1108.63 2410.39 1066.25 2351.84 1001.18 2354.06L1024 2329.8C988.401 2307.64 953.455 2282.99 912.771 2270.99C831.141 2244.91 736.6 2280.9 686.918 2349.23L686.398 2348.71ZM3521.67 2271.52C3555.05 2323.68 3612.94 2349.76 3666.28 2375.84C3696.11 2380.66 3725.27 2389.02 3753.12 2400.74C3777.12 2402.57 3801.24 2404.52 3825.1 2408.3C3794.98 2415.74 3753.12 2430.21 3730.04 2401.92C3685.58 2403.74 3645.28 2384.96 3606.03 2366.71C3574.22 2338.8 3532.75 2315.72 3521.67 2271.65V2271.52ZM871.564 2336.72C910.684 2311.68 958.149 2322.5 1001.96 2320.81L1004.18 2341.02C960.106 2339.45 916.161 2338.41 872.217 2336.72H871.564ZM2353.94 2365.01C2416.66 2388.48 2489.69 2394.74 2552.41 2368.01C2552.3 2371.24 2552.52 2374.48 2553.06 2377.66C2521.22 2391.59 2486.93 2399.03 2452.19 2399.57C2417.44 2400.11 2382.94 2393.72 2350.68 2380.79C2350.68 2377.27 2352.25 2368.79 2353.03 2364.88L2353.94 2365.01ZM2132.26 2492.67C2145.3 2503.76 2158.34 2515.1 2171.38 2526.45C2211.68 2567.91 2270.36 2578.61 2324.6 2589.69C2375.98 2599.21 2426.83 2612.9 2478.86 2617.99C2524.37 2623.72 2568.32 2601.3 2613.83 2609.12C2492.43 2661.28 2357.98 2628.16 2237.89 2590.21C2194.21 2568.76 2157.9 2534.81 2133.57 2492.67H2132.26ZM3971.54 2713.05C3959.68 2597.64 4067.52 2499.06 4178.36 2496.45C4216.69 2509.49 4256.6 2521.49 4286.98 2550.44C4318.73 2581.16 4337.23 2623.06 4338.54 2667.22C4339.86 2711.37 4323.88 2754.3 4294.02 2786.85C4240.45 2825.03 4175.43 2843.71 4109.77 2839.8C4039.61 2844.62 3968.8 2785.81 3971.54 2713.05ZM4003.88 2683.71C3993.32 2730 4027.35 2776.68 4070.91 2790.11C4114.2 2805.76 4158.8 2771.21 4201.31 2790.11C4251.12 2772.25 4297.02 2730.39 4299.11 2674.32C4304.32 2619.29 4264.16 2573.65 4218.78 2549.01C4210.3 2555.92 4201.96 2563.09 4193.87 2570.39C4247.34 2609.51 4241.47 2689.45 4221.91 2745.78C4216.17 2690.62 4231.56 2630.64 4192.83 2583.56C4183.96 2573 4175.62 2561.91 4167.79 2550.57C4152.28 2547.18 4136.76 2544.31 4121.24 2542.09C4091.07 2553.33 4064.36 2572.26 4043.78 2597.01C4023.19 2621.77 4009.43 2651.47 4003.88 2683.19V2683.71ZM2867.06 2866.27C2919.22 2825.97 2983.38 2786.07 3052.62 2800.02C3142.99 2807.59 3236.74 2867.05 3255 2960.54C3268.04 3068.65 3186.54 3177.14 3082.48 3204.39C2978.16 3218.87 2868.37 3172.18 2813.47 3080.9C2794.95 3007.1 2805.64 2917.64 2867.06 2866.27ZM2927.31 2855.57C2912.83 2866.27 2898.36 2877.22 2884.14 2888.17C2861.85 2927.29 2831.99 2966.41 2837.46 3014.27C2837.46 3057.04 2875.54 3087.68 2910.62 3105.55C2887.53 3135.28 2938.78 3150.54 2960.3 3157.71C3007.11 3164.49 3058.36 3176.49 3102.69 3153.93C3142.52 3135.03 3174.62 3103.01 3193.62 3063.23C3212.62 3023.46 3217.35 2978.36 3207.01 2935.51L3208.58 2932.64L3189.93 2898.08L3150.81 2911.12C3145.89 2893.66 3134.27 2878.85 3118.47 2869.92C3089.75 2852.89 3057.43 2842.84 3024.11 2840.58C2990.8 2838.32 2957.42 2843.9 2926.65 2856.88L2927.31 2855.57ZM1096.24 2905.65C1127.28 2876.44 1161.44 2850.36 1190.78 2819.58C1185.77 2841.9 1174.01 2862.14 1157.09 2877.53C1140.18 2892.93 1118.93 2902.75 1096.24 2905.65ZM641.279 2833.67C689.657 2890.78 763.203 2913.21 831.402 2937.2C888.647 2957.02 949.934 2947.37 1009.01 2954.81C993.879 2960.68 978.492 2965.63 963.365 2971.11C877.432 2983.1 793.847 2942.94 715.607 2912.69C684.442 2892.87 654.84 2869.4 641.409 2833.67H641.279ZM3992.54 2861.96C4018.2 2865.99 4043.1 2873.95 4066.34 2885.57L4113.29 2890.52C4098.7 2897.32 4083.11 2901.72 4067.13 2903.56C4042.74 2888.96 4017.18 2876.31 3992.54 2862.49V2861.96ZM3984.58 3242.86C3984.58 3214.3 4004.79 3176.36 4038.7 3190.7C4070.12 3194.09 4067.39 3227.86 4071.17 3251.34L4056.43 3277.42L4013.53 3280.02C4003.75 3266.98 3993.84 3255.38 3984.58 3242.73V3242.86ZM4008.71 3256.68L4050.57 3259.81C4056.17 3228.78 4048.22 3200.87 4011.45 3197.22C4010.14 3217.04 4009.23 3236.34 4008.58 3256.68H4008.71ZM983.446 3368.56C1026.22 3333.62 1077.6 3306.36 1134.71 3311.45C1157.79 3320.19 1181.65 3327.23 1204.6 3336.36C1180.83 3338.04 1157 3334.01 1135.1 3324.62L1093.9 3322.01C1061.49 3334.77 1030.26 3350.3 1000.53 3368.43H983.446V3368.56ZM895.036 3593.76C939.633 3456.32 1089.33 3336.75 1237.59 3389.56C1394.07 3446.28 1506.35 3580.72 1594.76 3715.56C1648.61 3804.1 1681.21 3915.07 1649.53 4017.17C1625.53 4105.32 1554.72 4183.43 1464.49 4204.81C1410.63 4202.73 1354.95 4211.73 1303.05 4193.47C1223.77 4167.39 1156.75 4115.23 1093.11 4062.29C1007.05 3990.05 933.113 3899.81 896.34 3792.49C877.722 3727.48 877.271 3658.62 895.036 3593.37V3593.76ZM1107.07 3427.5C1047.34 3433.5 1014.09 3494.14 1005.75 3547.86C993.119 3633.21 1000.12 3720.3 1026.22 3802.53C1043.04 3856.78 1086.46 3896.68 1131.32 3928.63L1118.28 3936.97C1065.5 3884.83 1021.74 3824.28 988.793 3757.81C986.967 3751.29 983.186 3738.38 981.361 3731.73C960.627 3668.48 976.145 3601.33 966.756 3536.13C915.509 3632.36 924.637 3749.59 966.756 3847.13C989.478 3895.53 1023.73 3937.62 1066.51 3969.7C1143.97 4044.29 1229.9 4111.71 1330.31 4152.26C1374.72 4156.96 1419.46 4157.48 1463.97 4153.83C1497.09 4135.05 1533.34 4118.75 1558.51 4088.63C1583.67 4058.51 1599.19 4017.82 1613.93 3980.01L1597.5 3996.18C1570.63 4013.13 1543.51 4029.95 1516.65 4047.16C1446.36 4057.72 1375.82 4067.11 1304.62 4059.03C1261.07 4043.38 1213.34 4031.9 1182.05 3994.74C1191.43 4000.09 1200.82 4005.43 1210.34 4010.52C1270.72 4029.04 1333.57 4044.68 1397.33 4037.77C1471.01 4029.43 1552.9 4009.08 1596.45 3943.49C1601.29 3920.57 1604.65 3897.35 1606.49 3873.99C1586.54 3780.76 1532.17 3699.52 1470.1 3628.97C1421.2 3574.73 1378.16 3511.61 1311.27 3478.1C1252.07 3437.15 1179.7 3405.6 1106.54 3425.94L1107.07 3427.5ZM3486.72 3613.85C3527.35 3590.37 3572.39 3575.54 3619.02 3570.29C3665.64 3565.04 3712.86 3569.48 3757.69 3583.33C3803.72 3597.54 3834.62 3637.19 3851.58 3680.61C3868.66 3792.75 3805.02 3899.68 3721.18 3968.92C3655.98 4022.39 3587.52 4075.33 3510.32 4111.45C3473.03 4126.31 3434.82 4138.31 3397.79 4153.44C3351.49 4153.44 3301.16 4161.26 3259.3 4137.01C3229.82 4120.98 3204.6 4098.12 3185.74 4070.36C3166.89 4042.59 3154.96 4010.72 3150.94 3977.4C3155.51 3903.46 3197.76 3835.26 3255.26 3789.36C3330.5 3728.2 3401.44 3660.4 3487.37 3613.85H3486.72ZM3586.87 3626.1C3500.8 3657.14 3424.65 3711.12 3357.75 3772.8C3309.77 3815.31 3246.13 3844.39 3215.88 3903.98C3194.63 3939.84 3202.84 3982.22 3202.84 4022.52C3232.18 4057.98 3264 4099.58 3312.64 4106.75C3396.35 4124.36 3473.55 4077.41 3542.4 4036.08C3646.72 3974.66 3754.3 3899.03 3797.07 3780.36C3802.15 3747.5 3810.11 3711.12 3792.9 3680.35C3778.81 3644.62 3739.82 3631.84 3708.14 3616.45C3728.33 3664.49 3732.04 3717.86 3718.7 3768.24C3691.83 3821.44 3655.72 3869.44 3612.03 3909.98L3595.47 3933.58C3595.47 3926.67 3594.82 3912.59 3594.69 3905.55C3633.81 3860.95 3677.36 3815.18 3694.71 3756.5C3702.4 3719.08 3705.14 3671.09 3672.28 3644.49C3647.11 3630.28 3616.34 3615.02 3587.13 3626.1H3586.87ZM3530.53 3972.44C3530.13 3978.13 3529.39 3983.79 3528.32 3989.39C3448.12 4050.29 3335.06 4069.85 3241.44 4028.51C3340.41 4041.55 3445.64 4029.43 3530.14 3972.57L3530.53 3972.44ZM2262.27 4035.56C2301.39 4022.52 2344.55 4003.35 2386.67 4016.78C2438.83 4032.56 2490.99 4053.94 2543.15 4070.76C2605.23 4090.58 2658.45 4131.44 2693.63 4186.3C2697.67 4233.63 2701.59 4286.83 2665.34 4323.61C2588.4 4415.93 2454.61 4419.58 2348.6 4382.68C2277.01 4353.86 2200.2 4307.05 2183.25 4226.2C2160.43 4156.44 2190.03 4066.2 2261.49 4038.16L2262.27 4035.56ZM2242.84 4084.32C2231.24 4114.45 2233.19 4147.05 2233.45 4178.73L2204.76 4149C2216.24 4184.21 2219.11 4223.98 2242.71 4253.97C2278.25 4298.62 2327.52 4330.29 2382.89 4344.08C2399.32 4356.24 2418.94 4363.36 2439.35 4364.55C2480.17 4365.21 2526.85 4372.25 2560.1 4342.78C2574.06 4337.3 2587.88 4331.3 2601.31 4324.65C2632.74 4317.61 2614.35 4291.53 2595.7 4280.84L2625.04 4269.36C2631.04 4246.02 2646.69 4222.29 2639.65 4197.64C2607.96 4142.61 2544.72 4122.27 2488.91 4101.28C2445.61 4086.02 2406.23 4060.59 2361.37 4049.9C2320.69 4046.38 2270.1 4051.46 2242.84 4084.72V4084.32ZM3113.91 4071.28C3162.81 4117.45 3206.62 4178.6 3277.95 4189.69C3311.33 4195.82 3345.24 4198.55 3378.75 4204.29C3344.71 4206.9 3310.68 4207.68 3276.65 4206.9C3204.4 4189.3 3154.2 4129.83 3113.91 4071.28ZM2132.13 4268.45C2161.47 4317.61 2191.46 4370.29 2242.06 4400.54C2277.92 4420.23 2317.3 4432.49 2354.72 4448.92L2327.47 4456.48C2301.76 4449.44 2276.54 4440.73 2251.97 4430.4C2190.42 4395.59 2155.47 4332.34 2132.13 4268.06V4268.45Z" fill="#2A1C13"/>
<path d="M2291.22 93.7197C2336.86 105.456 2372.07 137.404 2400.23 173.654C2410.69 203.474 2413.52 235.438 2408.45 266.629C2394.23 233.769 2383.15 199.604 2369.33 166.743C2343.25 142.098 2315.74 120.06 2291.87 93.7197H2291.22ZM2002.91 167.917C2086.23 141.055 2180.64 139.751 2259.92 180.957C2218.2 185.912 2176.34 188.389 2134.61 193.084C2158.34 200.02 2182.41 205.722 2206.72 210.166C2134.87 206.645 2061.07 206.906 1993 233.377C1954.66 207.297 1918.41 257.892 1880.07 265.846C1903.15 215.643 1953.23 186.824 2002.91 168.438V167.917ZM2765.09 240.94C2809.16 222.685 2860.41 217.99 2903.44 241.984C2870.06 255.023 2838.24 271.323 2805.25 286.058C2777.74 289.318 2769.65 261.283 2765.09 240.94ZM1910.59 442.016C1889.05 447.24 1866.34 444.137 1846.99 433.329C1827.65 422.52 1813.1 404.804 1806.27 383.727C1801.67 369.769 1800.69 354.877 1803.4 340.435C1819.43 392.594 1868.21 414.632 1910.59 442.016ZM3263.35 603.841C3378.23 543.206 3515.8 572.937 3624.55 632.399L3596.65 669.562C3534.44 660.174 3472.51 644.786 3409.13 646.873L3410.18 622.227L3358.02 603.581C3359.84 615.838 3361.54 628.095 3363.36 640.353C3311.2 657.957 3257.22 676.604 3217.97 716.897C3179.89 751.844 3162.15 801.657 3146.25 849.383C3140.64 840.385 3135.16 831.388 3129.69 822.39C3143.9 737.109 3177.15 641.266 3262.69 603.841H3263.35ZM792.933 911.974C893.731 813.132 1031.96 748.715 1174.87 753.148C1279.19 751.062 1386.38 791.486 1456.4 870.508C1412.59 859.293 1372.69 836.865 1329.13 824.477C1279.71 817.044 1230.55 831.127 1182.83 842.863C1248.03 850.165 1314.92 844.167 1375.82 871.029C1295.23 879.505 1213.34 868.943 1133.67 886.025C1004.05 910.279 869.739 953.963 777.155 1052.81C732.95 1100.92 689.918 1167.69 715.085 1235.36C709.347 1293.26 706.087 1351.94 689.005 1408.01C633.194 1314.91 641.28 1198.72 674.792 1099.49C707.261 1033.25 737.123 962.569 792.151 911.713L792.933 911.974ZM1642.61 885.895C1675.21 904.411 1700.51 935.837 1694.77 975.739C1662.43 956.962 1649.4 920.581 1642.61 885.634V885.895ZM3297.38 1019.81C3258.26 994.647 3221.36 954.615 3245.22 904.411C3272.21 937.663 3284.34 979.26 3297.38 1019.55V1019.81ZM3573.17 1024.77C3630.03 1011.73 3678.8 977.826 3732 955.137C3707.75 998.951 3666.8 1030.51 3630.68 1063.5C3610.6 1082.28 3582.43 1067.8 3558.7 1067.41C3530.79 1087.23 3501.06 1108.36 3464.68 1100.92L3469.77 1087.88C3471.2 1083.45 3474.2 1074.84 3475.76 1070.15C3468.34 1068.32 3460.61 1068.06 3453.08 1069.37C3445.58 1070.76 3438.47 1073.74 3432.21 1078.1C3393.87 1086.97 3337.15 1072.23 3320.72 1031.55C3404.7 1034.81 3490.24 1047.72 3573.17 1024.51V1024.77ZM3794.85 1156.47C3824.19 1129.22 3844.14 1084.1 3888.22 1079.28C3870.1 1112.13 3845.16 1140.72 3815.06 1163.12L3794.85 1156.47ZM931.027 1521.59C976.534 1540.92 1025.09 1552.09 1074.47 1554.58C1034.56 1593.31 953.455 1570.75 931.027 1521.2V1521.59ZM3610.34 1695.54C3683.42 1631.32 3775.95 1593.48 3873.09 1588.09C3957.2 1591.75 4042.61 1621.35 4104.16 1680.55L4099.47 1732.71C4110.16 1725.53 4119.02 1714.19 4132.45 1712.23C4213.82 1799.34 4210.69 1932.48 4170.01 2037.58C4162.98 1988.48 4150.34 1940.35 4132.33 1894.14C4143.68 1864.54 4152.41 1833.99 4158.41 1802.86C4146.67 1825.68 4135.32 1848.89 4124.11 1871.97C4096.5 1833.04 4065.99 1796.25 4032.83 1761.92C4011.97 1747.96 4030.35 1725.8 4038.7 1710.93L4007.66 1738.31C3947.68 1702.45 3879.48 1687.2 3814.28 1664.12C3815.2 1668.16 3816.89 1676.37 3817.67 1680.55C3748.3 1679.11 3678.15 1679.11 3610.6 1697.11L3610.34 1695.54ZM2628.69 1622C2667.81 1601.79 2630.78 1665.42 2628.69 1622V1622ZM2250.54 1767.52C2357.85 1719.8 2480.82 1690.33 2596.88 1722.14C2715.15 1762.96 2826.9 1861.54 2843.46 1990.9C2839.55 1980.64 2833.27 1971.46 2825.13 1964.1C2817 1956.73 2807.24 1951.39 2796.65 1948.52C2764.18 1914.48 2737.05 1871.32 2691.02 1854.24C2615.91 1822.68 2534.54 1801.3 2452.39 1808.6C2377.15 1811.73 2308.95 1846.41 2239.45 1871.19C2177.77 1871.19 2137.74 1921.26 2097.97 1961.04V1932.74C2127.96 1862.98 2178.55 1797.91 2250.14 1767.52H2250.54ZM2440.79 1758C2425.4 1769.48 2440.79 1802.73 2459.3 1789.04C2474.17 1777.43 2459.3 1744.31 2440.79 1757.61V1758ZM2984.03 1763.35C2993.94 1729.71 3026.15 1720.71 3057.97 1726.32C3041.67 1751.35 3010.76 1755.4 2984.03 1762.96V1763.35ZM299.895 1855.67C321.914 1828.84 348.378 1806 378.134 1788.13C395.225 1796.34 409.389 1809.59 418.715 1826.09C428.042 1842.6 432.083 1861.57 430.294 1880.45L391.174 1860.76L377.09 1865.32C361.312 1870.15 345.533 1875.62 329.885 1880.97L299.895 1855.67ZM689.917 2347.54C739.599 2279.21 834.14 2243.22 915.769 2269.3C956.454 2281.3 991.401 2305.94 1027 2328.11L1004.05 2352.1C1004.05 2349.36 1003.14 2343.63 1002.88 2340.89L1000.66 2320.68C957.497 2322.37 909.38 2311.55 870.26 2336.59L847.571 2355.23L790.195 2356.54C781.197 2364.23 772.199 2371.92 763.332 2379.75C711.172 2403.22 685.094 2453.42 655.363 2498.41L637.237 2507.41C643.235 2451.21 655.623 2393.7 689.397 2347.28L689.917 2347.54ZM535.917 2653.85C551.304 2644.59 568.256 2670.67 557.041 2682.93C541.524 2692.71 524.311 2666.63 535.917 2654.37V2653.85ZM1057.51 2751.78C1096.98 2719.17 1133.99 2683.69 1168.22 2645.63C1140.19 2794.42 957.758 2898.61 817.448 2834.32C781.034 2816.99 747.446 2794.26 717.823 2766.9C721.083 2746.04 724.343 2725.04 727.472 2704.18L797.627 2773.42C765.94 2778.25 802.191 2813.19 805.712 2781.25L815.102 2790.24L828.142 2802.37C868.507 2805.89 909.049 2806.94 949.542 2805.5L968.321 2789.07C990.619 2762.99 1023.61 2753.99 1056.99 2751.78H1057.51ZM1010.18 2765.86C1012.13 2784.11 1020.74 2787.51 1036.26 2776.03C1034.56 2758.17 1025.43 2755.43 1010.18 2766.38V2765.86ZM4253.2 2860.27C4257.45 2853.9 4263.92 2849.34 4271.35 2847.49C4278.77 2845.63 4286.62 2846.61 4293.37 2850.23V2868.74C4275.37 2877.87 4261.81 2875 4252.68 2860.27H4253.2ZM2881.28 2888.43C2895.49 2877.48 2909.96 2866.53 2924.44 2855.83L2977.51 2875.26C2951.43 2892.65 2924.83 2909.52 2897.71 2925.86C2893.66 2916.99 2885.32 2898.87 2881.28 2888.96V2888.43ZM4150.19 2885.04C4163.23 2868.61 4200.78 2884.26 4183.7 2904.47C4170.66 2921.16 4133.63 2905 4150.19 2885.83V2885.04ZM2737.18 3063.82C2775.52 3068.65 2812.29 3106.07 2782.17 3143.63C2764.54 3118.6 2749.47 3091.86 2737.18 3063.82ZM3267.52 3172.97C3258.74 3170.99 3250.96 3165.93 3245.6 3158.7C3240.24 3151.47 3237.65 3142.56 3238.31 3133.58C3239.16 3124.55 3243.26 3116.12 3249.86 3109.88C3256.46 3103.65 3265.1 3100.02 3274.17 3099.68C3272.73 3124.07 3270.39 3148.84 3267.52 3173.49V3172.97ZM823.447 3733.68L842.616 3721.42C846.137 3746.07 849.135 3770.98 853.699 3795.49C864.262 3862.52 903.512 3918.72 933.373 3978.05C905.202 3959.04 878.364 3938.13 853.047 3915.46L854.091 3907.11C854.091 3902.42 855.526 3892.9 856.047 3888.2C840.834 3837.71 829.928 3786.02 823.447 3733.68ZM2539.76 4036.21C2574.19 4023.17 2608.35 4041.68 2641.08 4051.2C2641.08 4057.85 2641.08 4071.02 2640.3 4077.28C2609.14 4058.34 2575.22 4044.35 2539.76 4035.82V4036.21ZM2388.37 4290.49C2456.96 4300.4 2530.11 4310.31 2595.7 4280.97C2614.74 4291.66 2632.74 4317.74 2601.31 4324.78C2530.11 4331.17 2444.05 4347.34 2388.37 4290.49Z" fill="#FE0849"/>
<path d="M2006.81 134.405C2114 92.1556 2234.88 114.976 2330.33 175.35C2366.71 223.989 2370.75 298.969 2319.64 339.132C2244.66 392.726 2151.03 414.763 2060.92 425.456C1988.16 429.629 1901.97 425.456 1849.68 367.298C1822.56 339.392 1830.51 297.925 1834.03 262.978C1874.85 201.169 1933.53 151.618 2006.81 134.144V134.405ZM2002.9 167.787C1953.22 186.173 1903.14 214.992 1880.06 265.195C1918.4 257.241 1954.65 206.516 1992.99 232.726C1938.48 249.548 1877.58 289.58 1880.84 353.997C1991.68 414.111 2130.17 394.421 2237.75 337.045C2276.87 321.528 2309.47 266.76 2277.65 229.987C2256.72 215.916 2231.92 208.757 2206.71 209.515C2182.4 205.071 2158.33 199.369 2134.6 192.433C2176.33 187.738 2218.19 185.26 2259.91 180.305C2180.63 139.621 2086.22 141.186 2002.9 167.265V167.787ZM2266.04 399.506C2293.95 383.728 2322.11 368.08 2351.32 354.649C2334.11 390.9 2294.47 405.244 2263.7 427.281C2263.7 420.37 2265.39 406.548 2266.04 399.506ZM3200.74 486.222C3299.98 444.625 3410.82 457.795 3515.53 463.011C3550.37 473.742 3583.91 488.305 3615.54 506.434C3616.33 512.823 3617.63 525.472 3618.41 531.731C3580.65 514.667 3541.35 501.219 3501.05 491.568C3411.86 473.965 3316.54 472.399 3229.43 500.566C3196.55 520.668 3162.35 538.53 3127.07 554.029C3150.13 529.754 3174.83 507.098 3201.01 486.222H3200.74ZM3358.92 602.408L3411.08 621.055L3410.04 645.7C3343.4 674.518 3266.6 695.773 3222 756.8C3179.1 814.698 3179.1 891.242 3185.49 959.831C3176.59 941.043 3170.15 921.191 3166.32 900.761C3130.98 890.589 3131.11 851.47 3131.24 821.217C3136.72 830.215 3142.2 839.212 3147.8 848.21C3163.71 800.484 3181.45 750.671 3219.52 715.724C3258.64 675.431 3313.02 656.784 3364.92 639.18C3363.09 626.922 3361.4 614.665 3359.57 602.408H3358.92ZM1008.47 661.087C1074.98 639.441 1145.52 636.442 1214.89 635.008C1126.35 667.607 1029.34 669.563 943.013 709.335C856.689 749.107 754.717 785.618 706.599 875.854L711.816 828.389C746.893 796.833 780.406 763.19 818.352 735.154C881.857 710.9 943.665 681.951 1008.47 661.217V661.087ZM1436.97 722.114L1469.43 727.721C1495.51 752.627 1529.29 774.143 1539.72 811.046C1503.21 783.141 1472.3 749.628 1436.31 722.114H1436.97ZM3045.31 729.155C3051.83 761.605 3051.83 795.027 3045.31 827.476C3029.66 796.572 3036.31 761.103 3044.66 729.155H3045.31ZM1184.38 842.733C1232.11 830.997 1281.27 816.653 1330.69 824.347C1374.24 836.735 1414.15 859.163 1457.96 870.378C1479.87 873.507 1484.04 898.544 1494.08 914.192C1468.91 902.847 1444.14 890.72 1419.36 878.463C1417.8 892.546 1416.23 906.498 1414.8 920.582C1236.28 882.635 1042.25 904.543 884.203 998.821C795.923 1046.03 727.724 1133.78 716.64 1234.84C691.473 1167.43 734.505 1100.66 778.71 1052.28C871.294 953.442 1005.6 909.758 1135.22 885.504C1214.9 868.422 1296.79 878.984 1377.37 870.508C1316.48 843.646 1248.93 849.644 1184.38 842.342V842.733ZM542.036 1194.81C553.511 1147.48 565.378 1100.01 580.243 1053.46C583.894 1141.22 542.427 1222.19 540.21 1309.17C530.039 1271.49 537.341 1232.76 542.036 1194.81ZM3434.55 1077.45C3440.8 1073.09 3447.92 1070.11 3455.41 1068.71C3462.95 1067.41 3470.68 1067.67 3478.1 1069.5C3476.54 1073.93 3473.54 1082.54 3472.11 1087.23L3434.55 1077.45ZM3671.35 1539.33C3688.83 1518.59 3716.21 1519.24 3740.73 1515.72L3744.9 1528.76C3720.63 1533.8 3696.07 1537.28 3671.35 1539.2V1539.33ZM4177.43 1593.44C4189.17 1601.4 4200.64 1609.61 4212.38 1617.83C4211.08 1626.43 4208.6 1643.91 4207.3 1651.99C4192.27 1635.57 4181.88 1615.46 4177.17 1593.7L4177.43 1593.44ZM2653.33 1631.52C2681.36 1635.99 2708.59 1644.51 2734.18 1656.82C2791.55 1692.02 2867.05 1712.63 2898.74 1777.17C2848.01 1754.75 2809.81 1712.89 2761.69 1685.89C2727.53 1663.86 2687.36 1653.56 2653.33 1631.52ZM1230.02 1701.54C1247.63 1674.55 1273.05 1649.38 1306.7 1667.64C1284.83 1679.92 1264.44 1694.67 1245.93 1711.58L1230.02 1701.54ZM2442.73 1754.61C2460.99 1741.57 2476.12 1774.04 2461.25 1785.65C2442.86 1798.95 2426.69 1766.35 2442.08 1754.88L2442.73 1754.61ZM492.354 1844.98C511.132 1847.85 509.305 1897.14 489.484 1898.71C485.164 1890.3 483.141 1880.89 483.617 1871.45C483.957 1862.16 486.745 1853.11 491.702 1845.24L492.354 1844.98ZM2926.64 1837.81C2946.71 1853.8 2961.82 1875.15 2970.22 1899.39C2978.62 1923.63 2979.97 1949.75 2974.11 1974.73C2951.55 1931.96 2943.47 1883.45 2926.64 1837.81ZM1769.87 1854.5C1778.74 1843.03 1811.08 1843.55 1808.99 1862.19C1799.34 1873.67 1767.14 1873.41 1769.22 1854.76L1769.87 1854.5ZM2099.52 1957.65C2138.64 1918.53 2179.33 1867.67 2241.01 1867.8C2180.62 1909.15 2129.33 1962.4 2090.26 2024.28C2079.83 1992.07 2073.57 1955.56 2099.91 1929.09V1957.39L2099.52 1957.65ZM3178.97 2179.32L3231.13 2184.67L3187.31 2197.71L3188.36 2222.49C3218.87 2225.89 3247.95 2237.21 3272.72 2255.35C3197.22 2242.31 3129.29 2198.75 3050 2210.36L3036.18 2193.93C3086.91 2185.71 3134.5 2207.75 3184.18 2212.84L3179.49 2179.06L3178.97 2179.32ZM1981.38 2289.25C1968.34 2264.34 1951.91 2238 1958.82 2208.4C1974.13 2237.41 1992.26 2264.84 2012.94 2290.29L1981.38 2289.25ZM1174.73 2343.5C1233.93 2397.87 1284.53 2474.68 1272.66 2558.66C1255.45 2520.45 1251.15 2477.29 1228.72 2441.3C1208.5 2409.93 1190.46 2377.21 1174.73 2343.37V2343.5ZM544.514 2440.77C537.344 2498.37 536.687 2556.59 542.558 2614.34L519.216 2613.55C519.216 2555.79 497.44 2486.28 544.514 2440.77ZM4127.36 2458.64C4143.53 2455.25 4159.83 2451.47 4176.13 2447.82C4195.43 2455.64 4215.25 2463.2 4234.42 2470.77H4185.52C4145.23 2472.85 4104.93 2475.85 4064.51 2474.03C4085.24 2467.9 4106.11 2462.55 4127.36 2457.99V2458.64ZM1969.91 2493.2C1987.77 2486.02 2005.77 2478.85 2023.76 2471.94C2017.37 2481.2 2004.72 2499.98 1997.68 2509.36C2013.85 2504.02 2030.02 2498.54 2045.93 2492.8L2062.49 2491.63C1999.38 2565.18 1909.79 2618.38 1871.72 2710.83C1873.67 2629.59 1949.96 2580.43 2004.46 2531.27C1992.86 2518.23 1980.99 2505.19 1969.26 2493.2H1969.91ZM2716.31 2534.14C2741.37 2518.08 2767.51 2503.79 2794.55 2491.37C2791.09 2504.44 2784.76 2516.58 2776.04 2526.91C2767.31 2537.24 2756.4 2545.5 2744.09 2551.09C2720.74 2557.74 2697.4 2564.13 2673.8 2569.74C2687.62 2557.48 2701.71 2545.49 2716.44 2534.14H2716.31ZM2846.71 2841.36C2880.61 2761.43 2977.11 2742.13 3055.35 2746.17C3019.33 2764.03 2980.75 2776.18 2940.99 2782.16C2903.17 2789.46 2877.09 2819.58 2847.36 2841.36H2846.71ZM1013.43 2763.12C1028.82 2751.52 1037.55 2754.91 1039.51 2773.29C1023.47 2785.42 1014.86 2781.51 1012.91 2763.77L1013.43 2763.12ZM808.442 2778.51C804.921 2810.46 769.322 2775.51 800.357 2770.68L808.442 2778.51ZM3112.59 2778.51C3125.63 2770.55 3153.15 2785.03 3147.28 2801.59C3133.98 2809.28 3106.73 2795.59 3112.07 2779.16L3112.59 2778.51ZM817.569 2787.9C868.816 2787.9 920.063 2787.9 971.31 2786.72L952.532 2803.15C912.039 2804.59 871.496 2803.55 831.131 2800.02L818.091 2787.9H817.569ZM3151.71 2908L3190.83 2894.96L3209.48 2929.51L3207.92 2932.38C3190.33 2963.6 3176.83 2996.95 3167.75 3031.61C3162.28 2990.54 3157.84 2949.2 3151.19 2908.26L3151.71 2908ZM3063.56 3111.16C3096.16 3099.55 3121.07 3073.99 3148.45 3053.52C3138.67 3073.99 3135.41 3100.33 3113.77 3112.72C3067.35 3146.76 3007.49 3136.32 2953.9 3135.8C2955.46 3140.63 2958.59 3150.54 2960.03 3155.36C2938.51 3148.32 2887.26 3133.06 2910.34 3103.2C2960.42 3113.9 3012.84 3122.76 3063.56 3111.03V3111.16ZM2841.89 3194.61C2860.47 3203.57 2878.58 3213.5 2896.13 3224.34C2923.34 3226.43 2950.64 3228.3 2978.02 3229.95C2979.2 3235.69 2981.54 3247.16 2982.59 3252.9C2930.43 3251.6 2870.18 3245.47 2841.89 3194.61ZM1437.62 3433.5C1502.82 3472.62 1544.41 3540.17 1586.53 3601.72L1571.8 3611.11C1537.5 3544.73 1482.08 3493.36 1437.62 3433.5ZM3515.14 3546.3C3593.38 3500.14 3694.83 3481.1 3781.15 3517.22C3810.35 3532.88 3837.29 3552.45 3861.22 3575.38C3831.09 3562.34 3802.01 3547.08 3772.81 3532.09C3707.15 3510.08 3636.15 3509.76 3570.29 3531.17C3542.13 3546.3 3513.7 3560.64 3484.62 3573.55C3494.66 3564.42 3504.83 3555.3 3515.14 3546.3ZM3895.9 3688.04C3918.98 3738.64 3906.46 3796.93 3879.08 3843.22C3870.08 3853.78 3866.04 3875.43 3848.31 3872.82C3858.35 3809.57 3901.38 3754.81 3895.9 3688.04ZM1691.11 3782.06C1725.93 3828.61 1730.23 3889.38 1717.98 3944.67C1696.59 3894.07 1691.9 3837.74 1691.11 3782.45V3782.06ZM2215.84 3990.7C2265.78 3954.97 2328.11 3974.79 2385.36 3968.92C2434.91 3963.45 2492.81 3979.35 2515.76 4027.34C2487.3 4012.14 2458.05 3998.48 2428.13 3986.4C2371.14 3978.57 2313.38 3983.14 2256.13 3984.96L2208.02 4016.78L2215.84 3990.7ZM2729.74 4172.48C2741.48 4206.38 2759.47 4240.28 2755.82 4276.79C2746.43 4314.74 2722.18 4346.82 2703.66 4380.33L2695.97 4381.24L2670.93 4392.85C2692.99 4364.06 2711.71 4332.87 2726.74 4299.88C2745.26 4259.58 2732.87 4214.33 2730.4 4172.08L2729.74 4172.48ZM1498.51 4244.33C1547.93 4241.07 1591.75 4216.42 1637.26 4199.73C1616.13 4226.38 1589.07 4247.72 1558.24 4262.06C1506.08 4271.71 1449.22 4284.75 1401.76 4253.06C1433.71 4249.67 1465.78 4247.59 1497.86 4244.33H1498.51ZM2382.36 4344.08C2440.83 4356.5 2501.29 4356.05 2559.57 4342.78C2526.32 4372.25 2479.64 4365.21 2438.82 4364.55C2418.41 4363.36 2398.79 4356.25 2382.36 4344.08Z" fill="#5A5046"/>
<path d="M2330.33 175.22L2368.67 166.744C2383.14 199.605 2394.75 233.769 2407.79 266.63C2412.85 235.439 2410.03 203.475 2399.57 173.655C2477.81 178.35 2556.05 176.394 2632.72 196.866C2670.54 208.211 2709.79 201.169 2747.21 192.172V225.684C2743.44 239.307 2742.64 253.583 2744.87 267.542C2747.18 281.523 2752.42 294.856 2760.25 306.662C2774.73 330.525 2784.38 360.126 2807.2 377.208C2839.54 385.684 2873.44 383.598 2906.69 384.902C2911.65 371.079 2916.6 357.388 2921.69 343.565C2942.68 330.525 2962.5 315.66 2982.32 300.664C3074.46 338.112 3164.55 380.376 3252.25 427.281C3334.53 471.487 3431.55 428.846 3515.4 464.315C3411.08 459.099 3299.85 445.928 3200.61 487.526C3109.33 445.407 3008.53 419.718 2908.26 433.541C2835.36 444.103 2754.39 432.367 2691.53 478.398C2618.38 518.952 2563.61 594.323 2559.57 679.213C2565.83 710.378 2597.91 727.591 2622.16 744.412C2703.27 790.704 2789.2 831.519 2880.87 851.992C2924.82 862.293 2970.72 862.945 3014.27 875.203C3028.85 904.833 3040.93 935.627 3050.39 967.264L3074.91 956.311L3056.26 929.188C3064.95 911.106 3073.95 892.98 3083.25 874.811C3089.25 883.809 3095.38 892.676 3101.25 901.804C3181.97 1129.74 3466.37 1241.62 3688.04 1159.34C3770.33 1125.7 3847.78 1065.19 3877.38 978.609C3882.73 957.876 3886.9 936.751 3891.6 915.757C3955.23 993.996 4026.56 1066.5 4084.33 1149.69C4048.86 1155.34 4013.43 1161.25 3978.05 1167.43C3985.35 1187.64 3981.44 1217.11 4004.13 1227.54C4045.6 1251.66 4083.94 1209.55 4118.62 1191.55L4166.22 1270.7L4147.18 1280.35C4088.5 1254.27 4022.39 1245.41 3962.8 1273.83C4008.39 1275.54 4053.76 1281.13 4098.41 1290.52C4053.85 1289.37 4009.27 1291.42 3965.01 1296.65C3967.75 1395.63 4037.12 1480.78 4117.97 1531.37C4177.43 1544.41 4237.94 1519.11 4296.62 1509.33C4348.78 1613.65 4371.6 1729.45 4409.41 1839.37C4486.87 2209.84 4453.62 2604.95 4304.05 2953.37C4301.18 2925.47 4297.01 2897.82 4294.66 2869.92V2851.4C4294.66 2830.15 4293.62 2809.02 4292.97 2787.9C4322.83 2755.34 4338.8 2712.42 4337.49 2668.26C4336.17 2624.1 4317.67 2582.2 4285.92 2551.48C4256.19 2522.54 4215.64 2510.41 4177.3 2497.5L4183.3 2474.55H4232.2C4212.77 2466.99 4193.08 2459.42 4173.91 2451.6C4157.61 2455.25 4141.31 2459.03 4125.14 2462.42C4108.49 2459.33 4092.17 2454.7 4076.37 2448.6C4074.59 2427.16 4078.88 2405.65 4088.75 2386.53C4098.62 2367.42 4113.67 2351.46 4132.18 2340.5C4223.46 2289.25 4325.31 2202.41 4306.27 2085.44C4285.14 2202.01 4200.64 2300.99 4093.45 2348.58C4075.33 2316.24 4056.94 2283.38 4038.56 2251.7C4192.17 2167.59 4280.32 1973.55 4227.24 1804.04C4211.12 1744.84 4179.29 1691.11 4135.13 1648.53C4090.96 1605.94 4036.1 1576.1 3976.36 1562.15C3903.27 1548.03 3827.87 1551.47 3756.37 1572.19C3752.2 1559.15 3748.03 1545.06 3743.33 1531.5L3739.16 1518.46L3736.03 1509.99C3700.43 1503.07 3662.88 1503.21 3629.63 1487.82C3601.72 1443.35 3591.68 1378.28 3533.65 1361.72C3457.11 1338.64 3381.48 1294.96 3298.93 1306.95C3214.83 1315.56 3132.54 1362.9 3092.25 1438.66C3063.82 1491.6 3068.65 1553.41 3063.3 1611.31C2998.75 1602.31 2972.02 1533.07 2913.73 1512.85C2875.92 1500.73 2836.93 1514.68 2799.9 1522.5C2761.82 1502.94 2724.66 1479.47 2682.54 1469.43C2621.25 1458.22 2558.53 1469.43 2499.98 1488.08C2480.29 1417.01 2491.37 1327.95 2427.35 1277.35C2430.08 1343.34 2477.68 1409.45 2453.43 1474C2406.09 1424.84 2413 1349.07 2374.4 1294.57C2343.5 1242.41 2286.25 1217.11 2233.18 1194.29C2240.22 1110.18 2288.21 1030.64 2267.09 944.706C2256.78 856.425 2172.28 811.568 2107.22 765.537C2067.05 741.022 2048.01 695.252 2012.15 666.303C1963.52 642.44 1907.84 642.049 1856.59 625.358C1798.17 609.188 1745.75 567.982 1682.64 573.198C1601.14 577.24 1520.94 594.323 1441.14 610.623C1378.68 622.88 1318.17 594.714 1255.71 596.54C1197.16 598.496 1138.35 602.277 1079.8 602.668C1151.26 577.371 1236.28 595.105 1298.35 544.511C1387.28 478.839 1480.65 419.408 1577.8 366.646C1661.38 328.569 1742.75 282.147 1833.77 263.891C1830.25 298.577 1822.29 340.044 1849.42 368.211C1901.58 425.977 1987.9 430.542 2060.66 426.369C2150.77 415.676 2244.4 393.638 2319.38 340.044C2370.49 299.881 2366.45 224.902 2330.07 176.263L2330.33 175.22ZM2457.99 218.643C2438.3 226.076 2423.69 257.763 2439.34 276.149C2451.21 309.14 2495.67 300.403 2522.28 294.144C2546.53 288.146 2539.23 260.11 2537.4 241.984C2526.84 208.211 2485.24 215.122 2457.99 218.773V218.643ZM2431.13 334.959C2383.66 362.212 2338.8 400.81 2315.59 451.405C2299.55 497.045 2350.67 542.685 2395.01 530.818C2438.08 520.27 2480.6 507.562 2522.41 492.742C2552.27 485.57 2582.13 467.966 2586.69 434.584C2593.34 357.779 2497.89 303.924 2431.13 334.959ZM1910.31 442.017C1867.8 414.633 1819.03 393.117 1802.73 340.436C1798.67 362.268 1803.01 384.829 1814.89 403.596C1826.76 422.362 1845.29 435.946 1866.76 441.625C1881.05 445.274 1896.02 445.274 1910.31 441.625V442.017ZM2265.78 400.68C2265.78 407.722 2264.09 421.544 2263.43 428.455C2294.21 406.417 2333.85 392.074 2351.06 355.823C2321.85 368.863 2293.69 384.902 2265.78 400.68ZM2128.99 434.584C2100.96 443.19 2115.95 481.136 2142.03 464.445C2173.33 459.36 2153.64 420.24 2128.99 434.323V434.584ZM3795.75 1157.65L3815.97 1164.3C3846.06 1141.89 3871 1113.3 3889.12 1080.45C3845.05 1085.28 3825.09 1130.39 3795.75 1157.65ZM3344.7 1192.59V1204.46C3457.11 1249.32 3584.77 1262.75 3700.04 1220.11L3713.08 1196.9L3701.08 1196.12V1209.94C3676.05 1209.94 3649.97 1208.76 3627.02 1220.11C3561.82 1226.5 3494.66 1233.15 3431.42 1213.07C3416.68 1211.11 3402.08 1209.42 3387.6 1207.85C3373.26 1202.64 3359.05 1197.42 3344.83 1192.59H3344.7ZM4077.68 1231.71C4079.24 1250.36 4114.45 1256.75 4129.84 1249.97C4132.31 1226.63 4092.8 1219.33 4077.68 1231.71ZM2503.63 1412.32C2498.02 1440.61 2507.28 1469.56 2540.53 1470.08C2525.41 1461.35 2534.14 1390.8 2503.63 1412.32ZM4176.26 1594.88C4180.84 1616.69 4191.15 1636.9 4206.12 1653.42C4207.42 1644.82 4209.9 1627.34 4211.21 1619.26C4199.47 1610.65 4188 1602.44 4176.26 1594.88ZM4271.97 2496.32C4261.8 2511.84 4285.01 2535.44 4301.18 2525.53C4312.79 2509.5 4288.14 2484.72 4271.97 2495.93V2496.32ZM3229.56 501.218C3316.67 473.052 3412.12 475.138 3501.18 492.22C3461.15 495.48 3421.38 499.392 3381.35 501.479L3404.3 520.126C3373.13 527.949 3341.96 535.643 3311.06 544.249C3296.98 548.031 3283.16 552.204 3269.46 557.289C3255.99 538.773 3242.69 520.256 3229.56 501.74V501.218ZM381.122 1697.5C424.273 1575.85 480.5 1459.24 548.815 1349.73C566.549 1419.88 533.558 1490.56 538.513 1561.88C516.737 1588.88 467.576 1591.62 452.581 1627.08C446.696 1661.26 444.379 1695.96 445.669 1730.62C419.589 1727.36 394.162 1724.36 368.343 1721.49L416.721 1762.18C395.205 1765.96 373.819 1769.61 352.564 1774.57L328.962 1783.43C321.139 1767.52 313.835 1751.35 307.055 1734.92C329.809 1718.91 354.755 1706.26 381.122 1697.37V1697.5ZM406.029 2056.49L427.674 2080.35C406.81 2103.04 385.295 2125.21 363.388 2147.12C333.985 2134.12 305.905 2118.31 279.541 2099.91L297.797 2090.26C336.917 2094.3 383.6 2094.83 406.029 2056.1V2056.49ZM291.277 2128.73C315.662 2133.95 339.655 2140.34 363.519 2147.51C370.56 2143.73 384.383 2136.16 391.424 2132.51C419.199 2188.58 456.624 2239.7 481.008 2297.21C468.109 2314.06 454.264 2330.17 439.541 2345.45C446.582 2418.22 382.817 2473.24 388.554 2545.62C391.032 2631.16 449.19 2699.62 473.836 2778.38C466.664 2816.32 441.366 2852.84 450.885 2892.48C479.964 2924.82 521.431 2942.03 555.205 2967.98C626.142 3021.7 702.947 3074.12 745.848 3154.71C717.263 3231.06 712.222 3314.23 731.374 3393.47C765.051 3474.59 821.421 3544.28 893.72 3594.16C875.955 3659.4 876.407 3728.27 895.026 3793.28L853.166 3795.75C848.602 3771.24 845.604 3746.33 842.083 3721.69L822.914 3733.94C752.108 3672.26 699.947 3593.11 642.963 3519.31C514.3 3326.27 417.772 3113.66 357.129 2889.74C307.969 2709.66 273.934 2523.45 279.671 2336.06C278.498 2266.82 275.498 2196.93 290.755 2128.73H291.277ZM2177.76 2391.61C2210.62 2415.87 2246.61 2435.56 2281.3 2456.81C2303.99 2492.15 2329.02 2535.05 2375.58 2540.27C2464.64 2557.35 2541.31 2485.89 2629.72 2496.06C2661.93 2498.67 2688.01 2519.41 2713.57 2537.14C2698.84 2548.48 2684.75 2560.48 2670.93 2572.74C2694.4 2567 2717.83 2560.79 2741.22 2554.09C2783.07 2551.48 2796.9 2596.21 2784.9 2629.2C2759.73 2707.44 2714.48 2782.16 2718.79 2866.53C2721.14 2910.6 2764.43 2932.64 2787.51 2965.24C2796.51 3004.36 2787.51 3047.39 2811.24 3081.56C2866.14 3172.84 2975.93 3219.52 3080.25 3205.04L3035.79 3218.08C3039.18 3253.42 3034.09 3292.67 3054.3 3324.1C3085.05 3372.42 3131.59 3408.59 3186.01 3426.46C3370.26 3488.79 3590.24 3351.35 3614.24 3157.97C3625.84 3085.99 3593.5 3018.7 3568.47 2953.5C3607.59 2944.38 3646.71 2929.77 3688.31 2927.42C3723.57 2934.72 3756.2 2951.44 3782.71 2975.8C3795.75 3014.92 3777.5 3056.91 3779.72 3097.33C3811.66 3181.96 3900.99 3222.65 3983.66 3241.69C3992.92 3254.73 4002.83 3266.59 4012.61 3278.98L4055.51 3276.37L4070.24 3250.29C4073.5 3244.82 4079.89 3233.99 4083.28 3228.52C4114.58 3228.52 4145.75 3227.34 4177.04 3227.08C4124.23 3320.13 4065.88 3409.92 4002.31 3495.96C3957.32 3563.12 3891.6 3613.32 3851.3 3683.74C3834.35 3640.32 3803.45 3600.68 3757.42 3586.46C3712.59 3572.42 3665.34 3567.79 3618.64 3572.89C3571.94 3577.98 3526.8 3592.68 3486.06 3616.06C3400.12 3662.61 3329.58 3730.42 3253.94 3791.58C3196.96 3837.48 3154.71 3905.68 3149.63 3979.62C3153.64 4012.94 3165.58 4044.81 3184.43 4072.58C3203.28 4100.34 3228.5 4123.19 3257.99 4139.22C3299.85 4163.48 3350.18 4156.18 3396.47 4155.65L3383.43 4165.7C3347.57 4172.35 3304.15 4160.35 3276.51 4190.73C3205.18 4179.65 3161.36 4118.49 3112.46 4072.33C3152.76 4130.88 3202.96 4189.69 3275.2 4207.94C3170.88 4215.64 3081.3 4273.93 2984.28 4306.13C2891.96 4336.39 2800.68 4378.38 2702.1 4380.85C2721.27 4347.34 2745.52 4315.65 2754.26 4277.32C2757.91 4240.41 2739.91 4206.51 2728.18 4173C2730.65 4215.25 2743.04 4260.5 2724.52 4300.79C2709.49 4333.79 2690.77 4364.98 2668.71 4393.76C2574.57 4435.75 2467.77 4430.54 2367.23 4443.45L2351.71 4473.05L2327.07 4456.49L2354.32 4448.92C2316.9 4432.49 2277.52 4420.23 2241.66 4400.54C2191.06 4370.29 2161.07 4317.61 2131.73 4268.45C2155.07 4332.74 2190.02 4395.98 2251.57 4430.8C2129.77 4436.79 2010.33 4410.06 1891.67 4387.24C1883.58 4399.37 1875.5 4411.37 1867.15 4423.36L1849.81 4431.97C1852.94 4413.19 1856.46 4394.81 1860.11 4376.16C1756.96 4345.12 1652.64 4313.57 1557.71 4261.54C1588.53 4247.17 1615.58 4225.83 1636.74 4199.21C1591.23 4215.9 1547.41 4240.54 1497.99 4243.8C1448.57 4230.76 1396.93 4229.85 1346.99 4219.42C1386.11 4213.81 1425.23 4211.86 1463.3 4204.42C1553.54 4183.04 1624.35 4104.93 1648.34 4016.78C1680.03 3914.68 1647.43 3803.71 1593.57 3715.17C1661.12 3699.13 1743.27 3687.78 1780.3 3620.5C1818.38 3528.04 1846.81 3427.51 1828.68 3326.84C1888.15 3294.5 1961.3 3273.63 1995.2 3209.48C2038.23 3143.5 2012.94 3060.56 2035.1 2988.84C2063.01 2935.51 2128.86 2915.69 2156.64 2861.96C2202.15 2776.29 2187.15 2676.15 2187.93 2583.17C2204.01 2585.17 2220.05 2587.39 2236.05 2589.82C2356.15 2627.77 2490.59 2660.5 2611.99 2608.73C2566.48 2600.91 2522.54 2623.33 2477.03 2617.6C2424.87 2612.51 2374.14 2598.82 2322.77 2589.3C2268.52 2578.35 2209.84 2567.52 2169.55 2526.06C2169.32 2480.76 2172.11 2435.5 2177.89 2390.57L2177.76 2391.61ZM2164.72 3065.65C2151.68 3090.68 2161.46 3117.81 2167.59 3143.89C2199.54 3141.54 2252.48 3140.24 2241.92 3093.42C2249.48 3051.04 2189.76 3049.74 2164.72 3065.78V3065.65ZM2737.3 3065.65C2749.59 3093.69 2764.66 3120.42 2782.29 3145.45C2812.28 3107.51 2775.51 3070.21 2737.17 3065.39L2737.3 3065.65ZM2841.62 3198.65C2869.92 3249.51 2930.03 3255.64 2982.32 3256.94C2981.28 3251.21 2978.93 3239.73 2977.76 3233.99L2895.87 3228.39C2878.32 3217.54 2860.21 3207.61 2841.62 3198.65ZM2075.66 3250.81C2029.96 3271.56 1988.83 3301.17 1954.65 3337.92C1929.61 3372.44 1911.94 3411.73 1902.74 3453.37C1893.54 3495.01 1893.01 3538.09 1901.18 3579.94C1920.48 3653.36 1986.99 3704.73 2057.66 3725.08C2076.61 3729.55 2096.46 3728.42 2114.78 3721.82C2133.07 3715.25 2149.09 3703.57 2160.94 3688.17C2190.28 3652.44 2228.36 3625.45 2259.26 3591.42C2297.34 3532.22 2269.17 3458.28 2230.83 3406.9C2196.04 3362.17 2170.59 3310.91 2155.98 3256.16C2129.9 3249.38 2100.96 3234.51 2075.14 3250.55L2075.66 3250.81ZM2625.55 3503.79C2599.47 3523.09 2592.17 3568.99 2622.68 3589.07C2658.02 3616.19 2713.96 3582.03 2709.01 3539C2705.75 3501.57 2655.02 3483.97 2625.55 3503.79ZM3516.05 3548.12C3505.75 3557.12 3495.57 3566.25 3485.53 3575.38C3514.61 3562.34 3543.04 3548.12 3571.21 3533C3637.06 3511.59 3708.06 3511.91 3773.72 3533.91C3802.93 3548.91 3832 3563.9 3862.13 3577.2C3838.2 3554.27 3811.27 3534.71 3782.06 3519.05C3695.74 3482.53 3594.68 3501.96 3516.05 3548.12ZM3005.41 3701.08C2939.42 3703.17 2868.22 3723.77 2825.84 3777.5C2787.77 3823.66 2743.69 3877.25 2757.52 3941.8C2759.21 3991.22 2815.67 4007 2856.49 4001.39C2939.68 3991.61 3026.01 3958.36 3079.21 3891.6C3108.81 3849.09 3128.37 3787.28 3096.95 3740.59C3072.39 3716.73 3039.88 3702.79 3005.67 3701.47L3005.41 3701.08ZM2653.33 3753.24C2607.69 3759.89 2578.61 3825.09 2619.16 3855.08C2645.24 3863.17 2684.36 3868.12 2702.1 3840.74C2728.18 3805.14 2704.57 3736.42 2653.33 3753.24ZM1786.04 3837.74C1798.3 3874.25 1844.59 3855.48 1873.28 3857.95C1878.62 3829.98 1879.8 3801.38 1876.8 3773.06C1855.65 3769.26 1834.25 3766.95 1812.77 3766.15C1800.19 3772.58 1790.5 3783.54 1785.66 3796.82C1780.82 3810.1 1781.19 3824.72 1786.7 3837.74H1786.04ZM1691.11 3782.58C1689.28 3838.02 1698.41 3893.28 1717.97 3945.19C1729.84 3889.9 1725.67 3829 1691.11 3782.45V3782.58ZM1806.65 3988.74C1819.68 4023.04 1848.9 4048.6 1877.97 4069.98C1924.27 4105.19 1988.68 4096.06 2039.02 4074.68C2040.71 4029.56 2063.14 3979.09 2039.02 3937.24C1998.98 3892.25 1932.09 3903.2 1878.49 3905.29C1835.46 3905.29 1811.34 3951.71 1806.65 3988.74ZM2215.84 3990.83L2208.01 4016.91L2256.13 3985.74C2313.38 3983.92 2371.14 3979.35 2428.13 3987.18C2458.04 3999.26 2487.3 4012.93 2515.76 4028.12C2492.28 3980.14 2434.39 3964.23 2385.36 3969.71C2328.63 3975.57 2266.3 3955.75 2215.84 3991.48V3990.83ZM2261.48 4037.9C2190.02 4065.94 2160.42 4156.18 2183.24 4225.94C2200.19 4307.44 2277 4354.25 2348.58 4382.42C2454.6 4419.32 2588.39 4415.67 2665.32 4323.35C2701.58 4286.57 2697.66 4233.37 2693.62 4186.04C2657.93 4132 2604.61 4092 2542.75 4072.85C2490.59 4056.03 2439.34 4034.64 2386.27 4018.87C2344.15 4005.83 2301.38 4024.21 2261.87 4037.64L2261.48 4037.9ZM2540.14 4036.86C2575.6 4045.39 2609.52 4059.38 2640.68 4078.33C2640.68 4071.68 2640.68 4058.51 2641.46 4052.25C2608.73 4042.73 2574.57 4024.47 2540.14 4037.25V4036.86ZM966.223 3537.82C975.612 3603.02 960.094 3669.79 980.828 3733.42C982.653 3739.81 986.434 3752.72 988.26 3759.5C1021.21 3825.98 1064.97 3886.52 1117.75 3938.67L1124.27 3945.58C1142.52 3963.97 1162.21 3980.92 1181.77 3997.74C1212.94 4034.91 1260.79 4046.38 1304.35 4062.03C1375.55 4070.11 1446.09 4060.72 1516.38 4050.16C1543.24 4032.95 1570.36 4016.13 1597.22 3999.18L1613.66 3983.01C1598.92 4020.82 1584.58 4059.94 1558.24 4091.63C1531.89 4123.31 1496.82 4137.66 1463.7 4156.83C1419.19 4160.48 1374.44 4159.96 1330.04 4155.26C1229.63 4114.45 1143.7 4047.03 1066.24 3972.7C1023.46 3940.62 989.206 3898.53 966.484 3850.13C924.104 3752.59 914.324 3635.36 966.484 3539.13L966.223 3537.82ZM3707.21 3620.37C3738.9 3635.75 3777.89 3648.53 3791.97 3684.26C3809.31 3715.04 3801.23 3751.42 3796.15 3784.28C3753.37 3902.94 3645.66 3978.57 3541.48 4039.99C3472.62 4081.33 3395.43 4128.27 3311.71 4110.67C3263.07 4103.49 3231.26 4061.9 3201.92 4026.43L3241.04 4032.3C3334.27 4073.76 3447.33 4054.2 3527.91 3993.18C3551.74 3976.38 3574.2 3957.72 3595.07 3937.37L3611.63 3913.76C3655.31 3873.22 3691.43 3825.22 3718.3 3772.02C3731.64 3721.65 3727.92 3668.27 3707.73 3620.24L3707.21 3620.37ZM2233.7 4181.08C2233.7 4149.4 2231.49 4116.8 2243.09 4086.67C2245.57 4132.44 2234.88 4180.82 2250 4225.16C2271.91 4280.97 2342.06 4272.23 2388.62 4292.7C2444.3 4349.56 2530.36 4333.39 2601.56 4327C2588.2 4333.86 2574.44 4339.91 2560.35 4345.12C2502.07 4358.4 2441.61 4358.84 2383.14 4346.43C2327.36 4332.5 2277.81 4300.38 2242.31 4255.15C2218.71 4225.16 2216.23 4185.39 2204.36 4150.18L2233.05 4179.91L2233.7 4181.08Z" fill="#FE6289"/>
<path d="M1993 232.856C2061.07 206.776 2134.87 206.124 2206.72 209.645C2231.93 208.887 2256.73 216.047 2277.66 230.118C2309.48 266.89 2277.66 321.397 2237.76 337.175C2130.18 394.551 1991.69 414.242 1880.85 354.128C1877.59 289.71 1938.49 249.808 1993 232.856ZM2805.25 285.016C2837.98 270.281 2870.45 254.372 2903.44 240.941C2917.47 243.313 2930.82 248.695 2942.56 256.719C2932.76 272.49 2925.87 289.892 2922.22 308.097C2878 314.466 2832.88 308.51 2791.82 290.884L2804.86 285.016H2805.25ZM2760.66 305.489C2783.76 322.056 2809.94 333.853 2837.66 340.189C2865.38 346.525 2894.08 347.274 2922.09 342.392C2917.01 356.214 2912.05 369.906 2907.1 383.728C2873.84 382.424 2839.94 384.511 2807.6 376.035C2784.78 358.952 2775.13 330.004 2760.66 305.489ZM2129.53 433.541C2154.17 419.197 2173.86 458.317 2142.56 463.402C2116.88 480.093 2101.49 442.147 2129.92 433.541H2129.53ZM2691.94 477.224C2754.79 431.194 2835.38 442.929 2908.66 432.367C3008.94 418.545 3110.26 444.233 3201.02 486.352C3174.84 507.228 3150.14 529.884 3127.08 554.16C3162.36 538.66 3196.56 520.798 3229.44 500.696C3242.66 519.213 3255.96 537.73 3269.34 556.246C3220.18 576.328 3169.07 602.408 3139.73 648.439C3101.13 726.549 3087.82 814.74 3101.65 900.761C3095.78 891.633 3089.65 882.766 3083.66 873.768C3074.96 891.763 3065.96 909.889 3056.66 928.145L3075.31 955.268L3050.8 966.221C3041.33 934.584 3029.25 903.79 3014.67 874.159C2971.12 861.902 2925.22 861.12 2881.28 850.948C2790 830.476 2703.67 789.661 2622.56 743.369C2598.31 726.417 2566.23 709.205 2559.97 678.17C2564.02 593.28 2618.78 517.909 2691.94 477.355V477.224ZM3044.01 729.416C3035.67 761.364 3028.89 796.833 3044.67 827.737C3050.91 795.239 3050.68 761.829 3044.01 729.416ZM1441.41 608.536C1521.21 592.236 1601.41 575.154 1682.91 571.112C1746.02 566.156 1798.44 607.363 1856.86 623.271C1907.85 639.962 1963.79 640.354 2012.43 664.217C2048.29 693.165 2067.33 738.935 2107.49 763.45C2172.69 809.481 2257.06 854.73 2267.36 942.619C2288.48 1028.55 2240.49 1108.1 2233.45 1192.2C2286.53 1215.02 2343.77 1240.45 2374.68 1292.48C2413.8 1346.99 2406.36 1422.88 2453.7 1471.91C2478.08 1407.36 2430.49 1341.51 2427.62 1275.27C2491.64 1325.86 2480.56 1414.92 2500.25 1485.99C2558.8 1467.34 2621.52 1456.13 2682.81 1467.35C2724.8 1477.39 2761.96 1500.86 2800.17 1520.42C2837.2 1512.59 2876.19 1498.64 2914.01 1510.77C2972.56 1530.59 2999.03 1600.22 3063.57 1609.22C3068.92 1551.32 3063.57 1489.51 3092.52 1436.57C3132.82 1360.81 3215.1 1313.47 3299.21 1304.87C3381.75 1292.87 3457.38 1336.55 3533.92 1359.64C3591.95 1376.2 3601.99 1441.27 3629.9 1485.73C3663.15 1501.12 3700.7 1500.99 3736.3 1507.9L3739.43 1516.38C3714.92 1519.9 3687.27 1519.24 3670.06 1539.98C3694.78 1538.13 3719.35 1534.64 3743.61 1529.55C3747.65 1542.59 3751.82 1556.67 3756.65 1570.23C3666.54 1603.09 3574.09 1651.34 3525.19 1738.31C3473.03 1822.94 3476.55 1927.78 3489.85 2022.71C3489.85 2069.4 3513.32 2110.73 3540.18 2147.25C3581.52 2204.62 3629.9 2267.73 3705.27 2277.65C3815.46 2299.03 3936.21 2300.99 4038.83 2249.22C4057.22 2281.43 4075.6 2314.42 4093.73 2346.1C4106.77 2343.5 4119.81 2340.89 4132.85 2338.02C4114.34 2348.98 4099.29 2364.94 4089.42 2384.06C4079.55 2403.17 4075.26 2424.68 4077.04 2446.12C4092.83 2452.23 4109.16 2456.85 4125.81 2459.94C4104.55 2464.51 4083.69 2469.85 4062.95 2475.98C4103.38 2477.81 4143.67 2474.81 4183.96 2472.72L4177.97 2495.67C4067.13 2498.28 3959.29 2596.86 3971.15 2712.27C3968.41 2785.03 4039.22 2843.84 4109.38 2839.01C4175.04 2842.93 4240.06 2824.25 4293.63 2786.07C4293.63 2807.2 4294.67 2828.32 4295.33 2849.58C4288.58 2845.95 4280.73 2844.98 4273.3 2846.83C4265.88 2848.69 4259.41 2853.25 4255.16 2859.62C4264.29 2874.35 4277.85 2877.22 4295.85 2868.09C4298.19 2896 4302.37 2923.64 4305.23 2951.55C4296.11 3010.23 4286.72 3070.34 4258.16 3123.28C4238.73 3162.4 4206 3193.44 4178.62 3227.6C4147.32 3227.6 4116.16 3228.65 4084.86 3229.04C4081.73 3234.51 4075.34 3245.34 4071.82 3250.81C4068.04 3227.34 4070.78 3193.57 4039.35 3190.18C4005.45 3175.7 3985.37 3213.65 3985.24 3242.34C3902.56 3223.3 3813.24 3182.62 3781.29 3097.99C3779.07 3057.56 3796.68 3016.23 3784.29 2976.45C3757.76 2952.11 3725.14 2935.39 3689.88 2928.08C3648.81 2929.9 3609.69 2944.51 3570.04 2954.16C3595.08 3019.36 3627.42 3086.64 3615.81 3158.62C3592.08 3352 3371.84 3489.44 3187.58 3427.11C3133.17 3409.24 3086.63 3373.07 3055.88 3324.75C3035.67 3293.32 3040.75 3254.07 3037.36 3218.74L3081.83 3205.7C3186.15 3178.44 3266.74 3069.95 3254.35 2961.85C3236.09 2868.35 3142.34 2808.89 3051.97 2801.33C2982.73 2787.38 2918.96 2827.41 2866.41 2867.57C2804.99 2918.95 2794.3 3008.4 2812.82 3082.21C2789.08 3048.04 2798.08 3003.97 2789.08 2965.89C2766 2933.29 2722.71 2911.25 2720.36 2867.18C2716.06 2782.81 2761.31 2707.7 2786.48 2629.85C2798.47 2596.86 2784.65 2551.61 2742.79 2554.74C2755.1 2549.15 2766.02 2540.89 2774.74 2530.56C2783.47 2520.23 2789.79 2508.09 2793.26 2495.02C2766.22 2507.44 2740.07 2521.73 2715.02 2537.79C2688.94 2520.06 2662.86 2498.67 2631.17 2496.72C2542.76 2486.54 2466.08 2558 2377.02 2540.92C2330.47 2535.97 2305.43 2492.8 2282.74 2457.47C2342.07 2477.77 2403.79 2490.26 2466.35 2494.63C2560.1 2491.24 2655.16 2464.25 2729.75 2405.57C2831.46 2328.89 2900.18 2205.66 2901.88 2077.22C2904.11 2004.07 2886.12 1931.71 2849.88 1868.12C2813.65 1804.53 2760.57 1752.17 2696.5 1716.8C2516.16 1617.56 2275.18 1662.03 2134.48 1809.64C2069.28 1882.28 2023.77 1977.73 2030.94 2077.35C2024.95 2199.15 2087.8 2315.07 2179.21 2392.4C2173.43 2437.32 2170.64 2482.58 2170.86 2527.88C2157.82 2516.54 2144.78 2505.19 2131.74 2494.11C2156.08 2536.24 2192.39 2570.19 2236.06 2591.65C2219.89 2589.04 2203.85 2586.82 2187.94 2585C2187.16 2677.97 2202.16 2778.12 2156.65 2863.79C2128.87 2917.51 2063.02 2937.33 2035.12 2990.67C2012.95 3062.39 2038.25 3145.32 1995.21 3211.3C1961.31 3275.59 1888.16 3296.45 1828.69 3328.66C1846.82 3429.33 1818.39 3529.87 1780.32 3622.32C1743.28 3689.61 1661.13 3700.56 1593.58 3716.99C1505.17 3581.77 1392.38 3447.33 1236.42 3390.99C1088.16 3338.83 938.459 3457.76 893.863 3595.2C821.785 3545.19 765.647 3475.47 732.169 3394.38C713.017 3315.14 718.058 3231.97 746.643 3155.62C703.742 3075.04 626.937 3022.62 556 2968.89C521.705 2942.81 480.238 2925.73 451.68 2893.39C442.161 2854.27 467.459 2817.24 474.631 2779.29C449.985 2701.05 391.827 2632.07 389.349 2546.53C383.612 2474.16 447.377 2419.13 440.336 2346.37C455.059 2331.08 468.902 2314.97 481.802 2298.12C457.287 2240.61 419.992 2189.5 392.217 2133.42L405.257 2125.86C420.905 2104.87 435.25 2082.96 451.289 2062.36L455.2 2056.88C455.2 2040.19 434.467 2045.53 423.644 2040.97C457.809 1973.16 486.366 1891.79 453.114 1817.86C439.162 1777.3 391.175 1768.7 353.881 1775.48C375.136 1770.52 396.52 1766.87 418.036 1763.09L369.659 1722.41C395.738 1725.27 421.817 1728.27 446.984 1731.53C445.694 1696.88 448.011 1662.18 453.896 1628C468.892 1592.4 518.054 1589.66 539.83 1562.8C534.875 1491.47 567.865 1420.79 550.131 1350.64C546.74 1337.6 542.698 1324.56 539.959 1311.52C542.176 1224.54 583.644 1143.56 579.993 1055.81C565.127 1102.36 553.912 1149.82 541.785 1197.16C533.7 1157.13 523.79 1115.14 538.525 1075.23C569.67 977.87 630.099 892.487 711.565 830.736L706.349 878.202C754.466 787.966 855.525 752.106 942.762 711.682C1030 671.258 1126.1 669.954 1214.65 637.355C1145.27 638.919 1074.73 641.919 1008.22 663.434C941.719 684.95 881.606 713.116 818.102 737.371C888.908 665.39 985.533 628.487 1081.12 602.538C1139.8 602.538 1198.48 598.365 1257.03 596.409C1319.49 594.583 1379.99 622.489 1442.45 610.492L1441.41 608.536ZM1116.45 702.815C975.754 724.461 833.358 786.401 743.383 900.369C686.399 975.479 632.543 1056.85 616.764 1152.04C598.117 1263.79 608.81 1386.76 675.183 1482.47C748.989 1599.83 883.822 1669.72 1019.96 1680.55C1196.91 1676.64 1353.52 1571.53 1471.4 1446.61C1557.86 1357.16 1632.18 1240.84 1626.97 1112.01C1618.36 1013.69 1581.33 914.322 1510.39 843.907C1460.65 790.8 1398.97 750.304 1330.47 725.769C1261.96 701.234 1188.6 693.365 1116.45 702.815ZM1437.37 723.939C1473.36 751.454 1504.26 784.966 1540.12 812.872C1529.69 775.969 1496.05 754.453 1469.84 729.547L1437.37 723.939ZM1643.01 886.286C1649.79 921.234 1662.83 957.615 1695.17 976.131C1700.9 936.229 1675.61 904.803 1643.01 886.286ZM1730.37 1092.84C1727.77 1112.79 1725.55 1132.74 1723.59 1152.82C1703.12 1221.67 1687.86 1292.35 1653.83 1356.38C1630.36 1424.97 1566.46 1465.26 1530.34 1525.89C1594.63 1473.73 1662.44 1418.18 1686.82 1334.6C1709.26 1286.01 1722.91 1233.82 1727.11 1180.47L1737.81 1179.42L1731.94 1171.86C1738.05 1145.87 1737.69 1118.78 1730.9 1092.97L1730.37 1092.84ZM599.813 1527.72C632.935 1630.08 730.212 1697.24 827.49 1732.97C925.42 1773.26 1033.78 1765.7 1136.01 1749.01C1053.21 1741.31 968.582 1749.66 888.256 1726.71C770.115 1705.84 651.972 1640.65 600.465 1527.72H599.813ZM2064.72 1779.91C2111.53 1743.4 2154.3 1701.67 2206.2 1671.68C2249.62 1644.3 2299.83 1632.56 2347.03 1614.17C2235.15 1625.78 2118.7 1675.46 2064.72 1779.91ZM2629.08 1620.04C2631.17 1663.47 2668.2 1599.83 2629.08 1620.04V1620.04ZM2652.82 1633.08C2686.85 1655.12 2727.01 1665.42 2761.18 1687.46C2809.3 1714.45 2847.5 1756.31 2898.23 1778.74C2866.54 1713.54 2791.04 1693.59 2733.67 1658.38C2708.08 1646.08 2680.85 1637.55 2652.82 1633.08ZM1228.86 1703.11L1244.77 1713.15C1263.26 1696.2 1283.65 1681.46 1305.53 1669.2C1271.89 1650.82 1246.46 1676.11 1228.86 1703.11ZM2984.03 1761.26C3010.11 1753.7 3041.67 1749.66 3057.97 1724.23C3026.15 1718.62 2993.94 1727.62 2984.03 1761.26ZM490.408 1846.28C485.244 1854.05 482.229 1863.05 481.671 1872.36C481.195 1881.81 483.22 1891.21 487.54 1899.62C507.361 1897.79 509.186 1849.15 490.408 1846.28ZM2924.7 1839.11C2941.52 1884.36 2949.61 1933.26 2972.16 1976.03C2978.03 1951.06 2976.68 1924.93 2968.28 1900.69C2959.87 1876.46 2944.76 1855.1 2924.7 1839.11ZM1767.93 1855.67C1765.71 1874.32 1797.92 1874.58 1807.05 1863.37C1809.27 1844.85 1776.93 1844.33 1767.93 1855.67ZM1234.99 1950.34C1216.73 2001.2 1251.16 2047.36 1283.76 2082.7C1301.88 2102.39 1332.66 2097.82 1351.82 2082.7C1384.95 2058.44 1430.06 2031.19 1426.8 1984.12C1423.54 1937.04 1380.9 1904.44 1351.17 1870.8C1296.41 1860.11 1255.98 1906.27 1234.99 1950.73V1950.34ZM680.791 2228.88C713.651 2208.53 745.991 2184.8 783.676 2175.67C830.75 2158.85 881.475 2166.94 930.375 2164.85C957.498 2176.2 984.882 2187.28 1012.01 2198.88C1016.83 2209.45 1021.78 2220.01 1026.74 2230.57C1025.7 2222.75 1023.74 2207.23 1022.83 2199.41C924.767 2118.95 763.986 2134.21 680.791 2228.88ZM3176.63 2181.54L3181.32 2215.31C3131.64 2210.23 3084.05 2188.19 3033.32 2196.41L3047.14 2212.84C3125.38 2201.23 3194.37 2245.44 3269.87 2257.82C3245.1 2239.69 3216.01 2228.36 3185.5 2224.96L3184.45 2200.19L3228.27 2187.15C3210.93 2185.19 3193.71 2183.5 3176.11 2181.8L3176.63 2181.54ZM1978 2291.99L2009.56 2293.03C1988.88 2267.58 1970.75 2240.15 1955.44 2211.14C1948.53 2240.74 1964.31 2267.08 1978 2291.99ZM793.586 2230.57C701.394 2263.3 624.85 2341.28 604.116 2438.43C579.34 2552.79 587.947 2685.14 665.274 2778.77C772.593 2919.21 1002.88 2932.64 1129.89 2812.54C1162.75 2781.9 1188.09 2744.08 1203.92 2702.03C1219.76 2659.98 1225.66 2614.84 1221.17 2570.13C1209.56 2433.86 1113.46 2315.98 993.618 2256C933.113 2221.97 861.003 2219.36 794.109 2229.92L793.586 2230.57ZM3520.75 2271.13C3531.84 2315.2 3572.91 2338.28 3605.12 2366.19C3644.24 2384.44 3684.67 2403.22 3729.13 2401.39C3752.21 2429.69 3794.33 2415.22 3824.19 2407.78C3800.33 2404 3776.21 2402.05 3752.21 2400.22C3724.36 2388.5 3695.2 2380.13 3665.37 2375.31C3611.9 2349.23 3554.14 2323.15 3520.75 2270.99V2271.13ZM1171.48 2345.58C1187.21 2379.43 1205.25 2412.15 1225.47 2443.51C1247.9 2479.37 1251.55 2522.54 1269.41 2560.87C1281.28 2476.9 1230.29 2400.09 1171.48 2345.71V2345.58ZM541.264 2443.12C494.19 2488.63 515.966 2558.13 515.966 2615.9L539.308 2616.68C533.438 2558.94 534.094 2500.72 541.264 2443.12ZM1966.66 2496.19C1978.39 2509.23 1990.26 2521.36 2001.87 2534.27C1947.36 2583.43 1871.47 2632.59 1869.12 2713.83C1907.19 2621.38 1996.78 2568.17 2059.89 2494.63L2043.33 2495.8C2027.42 2501.54 2011.25 2507.02 1995.08 2512.36C2001.47 2502.97 2014.12 2484.2 2021.16 2474.94C2003.17 2481.85 1985.17 2489.02 1967.31 2496.19H1966.66ZM536.44 2654.37C524.834 2666.63 542.047 2692.71 557.564 2683.45C568.779 2671.19 552.088 2645.11 536.44 2654.37ZM2844.5 2844.49C2874.24 2822.71 2900.31 2792.33 2938.13 2785.29C2977.89 2779.31 3016.47 2767.16 3052.49 2749.3C2974.25 2745.26 2878.41 2764.56 2843.85 2844.49H2844.5ZM3109.08 2781.38C3103.74 2797.81 3130.34 2811.5 3143.77 2804.46C3149.64 2787.9 3122.38 2773.42 3109.08 2781.51V2781.38ZM1095.33 2905C1118 2902.04 1139.22 2892.21 1156.12 2876.82C1173.03 2861.43 1184.81 2841.23 1189.87 2818.93C1160.27 2849.71 1125.84 2875.79 1095.33 2905ZM641.28 2833.67C654.319 2869.4 684.312 2892.87 715.477 2912.69C793.717 2942.94 877.433 2983.1 963.236 2971.11C978.362 2965.63 993.749 2960.68 1008.88 2954.81C949.805 2947.38 888.517 2957.02 831.272 2937.2C763.073 2913.21 689.527 2890.78 641.149 2833.67H641.28ZM3992.54 2861.96C4017.18 2875.79 4042.74 2888.04 4067.13 2903.04C4083.12 2901.2 4098.7 2896.8 4113.29 2890L4066.34 2885.04C4043.1 2873.43 4018.21 2865.47 3992.54 2861.44V2861.96ZM4151.76 2884.65C4135.2 2904.6 4172.62 2920.25 4185.27 2904.08C4202.22 2884.26 4164.14 2868.61 4151.1 2885.04L4151.76 2884.65ZM3267.78 3172.71C3270.65 3148.06 3273 3123.28 3274.95 3098.64C3268.19 3098.91 3261.62 3101 3255.95 3104.7C3250.27 3108.39 3245.7 3113.56 3242.73 3119.64C3239.75 3125.72 3238.47 3132.49 3239.02 3139.24C3239.57 3145.98 3241.94 3152.46 3245.87 3157.97C3251.12 3165.4 3258.92 3170.64 3267.78 3172.71ZM982.404 3368.3H999.487C1029.21 3350.17 1060.45 3334.64 1092.85 3321.88L1134.06 3324.49C1155.96 3333.88 1179.79 3337.91 1203.56 3336.23C1180.61 3327.1 1156.75 3320.06 1133.67 3311.32C1076.55 3306.23 1025.18 3333.49 982.404 3368.43V3368.3ZM1437.37 3433.5C1481.83 3492.97 1537.25 3544.34 1571.55 3611.11L1586.28 3601.72C1544.69 3540.56 1503.22 3473.28 1437.89 3433.5H1437.37ZM3624.55 631.486L3652.59 644.526L3630.16 672.171C3749.08 689.905 3825.76 803.744 3838.8 915.235C3833.32 1013.95 3750.13 1085.54 3665.5 1122.83C3536.53 1168.86 3393.09 1132.22 3280.69 1061.15C3243.53 1033.9 3201.28 1005.99 3184.98 960.614C3178.59 892.024 3178.59 815.48 3221.49 757.583C3266.74 696.556 3342.89 675.301 3409.52 646.482C3472.9 644.396 3534.84 659.522 3597.04 669.172L3624.94 632.008L3624.55 631.486ZM3298.55 1020.34C3285.51 980.044 3272.47 938.446 3246.39 904.934C3224.1 955.007 3260.35 995.039 3299.47 1021.12L3298.55 1020.34ZM3574.35 1025.29C3491.94 1048.5 3405.87 1035.59 3321.9 1032.33C3338.33 1073.02 3395.05 1087.75 3433.39 1078.89L3470.94 1088.67L3465.86 1101.71C3502.24 1109.14 3531.97 1088.67 3559.87 1068.19C3583.61 1068.19 3612.03 1083.06 3631.85 1064.28C3668.37 1031.29 3708.92 999.734 3733.17 955.92C3679.97 978.609 3631.2 1012.12 3574.35 1025.55V1025.29ZM883.04 999.212C1041.08 904.803 1235.12 882.896 1413.63 920.973C1515.34 940.663 1582.24 1049.94 1568.16 1149.82C1555.12 1264.7 1480.01 1361.07 1397.73 1437.48C1306.45 1530.85 1189.09 1607.92 1056.99 1625.39C905.599 1638.43 757.074 1544.02 688.614 1411.27L689.528 1408.01C706.48 1351.94 709.74 1293.26 715.608 1235.36C726.431 1134.31 794.89 1046.55 883.171 999.342L883.04 999.212ZM931.548 1520.81C954.238 1570.36 1035.09 1593.18 1074.99 1553.8C1025.97 1551.45 977.732 1540.55 932.462 1521.59L931.548 1520.81ZM4078.34 1230.93C4093.73 1218.54 4133.24 1225.85 4130.5 1249.19C4115.77 1256.75 4080.56 1249.97 4079.25 1231.71L4078.34 1230.93ZM3963.2 1272.92C4022.79 1244.49 4088.9 1252.97 4147.58 1279.44L4121.5 1291.57L4098.29 1289.61C4053.64 1280.22 4008.27 1274.64 3962.68 1272.92H3963.2ZM2502.73 1411.14C2533.24 1390.02 2524.51 1460.56 2539.63 1468.91C2507.29 1469.69 2498.03 1440.22 2503.64 1412.32L2502.73 1411.14ZM3609.82 1694.37C3677.36 1676.38 3747.52 1676.37 3816.89 1677.81H3838.15C3904.26 1703.11 3971.41 1731.66 4019.92 1785.39C4095.29 1862.85 4151.23 1972.51 4128.02 2083.09C4113.77 2121.54 4090.4 2155.96 4059.92 2183.4C4029.44 2210.84 3992.76 2230.47 3953.03 2240.61C3862.66 2268.39 3766.17 2253.65 3675.54 2235.13C3601.47 2192.76 3527.4 2126.9 3521.8 2035.75C3511.1 1918.4 3507.32 1774.17 3610.99 1694.37H3609.82ZM2239.06 1868.71C2308.69 1843.94 2376.76 1809.25 2452 1806.12C2534.02 1798.82 2615.52 1820.21 2690.63 1851.76C2736.66 1868.84 2763.79 1912.01 2796.26 1946.04C2832.12 1999.24 2841.5 2065.62 2846.46 2128.6C2831.49 2220.38 2782.57 2303.18 2709.41 2360.58C2641.86 2418.35 2550.72 2438.82 2464.52 2446.9C2368.42 2438.3 2268.92 2411.04 2194.59 2347.15C2120.53 2287.29 2078.15 2194.71 2067.45 2101.48C2066.54 2074.65 2073.82 2048.18 2088.32 2025.58C2127.38 1963.7 2178.68 1910.45 2239.06 1869.1V1868.71ZM2352.77 2365.27C2351.99 2369.19 2350.42 2377.14 2349.51 2381.05C2381.76 2393.99 2416.27 2400.37 2451.01 2399.83C2485.76 2399.29 2520.05 2391.85 2551.89 2377.92C2552.21 2374.71 2552.21 2371.48 2551.89 2368.27C2488.51 2395.53 2415.49 2389.27 2352.77 2365.8V2365.27ZM330.408 1881.75C346.056 1876.41 361.835 1870.93 377.613 1866.11C411.125 1867.93 419.732 1906.01 423.775 1932.48C419.211 1980.47 390.522 2022.98 357.922 2057.14H309.023C275.51 2028.58 264.818 1986.2 265.731 1943.69C286.073 1922.05 303.938 1896.88 330.93 1882.28L330.408 1881.75ZM847.962 2356.02L870.912 2337.37C914.857 2339.06 958.801 2340.11 1002.88 2341.67C1002.88 2344.41 1003.79 2350.15 1004.05 2352.89C1069.25 2350.67 1111.5 2409.22 1139.27 2460.33C1174.09 2515.23 1178.39 2583.56 1168.22 2646.41C1133.99 2684.48 1096.98 2719.96 1057.51 2752.56C1024.13 2754.78 991.14 2763.12 968.842 2789.85C917.595 2790.64 866.349 2790.77 815.103 2791.03L805.713 2782.03L797.628 2774.21L727.473 2704.96C724.344 2725.83 721.084 2746.82 717.824 2767.69C697.481 2734.17 673.62 2702.49 662.014 2663.37C652.886 2615.25 656.927 2565.83 658.883 2517.19C685.784 2465.98 721.042 2419.62 763.202 2380.01C772.07 2372.19 781.068 2364.49 790.065 2356.8L847.441 2355.49L847.962 2356.02ZM4270.94 2496.06C4286.46 2484.85 4311.76 2509.1 4300.15 2525.27C4284.11 2534.53 4260.64 2511.32 4270.55 2495.8L4270.94 2496.06ZM4001.54 2683.84C4007.09 2652.13 4020.84 2622.42 4041.43 2597.67C4062.02 2572.92 4088.72 2553.98 4118.9 2542.75C4134.41 2544.96 4149.93 2547.83 4165.45 2551.22C4173.27 2562.57 4181.62 2573.65 4190.48 2584.21C4229.6 2631.29 4213.83 2691.27 4219.56 2746.43C4239.12 2690.1 4245.64 2610.68 4191.53 2571.04C4199.61 2563.74 4207.96 2556.57 4216.43 2549.66C4261.81 2574.3 4301.98 2619.94 4296.76 2674.97C4294.67 2731.04 4248.77 2772.9 4198.96 2790.77C4155.8 2771.34 4111.2 2805.89 4068.56 2790.77C4025.01 2777.73 3990.32 2730.65 4001.54 2684.36V2683.84ZM2925.35 2856.62C2956.12 2843.64 2989.5 2838.05 3022.81 2840.32C3056.13 2842.58 3088.44 2852.63 3117.17 2869.66C3132.97 2878.58 3144.59 2893.4 3149.51 2910.86C3156.16 2951.81 3160.59 2993.15 3166.07 3034.22C3175.15 2999.56 3188.65 2966.21 3206.23 2934.99C3216.7 2978.09 3211.91 3023.48 3192.68 3063.45C3173.44 3103.42 3140.95 3135.48 3100.74 3154.19C3056.4 3176.75 3005.16 3164.75 2958.34 3157.97C2956.91 3153.15 2953.78 3143.23 2952.21 3138.41C3005.81 3138.41 3065.66 3149.36 3112.08 3115.33C3133.47 3102.29 3136.99 3076.21 3146.77 3056.13C3119.39 3076.6 3094.61 3102.16 3061.88 3113.76C3011.15 3125.5 2958.73 3116.63 2908.66 3105.94C2873.58 3088.47 2835.51 3057.82 2835.51 3014.66C2829.38 2967.07 2859.89 2927.29 2882.19 2888.57C2886.23 2897.82 2895.23 2916.6 2898.62 2925.99C2924.7 2909.3 2951.95 2892.35 2978.42 2875.4L2925.35 2855.97V2856.62ZM2164.34 3065.26C2189.51 3049.22 2249.1 3050.52 2241.54 3092.9C2252.1 3139.71 2199.16 3141.02 2167.21 3143.37C2161.08 3117.29 2150.78 3090.29 2164.34 3065.13V3065.26ZM4008.06 3256.94C4008.06 3236.99 4009.62 3217.82 4010.92 3197.48C4047.57 3201.13 4055.52 3229.04 4050.04 3260.07L4008.19 3256.94H4008.06ZM2074.76 3249.64C2100.84 3233.6 2129.53 3248.47 2155.6 3255.25C2169.98 3309.75 2195.12 3360.83 2229.54 3405.47C2267.88 3456.84 2296.04 3530.78 2257.97 3589.98C2227.06 3624.02 2188.99 3651.01 2159.65 3686.74C2147.8 3702.14 2131.77 3713.81 2113.49 3720.38C2095.17 3726.98 2075.32 3728.12 2056.37 3723.64C1985.83 3703.3 1919.32 3651.92 1899.89 3578.51C1891.72 3536.66 1892.25 3493.57 1901.45 3451.94C1910.65 3410.3 1928.32 3371 1953.36 3336.49C1987.51 3299.71 2028.65 3270.1 2074.37 3249.38L2074.76 3249.64ZM1105.76 3428.03C1178.92 3407.42 1251.29 3438.98 1310.49 3480.19C1377.38 3514.09 1420.41 3576.81 1469.31 3631.06C1531.38 3701.6 1585.76 3782.84 1605.71 3876.08C1603.87 3899.44 1600.51 3922.65 1595.67 3945.58C1552.12 4010.78 1470.23 4031.51 1396.55 4039.86C1332.79 4046.77 1269.93 4031.12 1209.56 4012.61C1200.04 4007.52 1190.65 4002.17 1181.26 3996.83C1161.7 3980.01 1142.14 3963.05 1123.76 3944.67L1117.24 3937.76C1121.41 3934.89 1125.71 3932.15 1130.28 3929.41C1085.42 3897.46 1042 3857.56 1025.18 3803.32C999.078 3721.09 992.075 3633.99 1004.7 3548.65C1013.05 3494.92 1046.3 3434.29 1106.02 3428.29L1105.76 3428.03ZM3585.69 3628.19C3614.9 3617.11 3645.68 3632.36 3670.84 3646.58C3703.7 3672.66 3700.97 3721.16 3693.27 3758.59C3675.93 3817.27 3632.9 3862.91 3593.26 3907.63C3593.26 3914.68 3593.26 3928.76 3594.04 3935.67C3573.17 3956.02 3550.71 3974.69 3526.88 3991.48C3526.88 3987.18 3528.58 3978.44 3529.1 3974.53C3444.6 4031.38 3339.37 4043.9 3240.4 4030.47L3201.28 4024.6C3201.28 3985.48 3193.32 3941.93 3214.32 3906.07C3244.57 3846.48 3308.2 3817.4 3356.19 3774.89C3422.12 3711.34 3499.99 3661.48 3585.3 3628.19H3585.69ZM2242.58 4084.59C2270.49 4051.33 2320.82 4045.47 2361.11 4050.16C2405.97 4060.85 2445.35 4086.28 2488.64 4101.54C2544.46 4122.53 2607.7 4142.87 2639.39 4197.9C2646.43 4222.55 2630.78 4246.28 2624.78 4269.62L2595.44 4281.1C2530.24 4310.44 2456.7 4300.53 2388.11 4290.62C2341.56 4270.14 2270.75 4278.88 2249.49 4223.07C2234.37 4178.73 2245.06 4130.36 2242.58 4084.59ZM3397.14 4155.39C3434.17 4140.27 3472.38 4128.27 3509.67 4113.4C3515.28 4129.7 3521.15 4145.87 3525.84 4162.7C3507.71 4172.48 3488.81 4180.56 3469.9 4188.78C3468.33 4179.13 3465.2 4159.83 3463.51 4149.66C3437.7 4156.03 3411.59 4161.08 3385.27 4164.78L3398.31 4154.74L3397.14 4155.39Z" fill="#FF93AB"/>
</svg>
