<svg width="24" height="19" viewBox="0 0 24 19" fill="none" xmlns="http://www.w3.org/2000/svg">
<path d="M20.3175 1.82156C18.7875 1.13156 17.1475 0.621563 15.4325 0.331563C15.4172 0.328631 15.4014 0.330521 15.3872 0.336971C15.3731 0.343421 15.3613 0.354112 15.3535 0.367563C15.1435 0.736563 14.9095 1.21756 14.7455 1.59756C12.9266 1.3258 11.0774 1.3258 9.25848 1.59756C9.07582 1.17642 8.86983 0.765788 8.64148 0.367563C8.63374 0.353946 8.62203 0.343013 8.60792 0.336224C8.5938 0.329434 8.57795 0.32711 8.56248 0.329563C6.84848 0.619563 5.20848 1.12956 3.67748 1.82056C3.66431 1.82609 3.65314 1.83551 3.64548 1.84756C0.533481 6.42256 -0.319519 10.8846 0.0994806 15.2906C0.100647 15.3014 0.103996 15.3118 0.109326 15.3213C0.114655 15.3307 0.121853 15.339 0.130481 15.3456C1.94687 16.668 3.97282 17.6754 6.12348 18.3256C6.13847 18.3302 6.15451 18.3302 6.16949 18.3255C6.18448 18.3209 6.19772 18.3118 6.20748 18.2996C6.67028 17.6806 7.08038 17.024 7.43348 16.3366C7.43838 16.3272 7.44121 16.3168 7.44176 16.3062C7.44232 16.2957 7.4406 16.2851 7.43671 16.2752C7.43282 16.2653 7.42686 16.2564 7.41923 16.2491C7.4116 16.2417 7.40248 16.2361 7.39248 16.2326C6.74649 15.9893 6.12057 15.6957 5.52048 15.3546C5.5097 15.3484 5.50061 15.3397 5.49404 15.3291C5.48746 15.3186 5.48361 15.3066 5.48281 15.2942C5.48202 15.2818 5.48432 15.2694 5.48949 15.2582C5.49467 15.2469 5.50257 15.237 5.51248 15.2296C5.63848 15.1366 5.76448 15.0396 5.88448 14.9426C5.89528 14.9338 5.90829 14.9283 5.92206 14.9265C5.93584 14.9248 5.94983 14.9268 5.96248 14.9326C9.88948 16.6966 14.1425 16.6966 18.0235 14.9326C18.0362 14.9265 18.0503 14.9241 18.0643 14.9257C18.0782 14.9273 18.0915 14.9328 18.1025 14.9416C18.2225 15.0396 18.3475 15.1366 18.4745 15.2296C18.4845 15.2369 18.4925 15.2466 18.4979 15.2578C18.5032 15.269 18.5057 15.2813 18.5051 15.2937C18.5045 15.3061 18.5008 15.3181 18.4945 15.3287C18.4881 15.3394 18.4791 15.3482 18.4685 15.3546C17.8705 15.6986 17.2485 15.9896 16.5955 16.2316C16.5855 16.2352 16.5763 16.2409 16.5687 16.2484C16.561 16.2558 16.5551 16.2648 16.5512 16.2748C16.5473 16.2847 16.5456 16.2954 16.5462 16.306C16.5467 16.3167 16.5496 16.3271 16.5545 16.3366C16.9145 17.0236 17.3265 17.6776 17.7795 18.2986C17.7889 18.3113 17.802 18.3208 17.8171 18.3258C17.8321 18.3309 17.8483 18.3311 17.8635 18.3266C20.0178 17.6782 22.0471 16.6703 23.8655 15.3456C23.8744 15.3394 23.8818 15.3313 23.8873 15.322C23.8928 15.3127 23.8963 15.3023 23.8975 15.2916C24.3975 10.1976 23.0595 5.77156 20.3485 1.84956C20.3418 1.83682 20.3308 1.82688 20.3175 1.82156ZM8.02048 12.6076C6.83848 12.6076 5.86348 11.5386 5.86348 10.2276C5.86348 8.91556 6.81948 7.84756 8.02048 7.84756C9.23048 7.84756 10.1965 8.92456 10.1775 10.2276C10.1775 11.5396 9.22148 12.6076 8.02048 12.6076ZM15.9955 12.6076C14.8125 12.6076 13.8385 11.5386 13.8385 10.2276C13.8385 8.91556 14.7935 7.84756 15.9955 7.84756C17.2055 7.84756 18.1715 8.92456 18.1525 10.2276C18.1525 11.5396 17.2065 12.6076 15.9955 12.6076Z" fill="#FFF8C9"/>
</svg>
