<svg width="242" height="67" viewBox="0 0 242 67" fill="none" xmlns="http://www.w3.org/2000/svg">
<path d="M27.7943 1.90197C32.2025 0.674561 36.9264 0.726552 41.3496 1.85368C41.7056 1.94073 42.0712 1.98192 42.4377 1.97624L42.0533 2.10622L42.8481 2.17121C43.6651 2.44974 44.5026 2.65957 45.3307 2.91397L45.3437 2.99938C46.0269 3.24411 46.6964 3.52553 47.3492 3.84241C47.5739 3.90926 47.8004 3.97054 48.0288 4.0281C47.8227 4.29178 47.6129 4.55174 47.4197 4.82285C47.6166 4.65387 47.8097 4.48118 47.9991 4.30292C48.4726 4.28992 49.0742 4.36977 49.284 4.85999C49.4327 4.84564 49.5826 4.87061 49.7186 4.9324C49.8545 4.99529 49.9721 5.09179 50.0602 5.2128C50.8216 5.5099 51.4752 6.01311 52.1399 6.47548C54.4388 8.08355 56.6429 9.85874 58.4812 11.9867C59.2667 12.9003 59.9259 13.9123 60.6111 14.9002C62.0075 16.8908 63.441 18.8981 64.3249 21.1839C64.3954 21.3684 64.466 21.554 64.5365 21.741C65.1215 23.297 65.3239 24.959 65.7899 26.5503C66.2337 27.8669 66.0778 29.2837 66.4454 30.6188C66.575 32.6101 66.5818 34.6076 66.4659 36.5998C66.2077 37.8309 66.0945 39.101 65.6507 40.2876C65.6117 40.4733 65.5727 40.659 65.5374 40.8558C65.3758 41.28 65.2418 41.7141 65.1363 42.1556C64.9989 42.579 64.8726 43.0061 64.7371 43.4313C64.6758 43.617 64.6127 43.8027 64.5514 43.9884C64.4901 44.1741 64.4214 44.3597 64.3546 44.5454C64.1336 45.0784 63.8978 45.6057 63.7251 46.1572L63.5153 46.0607C63.5542 46.1842 63.5656 46.3148 63.5487 46.4432C63.5304 46.572 63.4834 46.6951 63.4113 46.8034C63.389 46.913 63.3426 47.1339 63.3203 47.2454L63.0065 47.2324C62.9842 47.449 62.9619 47.6681 62.9396 47.8897C62.4271 48.8571 61.8756 49.8041 61.2684 50.7214C60.8673 51.2451 60.4848 51.7817 60.0763 52.2998C58.0446 54.7301 55.7469 56.9251 53.2262 58.8435C52.2978 59.4915 51.4102 60.2139 50.3871 60.7004L50.3425 60.7747C49.6478 61.0619 48.9751 61.3995 48.3296 61.7848C47.7294 62.1304 47.1093 62.4404 46.4727 62.7132L46.4356 62.8098C45.717 63.0791 45.0206 63.4077 44.2872 63.6417C43.9919 63.7364 43.6948 63.8274 43.4088 63.9499L42.9261 63.9852L42.9131 64.1375L42.2501 64.2155C41.3013 64.546 40.2893 64.6054 39.32 64.8468C38.8558 64.8914 38.3915 64.9155 37.9255 64.9248L37.905 65.0641C35.5839 65.1179 33.2628 65.2052 30.938 65.0381C30.5148 64.9161 30.0783 64.8463 29.6382 64.8301C29.1052 64.6908 28.5463 64.6444 28.0375 64.4086C27.6063 64.401 27.1802 64.3141 26.7804 64.1523V63.4987L26.8881 63.3409C27.0069 63.17 27.1221 62.9992 27.2372 62.8265C28.927 63.1515 30.6279 63.5321 32.3622 63.4467C32.7122 63.5937 33.0713 63.7178 33.4374 63.8181L33.7883 64.0539L34.0334 63.612C35.4651 63.4263 36.9859 63.5024 38.3265 62.9045L38.6831 62.7392L38.7926 62.7262C40.1964 62.691 41.4963 62.093 42.8109 61.6622C44.1925 61.2036 45.47 60.3736 46.9537 60.264C47.4383 60.2752 47.923 60.264 48.4076 60.2269C47.9304 60.1452 47.4476 60.1062 46.9722 60.0189C47.3659 59.5862 47.9842 59.7571 48.4949 59.6624C48.8697 59.6096 49.2415 59.5377 49.609 59.447C49.6331 59.5844 49.6777 59.8592 49.7 60.004C49.9692 59.8852 50.2385 59.7701 50.4966 59.6327C50.4298 59.3931 50.3462 59.1629 50.2663 58.9308C51.3656 58.4164 52.3331 57.6625 53.2689 56.9012C54.4648 55.9152 55.3709 54.3925 55.1258 52.7956C55.6996 51.7929 56.6355 51.078 57.2761 50.1217C58.1818 48.9061 59.014 47.6375 59.7681 46.3225C60.1636 45.8453 60.6241 45.4107 60.9008 44.837C61.3074 44.0831 61.4411 43.227 61.5711 42.3914C63.701 37.4298 64.1707 31.8072 63.0715 26.528C62.533 24.9627 62.2154 23.3156 61.4652 21.8282C60.6296 21.9675 59.7681 22.3315 58.9213 22.1421C57.77 21.4234 56.7822 20.2109 56.7432 18.7997C57.3735 18.7251 58.0083 18.6959 58.6428 18.7124L58.9733 18.7402L59.3447 18.5676L59.6158 18.4301L58.938 17.303C58.4441 17.5593 57.8982 18.159 57.3077 17.8155C56.979 17.667 57.0347 17.2473 56.9363 16.9595C57.4395 16.8704 57.9446 16.7849 58.4497 16.7069C57.6271 15.5222 56.6114 14.4935 55.7052 13.3757C55.6383 13.6746 55.5789 13.9755 55.5028 14.2707C55.5823 13.7295 55.5922 13.1804 55.5325 12.6366C55.4526 12.451 55.3747 12.2653 55.3004 12.0796C53.9578 9.2274 50.5746 7.30737 47.4402 8.08912C47.8803 7.96656 48.324 7.85701 48.7678 7.74559L48.441 7.48006C49.0111 7.45035 49.5774 7.39464 50.1475 7.34822C50.7214 7.48565 51.281 7.67715 51.8187 7.92014C51.8076 7.83101 51.789 7.65089 51.7779 7.5599C51.3274 7.30175 50.8498 7.09437 50.3536 6.94156C49.1596 6.43649 47.7781 7.04369 46.6064 6.41421C45.3576 5.74627 44.0746 5.14443 42.7627 4.61117C42.6939 4.30478 42.7627 3.91483 42.4711 3.705C41.7469 3.02538 40.6774 3.25564 39.7768 3.24078L39.4165 3.54531V3.07552C38.8836 3.20364 38.3247 3.30392 37.7862 3.14237C36.7036 2.85083 35.5765 2.87869 34.4661 2.81184C34.065 2.29562 33.5636 1.84069 32.9137 1.67357C33.2535 2.04494 33.6565 2.36247 34.0167 2.71343L33.4708 2.83412C32.1115 1.97438 30.3902 1.64942 28.8638 2.25106C27.8203 2.49988 26.9847 3.2055 26.4035 4.08566C25.1036 4.34563 23.9486 5.01411 22.7584 5.54889C21.3741 6.29575 20.0432 7.1377 18.7754 8.06869C17.8971 8.78917 16.6808 8.53663 15.6632 8.89687C14.3021 9.26824 12.9261 9.79189 11.9179 10.8169C11.3775 11.2198 10.9003 11.6952 10.4008 12.1446C9.24293 13.0217 8.38326 14.2341 7.93855 15.617C7.72873 16.1852 7.86985 16.7831 7.98498 17.3531C7.91813 17.8935 7.81414 18.445 7.95898 18.9816C7.99797 19.1673 8.05552 19.353 8.1038 19.5387C7.13098 21.0982 6.33031 22.7587 5.71584 24.491C5.34037 24.6176 4.98515 24.7977 4.66114 25.0258C4.7577 25.2598 4.86167 25.49 4.97308 25.7166C4.34731 26.3498 3.65283 27.0702 3.67326 28.0284C3.6357 28.4155 3.6944 28.8059 3.8441 29.1648C3.99363 29.5259 4.22955 29.8447 4.53114 30.0933L4.2712 30.2307C4.33062 30.3439 4.38817 30.4572 4.44573 30.5723V30.641C4.22848 31.6122 4.27119 32.6075 4.2879 33.5935C4.2062 36.2618 4.69084 38.9135 5.39088 41.4779C6.25423 44.6651 7.62818 47.6914 9.45934 50.4392C10.2708 51.4902 11.0136 52.6173 12.0219 53.4956C12.1141 54.2409 12.2694 54.977 12.4861 55.6961C12.4861 55.7629 12.4656 55.8985 12.4582 55.9653C11.5454 55.0818 10.6983 54.1329 9.92356 53.1261C9.56889 52.6805 9.22165 52.2255 8.89483 51.7576C8.3749 51.0891 7.90141 50.3872 7.39819 49.715C6.61491 48.6136 5.90109 47.4645 5.26091 46.2742C4.91327 45.5496 4.60761 44.8056 4.34545 44.0459C4.24704 43.7173 4.13934 43.3923 4.04464 43.0618C3.62127 41.593 3.28517 40.0908 2.9305 38.6052C2.50909 36.8448 2.30272 35.0397 2.31589 33.2295C2.46815 31.187 2.54428 29.1221 2.93608 27.1018C2.98993 26.7304 2.99737 26.3591 3.15706 26.01C3.17749 25.906 3.21461 25.6999 3.23318 25.5977C3.51914 24.8067 3.72341 23.9878 4.03537 23.2061C4.10407 23.0204 4.17464 22.8347 4.24706 22.6601C4.56087 21.8561 4.81897 21.0316 5.14393 20.2313C5.2182 20.0456 5.29619 19.8729 5.37232 19.6947C5.66942 19.0039 5.96715 18.3162 6.26549 17.6317C6.33606 17.446 6.40846 17.2603 6.48274 17.0876C6.71235 16.4955 7.02496 15.9391 7.41118 15.435L7.69157 14.993C9.62831 11.983 12.2112 9.42237 15.1191 7.36493C16.7417 6.29057 18.4453 5.3438 20.2144 4.53317L20.6267 5.09024L20.9349 4.97326L20.6007 4.9324C20.376 4.28249 21.0538 4.13023 21.5291 4.08566C21.6925 4.30292 21.8578 4.51832 22.0045 4.74672L22.1902 4.70215C22.1698 4.808 22.1308 5.02154 22.1122 5.12738L22.3202 5.14223L22.2682 4.73743C22.0342 4.46818 21.7111 4.23793 21.674 3.84984C22.0604 3.72189 22.4575 3.62867 22.8605 3.57131V3.45061C23.1391 3.33734 23.4176 3.21664 23.6905 3.09223L24.0805 3.00867C24.8511 2.64843 25.696 2.50174 26.4833 2.18607C26.6987 2.15822 26.916 2.13408 27.1332 2.10994V1.9651C27.3505 1.94653 27.5677 1.9261 27.785 1.90197H27.7943ZM54.7192 10.0723C54.9476 10.4585 55.3969 10.7426 55.4007 11.2291L55.5381 11.1827C55.6625 11.775 55.8017 12.3655 55.9261 12.9597L56.1118 12.9486C56.201 11.8308 55.5771 10.7575 54.7285 10.0686L54.7192 10.0723ZM55.7665 52.8606C55.8444 53.8113 55.2317 54.5912 55.0887 55.4918C55.3394 55.5289 55.3988 55.2207 55.5269 55.0703C55.9169 54.4111 56.0951 53.5848 55.7665 52.8606ZM35.3035 3.44132C35.6879 3.38933 36.284 3.29091 36.4344 3.77185C36.4604 4.03181 36.5644 4.43104 36.219 4.5146C35.8736 4.59816 35.207 4.72815 35.038 4.25835C34.8152 3.9891 35.0231 3.54531 35.3035 3.43947V3.44132ZM34.921 5.09395C35.8717 4.6613 37.231 5.41891 37.1363 6.51262C37.0713 6.98798 36.6461 7.23866 36.2208 7.34079C35.6256 7.55183 35.0201 7.7328 34.4066 7.88301C33.7753 8.0557 33.0474 7.40207 33.2758 6.75216C33.5989 6.03169 34.2451 5.48204 34.921 5.09395ZM16.107 5.57675C16.4119 5.51042 16.7236 5.48112 17.0355 5.48947C15.3903 6.4662 13.7506 7.50977 12.3821 8.85973C12.5139 8.64061 12.6476 8.4215 12.7813 8.20239C13.2511 7.45036 13.8862 6.81531 14.6382 6.3455C15.1017 6.0443 15.5929 5.78812 16.1052 5.58046L16.107 5.57675ZM61.7271 15.4183C62.1374 15.578 62.7205 15.7321 62.8189 16.2297C63.7474 16.8314 64.18 17.9455 64.5811 18.9315C64.6797 19.3409 64.711 19.7636 64.674 20.183L64.8708 20.3037H64.5458C64.4994 20.0902 64.4511 19.8767 64.4029 19.665C64.0018 19.0615 63.7009 18.4023 63.3221 17.7858C63.0046 17.2287 62.4067 16.7589 62.4457 16.0719C62.288 16.0166 62.143 15.9303 62.0192 15.8181C61.8955 15.7058 61.7955 15.5698 61.7252 15.4183H61.7271ZM17.8896 28.1194C18.1886 27.4862 18.7642 26.8196 19.5441 26.9811C19.9675 27.4602 20.5858 27.8984 20.6211 28.5948C20.6564 29.2911 20.025 29.6532 19.5534 29.9986C19.2804 30.2195 18.8422 30.2845 18.5841 29.9986C18.1199 29.4953 17.6297 28.838 17.8896 28.1138V28.1194ZM0.806233 34.5387C1.00306 33.9816 1.12932 33.3335 1.6771 33.016C1.80523 33.4691 1.29089 33.9872 1.64741 34.3567C1.64886 35.1953 1.72779 36.032 1.88322 36.8561L1.54155 37.1457C2.25646 37.22 2.01321 38.0742 2.1302 38.5533C1.91038 38.5407 1.69198 38.5957 1.50443 38.7111L1.91107 38.6572L1.87952 38.8429C2.26947 38.9395 2.39015 39.3183 2.51456 39.6488L2.14319 39.6024C1.38186 38.9933 0.99191 38.063 0.886067 37.1123C0.674382 36.2711 0.776514 35.391 0.79694 34.5349L0.806233 34.5387ZM37.6562 50.2108C38.0759 49.9286 38.7982 50.1792 38.8446 50.7122C38.9207 51.3249 38.1186 51.8115 37.6154 51.4252C37.1808 51.1485 37.2774 50.4856 37.6562 50.2108ZM43.069 53.0129C43.5562 53.0316 44.0193 53.2301 44.3689 53.5699C44.8164 54.2365 44.5378 55.1148 44.1163 55.7202C43.3513 56.6709 42.1295 57.1444 40.9448 57.2837C40.3636 57.358 39.5595 57.1389 39.5354 56.4351C39.3385 55.5067 39.9662 54.7528 40.5084 54.0954C41.1119 53.3304 42.1257 53.037 43.0653 53.0073L43.069 53.0129ZM38.0554 53.7389C38.7852 53.5068 39.1213 54.4817 38.7499 54.9849C38.4955 55.3692 37.9477 55.3043 37.5689 55.1891C36.9914 54.762 37.4055 53.8336 38.0554 53.7389ZM25.7034 54.9496C25.6251 54.7642 25.6198 54.556 25.6887 54.3669C25.7576 54.1778 25.8955 54.0217 26.0748 53.9302C26.3806 53.9415 26.6853 53.9744 26.9865 54.0286C27.0293 54.4318 27.0124 54.8391 26.9364 55.2374C26.5279 55.2021 25.8687 55.4695 25.6941 54.9496H25.7034ZM12.4545 54.3814L13.0506 54.3461C13.5742 55.8743 14.6271 57.1593 15.8526 58.188C16.7588 58.9308 17.7095 59.6735 18.8422 60.056C19.585 60.316 20.3741 60.1879 21.141 60.2176C20.584 60.3234 20.0269 60.3513 19.4847 60.4311C20.1959 60.5797 20.9312 60.5834 21.635 60.7784C21.1782 60.8248 20.7214 60.8545 20.2664 60.9028C20.933 61.354 21.7519 61.1683 22.4947 61.0309C23.8465 61.7737 25.332 62.2212 26.8008 62.6631C26.7488 62.9286 26.6987 63.1905 26.6541 63.4579C26.6281 63.6435 26.6059 63.8292 26.5873 64.0149L25.8445 63.9536L25.8705 63.7494H25.1909C24.5911 63.5043 23.9617 63.3409 23.3507 63.1329L22.7937 62.9231L22.0156 62.6037C21.375 62.3047 20.7362 62.0002 20.0993 61.6975L20.0473 61.6121C19.426 61.3187 18.8281 60.9779 18.2591 60.5927C17.7411 60.238 17.2081 59.9093 16.6808 59.5677C15.5666 58.8491 14.6716 57.8389 13.6188 57.033L13.5909 56.981C13.1657 56.1361 12.6068 55.3358 12.4564 54.3814H12.4545ZM26.0339 57.137C26.1008 56.6096 26.4443 55.9412 27.0571 55.9486C27.8203 55.9189 28.7728 55.7629 29.3429 56.4035C29.6864 56.9996 29.367 57.7182 29.3429 58.3607C28.6261 58.6652 27.7088 58.7952 27.0497 58.2938C26.6356 57.9893 26.2252 57.6254 26.0339 57.137ZM45.5016 63.9406L45.795 63.6844C45.4942 64.4012 44.7105 64.7131 44.1108 65.1346C43.1172 65.6061 42.0686 65.9517 40.9893 66.1634C40.41 66.2153 39.8529 66.0389 39.2884 65.9572L38.5457 65.636C39.2011 65.3835 39.8455 65.675 40.501 65.7214C40.2911 65.597 40.0794 65.4726 39.8659 65.35C40.2986 65.2962 40.7516 65.2962 41.1657 65.1123C41.448 65.0901 41.7339 65.0808 42.0199 65.0752L41.9828 64.9192C42.7385 64.8152 43.446 64.4717 44.211 64.455C44.6087 64.2118 45.0433 64.035 45.4978 63.9314L45.5016 63.9406Z" fill="#007D98"/>
<path d="M29.8576 0.789687C33.2465 0.0469314 36.795 0.325465 40.1801 0.975376C41.4985 1.30405 42.8299 1.60486 44.1074 2.07837C45.2215 2.44975 46.2688 3.02167 47.4498 3.1925C48.1761 3.48215 48.881 3.82281 49.5592 4.21193C50.1627 4.60374 50.7829 4.96584 51.3957 5.34278C53.7894 6.85584 56.0154 8.61929 58.0359 10.6034C59.2503 11.8419 60.2382 13.2661 61.2094 14.6978C63.3856 15.2549 64.7895 17.381 65.1868 19.4886C65.3911 20.4077 65.1051 21.3585 65.3057 22.2739C65.3874 22.5153 65.4617 22.7586 65.5434 23.0018C65.5786 23.1875 65.6158 23.3899 65.6566 23.5849C65.9537 24.6823 66.1431 25.8131 66.4569 26.9031C66.4922 27.2207 66.5275 27.5382 66.5702 27.8557C66.7448 29.2112 67.0734 30.5501 67.1273 31.9204C67.2016 34.0911 67.2294 36.286 66.7782 38.4196C66.7169 38.7259 66.6668 39.036 66.5925 39.348C66.1506 40.8335 65.7922 42.319 65.2555 43.7767C65.0123 44.5547 64.73 45.3216 64.4329 46.0811C64.2937 46.3856 64.16 46.6957 64.0281 47.0095C63.8016 47.5127 63.5639 48.0104 63.3225 48.5062C62.6453 49.761 61.8705 50.9605 61.0051 52.0937C59.5307 54.023 57.7816 55.7258 55.9729 57.3357C54.4053 58.677 52.7401 59.8997 50.9909 60.9938C49.8508 61.5174 48.7886 62.184 47.7023 62.8061C47.3068 63.0178 46.9113 63.2257 46.5177 63.4393C46.0404 64.6834 44.7518 65.4002 43.6079 65.9554C42.1465 66.5886 40.4512 66.9822 38.9304 66.284C38.6444 66.0798 38.3733 65.8551 38.0781 65.6657C34.7227 66 31.2967 65.9145 28.0045 65.1365C27.7984 65.0956 27.5941 65.0585 27.388 65.0214C27.1503 64.9415 26.9071 64.8765 26.6657 64.8153C25.8003 64.5646 24.9146 64.3733 24.0827 64.0224L23.7002 63.9258C23.5145 63.8441 23.3288 63.7661 23.1431 63.69C22.6579 63.5043 22.1763 63.313 21.6985 63.1162C19.9191 62.3021 18.219 61.3249 16.6199 60.1972C15.7379 59.5993 15.0341 58.7859 14.1651 58.1713C10.5348 55.4045 7.80893 51.6722 5.36712 47.8619C4.94101 47.1535 4.56859 46.4143 4.25298 45.6503C3.81847 44.7107 3.56222 43.7043 3.25583 42.7201C3.04043 41.9532 2.86589 41.1752 2.60592 40.4231C1.67748 40.1186 1.06285 39.2793 0.684045 38.4177C0.253247 37.2237 0.262543 35.9388 0.34796 34.6909C0.40187 34.17 0.559051 33.6649 0.810324 33.2054L1.22255 32.8173C1.4528 32.6316 1.7796 32.4459 1.81303 32.1191C1.90958 31.1313 1.76476 30.1137 2.01358 29.1481C2.06558 28.7117 2.09529 28.2735 2.13243 27.8353C2.39054 26.7212 2.50379 25.5829 2.95502 24.5282C2.9773 24.4279 3.02558 24.2311 3.04972 24.1308C3.12771 23.9451 3.20384 23.7594 3.27812 23.5737C3.56593 22.7604 3.86304 21.9508 4.18428 21.1598C4.49438 20.417 4.76735 19.6575 5.07374 18.9111C5.21486 18.6084 5.34854 18.3039 5.48038 17.9975C5.74035 17.4404 5.99662 16.8834 6.28629 16.3523C7.22987 14.6412 8.35012 13.0336 9.62869 11.5559C10.2433 10.7946 10.9694 10.1373 11.6378 9.42608C11.7391 9.06078 11.8759 8.70627 12.0464 8.36765C13.0937 6.6816 14.7797 5.21094 16.8074 4.96398C17.2419 4.8897 17.6876 4.96398 18.1202 4.88042C19.1861 4.39205 20.213 3.81456 21.3085 3.3949C21.5388 3.29277 21.7709 3.19436 22.0012 3.09409C22.7996 2.77099 23.6166 2.49988 24.4151 2.17493L24.8143 2.08394C25 2.00595 25.1857 1.92982 25.3844 1.85555C26.2943 1.53616 27.2617 1.39689 28.1697 1.04223C28.4628 1.02366 28.7568 1.02366 29.0499 1.04223C28.9533 0.964238 28.8605 0.88439 28.7714 0.802687C29.1336 0.815374 29.4962 0.808552 29.8576 0.782258V0.789687ZM27.8039 1.90382C27.5867 1.92796 27.3694 1.94839 27.1522 1.96695V2.11179C26.9349 2.13593 26.7176 2.16007 26.5023 2.18793C25.7149 2.5036 24.87 2.65029 24.0994 3.01053L23.7095 3.09409C23.4347 3.2185 23.1524 3.3392 22.8795 3.45247V3.57317C22.4764 3.63053 22.0793 3.72375 21.6929 3.8517C21.7282 4.23979 22.0531 4.47005 22.2871 4.7393L22.3391 5.1441L22.1311 5.12924C22.1497 5.0234 22.1887 4.80986 22.2091 4.70401L22.0234 4.74858C21.8767 4.52018 21.7115 4.30478 21.5481 4.08753C21.0653 4.13209 20.3875 4.28436 20.6196 4.93427L20.9539 4.97512L20.6456 5.0921L20.2334 4.53504C18.4642 5.34566 16.7607 6.29243 15.1381 7.36679C12.2228 9.42608 9.63982 11.9849 7.71051 14.9949L7.41713 15.4313C7.03091 15.9354 6.7183 16.4918 6.48869 17.0839C6.41441 17.2696 6.34198 17.446 6.27142 17.628C5.97308 18.315 5.67537 19.0027 5.37827 19.691C5.30214 19.8767 5.22415 20.0475 5.14987 20.2276C4.82492 21.0279 4.5668 21.8524 4.25298 22.6564C4.18056 22.8421 4.11 23.0278 4.04129 23.2024C3.72934 23.9841 3.52509 24.803 3.23913 25.594C3.22056 25.6962 3.18341 25.9023 3.16299 26.0063C3.0033 26.3479 2.99588 26.7304 2.94203 27.0981C2.55023 29.111 2.4741 31.1833 2.32183 33.2258C2.30504 35.0331 2.50768 36.8357 2.92532 38.5941C3.28185 40.0796 3.61794 41.5651 4.03946 43.0506C4.13416 43.3812 4.24186 43.7061 4.34027 44.0348C4.60243 44.7945 4.90807 45.5385 5.25571 46.2631C5.89589 47.4533 6.6097 48.6025 7.39299 49.7039C7.89621 50.3854 8.36972 51.0873 8.88965 51.7465C9.21647 52.2144 9.56369 52.6749 9.91835 53.115C10.6935 54.1231 11.5413 55.0733 12.4549 55.9579L12.44 56.0767C12.8005 56.3996 13.1827 56.6974 13.5839 56.968L13.6117 57.02C14.6646 57.8259 15.554 58.8361 16.6737 59.5547C17.2011 59.8963 17.734 60.225 18.2521 60.5797C18.8211 60.9649 19.4189 61.3057 20.0403 61.5991L20.0923 61.6845C20.7292 61.9872 21.3679 62.2917 22.0086 62.5907L22.7959 62.9027L23.3362 63.1181C23.9472 63.326 24.5767 63.4894 25.1764 63.7345H25.8561L25.8301 63.9388L26.5728 64.0001C26.5914 63.8144 26.6137 63.6287 26.6397 63.443L26.8866 63.3205L26.7789 63.4783V64.1319C27.1787 64.2937 27.6048 64.3806 28.036 64.3882C28.5448 64.6166 29.1038 64.6704 29.6367 64.8097C30.0768 64.8258 30.5133 64.8957 30.9365 65.0176C33.2558 65.1848 35.5787 65.0975 37.9036 65.0436L37.924 64.9044C38.3901 64.9044 38.8524 64.871 39.3185 64.8264C40.2878 64.585 41.2998 64.5256 42.2487 64.195L42.9116 64.1171L42.9246 63.9648L43.4074 63.9295C43.6933 63.807 43.9904 63.716 44.2857 63.6213C45.0284 63.3873 45.7155 63.0642 46.4341 62.7894L46.4712 62.6928C47.1079 62.42 47.7279 62.11 48.3281 61.7644C48.9736 61.3791 49.6464 61.0415 50.341 60.7542L50.3856 60.68C51.4087 60.186 52.2981 59.4637 53.2247 58.8231C55.742 56.9089 58.0378 54.7197 60.0692 52.2961C60.4778 51.778 60.8603 51.2414 61.2614 50.7177C61.8648 49.8004 62.4163 48.8609 62.9326 47.886C62.9548 47.6656 62.9771 47.4465 62.9994 47.2286L63.3132 47.2416C63.3355 47.1302 63.3819 46.9093 63.4042 46.7997C63.4764 46.6914 63.5233 46.5683 63.5416 46.4395C63.5585 46.311 63.5471 46.1805 63.5082 46.0569L63.718 46.1535C63.8907 45.5964 64.1265 45.0747 64.3475 44.5417C64.4144 44.356 64.4794 44.1704 64.5443 43.9847C64.6093 43.799 64.6725 43.6133 64.73 43.4276C64.8656 43.0024 64.9919 42.5753 65.1293 42.1519C65.2348 41.7104 65.3687 41.2763 65.5303 40.8521C65.5656 40.6664 65.6046 40.4807 65.6436 40.2839C66.0911 39.0973 66.2007 37.8272 66.4588 36.5961C66.577 34.6059 66.5727 32.6103 66.4458 30.6206C66.0744 29.2855 66.2341 27.8687 65.7903 26.5522C65.3242 24.9608 65.1218 23.2989 64.5369 21.7428L64.3252 21.1858C63.4488 18.8999 62.0153 16.8926 60.6114 14.9021C59.9263 13.9142 59.2671 12.9022 58.4816 11.9886C56.6433 9.86059 54.4391 8.08912 52.1403 6.47734C51.4755 6.01498 50.8219 5.51176 50.0606 5.21466C49.9724 5.09366 49.8548 4.99715 49.7189 4.93427C49.583 4.87247 49.4331 4.84749 49.2844 4.86185C49.0746 4.36791 48.473 4.28807 47.9995 4.30478C47.8138 4.49047 47.617 4.65573 47.4201 4.82471C47.6058 4.55361 47.823 4.29364 48.0292 4.02996C47.8008 3.96683 47.5742 3.90369 47.3496 3.84427C46.6967 3.52739 46.0273 3.24597 45.3441 3.00124L45.3311 2.91583C44.5029 2.66886 43.6599 2.45903 42.8485 2.17307L42.0537 2.10808L42.4381 1.9781C42.0716 1.98388 41.7059 1.9427 41.3499 1.85555C36.9213 0.728414 32.1973 0.676417 27.7946 1.90382H27.8039ZM16.1055 5.58604C15.5933 5.79369 15.102 6.04987 14.6386 6.35108C13.8865 6.82089 13.2515 7.45594 12.7817 8.20796C12.648 8.42708 12.5143 8.64619 12.3825 8.86531C13.751 7.51535 15.3906 6.47177 17.0358 5.49505C16.724 5.4867 16.4122 5.516 16.1074 5.58232L16.1055 5.58604ZM61.7107 15.4127C61.781 15.5643 61.881 15.7002 62.0047 15.8125C62.1285 15.9248 62.2735 16.0111 62.4312 16.0663C62.3922 16.7534 62.9883 17.2287 63.3077 17.7802C63.679 18.3967 63.9873 19.0559 64.3884 19.6594C64.4367 19.8711 64.4849 20.0846 64.5313 20.2982H64.8544L64.6576 20.1775C64.6947 19.758 64.6633 19.3353 64.5648 18.9259C64.1637 17.9399 63.7217 16.8258 62.8026 16.2242C62.7097 15.7247 62.1267 15.5705 61.7163 15.4108L61.7107 15.4127ZM0.804748 34.5387C0.784322 35.3947 0.682189 36.2749 0.893875 37.116C0.999718 38.0668 1.38967 38.9971 2.15099 39.6061L2.52237 39.6525C2.39796 39.322 2.27725 38.9432 1.88731 38.8466L1.91888 38.661L1.51221 38.7148C1.69976 38.5995 1.91816 38.5444 2.13798 38.557C2.021 38.076 2.26426 37.2237 1.54936 37.1495L1.89102 36.8598C1.7356 36.0357 1.65665 35.199 1.6552 34.3604C1.29867 33.989 1.81304 33.4728 1.68491 33.0197C1.12784 33.3372 1.01085 33.9946 0.814019 34.5424L0.804748 34.5387ZM45.4927 63.9518C45.0382 64.0554 44.6035 64.2322 44.2058 64.4754C43.4352 64.4921 42.7203 64.8357 41.9776 64.9397L42.0147 65.0956C41.7287 65.0956 41.4428 65.1105 41.1605 65.1328C40.7557 65.3185 40.3026 65.3185 39.8607 65.3705C40.0742 65.4856 40.2859 65.6081 40.4958 65.7418C39.8384 65.6954 39.1959 65.4039 38.5405 65.6564L39.2832 65.9777C39.8403 66.0594 40.3974 66.2358 40.9841 66.1838C42.0634 65.9721 43.112 65.6266 44.1056 65.1551C44.7053 64.7336 45.4889 64.4216 45.7898 63.7048L45.4964 63.9611L45.4927 63.9518ZM39.4225 3.54717L39.7827 3.24264C40.6833 3.25749 41.7529 3.02724 42.4771 3.70686C42.7649 3.91669 42.6999 4.30664 42.7686 4.61302C42.4916 4.8315 42.2034 5.03541 41.9051 5.22394C41.5063 5.29347 41.0975 5.28281 40.7028 5.19258C40.3081 5.10235 39.9354 4.93437 39.6063 4.69844C39.4947 4.53032 39.4201 4.34046 39.3872 4.14138C39.3555 3.94259 39.3669 3.7393 39.4206 3.54531L39.4225 3.54717ZM39.6713 3.76443C39.7363 4.0541 39.857 4.45333 40.2432 4.40691L40.0575 4.49047C40.6422 4.74146 41.2847 4.82628 41.9144 4.73558C41.9664 4.47634 42.0645 4.22854 42.2041 4.00396C42.0368 3.8897 41.8468 3.81305 41.647 3.77928C41.0343 3.43761 40.3045 3.50446 39.6769 3.76443H39.6713ZM47.4368 8.09098C50.5713 7.30923 53.9545 9.22925 55.297 12.0814C55.3713 12.2671 55.4493 12.4528 55.5291 12.6385C55.5889 13.1822 55.5789 13.7314 55.4994 14.2726C55.0779 15.5055 53.9749 16.3671 52.8032 16.8462C49.6577 18.0179 45.6059 16.4247 44.4472 13.1789C44.2503 11.9539 44.4398 10.6981 44.9894 9.58577C45.4072 8.93029 46.1351 8.55892 46.8352 8.27296C47.0209 8.20797 47.227 8.14855 47.4275 8.08727L47.4368 8.09098ZM46.7628 8.92844C45.5447 9.46137 45.0711 10.8262 44.8687 12.0406C44.8687 12.4714 44.8687 13.0284 45.3682 13.1733C45.422 13.4644 45.5137 13.7472 45.6412 14.0145C45.8733 14.6607 46.4749 15.058 47.0042 15.4461C48.6048 16.4581 50.6474 16.9799 52.4838 16.3244C53.689 15.7934 54.8737 14.7739 54.9516 13.3683C54.766 11.7806 53.6797 10.1596 51.9806 9.90702L52.3 9.51336L51.9008 9.32767C50.3521 8.48093 48.3931 8.05756 46.7572 8.92101L46.7628 8.92844ZM54.7177 10.0649C55.5663 10.7538 56.1902 11.8196 56.1011 12.9412L55.9154 12.9523C55.791 12.3581 55.6517 11.7676 55.5273 11.1753L55.3899 11.2217C55.3992 10.7278 54.9535 10.4437 54.7177 10.0574V10.0649ZM16.1575 10.3211C17.1849 10.1865 18.2296 10.2986 19.2051 10.648C20.1806 10.9973 21.0588 11.574 21.7672 12.3303C22.7773 13.333 23.3047 14.7442 23.4272 16.148C23.5015 17.9826 22.4431 19.639 21.212 20.9128C19.5408 22.6917 17.3125 24.1884 14.7834 24.2441C12.8485 24.0899 10.9248 23.0909 9.87379 21.4234C8.92863 20.0679 8.77637 18.3094 9.04191 16.7181C9.26659 15.3663 10.0335 14.2039 10.8449 13.1343C12.1262 11.5114 14.1539 10.6293 16.1575 10.3211ZM11.5784 13.3163C10.7855 14.0405 10.3603 15.0469 9.90723 15.9902C9.43001 17.4033 9.31487 19.0578 10.1096 20.3836L10.0966 20.43C11.0678 22.3315 13.1883 23.674 15.3386 23.4902C17.2215 23.2413 18.8816 22.1439 20.1907 20.8144C21.3624 19.7262 22.4189 18.354 22.6176 16.7181C22.8182 15.2957 21.8749 13.7471 20.4172 13.4592C20.4376 13.2587 20.4599 13.06 20.4822 12.8595C20.835 13.034 21.1878 13.2067 21.5462 13.3683C21.3976 13.1454 21.3438 12.7889 21.0318 12.7443C20.5241 12.1926 19.9027 11.7575 19.2106 11.469C18.5186 11.1805 17.7721 11.0455 17.0228 11.0731C14.9802 11.01 13.0194 11.9273 11.584 13.3348L11.5784 13.3163ZM24.9387 15.9159C25.034 16.2806 25.0391 16.663 24.9536 17.03L25.0372 17.1377L24.8849 17.1526C24.825 17.9124 24.6307 18.6555 24.3111 19.3474C23.9713 20.5377 23.0113 21.3213 22.0828 22.0715C22.5972 21.2099 23.5071 20.6361 23.8413 19.6575C24.326 18.7458 24.5432 17.7394 24.8348 16.7589C24.8626 16.473 24.8942 16.1889 24.9313 15.9048L24.9387 15.9159ZM47.9178 17.3271C48.1202 17.3959 48.3226 17.4701 48.5268 17.5444C48.7329 17.5667 48.9409 17.5908 49.1507 17.6187C50.0439 17.8972 51.0076 17.8044 51.9361 17.719C52.2629 17.5574 52.6343 17.576 52.9908 17.5741V17.3773L53.1616 17.3884L52.9759 17.719C51.3344 18.3262 49.5165 18.1349 47.9159 17.4961V17.3271H47.9178ZM8.83951 22.1012C9.58227 23.7093 11.2535 24.6377 12.9377 24.9348C14.0908 25.2616 15.2959 25.1428 16.4657 25.2524C15.0099 25.49 13.4669 25.5977 12.0723 25.024C10.6927 24.5133 9.30187 23.5589 8.83022 22.1012H8.83951ZM53.767 22.7158C54.7851 22.4209 55.8587 22.3719 56.8995 22.5729C57.7503 22.7715 58.5315 23.1966 59.1604 23.8029C59.7893 24.4093 60.2426 25.1745 60.4722 26.0174C61.2279 28.4314 59.9727 31.1944 57.7853 32.3921C56.3239 33.1349 54.6044 33.1014 53.0354 32.7969C51.9621 32.6483 51.2732 31.7496 50.6845 30.94C50.302 30.4201 49.9678 29.8259 49.9678 29.1667C49.7821 27.8149 49.7245 26.3219 50.471 25.1168C51.158 23.8783 52.4838 23.1912 53.767 22.7233V22.7158ZM51.6965 24.4929C50.211 25.6293 50.2741 27.6793 50.4264 29.3542C50.5063 30.654 51.561 31.5825 52.6157 32.1934C53.9155 32.4497 55.2803 32.6669 56.5671 32.2714C57.133 32.127 57.6553 31.8474 58.0893 31.4567C58.5234 31.066 58.8561 30.5758 59.0591 30.0283C59.3896 28.4536 58.593 26.892 57.5197 25.789C56.829 25.024 55.8727 24.6173 54.9312 24.2571H54.6453C54.6341 24.1976 54.61 24.0714 54.597 24.0231C55.5254 24.3518 56.4966 24.569 57.3508 25.0797L57.7871 24.6897C57.6683 24.9014 57.4158 25.2171 57.7036 25.4158C58.1758 25.9046 58.6103 26.4285 59.0034 26.983C59.1631 26.6543 59.3246 26.3238 59.4917 25.9988C59.4063 26.4422 59.282 26.8771 59.1204 27.2986C59.3769 27.9567 59.5569 28.6421 59.657 29.3412C60.2382 27.8446 60.2809 25.9487 59.1222 24.7083C58.9365 24.7361 58.8047 24.894 58.6524 24.9998L58.7193 24.2571C57.8465 23.414 56.6266 22.9925 55.4289 22.9405C54.0455 23.0172 52.728 23.556 51.6872 24.4706L51.6965 24.4929ZM29.6627 25.6776C30.4314 24.1921 32.0896 23.4827 33.6828 23.3175C33.0106 23.5812 32.2957 23.7464 31.6774 24.1364C30.9346 24.5579 30.3293 25.1577 29.6627 25.6776ZM30.658 26.0861C32.6616 23.9841 36.0931 23.3509 38.6612 24.764C39.5712 25.2669 40.3253 26.0106 40.8408 26.9136C41.3564 27.8166 41.6134 28.8441 41.5839 29.8834C41.5598 31.7125 40.5812 33.4672 39.1328 34.5591C38.0707 35.3947 36.7188 35.7791 35.3819 35.8273C34.5002 35.7706 33.6296 35.6002 32.7915 35.3204C32.2976 35.0122 31.7851 34.7318 31.3172 34.392C30.0173 33.2908 29.1205 31.6401 29.2059 29.9057C29.1037 28.4871 29.7481 27.1204 30.6803 26.0935L30.658 26.0861ZM32.3422 25.4937C31.3227 25.9264 30.6023 26.853 30.1752 27.8464C29.8038 28.2178 29.8892 28.7433 30.0378 29.202C29.8313 29.5237 29.7277 29.9006 29.7407 30.2827C29.8929 31.6103 30.4964 32.9287 31.5511 33.7811C32.6151 34.6909 34.0264 35.0809 35.3949 35.2016C36.6223 35.079 37.9202 34.7949 38.8821 33.9723C39.9294 33.1537 40.629 31.97 40.8411 30.6578C40.7706 29.7683 40.6369 28.8232 40.1263 28.0581C40.2771 28.0991 40.4161 28.1751 40.5319 28.28C40.6478 28.3848 40.7372 28.5156 40.7929 28.6616C40.557 26.8196 38.9657 25.4158 37.2815 24.8346C35.6288 24.3815 33.8778 24.8011 32.3496 25.4808L32.3422 25.4937ZM4.98461 25.737L5.31142 25.6126C5.84249 25.516 6.52583 25.6386 6.72451 26.2161C7.19802 27.2689 6.79136 28.4276 6.30485 29.3932C6.45898 29.4582 6.75237 29.3821 6.75423 29.6198L6.69851 29.6977C6.47012 29.9911 6.26585 30.3031 6.04303 30.6021L5.85734 30.7098C5.75707 30.7617 5.56023 30.8694 5.45996 30.9233C5.12015 30.8212 4.7785 30.7376 4.43126 30.6559V30.5872C4.3737 30.4721 4.31612 30.3588 4.2567 30.2455C4.63213 30.5075 5.03199 30.7326 5.45069 30.9177C5.76265 30.6058 6.06902 30.2901 6.36612 29.967L6.0579 29.6272C5.73851 30.1843 5.06817 30.1713 4.51667 30.1081C4.21507 29.8596 3.97916 29.5408 3.82963 29.1797C3.67992 28.8207 3.62123 28.4304 3.65879 28.0433C3.64022 27.0851 4.33469 26.3721 4.95861 25.7314L4.98461 25.737ZM4.55194 26.7787L4.97346 27.139C4.60208 27.3469 4.34211 27.696 4.04501 28.0136C4.03201 28.6189 4.18429 29.2224 4.66151 29.629H5.35785C5.82207 29.1425 6.23058 28.5372 6.28629 27.8539C6.22873 27.4825 6.10059 26.9347 5.62894 26.9087L5.82948 26.8437L6.38655 27.1241C6.41202 26.8553 6.3545 26.5852 6.22169 26.3501C6.08888 26.115 5.88717 25.9263 5.64379 25.8094C5.22007 26.0639 4.84321 26.3892 4.52966 26.7713L4.55194 26.7787ZM61.5733 30.0171C61.8444 31.6883 60.3998 32.9194 59.0944 33.6492C58.9087 33.6901 58.723 33.7272 58.5373 33.7643C60.0637 33.0866 61.2669 31.6772 61.5677 30.0171H61.5733ZM9.95179 32.0764C11.1365 30.7376 13.426 30.5111 14.8224 31.6568C14.8354 31.7682 14.8633 31.9892 14.8781 32.1006C14.8076 31.9502 14.737 31.7998 14.6683 31.6493C14.2821 31.4841 13.8921 31.3262 13.5059 31.1647C12.8095 31.1944 12.0872 31.0793 11.4169 31.3188C10.871 31.4488 10.4197 31.7868 9.95179 32.0764ZM11.558 32.108C12.5106 31.9483 13.5374 31.9854 14.399 32.4794C16.1055 33.3335 17.4741 35.0122 17.6393 36.9526C17.7033 37.5893 17.6192 38.2321 17.3938 38.8309C17.1683 39.4297 16.8075 39.9682 16.3395 40.4046C14.5309 42.1148 11.2516 41.9235 9.7234 39.9236C8.62226 38.5904 8.49969 36.7057 8.8525 35.0772C9.14775 33.6938 10.2377 32.5834 11.5506 32.1173L11.558 32.108ZM10.0725 33.7792C9.59156 34.4402 9.41515 35.2647 9.32974 36.0595L9.58782 35.9313C10.0131 35.2907 10.3863 34.5758 11.1253 34.2416C10.525 34.8056 10.0229 35.4658 9.63982 36.195C9.61197 36.8876 9.5544 37.5914 9.68439 38.2766C9.84965 38.8169 10.1895 39.2775 10.4791 39.7621C10.901 40.1517 11.3793 40.4754 11.8978 40.7221C13.8958 41.6376 16.4936 40.1539 16.8928 38.0352C17.0395 37.1402 16.9764 36.1672 16.4806 35.3854C16.0851 34.6575 15.4816 33.8238 14.555 33.8553L14.88 33.5099C14.373 33.1943 13.8754 32.8433 13.296 32.6725C12.1336 32.3011 10.7874 32.8136 10.0799 33.7866L10.0725 33.7792ZM50.4468 32.6799C50.9222 33.4227 51.7467 33.7941 52.5061 34.1654C52.931 34.2341 53.3461 34.3531 53.7428 34.5201C54.0845 34.5461 54.428 34.5739 54.7678 34.6278C54.3389 34.7336 53.7428 34.9398 53.4141 34.5368C52.7809 34.5628 52.2072 34.2954 51.6482 34.0354C51.1952 33.6381 50.6047 33.3094 50.4468 32.6818V32.6799ZM12.7093 33.6084C13.2663 33.2518 13.9422 33.406 14.5662 33.3818L14.5977 33.6696C13.9701 33.6473 13.3443 33.6325 12.7186 33.6084H12.7093ZM33.8184 34.0113C34.7116 34.3455 35.7514 34.4347 36.6446 34.054C36.6431 34.1 36.6462 34.1461 36.6539 34.1914C36.2005 34.3897 35.7122 34.4958 35.2174 34.5034C34.7226 34.5111 34.2313 34.4202 33.772 34.236C33.772 34.1859 33.7943 34.0652 33.8054 34.0094L33.8184 34.0113ZM30.6617 35.8292C30.8474 35.987 31.0331 36.1486 31.2188 36.3101C31.7925 36.9006 32.6281 37.0529 33.4006 37.2107C34.1322 37.3463 34.8564 37.5413 35.5973 37.6137C36.2453 37.6954 36.8711 37.376 37.5192 37.4874C35.7904 38.2302 33.876 37.7585 32.1658 37.2182C31.5438 36.9127 31.0268 36.4292 30.6803 35.8292H30.6617ZM56.8531 38.9673C56.6841 37.324 58.2198 35.9202 59.7981 35.8831C60.3441 36.0687 60.9123 36.2396 61.3449 36.6518C61.797 37.0893 62.0605 37.6859 62.0792 38.3147C62.0979 38.9435 61.8704 39.5548 61.4452 40.0183C60.6824 40.562 59.7564 40.828 58.8214 40.7722C57.8224 40.8409 56.8141 40.0035 56.8531 38.9673ZM57.3136 38.5495C57.1632 39.2087 57.6479 39.8735 58.2681 40.0648C58.8845 40.2876 59.5196 39.7955 60.1249 40.0648C60.8343 39.8104 61.4879 39.2143 61.5176 38.4159C61.5919 37.6322 61.02 36.9823 60.3738 36.6314C60.2531 36.7298 60.1342 36.8319 60.0191 36.9359C60.7804 37.493 60.6969 38.6312 60.4183 39.4334C60.3366 38.648 60.5557 37.7938 60.0042 37.1235C59.878 36.973 59.7591 36.8152 59.6477 36.6537C59.4268 36.6054 59.2058 36.5645 58.9848 36.533C58.5552 36.693 58.1749 36.9626 57.8817 37.315C57.5885 37.6675 57.3927 38.0905 57.3136 38.5421V38.5495ZM41.1253 41.1492C41.868 40.5754 42.7816 40.0072 43.7676 40.2059C45.0544 40.3136 46.3895 41.1603 46.6495 42.4917C46.8352 44.0311 45.6746 45.576 44.1928 45.9641C42.7073 46.1702 41.1438 45.5055 40.3621 44.2056C40.0984 43.1546 40.2507 41.8808 41.1253 41.1492ZM41.9831 40.9969C41.777 41.1492 41.5709 41.3052 41.3685 41.4611C41.051 42.0182 40.6258 42.5753 40.7037 43.2568C40.7037 43.8658 41.2459 44.3022 41.7455 44.5566C41.4168 44.9799 42.1466 45.1972 42.4529 45.2993C43.1196 45.3959 43.8493 45.5667 44.4806 45.2455C45.0477 44.9764 45.5049 44.5204 45.7755 43.954C46.046 43.3876 46.1133 42.7454 45.9662 42.1352L45.9884 42.0943L45.7229 41.6023L45.1659 41.788C45.0958 41.5392 44.9303 41.3283 44.7053 41.2012C44.2963 40.9588 43.8361 40.8157 43.3617 40.7834C42.8873 40.7512 42.4119 40.8307 41.9738 41.0155L41.9831 40.9969ZM15.9087 41.71C16.3506 41.294 16.8371 40.9226 17.2549 40.4844C17.1836 40.8022 17.0161 41.0904 16.7752 41.3096C16.5343 41.5289 16.2318 41.6687 15.9087 41.71ZM9.42999 40.685C10.1189 41.4983 11.1662 41.8177 12.1374 42.1593C12.9525 42.4416 13.8253 42.3042 14.6664 42.41C14.451 42.4936 14.2319 42.5641 14.0165 42.6421C12.7928 42.813 11.6026 42.241 10.4884 41.8102C10.0446 41.528 9.62311 41.1938 9.43185 40.685H9.42999ZM57.1521 41.0879C57.5176 41.1453 57.8721 41.2587 58.2031 41.424L58.8715 41.4946C58.6638 41.5914 58.4419 41.6541 58.2142 41.6803C57.867 41.4723 57.503 41.2922 57.1521 41.0953V41.0879ZM57.0388 46.5119C57.0388 46.1052 57.3266 45.5649 57.8094 45.7691C58.2569 45.8174 58.2179 46.2984 58.2718 46.6326L58.0619 47.004L57.451 47.0411C57.3117 46.8554 57.1706 46.6901 57.0388 46.51V46.5119ZM57.3823 46.7087L57.9784 46.7533C58.0582 46.3113 57.945 45.914 57.4213 45.862C57.4028 46.1442 57.3897 46.419 57.3805 46.7087H57.3823ZM14.3025 48.3019C14.9115 47.8043 15.6432 47.4162 16.4565 47.4886C16.7851 47.613 17.125 47.7133 17.4518 47.8433C17.1133 47.8672 16.7739 47.8099 16.462 47.6762L15.8753 47.639C15.4139 47.8207 14.969 48.0418 14.5457 48.3001H14.3025V48.3019ZM13.0435 51.5088C13.6786 49.5516 15.8103 47.8488 17.9215 48.6009C20.1498 49.4086 21.7486 51.3231 23.0076 53.2431C23.7745 54.5039 24.2387 56.0842 23.7875 57.5381C23.4458 58.7934 22.4375 59.9056 21.1525 60.2102C20.3856 60.1805 19.5928 60.3086 18.8537 60.0486C17.7247 59.6772 16.7703 58.9345 15.8641 58.1806C14.6386 57.1519 13.5857 55.8669 13.0621 54.3387C12.797 53.413 12.7905 52.4323 13.0435 51.5032V51.5088ZM16.0628 49.1412C15.2124 49.2267 14.7389 50.0901 14.62 50.8552C14.4402 52.0704 14.5399 53.3107 14.9115 54.4817C15.1511 55.2541 15.7694 55.8223 16.4082 56.2773L16.2225 56.3961C15.4709 55.6535 14.8478 54.7914 14.3786 53.8447C14.3526 53.7519 14.2988 53.5681 14.2728 53.4734C13.9775 52.5728 14.1985 51.6165 14.0648 50.688C13.335 52.0584 13.465 53.7278 14.0648 55.1167C14.3884 55.806 14.8761 56.4053 15.4853 56.8622C16.5883 57.9243 17.812 58.8843 19.2418 59.4618C19.8742 59.5287 20.5114 59.5361 21.1451 59.4841C21.6168 59.2167 22.133 58.9846 22.4914 58.5557C22.8498 58.1267 23.0707 57.5474 23.2806 57.0089L23.0466 57.2391C22.6641 57.4805 22.2778 57.7201 21.8953 57.9652C20.8944 58.1156 19.8899 58.2493 18.876 58.1342C18.2558 57.9113 17.5762 57.7479 17.1305 57.2187C17.2642 57.2948 17.3979 57.371 17.5335 57.4434C18.3932 57.7071 19.2882 57.9299 20.1962 57.8315C21.2454 57.7127 22.4115 57.423 23.0317 56.489C23.1006 56.1625 23.1484 55.8319 23.1747 55.4992C22.8906 54.1716 22.1163 53.0147 21.2324 52.0101C20.5361 51.2377 19.9233 50.3389 18.9707 49.8617C18.1277 49.2786 17.0971 48.8293 16.0554 49.119L16.0628 49.1412ZM49.9492 51.7947C50.5277 51.4604 51.1691 51.2493 51.8331 51.1745C52.4971 51.0997 53.1694 51.1629 53.8078 51.3602C54.4633 51.5626 54.9034 52.1271 55.1448 52.7455C55.388 54.3424 54.4819 55.865 53.2879 56.851C52.3594 57.6124 51.3846 58.3663 50.2853 58.8806C49.7542 59.0923 49.2101 59.2632 48.6828 59.4786C48.0236 59.4786 47.3068 59.59 46.7108 59.2446C46.2909 59.0163 45.9317 58.6909 45.6633 58.2955C45.3949 57.9001 45.2249 57.4462 45.1677 56.9718C45.2327 55.9189 45.8343 54.9477 46.6532 54.2941C47.7246 53.4232 48.7348 52.4576 49.9585 51.7947H49.9492ZM51.3753 51.9693C50.1497 52.4112 49.0653 53.18 48.1127 54.0583C47.4294 54.6636 46.5232 55.0777 46.0924 55.9263C45.7898 56.437 45.9067 57.0404 45.9067 57.6142C46.3246 58.1193 46.7776 58.7117 47.4702 58.8138C48.6624 59.0645 49.7616 58.396 50.7421 57.8074C52.2276 56.9328 53.7595 55.8558 54.3686 54.166C54.441 53.698 54.5543 53.18 54.3092 52.7418C54.1086 52.233 53.5534 52.051 53.1022 51.8319C53.3897 52.516 53.4426 53.276 53.2526 53.9933C52.87 54.7509 52.3557 55.4344 51.7337 56.0117L51.4978 56.3478C51.4978 56.2494 51.4885 56.0489 51.4867 55.9486C52.0438 55.3135 52.664 54.6618 52.9109 53.8262C53.0205 53.2933 53.0595 52.6099 52.5915 52.2311C52.2332 52.0287 51.7949 51.8115 51.379 51.9693H51.3753ZM50.5731 56.9012C50.5674 56.9822 50.5569 57.0628 50.5415 57.1426C49.3995 58.0098 47.7896 58.2883 46.4564 57.6996C47.8658 57.8853 49.3643 57.7127 50.5675 56.903L50.5731 56.9012ZM32.513 57.7999C33.0701 57.6142 33.6847 57.3413 34.2845 57.5325C35.0272 57.7572 35.77 58.0617 36.5127 58.3013C37.3968 58.5834 38.1547 59.1653 38.6556 59.9465C38.7132 60.6205 38.7689 61.3781 38.2527 61.9018C37.1571 63.2165 35.2519 63.2685 33.7423 62.743C32.7228 62.3326 31.6291 61.666 31.3877 60.5147C31.0628 59.5213 31.4843 58.2363 32.5019 57.8371L32.513 57.7999ZM32.2363 58.4944C32.0711 58.9233 32.0989 59.3876 32.1026 59.8388L31.6941 59.4154C31.8575 59.9168 31.8984 60.4831 32.2345 60.9102C32.7405 61.5459 33.4422 61.997 34.2306 62.1933C34.4646 62.3665 34.744 62.4678 35.0346 62.4849C35.6159 62.4941 36.2806 62.5944 36.7541 62.1747C36.9528 62.0968 37.1497 62.0114 37.3409 61.9166C37.7884 61.8164 37.5266 61.445 37.2611 61.2927L37.6789 61.1293C37.7643 60.7969 37.9871 60.459 37.8868 60.108C37.4356 59.3244 36.535 59.0348 35.7403 58.7358C35.1238 58.5185 34.563 58.1564 33.9242 58.0042C33.3449 57.954 32.6244 58.0265 32.2363 58.5V58.4944ZM44.6403 58.3087C45.3367 58.966 45.9606 59.8369 46.9763 59.9948C47.4517 60.082 47.9345 60.121 48.4117 60.2027C47.927 60.2399 47.4424 60.251 46.9577 60.2399C45.929 59.9892 45.2141 59.1424 44.6403 58.3087ZM30.6598 61.1163C31.0776 61.8164 31.5047 62.5666 32.2252 62.9973C32.7358 63.2777 33.2966 63.4523 33.8295 63.6863L33.4414 63.794C33.0754 63.6936 32.7162 63.5696 32.3663 63.4226C31.4898 62.9268 30.9922 62.0262 30.6598 61.1108V61.1163Z" fill="#2A1C13"/>
<path d="M32.9254 1.66797C33.5753 1.83509 34.0767 2.29003 34.4778 2.80624C34.6267 3.23087 34.6669 3.68604 34.5947 4.13021C34.3923 3.66227 34.2345 3.17576 34.0377 2.70783C33.6663 2.35688 33.2745 2.04306 32.9347 1.66797H32.9254ZM28.8198 2.72454C30.0064 2.34202 31.3508 2.32345 32.4797 2.91023C31.8855 2.98079 31.2895 3.01607 30.6953 3.08292C31.0331 3.18169 31.3759 3.26288 31.7221 3.32617C30.699 3.27603 29.648 3.27975 28.6787 3.6567C28.1328 3.28532 27.6166 4.00579 27.0706 4.11906C27.3993 3.40416 28.1124 2.99378 28.8198 2.73196V2.72454ZM39.6733 3.7644C40.301 3.50443 41.0307 3.43758 41.6435 3.77925C41.1681 3.96494 40.7151 4.19705 40.2453 4.40688C39.8535 4.4533 39.7383 4.05407 39.6733 3.7644ZM27.5052 6.62772C27.1985 6.70211 26.8751 6.65793 26.5996 6.50401C26.3242 6.3501 26.117 6.09783 26.0196 5.79769C25.9542 5.59893 25.9402 5.38685 25.9788 5.1812C26.2072 5.92396 26.9017 6.23777 27.5052 6.62772ZM46.7685 8.93212C48.4044 8.06867 50.3635 8.49204 51.9121 9.33878L51.5147 9.868C50.629 9.7343 49.747 9.51518 48.8445 9.54489L48.8594 9.19394L48.1166 8.92841C48.1426 9.10296 48.1668 9.2775 48.1927 9.45205C47.45 9.70273 46.6812 9.96827 46.1223 10.542C45.5801 11.0397 45.3276 11.749 45.101 12.4286C45.0212 12.3005 44.9432 12.1724 44.8652 12.0443C45.0676 10.8299 45.5411 9.46505 46.7592 8.93212H46.7685ZM11.5897 13.32C13.0251 11.9124 14.9934 10.9951 17.0286 11.0583C18.5141 11.0286 20.0404 11.6042 21.0376 12.7295C20.4137 12.5698 19.8455 12.2504 19.2253 12.074C18.5215 11.9681 17.8215 12.1687 17.1418 12.3358C18.0703 12.4398 19.0229 12.3544 19.89 12.7369C18.7425 12.8576 17.5764 12.7072 16.4418 12.9504C14.596 13.2958 12.6835 13.9179 11.3651 15.3254C10.7356 16.0106 10.1228 16.9613 10.4812 17.925C10.3995 18.7495 10.3531 19.5851 10.1098 20.3836C9.31505 19.0577 9.43019 17.4033 9.90741 15.9902C10.3698 15.0469 10.795 14.0404 11.5786 13.3162L11.5897 13.32ZM23.6892 12.9486C24.1535 13.2123 24.5137 13.6598 24.432 14.228C23.9715 13.9606 23.7858 13.4425 23.6892 12.9449V12.9486ZM47.2532 14.8556C46.6961 14.4972 46.1706 13.9272 46.5104 13.2122C46.8948 13.6858 47.0675 14.2781 47.2532 14.8519V14.8556ZM51.1805 14.9262C51.9901 14.7405 52.6846 14.2577 53.4422 13.9346C53.0968 14.5585 52.5137 15.0079 51.9994 15.4777C51.7134 15.7451 51.3123 15.5389 50.9744 15.5334C50.577 15.8156 50.1536 16.1164 49.6356 16.0106L49.708 15.8249C49.7284 15.7618 49.7711 15.6392 49.7934 15.5724C49.6876 15.5464 49.5776 15.5426 49.4703 15.5612C49.3635 15.5811 49.2622 15.6235 49.1732 15.6856C48.6273 15.8119 47.8195 15.6021 47.5855 15.0227C48.7814 15.0691 49.9995 15.253 51.1805 14.9224V14.9262ZM54.3372 16.8016C54.755 16.4135 55.0391 15.771 55.6667 15.7023C55.4088 16.1702 55.0536 16.5773 54.625 16.8963L54.3372 16.8016ZM13.5562 22.0009C14.2042 22.2761 14.8956 22.4352 15.5988 22.4707C15.0306 23.0222 13.8756 22.701 13.5562 21.9953V22.0009ZM51.7097 24.478C52.7504 23.5634 54.068 23.0246 55.4513 22.9479C56.649 22.9999 57.8653 23.4214 58.7418 24.2645L58.6749 25.0072C58.8272 24.9051 58.9534 24.7435 59.1447 24.7157C60.3034 25.9561 60.2588 27.852 59.6795 29.3486C59.5794 28.6495 59.3993 27.9641 59.1428 27.306C59.3045 26.8845 59.4288 26.4496 59.5142 26.0062C59.3471 26.3312 59.1856 26.6617 59.0259 26.9904C58.6327 26.4359 58.1982 25.912 57.726 25.4232C57.4289 25.2245 57.6907 24.9088 57.8096 24.6971L57.3676 25.0871C56.5135 24.5764 55.5423 24.3592 54.6139 24.0305C54.6269 24.0881 54.651 24.205 54.6622 24.2645C53.6743 24.244 52.6753 24.244 51.7134 24.5003L51.7097 24.478ZM37.731 23.4307C38.2881 23.1429 37.7607 24.0491 37.731 23.4307V23.4307ZM32.3461 25.503C33.8743 24.8234 35.6253 24.4037 37.278 24.8568C38.9622 25.438 40.5535 26.8418 40.7893 28.6839C40.7336 28.5379 40.6442 28.4071 40.5284 28.3022C40.4125 28.1973 40.2735 28.1213 40.1227 28.0804C39.6603 27.5957 39.2741 26.9811 38.6186 26.7378C37.5491 26.2885 36.3904 25.9839 35.2205 26.0879C34.1491 26.1325 33.1779 26.6264 32.1882 26.9792C31.3099 26.9792 30.7399 27.6923 30.1735 28.2586V27.8557C30.6006 26.8623 31.321 25.9357 32.3405 25.503H32.3461ZM35.0553 25.3675C34.8361 25.5309 35.0553 26.0044 35.3189 25.8094C35.5306 25.6441 35.3189 25.1725 35.0553 25.3619V25.3675ZM42.7911 25.4436C42.9322 24.9645 43.3908 24.8364 43.8439 24.9162C43.6118 25.2727 43.1717 25.3303 42.7911 25.438V25.4436ZM4.56885 26.7583C4.8824 26.3762 5.25926 26.0509 5.68298 25.7964C5.92636 25.9133 6.12805 26.102 6.26086 26.3371C6.39367 26.5721 6.45122 26.8423 6.42574 27.1111L5.86867 26.8307L5.66811 26.8957C5.44343 26.9644 5.21875 27.0424 4.99592 27.1185L4.56885 26.7583ZM10.1228 33.7624C10.8303 32.7894 12.1765 32.2769 13.3389 32.6483C13.9183 32.8191 14.4159 33.1701 14.9229 33.4858L14.5961 33.8274C14.5961 33.7884 14.583 33.7067 14.5793 33.6678L14.5478 33.3799C13.9331 33.4041 13.2479 33.25 12.6909 33.6065L12.3678 33.872L11.5507 33.8906C11.4226 34.0001 11.2945 34.1097 11.1682 34.2211C10.4255 34.5553 10.0541 35.2702 9.63073 35.9109L9.37262 36.039C9.45804 35.2387 9.63444 34.4198 10.1154 33.7587L10.1228 33.7624ZM7.92981 38.1243C8.14893 37.9925 8.39032 38.3638 8.23063 38.5384C8.00966 38.6776 7.76455 38.3063 7.92981 38.1317V38.1243ZM15.3574 39.5188C15.9194 39.0545 16.4464 38.5493 16.9339 38.0073C16.5346 40.126 13.9368 41.6097 11.9388 40.6942C11.4203 40.4475 10.942 40.1238 10.5202 39.7342C10.5666 39.4371 10.613 39.1381 10.6576 38.841L11.6566 39.8271C11.2054 39.8958 11.7216 40.3934 11.7717 39.9385L11.9054 40.0666L12.0911 40.2393C12.6659 40.2894 13.2432 40.3043 13.8199 40.2839L14.0873 40.0499C14.4048 39.6785 14.8746 39.5504 15.3499 39.5188H15.3574ZM14.6833 39.7194C14.7112 39.9793 14.8337 40.0276 15.0547 39.8642C15.0306 39.6098 14.9006 39.5708 14.6833 39.7268V39.7194ZM60.8642 41.0637C60.9246 40.973 61.0168 40.9081 61.1225 40.8817C61.2283 40.8553 61.3401 40.8692 61.4361 40.9208V41.1844C61.1798 41.3144 60.9867 41.2736 60.8568 41.0637H60.8642ZM41.3278 41.4648C41.5302 41.3089 41.7364 41.1529 41.9425 41.0006L42.6982 41.2773C42.3268 41.5249 41.948 41.765 41.5618 41.9978C41.5042 41.8715 41.3854 41.6134 41.3278 41.4723V41.4648ZM59.3972 41.4166C59.5829 41.1826 60.1177 41.4054 59.8745 41.6932C59.6888 41.9309 59.1614 41.7007 59.3972 41.4277V41.4166ZM39.276 43.9624C39.8219 44.0311 40.3455 44.564 39.9166 45.0988C39.6656 44.7423 39.4509 44.3616 39.276 43.9624ZM46.8279 45.5166C46.7029 45.4884 46.5922 45.4163 46.5158 45.3134C46.4395 45.2105 46.4026 45.0836 46.412 44.9558C46.4241 44.8271 46.4825 44.7071 46.5765 44.6183C46.6704 44.5295 46.7934 44.4778 46.9226 44.473C46.9022 44.8202 46.8688 45.173 46.8279 45.524V45.5166ZM12.0243 53.5012L12.2972 53.3266C12.3474 53.6776 12.3901 54.0323 12.4551 54.3814C12.6055 55.3358 13.1644 56.1361 13.5896 56.981C13.1885 56.7103 12.8063 56.4125 12.4458 56.0897L12.4606 55.9709C12.4606 55.904 12.4811 55.7685 12.4885 55.7016C12.2718 54.9826 12.1165 54.2465 12.0243 53.5012ZM36.4646 57.8092C36.9549 57.6235 37.4414 57.8872 37.9074 58.0227C37.9074 58.1174 37.9074 58.305 37.8963 58.3941C37.4525 58.1243 36.9696 57.9251 36.4646 57.8036V57.8092ZM34.3088 61.4301C35.2855 61.5712 36.3272 61.7124 37.2612 61.2946C37.5323 61.4468 37.7886 61.8182 37.3411 61.9185C36.3272 62.0095 35.1017 62.2397 34.3088 61.4301Z" fill="#868175"/>
<path d="M28.8754 2.24732C30.4018 1.64569 32.1231 1.97065 33.4823 2.83039C34.0004 3.52301 34.058 4.59072 33.3301 5.16264C32.2624 5.92582 30.9291 6.23964 29.646 6.3919C28.6098 6.45132 27.3824 6.3919 26.6378 5.56372C26.2516 5.16635 26.3649 4.57586 26.415 4.07821C26.9962 3.19805 27.8318 2.49243 28.8754 2.24361V2.24732ZM28.8197 2.72269C28.1122 2.98451 27.3991 3.39488 27.0705 4.10978C27.6164 3.99651 28.1326 3.27418 28.6786 3.64742C27.9024 3.88696 27.0352 4.45702 27.0816 5.37432C28.66 6.23035 30.632 5.94996 32.1639 5.13293C32.721 4.91196 33.1852 4.13206 32.7321 3.60842C32.4342 3.40805 32.0809 3.30609 31.722 3.31689C31.3757 3.25361 31.033 3.17241 30.6951 3.07364C31.2893 3.00679 31.8854 2.97151 32.4796 2.90095C31.3506 2.3216 30.0062 2.34388 28.8197 2.71526V2.72269ZM32.5669 6.02238C32.9642 5.79769 33.3653 5.57487 33.7813 5.38361C33.5362 5.89983 32.9717 6.10408 32.5335 6.4179C32.5335 6.31948 32.5576 6.12265 32.5669 6.02238ZM45.8771 7.25721C47.2902 6.66487 48.8685 6.85241 50.3596 6.92669C50.8558 7.0795 51.3334 7.28688 51.7838 7.54503C51.795 7.63602 51.8135 7.81613 51.8247 7.90527C51.2869 7.66227 50.7274 7.47078 50.1535 7.33335C48.8834 7.08267 47.526 7.06038 46.2856 7.46147C45.8174 7.74772 45.3304 8.00208 44.8279 8.22279C45.1562 7.8771 45.508 7.55448 45.8808 7.25721H45.8771ZM48.1295 8.9117L48.8722 9.17724L48.8574 9.52819C47.9085 9.93856 46.8148 10.2412 46.1797 11.1103C45.5688 11.9347 45.5688 13.0247 45.6598 14.0014C45.5332 13.7339 45.4414 13.4512 45.3868 13.1603C44.8836 13.0154 44.8855 12.4584 44.8874 12.0276C44.9653 12.1557 45.0433 12.2838 45.1232 12.4119C45.3497 11.7323 45.6023 11.023 46.1445 10.5253C46.7015 9.95156 47.4758 9.68602 48.2149 9.43534C48.1889 9.26079 48.1648 9.08625 48.1388 8.9117H48.1295ZM14.659 9.7473C15.606 9.43906 16.6106 9.39635 17.5985 9.37593C16.3377 9.84015 14.9561 9.868 13.7269 10.4343C12.4976 11.0007 11.0455 11.5206 10.3603 12.8056L10.4346 12.1297C10.9341 11.6803 11.4113 11.2012 11.9517 10.802C12.856 10.4566 13.7362 10.0444 14.659 9.74916V9.7473ZM20.7608 10.6163L21.2231 10.6962C21.5945 11.0508 22.0755 11.3572 22.224 11.8827C21.7041 11.4854 21.264 11.0081 20.7515 10.6163H20.7608ZM43.6636 10.7166C43.7565 11.1787 43.7565 11.6546 43.6636 12.1167C43.4408 11.6766 43.5355 11.1715 43.6544 10.7166H43.6636ZM17.164 12.3339C17.8436 12.1668 18.5436 11.9626 19.2474 12.0721C19.8676 12.2485 20.4358 12.5679 21.0597 12.7276C21.3717 12.7722 21.4311 13.1287 21.5741 13.3515C21.2157 13.19 20.8629 13.0173 20.5101 12.8427C20.4878 13.0433 20.4655 13.242 20.4451 13.4425C17.903 12.9022 15.14 13.2141 12.8894 14.5566C11.6323 15.2288 10.6611 16.4785 10.5033 17.9176C10.1449 16.9576 10.7577 16.0069 11.3872 15.318C12.7056 13.9104 14.6182 13.2884 16.4639 12.943C17.5985 12.6998 18.7646 12.8502 19.9122 12.7295C19.045 12.3469 18.0831 12.4324 17.164 12.3284V12.3339ZM8.01694 17.3476C8.18034 16.6735 8.34933 15.9976 8.56101 15.3347C8.61301 16.5844 8.0225 17.7375 7.99094 18.976C7.8461 18.4394 7.95009 17.8879 8.01694 17.3476ZM49.2065 15.6764C49.2955 15.6142 49.3968 15.5718 49.5036 15.5519C49.6109 15.5333 49.7209 15.5371 49.8267 15.5631C49.8044 15.6262 49.7617 15.7488 49.7413 15.8156L49.2065 15.6764ZM52.5786 22.2535C52.8274 21.9582 53.2174 21.9675 53.5665 21.9174L53.6259 22.103C53.2803 22.1747 52.9305 22.2244 52.5786 22.2516V22.2535ZM59.7852 23.0241C59.9523 23.1373 60.1157 23.2543 60.2828 23.3713C60.2642 23.4939 60.229 23.7427 60.2104 23.8578C59.9965 23.624 59.8484 23.3375 59.7815 23.0278L59.7852 23.0241ZM38.0818 23.5663C38.481 23.63 38.8688 23.7513 39.2331 23.9265C40.0501 24.4279 41.1253 24.7213 41.5765 25.6404C40.8542 25.321 40.3101 24.725 39.6249 24.3406C39.1384 24.0268 38.5665 23.8801 38.0818 23.5663ZM17.8139 24.5634C18.0646 24.179 18.4267 23.8207 18.9057 24.0806C18.5944 24.2556 18.3041 24.4655 18.0404 24.7064L17.8139 24.5634ZM35.083 25.3192C35.3429 25.1335 35.5583 25.5959 35.3466 25.7611C35.0848 25.9505 34.8546 25.4863 35.0737 25.3229L35.083 25.3192ZM7.30947 26.606C7.57687 26.6469 7.55085 27.3488 7.2686 27.371C7.20709 27.2513 7.17827 27.1174 7.18505 26.983C7.18989 26.8506 7.2296 26.7218 7.30018 26.6097L7.30947 26.606ZM41.9739 26.5039C42.2596 26.7315 42.4748 27.0356 42.5944 27.3808C42.7141 27.7259 42.7333 28.098 42.6498 28.4536C42.3285 27.8445 42.2134 27.1538 41.9739 26.5039ZM25.5014 26.7416C25.6277 26.5781 26.0882 26.5856 26.0585 26.8511C25.9211 27.0145 25.4624 27.0108 25.4921 26.7453L25.5014 26.7416ZM30.1956 28.2104C30.7527 27.6533 31.3321 26.9291 32.2104 26.931C31.3505 27.5197 30.62 28.278 30.0638 29.1592C29.9152 28.7006 29.8261 28.1806 30.2012 27.8037V28.2066L30.1956 28.2104ZM45.567 31.3671L46.3097 31.4432L45.6858 31.6289L45.7007 31.9817C46.1351 32.0301 46.5493 32.1914 46.9021 32.4496C45.8269 32.264 44.8595 31.6437 43.7305 31.809L43.5337 31.575C44.256 31.4581 44.9338 31.7719 45.6412 31.8443L45.5744 31.3634L45.567 31.3671ZM28.5133 32.9324C28.3276 32.5778 28.0936 32.2027 28.192 31.7812C28.41 32.1942 28.6682 32.5848 28.9627 32.9473L28.5133 32.9324ZM17.0266 33.7049C17.8696 34.4792 18.5901 35.5729 18.4211 36.7688C18.176 36.2247 18.1147 35.6101 17.7953 35.0976C17.5074 34.6509 17.2505 34.185 17.0266 33.703V33.7049ZM8.05223 35.0901C7.95012 35.9103 7.94078 36.7394 8.02437 37.5616L7.69198 37.5505C7.69198 36.7279 7.38189 35.7382 8.05223 35.0901ZM59.0721 35.3445C59.3024 35.2962 59.5345 35.2424 59.7666 35.1904C60.0414 35.3018 60.3237 35.4095 60.5966 35.5172H59.9003C59.3265 35.5469 58.7527 35.5896 58.1771 35.5636C58.4723 35.4764 58.7695 35.4002 59.0721 35.3352V35.3445ZM28.3499 35.8366C28.6043 35.7345 28.8605 35.6323 29.1168 35.5339C29.0258 35.6658 28.8457 35.9332 28.7454 36.0669C28.9757 35.9907 29.2059 35.9127 29.4325 35.831L29.6683 35.8143C28.7695 36.8616 27.4938 37.6192 26.9516 38.9358C26.9795 37.7789 28.0658 37.0789 28.842 36.3788C28.6767 36.1931 28.5077 36.0074 28.3406 35.8366H28.3499ZM38.9787 36.4197C39.3355 36.191 39.7078 35.9875 40.0928 35.8106C40.0435 35.9967 39.9535 36.1696 39.8292 36.3167C39.7049 36.4637 39.5495 36.5814 39.3742 36.6611C39.0418 36.7558 38.7095 36.8468 38.3734 36.9266C38.5702 36.752 38.7707 36.5812 38.9806 36.4197H38.9787ZM40.8356 40.7945C41.3184 39.6562 42.6925 39.3814 43.8066 39.439C43.2937 39.6933 42.7443 39.8663 42.1781 39.9515C41.6396 40.0555 41.2683 40.4844 40.8449 40.7945H40.8356ZM14.7296 39.6804C14.9487 39.5151 15.0731 39.5634 15.101 39.8252C14.8726 39.9979 14.75 39.9422 14.7222 39.6897L14.7296 39.6804ZM11.8106 39.8995C11.7604 40.3544 11.2535 39.8568 11.6954 39.7881L11.8106 39.8995ZM44.6218 39.8995C44.8075 39.7862 45.1993 39.9923 45.1157 40.2281C44.9263 40.3377 44.5382 40.1427 44.6144 39.9088L44.6218 39.8995ZM11.9405 40.0332C12.6703 40.0332 13.4001 40.0332 14.1298 40.0165L13.8624 40.2504C13.2858 40.2709 12.7085 40.256 12.1337 40.2059L11.948 40.0332H11.9405ZM45.1789 41.7434L45.7359 41.5577L46.0015 42.0498L45.9792 42.0906C45.7288 42.5352 45.5365 43.0101 45.4073 43.5037C45.3293 42.9188 45.2661 42.3301 45.1714 41.7471L45.1789 41.7434ZM43.9236 44.6364C44.3878 44.4711 44.7425 44.1072 45.1325 43.8157C44.9932 44.1072 44.9468 44.4823 44.6385 44.6587C43.9775 45.1433 43.1251 44.9948 42.362 44.9874C42.3842 45.0561 42.4288 45.1972 42.4493 45.2659C42.1429 45.1656 41.4131 44.9484 41.7418 44.5231C42.4548 44.6754 43.2013 44.8017 43.9236 44.6345V44.6364ZM40.7669 45.8248C41.0316 45.9524 41.2894 46.0937 41.5394 46.2482C41.9268 46.2779 42.3156 46.3045 42.7055 46.328C42.7222 46.4097 42.7556 46.5731 42.7705 46.6548C42.0277 46.6363 41.1698 46.549 40.7669 45.8248ZM20.7701 49.2266C21.6985 49.7837 22.2908 50.7456 22.8906 51.622L22.6808 51.7557C22.1924 50.8106 21.4033 50.0789 20.7701 49.2266ZM50.354 50.8328C51.4682 50.1755 52.9128 49.9044 54.1421 50.4188C54.5579 50.6418 54.9415 50.9204 55.2822 51.2469C54.8533 51.0612 54.4392 50.844 54.0232 50.6304C53.0882 50.3171 52.0773 50.3125 51.1395 50.6174C50.7384 50.8328 50.3336 51.0371 49.9195 51.2209C50.0625 51.0909 50.2073 50.961 50.354 50.8328ZM55.7761 52.8513C56.1048 53.5718 55.9266 54.4018 55.5366 55.061C55.4085 55.2114 55.3509 55.5196 55.0984 55.4825C55.2414 54.5819 55.8541 53.802 55.7761 52.8513ZM24.3798 54.1901C24.8756 54.853 24.9369 55.7183 24.7624 56.5056C24.4578 55.7852 24.391 54.983 24.3798 54.1957V54.1901ZM31.852 57.1611C32.5632 56.6523 33.4508 56.9346 34.2659 56.851C34.9715 56.773 35.796 56.9996 36.1228 57.6829C35.7175 57.4665 35.301 57.2719 34.875 57.0998C34.0635 56.9884 33.2409 57.0534 32.4258 57.0794L31.7406 57.5325L31.852 57.1611ZM39.17 59.7496C39.3371 60.2324 39.5933 60.7152 39.5414 61.2351C39.4077 61.7755 39.0623 62.2323 38.7986 62.7095L38.6891 62.7225L38.3325 62.8878C38.6466 62.4779 38.9132 62.0337 39.1273 61.5638C39.391 60.99 39.2146 60.3457 39.1793 59.7441L39.17 59.7496ZM21.6372 60.7728C22.341 60.7263 22.9649 60.3754 23.613 60.1377C23.3121 60.5172 22.9268 60.8211 22.4877 61.0253C21.7449 61.1627 20.9353 61.3484 20.2594 60.8972C20.7144 60.8489 21.1712 60.8192 21.6279 60.7728H21.6372ZM34.2232 62.1933C35.0558 62.3701 35.9168 62.3637 36.7467 62.1747C36.2732 62.5944 35.6085 62.4941 35.0272 62.4848C34.7366 62.4678 34.4572 62.3665 34.2232 62.1933Z" fill="#5A5046"/>
<path d="M33.4819 2.82858L34.0279 2.70789C34.234 3.17582 34.3992 3.66233 34.5849 4.13026C34.6571 3.6861 34.6169 3.23093 34.4679 2.8063C35.5821 2.87315 36.6962 2.8453 37.7881 3.13683C38.3266 3.29838 38.8855 3.1981 39.4184 3.06998V3.5472C39.3646 3.74119 39.3533 3.94447 39.385 4.14326C39.4178 4.34234 39.4925 4.5322 39.6041 4.70032C39.8102 5.04014 39.9476 5.46165 40.2726 5.7049C40.7331 5.8256 41.2159 5.79589 41.6894 5.81446C41.7599 5.61763 41.8305 5.42266 41.9029 5.22583C42.2019 5.04014 42.4841 4.82845 42.7664 4.61491C44.0783 5.14818 45.3613 5.75002 46.6101 6.41795C47.7818 7.04743 49.1634 6.44023 50.3573 6.9453C48.8718 6.87103 47.2879 6.68348 45.8748 7.27583C44.575 6.67605 43.1396 6.31025 41.7116 6.50708C40.6736 6.65749 39.5205 6.49037 38.6255 7.14585C37.5838 7.72334 36.8039 8.79663 36.7463 10.0055C36.8355 10.4493 37.2923 10.6944 37.6376 10.9339C38.7926 11.5931 40.0163 12.1743 41.3217 12.4658C41.9475 12.6125 42.6011 12.6218 43.2213 12.7964C43.4289 13.2183 43.6009 13.6568 43.7357 14.1073L44.0848 13.9514L43.8192 13.5651C43.943 13.3076 44.0711 13.0495 44.2036 12.7908C44.289 12.9189 44.3763 13.0452 44.4599 13.1752C45.6093 16.421 49.6591 18.0142 52.8159 16.8425C53.9876 16.3635 55.0905 15.5019 55.5121 14.2689C55.5882 13.9736 55.6476 13.6728 55.7145 13.3739C56.6206 14.488 57.6363 15.5204 58.4589 16.7051C57.9539 16.7856 57.4494 16.8698 56.9456 16.9577C57.0496 17.2455 56.9939 17.6651 57.317 17.8137C57.9074 18.1572 58.4534 17.5574 58.9473 17.3012L59.6251 18.4283L59.354 18.5657C58.5184 18.1943 57.5769 18.0681 56.7283 18.4729C57.3776 18.4972 58.0237 18.5767 58.6595 18.7106C58.025 18.6941 57.3902 18.7233 56.7599 18.7978C56.7989 20.2072 57.7867 21.4198 58.938 22.1402C59.7848 22.3259 60.6464 21.9657 61.482 21.8264C62.2247 23.3119 62.5497 24.9609 63.0882 26.5262C64.1912 31.8016 63.7177 37.428 61.5878 42.3896C61.5469 41.9922 61.4875 41.5986 61.4541 41.2012V40.9375C61.4541 40.6349 61.4393 40.334 61.43 40.0332C61.8552 39.5696 62.0827 38.9584 62.0639 38.3296C62.0452 37.7008 61.7818 37.1041 61.3297 36.6667C60.9063 36.2545 60.3288 36.0818 59.7829 35.8979L59.8683 35.5711H60.5647C60.288 35.4634 60.0076 35.3557 59.7346 35.2443C59.5025 35.2963 59.2704 35.3502 59.0402 35.3984C58.8031 35.3544 58.5706 35.2885 58.3457 35.2016C58.3203 34.8963 58.3814 34.59 58.522 34.3178C58.6625 34.0456 58.8768 33.8184 59.1404 33.6622C60.4403 32.9325 61.8905 31.6958 61.6194 30.0302C61.3186 31.6902 60.1153 33.0996 58.5889 33.7774C58.3308 33.3169 58.069 32.8489 57.8072 32.3977C59.9946 31.2 61.2498 28.437 60.4941 26.023C60.2645 25.1801 59.8113 24.4149 59.1823 23.8085C58.5534 23.2022 57.7722 22.7771 56.9214 22.5785C55.8806 22.3775 54.807 22.4265 53.7889 22.7214C53.7294 22.5358 53.67 22.3352 53.6032 22.1421L53.5438 21.9564L53.4992 21.8357C52.9923 21.7373 52.4575 21.7391 51.984 21.52C51.5866 20.8868 51.4436 19.9602 50.6173 19.7244C49.5273 19.3958 48.4503 18.7737 47.2749 18.9445C46.0772 19.0671 44.9055 19.7411 44.3317 20.82C43.9269 21.5739 43.9956 22.4541 43.9195 23.2785C43.0003 23.1504 42.6197 22.1644 41.7896 21.8766C41.2511 21.7039 40.6959 21.9026 40.1686 22.014C39.6264 21.7354 39.0972 21.4012 38.4974 21.2582C37.6246 21.0985 36.7315 21.2582 35.8977 21.5237C35.6173 20.5117 35.7752 19.2435 34.8635 18.523C34.9025 19.4626 35.5802 20.404 35.2348 21.3232C34.5608 20.6232 34.6592 19.5443 34.1095 18.7681C33.6695 18.0254 32.8543 17.6651 32.0985 17.3402C32.1988 16.1425 32.8821 15.0098 32.5813 13.7861C32.4346 12.529 31.2314 11.8902 30.3048 11.2347C29.7329 10.8856 29.4617 10.2339 28.9511 9.82163C28.2585 9.48182 27.4656 9.47625 26.7358 9.23856C25.904 9.00831 25.1575 8.42153 24.2587 8.49581C23.0982 8.55337 21.9562 8.79662 20.8198 9.02873C19.9303 9.20328 19.0687 8.8022 18.1793 8.82819C17.3455 8.85605 16.5081 8.9099 15.6743 8.91547C16.6919 8.55523 17.9026 8.80777 18.7865 8.0873C20.0528 7.15213 21.3825 6.30584 22.7658 5.5545C23.9561 5.01228 25.1148 4.35123 26.4109 4.09127C26.3608 4.5852 26.2475 5.17569 26.6337 5.57678C27.3765 6.39938 28.6057 6.46437 29.6419 6.40495C30.925 6.25269 32.2582 5.93887 33.3259 5.17569C34.0538 4.60377 33.9963 3.53606 33.4782 2.84344L33.4819 2.82858ZM35.2998 3.44692C35.0194 3.55277 34.8114 4.00399 35.0343 4.26581C35.2033 4.73561 35.8364 4.6112 36.2153 4.52207C36.5606 4.43665 36.4567 4.03742 36.4307 3.77931C36.2803 3.29837 35.6879 3.39679 35.2998 3.44878V3.44692ZM34.9173 5.10327C34.2414 5.49136 33.6026 6.041 33.2721 6.76147C33.0437 7.41139 33.7716 8.0613 34.4029 7.89232C35.0164 7.74212 35.6219 7.56115 36.2171 7.35011C36.6423 7.24798 37.0676 6.9973 37.1326 6.52193C37.2273 5.42823 35.868 4.66133 34.9173 5.10327ZM27.5009 6.62778C26.8955 6.23783 26.2011 5.93144 25.969 5.18126C25.9111 5.49216 25.9729 5.81343 26.142 6.08066C26.3111 6.34789 26.5749 6.54134 26.8807 6.62221C27.0841 6.67416 27.2974 6.67416 27.5009 6.62221V6.62778ZM32.5628 6.03915C32.5628 6.13942 32.5386 6.33624 32.5293 6.43466C32.9676 6.12085 33.532 5.91659 33.7772 5.40038C33.3612 5.58607 32.9601 5.81446 32.5628 6.03915ZM30.6149 6.52193C30.2157 6.64449 30.4292 7.18484 30.8006 6.94716C31.2462 6.87474 30.9658 6.31768 30.6149 6.51822V6.52193ZM54.3496 16.8184L54.6375 16.9131C55.066 16.5941 55.4212 16.1869 55.6792 15.7191C55.0516 15.7878 54.7674 16.4303 54.3496 16.8184ZM47.9267 17.316V17.485C49.5273 18.1238 51.3452 18.315 52.9867 17.7078L53.1724 17.3773L53.0015 17.3662V17.563C52.645 17.563 52.2737 17.5463 51.9468 17.7078C51.0184 17.7988 50.0621 17.8935 49.1615 17.6076C48.9517 17.5797 48.7437 17.5556 48.5376 17.5333C48.3333 17.459 48.1309 17.3847 47.9285 17.316H47.9267ZM58.3642 17.8731C58.3865 18.1386 58.8879 18.2296 59.107 18.1331C59.1423 17.8007 58.5796 17.6967 58.3642 17.8731ZM35.9497 20.4449C35.8699 20.8478 36.0017 21.2601 36.4752 21.2675C36.2598 21.1431 36.3842 20.1385 35.9497 20.4449ZM59.7681 23.0445C59.8334 23.3552 59.9801 23.643 60.1933 23.8783C60.2118 23.7557 60.2471 23.5069 60.2657 23.3918C60.0986 23.2692 59.9352 23.1522 59.7681 23.0445ZM61.131 35.8812C60.9862 36.1022 61.3167 36.4383 61.547 36.2972C61.7122 36.0688 61.3613 35.716 61.131 35.8756V35.8812ZM46.287 7.47081C47.5274 7.06972 48.8867 7.09943 50.1549 7.34268C49.5849 7.3891 49.0185 7.44481 48.4484 7.47452L48.7753 7.74005C48.3315 7.85147 47.8877 7.96102 47.4476 8.08358C47.247 8.13743 47.0502 8.19685 46.8552 8.26927C46.6634 8.00559 46.4739 7.74191 46.287 7.47824V7.47081ZM5.72513 24.5059C6.3396 22.7736 7.14028 21.1131 8.11309 19.5536C8.36563 20.5526 7.89583 21.559 7.96639 22.5747C7.65629 22.9591 6.95625 22.9981 6.7427 23.5032C6.6589 23.9899 6.62591 24.484 6.64428 24.9776C6.27291 24.9311 5.91083 24.8884 5.54316 24.8476L6.23206 25.4269C5.92567 25.4808 5.62114 25.5328 5.31846 25.6033L4.98238 25.7296C4.87096 25.5031 4.76697 25.2728 4.67041 25.0388C4.99443 24.8108 5.34967 24.6307 5.72513 24.5041V24.5059ZM6.07981 29.6179L6.38803 29.9577C6.09093 30.2808 5.78456 30.5965 5.4726 30.9085C5.0539 30.7234 4.65404 30.4982 4.27861 30.2363L4.53858 30.0989C5.09564 30.1564 5.76042 30.1639 6.07981 29.6124V29.6179ZM4.44573 30.6466C4.79297 30.7209 5.13465 30.8119 5.47446 30.914C5.57473 30.8602 5.77156 30.7525 5.87183 30.7005C6.26735 31.499 6.80028 32.2269 7.14752 33.0457C6.96383 33.2857 6.76667 33.5151 6.55702 33.7328C6.65729 34.7689 5.74926 35.5525 5.83097 36.5831C5.86625 37.8012 6.69443 38.7761 7.04538 39.8977C6.94325 40.438 6.58301 40.958 6.71856 41.5225C7.13265 41.983 7.72314 42.2281 8.20408 42.5976C9.21422 43.3626 10.3079 44.1091 10.9188 45.2567C10.5118 46.3439 10.44 47.5282 10.7127 48.6566C11.1923 49.8118 11.995 50.8041 13.0246 51.5144C12.7716 52.4435 12.778 53.4241 13.0431 54.3499L12.4471 54.3851C12.3821 54.036 12.3394 53.6814 12.2892 53.3304L12.0163 53.505C11.008 52.6267 10.2652 51.4995 9.45376 50.4485C7.62159 47.6997 6.24702 44.6721 5.38347 41.4835C4.68342 38.9191 4.19876 36.2675 4.28047 33.5991C4.26376 32.6131 4.22104 31.6178 4.4383 30.6466H4.44573ZM31.3094 34.3901C31.7773 34.7355 32.2898 35.0159 32.7837 35.3186C33.1068 35.8218 33.4633 36.4327 34.1263 36.507C35.3945 36.7502 36.4864 35.7327 37.7453 35.8775C38.204 35.9146 38.5754 36.2099 38.9393 36.4624C38.7295 36.624 38.5289 36.7948 38.3321 36.9694C38.6664 36.8877 39 36.7991 39.333 36.7038C39.929 36.6667 40.1259 37.3036 39.955 37.7734C39.5967 38.8875 38.9523 39.9515 39.0136 41.1529C39.047 41.7806 39.6635 42.0944 39.9922 42.5586C40.1203 43.1157 39.9922 43.7284 40.3301 44.2149C41.1119 45.5148 42.6754 46.1795 44.1609 45.9734L43.5277 46.1591C43.576 46.6623 43.5036 47.2212 43.7914 47.6688C44.2293 48.3568 44.892 48.8719 45.6668 49.1264C48.2906 50.014 51.4232 48.0568 51.7648 45.3031C51.9301 44.2781 51.4696 43.3199 51.1131 42.3915C51.6701 42.2615 52.2272 42.0535 52.8196 42.0201C53.3218 42.1239 53.7864 42.362 54.164 42.709C54.3496 43.2661 54.0897 43.864 54.1213 44.4396C54.5762 45.6447 55.8482 46.2241 57.0254 46.4952C57.1573 46.6809 57.2984 46.8499 57.4377 47.0263L58.0486 46.9891L58.2584 46.6178C58.3048 46.5398 58.3958 46.3857 58.4441 46.3077C58.8898 46.3077 59.3335 46.2909 59.7792 46.2872C59.0272 47.6122 58.1963 48.8908 57.291 50.1161C56.6503 51.0724 55.7145 51.7873 55.1407 52.7901C54.8993 52.1717 54.4592 51.6072 53.8037 51.4048C53.1654 51.2048 52.4925 51.139 51.8275 51.2115C51.1625 51.2841 50.5197 51.4934 49.9395 51.8263C48.7158 52.4892 47.7113 53.4548 46.6343 54.3257C45.8228 54.9793 45.2212 55.9505 45.1488 57.0033C45.206 57.4778 45.3759 57.9317 45.6443 58.3271C45.9128 58.7225 46.272 59.0479 46.6918 59.2762C47.2879 59.6216 48.0047 59.5176 48.6639 59.5101L48.4782 59.6531C47.9675 59.7478 47.3492 59.577 46.9555 60.0097C45.9398 59.8518 45.3159 58.9809 44.6195 58.3236C45.1933 59.1573 45.9082 59.9948 46.9369 60.2548C45.4514 60.3643 44.1758 61.1943 42.7942 61.653C41.4795 62.0838 40.1797 62.6817 38.7759 62.717C39.0489 62.2398 39.3943 61.7886 39.5187 61.2426C39.5707 60.7171 39.3144 60.2343 39.1473 59.7571C39.1826 60.3587 39.359 61.0031 39.0953 61.5769C38.8812 62.0468 38.6146 62.4909 38.3005 62.9008C36.9599 63.4987 35.4391 63.4245 34.0074 63.6083L33.7865 64.0298L33.4355 63.794L33.8236 63.6863C33.2907 63.4523 32.7299 63.2778 32.2192 62.9974C31.4988 62.5666 31.0717 61.8164 30.6539 61.1164C30.9863 62.0318 31.4839 62.9324 32.3603 63.4282C30.626 63.5136 28.9251 63.1329 27.2353 62.808C27.1202 62.9807 27.0051 63.1515 26.8862 63.3223L26.6393 63.4449C26.6839 63.1775 26.734 62.9157 26.786 62.6501C25.3172 62.2082 23.8317 61.7588 22.4798 61.0179C22.9187 60.8133 23.3039 60.5094 23.6051 60.1303C22.9571 60.368 22.3332 60.719 21.6294 60.7654C20.9256 60.5797 20.1903 60.5667 19.4791 60.4182C20.0362 60.3383 20.5932 60.3105 21.1355 60.2046C22.4204 59.9001 23.4287 58.7878 23.7704 57.5326C24.2216 56.0786 23.7574 54.4984 22.9905 53.2376C23.9524 53.0092 25.1222 52.8476 25.6495 51.8895C26.1918 50.5729 26.5966 49.1413 26.3385 47.7078C27.1852 47.2472 28.2269 46.9501 28.7097 46.0366C29.3225 45.097 28.9622 43.916 29.2779 42.8947C29.6753 42.1352 30.613 41.853 31.0086 41.0879C31.6566 39.868 31.443 38.4419 31.4542 37.1179C31.6832 37.1464 31.9116 37.1779 32.1394 37.2126C33.8496 37.753 35.764 38.219 37.4928 37.4819C36.8447 37.3704 36.219 37.6898 35.5709 37.6081C34.8282 37.5357 34.1058 37.3407 33.3742 37.2052C32.6018 37.0492 31.7662 36.8951 31.1924 36.3046C31.1892 35.6596 31.2289 35.015 31.3112 34.3753L31.3094 34.3901ZM31.1237 43.9884C30.938 44.3449 31.0772 44.7312 31.1645 45.1025C31.6195 45.0691 32.3734 45.0505 32.2229 44.3839C32.3306 43.7804 31.4802 43.7619 31.1237 43.9903V43.9884ZM39.2773 43.9884C39.4523 44.3877 39.6669 44.7684 39.9179 45.1248C40.345 44.5845 39.8213 44.0534 39.2754 43.9847L39.2773 43.9884ZM40.7628 45.8824C41.1657 46.6066 42.0218 46.6939 42.7664 46.7125C42.7515 46.6308 42.7181 46.4674 42.7014 46.3857L41.5352 46.3058C41.2853 46.1513 41.0275 46.01 40.7628 45.8824ZM29.8554 46.6252C29.2046 46.9206 28.6189 47.3422 28.1322 47.8656C27.7757 48.3571 27.5241 48.9167 27.3931 49.5096C27.2621 50.1025 27.2545 50.716 27.3709 51.312C27.6457 52.3574 28.5927 53.089 29.5992 53.3787C29.869 53.4424 30.1516 53.4263 30.4125 53.3323C30.6729 53.2387 30.901 53.0725 31.0698 52.8532C31.4876 52.3444 32.0298 51.96 32.4699 51.4754C33.0121 50.6324 32.611 49.5795 32.0651 48.8479C31.5697 48.211 31.2072 47.481 30.9993 46.7013C30.6279 46.6048 30.2157 46.3931 29.848 46.6215L29.8554 46.6252ZM37.6859 50.2276C37.3145 50.5024 37.2106 51.156 37.6451 51.442C38.1483 51.8282 38.9449 51.3417 38.8743 50.7289C38.8279 50.196 38.1056 49.9453 37.6859 50.2276ZM50.3666 50.8589C50.2199 50.987 50.0751 51.117 49.9321 51.247C50.3462 51.0613 50.751 50.8589 51.1521 50.6435C52.0899 50.3386 53.1008 50.3431 54.0358 50.6565C54.4518 50.87 54.8659 51.0836 55.2948 51.273C54.9541 50.9465 54.5705 50.6678 54.1547 50.4448C52.9254 49.9249 51.4863 50.2016 50.3666 50.8589ZM43.095 53.037C42.1555 53.0667 41.1416 53.3601 40.5381 54.1252C39.9959 54.7825 39.3683 55.5457 39.5651 56.4648C39.5892 57.1686 40.3933 57.3933 40.9745 57.3134C42.1592 57.1742 43.3884 56.7007 44.146 55.7499C44.5676 55.1446 44.8461 54.2644 44.3986 53.5997C44.049 53.2598 43.586 53.0614 43.0988 53.0426L43.095 53.037ZM38.0814 53.7798C37.4315 53.8745 37.0174 54.8029 37.5949 55.23C37.9663 55.3451 38.5234 55.4157 38.7759 55.0258C39.1473 54.5188 38.8112 53.5402 38.0814 53.7798ZM25.7313 54.983C25.9058 55.503 26.565 55.2356 26.9735 55.2709C27.0495 54.8726 27.0664 54.4652 27.0237 54.062C26.7224 54.0079 26.4178 53.975 26.1119 53.9636C25.9327 54.0552 25.7947 54.2112 25.7258 54.4003C25.6569 54.5895 25.6622 54.7976 25.7406 54.983H25.7313ZM24.3794 54.1976C24.3533 54.9871 24.4833 55.774 24.762 56.5131C24.9309 55.7258 24.8715 54.8586 24.3794 54.1957V54.1976ZM26.0246 57.1333C26.2103 57.6217 26.6263 57.9856 27.0404 58.2902C27.6996 58.7915 28.6169 58.6615 29.3336 58.357C29.3578 57.7145 29.6772 56.9959 29.3336 56.3999C28.7636 55.7592 27.811 55.9152 27.0478 55.9449C26.435 55.9449 26.0915 56.606 26.0246 57.1333ZM31.8516 57.163L31.7402 57.5344L32.4254 57.0906C33.2405 57.0646 34.0631 56.9996 34.8746 57.111C35.3006 57.2831 35.7171 57.4777 36.1224 57.6941C35.7882 57.0108 34.9637 56.7842 34.2655 56.8622C33.4578 56.9458 32.5702 56.6635 31.8516 57.1723V57.163ZM32.5015 57.8334C31.4839 58.2326 31.0624 59.5176 31.3873 60.511C31.6287 61.6716 32.7225 62.3382 33.7419 62.7393C35.2515 63.2648 37.1567 63.2128 38.2523 61.8981C38.7685 61.3745 38.7128 60.6169 38.6552 59.9428C38.1469 59.1733 37.3877 58.6038 36.5068 58.331C35.764 58.0915 35.0343 57.787 34.2785 57.5623C33.6788 57.3766 33.0697 57.6384 32.5071 57.8297L32.5015 57.8334ZM36.4696 57.8185C36.9746 57.94 37.4576 58.1392 37.9013 58.409C37.9013 58.3143 37.9013 58.1268 37.9125 58.0376C37.4464 57.9021 36.9599 57.6421 36.4696 57.8241V57.8185ZM14.057 50.7122C14.1907 51.6406 13.9697 52.5914 14.265 53.4975C14.291 53.5885 14.3448 53.7724 14.3708 53.8689C14.84 54.8155 15.4631 55.6777 16.2147 56.4203L16.3075 56.5187C16.5675 56.7805 16.8479 57.0219 17.1264 57.2615C17.5702 57.7907 18.2517 57.9541 18.8719 58.1769C19.8858 58.292 20.8903 58.1583 21.8912 58.0079C22.2737 57.7628 22.66 57.5233 23.0425 57.2819L23.2765 57.0516C23.0666 57.5901 22.8624 58.1472 22.4873 58.5984C22.1122 59.0496 21.6127 59.2539 21.141 59.5269C20.5073 59.5789 19.8701 59.5714 19.2377 59.5046C17.8079 58.9234 16.5842 57.9634 15.4812 56.9049C14.8721 56.4481 14.3843 55.8487 14.0607 55.1595C13.4572 53.7705 13.318 52.1012 14.0607 50.7308L14.057 50.7122ZM53.0888 51.8876C53.54 52.1067 54.0952 52.2887 54.2958 52.7975C54.5428 53.2357 54.4276 53.7538 54.3552 54.2217C53.7462 55.9115 52.2124 56.9885 50.7287 57.8631C49.7483 58.4517 48.649 59.1202 47.4569 58.8695C46.7643 58.7674 46.3112 58.175 45.8934 57.67L46.4504 57.7535C47.7781 58.344 49.388 58.0655 50.5356 57.1965C50.8749 56.9573 51.1947 56.6915 51.4919 56.4017L51.7277 56.0656C52.3498 55.4882 52.8641 54.8048 53.2467 54.0472C53.4366 53.3299 53.3837 52.5698 53.0962 51.8858L53.0888 51.8876ZM32.106 59.8722C32.106 59.421 32.0744 58.9568 32.2397 58.5279C32.275 59.1796 32.1227 59.8685 32.3381 60.4999C32.65 61.2946 33.649 61.1702 34.3119 61.4617C35.1048 62.2713 36.3304 62.0411 37.3443 61.9501C37.154 62.0478 36.958 62.134 36.7575 62.2082C35.9276 62.3972 35.0665 62.4036 34.234 62.2268C33.4396 62.0284 32.734 61.571 32.2285 60.927C31.8924 60.4999 31.8571 59.9335 31.6882 59.4322L32.0967 59.8555L32.106 59.8722Z" fill="#00A0C4"/>
<path d="M28.6787 3.64933C29.6479 3.27795 30.699 3.26867 31.7221 3.3188C32.081 3.308 32.4343 3.40996 32.7322 3.61034C33.1853 4.13398 32.7322 4.91016 32.164 5.13484C30.6321 5.95187 28.6601 6.23227 27.0817 5.37624C27.0353 4.45894 27.9025 3.89072 28.6787 3.64933ZM40.2452 4.39208C40.7113 4.18226 41.1737 3.95572 41.6434 3.76446C41.8432 3.79823 42.0332 3.87488 42.2005 3.98914C42.061 4.21372 41.9629 4.46152 41.9109 4.72076C41.2811 4.81145 40.6386 4.72664 40.054 4.47565L40.2397 4.39208H40.2452ZM39.6102 4.68362C39.9392 4.91954 40.312 5.08753 40.7067 5.17775C41.1014 5.26798 41.5101 5.27865 41.909 5.20912C41.8366 5.40595 41.766 5.60092 41.6954 5.79775C41.2219 5.77918 40.7391 5.80889 40.2786 5.6882C39.9537 5.44494 39.8163 5.03271 39.6102 4.68362ZM30.6228 6.50708C30.9738 6.30283 31.2542 6.85989 30.8085 6.93231C30.4427 7.17 30.2236 6.62964 30.6284 6.50708H30.6228ZM38.6316 7.12914C39.5266 6.47366 40.6742 6.64078 41.7177 6.49037C43.1457 6.29354 44.5885 6.65935 45.8809 7.25912C45.5081 7.55639 45.1563 7.87902 44.828 8.22471C45.3305 8.00399 45.8175 7.74964 46.2857 7.46338C46.4738 7.72706 46.6632 7.99074 46.8539 8.25442C46.1538 8.54038 45.4259 8.91176 45.0081 9.56724C44.4585 10.6795 44.269 11.9354 44.4659 13.1603C44.3824 13.0303 44.2951 12.9041 44.2097 12.7759C44.0859 13.0322 43.9578 13.2903 43.8253 13.5503L44.0908 13.9365L43.7417 14.0925C43.607 13.642 43.435 13.2035 43.2274 12.7815C42.6072 12.607 41.9536 12.5958 41.3278 12.451C40.028 12.1595 38.7987 11.5783 37.6437 10.9191C37.2983 10.6777 36.8415 10.4326 36.7524 9.99061C36.81 8.78178 37.5899 7.70849 38.6316 7.131V7.12914ZM43.6452 10.7204C43.5263 11.1753 43.4298 11.6804 43.6545 12.1205C43.7433 11.6577 43.7402 11.1819 43.6452 10.7204ZM20.824 8.99903C21.9604 8.76692 23.1024 8.52366 24.263 8.4661C25.1617 8.39554 25.9082 8.98232 26.7401 9.20886C27.4661 9.44654 28.2627 9.45211 28.9553 9.79192C29.466 10.2042 29.7371 10.8559 30.309 11.205C31.2375 11.8605 32.4389 12.5048 32.5856 13.7564C32.8864 14.9801 32.203 16.1128 32.1027 17.3105C32.8585 17.6354 33.6737 17.9975 34.1138 18.7384C34.6708 19.5146 34.565 20.5953 35.239 21.2935C35.5863 20.3743 34.9085 19.4366 34.8677 18.4933C35.7794 19.2138 35.6216 20.482 35.902 21.494C36.7357 21.2285 37.6289 21.0688 38.5016 21.2285C39.0995 21.3715 39.6287 21.7057 40.1728 21.9843C40.7002 21.8728 41.2554 21.6742 41.7939 21.8468C42.6276 22.1291 43.0046 23.1207 43.9237 23.2488C43.9998 22.4243 43.9237 21.5442 44.3359 20.7903C44.9097 19.7114 46.0814 19.0374 47.2791 18.9148C48.4545 18.744 49.5315 19.366 50.6215 19.6947C51.4478 19.9305 51.5908 20.8571 51.9882 21.4903C52.4617 21.7094 52.9965 21.7076 53.5034 21.806L53.548 21.9267C53.1989 21.9768 52.8052 21.9675 52.5601 22.2628C52.9121 22.2365 53.262 22.1869 53.6074 22.1142C53.665 22.2999 53.7244 22.5005 53.7931 22.6936C52.51 23.1615 51.1934 23.8486 50.4971 25.0871C49.7544 26.2922 49.8045 27.7852 49.9939 29.137C49.9939 29.8018 50.3281 30.3904 50.7107 30.9103C51.2993 31.7274 51.9882 32.6261 53.0615 32.7672C54.6306 33.0717 56.35 33.0996 57.8114 32.3624C58.0732 32.8211 58.335 33.2909 58.5931 33.7421C58.7788 33.7049 58.9645 33.6678 59.1502 33.627C58.8866 33.7831 58.6723 34.0103 58.5318 34.2825C58.3912 34.5547 58.3301 34.861 58.3555 35.1663C58.5804 35.2533 58.8129 35.3192 59.05 35.3632C58.7473 35.4281 58.4502 35.5043 58.1549 35.5915C58.7306 35.6175 59.3043 35.5748 59.8781 35.5451L59.7927 35.8719C58.2144 35.9091 56.6787 37.3129 56.8477 38.9562C56.8087 39.9924 57.817 40.8298 58.816 40.7611C59.751 40.8169 60.677 40.5509 61.4398 40.0072C61.4398 40.308 61.4546 40.6089 61.4639 40.9115C61.3679 40.86 61.2561 40.8461 61.1503 40.8725C61.0446 40.8989 60.9524 40.9638 60.892 41.0545C61.022 41.2643 61.2151 41.3052 61.4713 41.1752C61.5047 41.5726 61.5642 41.9662 61.605 42.3636C61.475 43.1992 61.3413 44.0553 60.9347 44.8092C60.658 45.3662 60.1919 45.8082 59.802 46.2947C59.3563 46.2947 58.9125 46.3095 58.4669 46.3151C58.4223 46.3931 58.3313 46.5472 58.2812 46.6252C58.2274 46.2909 58.2663 45.81 57.8188 45.7617C57.336 45.5556 57.0501 46.096 57.0482 46.5045C55.871 46.2334 54.599 45.654 54.144 44.4489C54.1125 43.8733 54.3632 43.2846 54.1867 42.7183C53.8089 42.3716 53.3444 42.1336 52.8424 42.0294C52.2574 42.0554 51.7004 42.2634 51.1359 42.4008C51.4924 43.3292 51.9529 44.2874 51.7876 45.3124C51.4497 48.0661 48.3134 50.0233 45.6896 49.1357C44.9148 48.8812 44.252 48.3661 43.8142 47.678C43.5263 47.2305 43.5988 46.6716 43.5505 46.1684L44.1837 45.9827C45.6692 45.5946 46.8167 44.0497 46.6403 42.5103C46.3804 41.1789 45.0453 40.3322 43.7584 40.2245C42.7724 40.0258 41.8644 40.5959 41.1161 41.1678C40.2415 41.8994 40.0892 43.1732 40.3529 44.2242C40.015 43.7377 40.1431 43.1101 40.015 42.5679C39.6863 42.1037 39.0698 41.7898 39.0364 41.1622C38.9751 39.9608 39.6194 38.8912 39.9778 37.7827C40.1487 37.3129 39.9518 36.6685 39.3558 36.7131C39.5311 36.6334 39.6865 36.5158 39.8107 36.3687C39.935 36.2216 40.0251 36.0488 40.0744 35.8627C39.6893 36.0396 39.317 36.2431 38.9603 36.4717C38.5889 36.2192 38.2175 35.9146 37.7663 35.8868C36.5073 35.742 35.4154 36.7595 34.1472 36.5163C33.4843 36.4457 33.1278 35.8311 32.8047 35.3279C33.6495 35.617 34.5284 35.7949 35.4192 35.8571C36.7543 35.8088 38.1079 35.4244 39.1701 34.5888C40.6185 33.497 41.597 31.7422 41.6212 29.9132C41.6529 28.8714 41.3967 27.8411 40.8807 26.9356C40.3648 26.0301 39.609 25.2845 38.6966 24.7807C36.1285 23.3676 32.697 24.0008 30.6934 26.1028C29.7649 27.1371 29.1169 28.4964 29.219 29.915C29.1336 31.6494 30.0286 33.3001 31.3303 34.4013C31.248 35.041 31.2083 35.6856 31.2115 36.3306C31.0258 36.169 30.8401 36.0075 30.6544 35.8497C31.0009 36.4497 31.518 36.9331 32.1399 37.2386C31.9096 37.2015 31.6812 37.1699 31.4547 37.1439C31.4436 38.4679 31.6571 39.894 31.0091 41.1139C30.6135 41.879 29.6758 42.1612 29.2784 42.9207C28.9628 43.942 29.323 45.123 28.7102 46.0626C28.2274 46.978 27.1857 47.2751 26.339 47.7338C26.5971 49.1673 26.1923 50.5989 25.6501 51.9155C25.1227 52.8736 23.9529 53.0296 22.991 53.2636C21.732 51.338 20.1258 49.4235 17.905 48.6213C15.7937 47.8786 13.662 49.5721 13.0269 51.5292C12.0005 50.8171 11.2011 49.8243 10.7244 48.6696C10.4517 47.5412 10.5235 46.3569 10.9305 45.2697C10.3196 44.1221 9.22589 43.3756 8.21574 42.6106C7.72738 42.2392 7.13689 41.996 6.73023 41.5355C6.59467 40.9784 6.95491 40.451 7.05704 39.9107C6.70609 38.7965 5.87791 37.8142 5.84263 36.5961C5.76093 35.5655 6.66895 34.7819 6.56868 33.7458C6.77833 33.5281 6.97547 33.2987 7.15916 33.0587C6.81006 32.2399 6.27899 31.512 5.88347 30.7135L6.06916 30.6058C6.29199 30.3068 6.49625 29.9949 6.72465 29.7015L6.78034 29.6235C6.78034 29.3858 6.48511 29.462 6.33099 29.397C6.8175 28.4314 7.22416 27.2727 6.75065 26.2198C6.55196 25.6423 5.86863 25.5198 5.33756 25.6163C5.64023 25.5458 5.94475 25.4938 6.25113 25.4399L5.56224 24.8606C5.93361 24.9014 6.30498 24.9441 6.66336 24.9906C6.64499 24.497 6.67798 24.0029 6.76178 23.5162C6.97532 23.0093 7.67539 22.9703 7.98549 22.5877C7.91492 21.572 8.3847 20.5656 8.13216 19.5666C8.08389 19.3809 8.02632 19.1952 7.98732 19.0095C8.01889 17.771 8.60939 16.6178 8.5574 15.3682C8.34571 16.0311 8.18601 16.707 8.01332 17.381C7.89819 16.811 7.75707 16.213 7.9669 15.6448C8.41041 14.2584 9.27092 13.0425 10.431 12.1632L10.3567 12.8391C11.0419 11.5541 12.481 11.0435 13.7233 10.4678C14.9655 9.89219 16.3341 9.87363 17.5949 9.4094C16.607 9.43169 15.6024 9.4744 14.6554 9.78078C13.7084 10.0872 12.8524 10.4883 11.9481 10.8336C12.9564 9.80863 14.3323 9.28313 15.6934 8.91361C16.529 8.91361 17.3646 8.85419 18.1984 8.82634C19.0878 8.80034 19.9494 9.19772 20.8389 9.02689L20.824 8.99903ZM16.1966 10.3416C14.1931 10.6498 12.1653 11.5318 10.8841 13.1547C10.0726 14.2243 9.30572 15.383 9.08103 16.7385C8.8155 18.3299 8.96776 20.0809 9.91292 21.4439C10.9639 23.1151 12.884 24.1104 14.8225 24.2645C17.3423 24.2088 19.5725 22.7122 21.2511 20.9333C22.4822 19.6594 23.5407 18.0031 23.4664 16.1685C23.3438 14.7684 22.8165 13.3534 21.8063 12.3507C21.098 11.5945 20.2197 11.0178 19.2442 10.6684C18.2687 10.319 17.224 10.207 16.1966 10.3416ZM20.7665 10.6424C21.279 11.0342 21.719 11.5114 22.2297 11.9088C22.0811 11.3833 21.602 11.0769 21.2288 10.7222L20.7665 10.6424ZM23.6948 12.9542C23.7913 13.4519 23.977 13.9699 24.4375 14.2336C24.5192 13.6654 24.159 13.2179 23.6948 12.9542ZM24.9389 15.8955C24.9017 16.1796 24.8702 16.4637 24.8423 16.7497C24.5508 17.7301 24.3335 18.7366 23.8489 19.6483C23.5146 20.625 22.6048 21.1988 22.0904 22.0622C23.0059 21.3195 23.9714 20.5285 24.3187 19.3382C24.6383 18.6463 24.8325 17.9031 24.8925 17.1433L25.0447 17.1285L24.9612 17.0208C25.0482 16.6507 25.0431 16.265 24.9463 15.8974L24.9389 15.8955ZM8.83965 22.0882C9.3113 23.5459 10.6965 24.5022 12.0818 25.011C13.4763 25.5848 15.0194 25.4771 16.4752 25.2394C15.2961 25.1298 14.0909 25.2487 12.9471 24.9219C11.2647 24.6248 9.58239 23.6963 8.84892 22.0882H8.83965ZM29.6999 25.6795C30.3666 25.1595 30.9756 24.5653 31.7147 24.1383C32.333 23.7483 33.0479 23.5812 33.7201 23.3194C32.1269 23.4846 30.4687 24.1921 29.6999 25.6795ZM37.7366 23.4029C37.7663 24.0213 38.2936 23.1151 37.7366 23.4029V23.4029ZM38.0745 23.5886C38.5592 23.9024 39.1311 24.0491 39.6176 24.3629C40.3028 24.7473 40.8469 25.3434 41.5692 25.6628C41.118 24.7343 40.0428 24.4502 39.2258 23.9488C38.8615 23.7736 38.4737 23.6523 38.0745 23.5886ZM17.7973 24.5858L18.0238 24.7287C18.2871 24.4874 18.5775 24.2775 18.8891 24.103C18.4101 23.8412 18.048 24.2014 17.7973 24.5858ZM42.791 25.4139C43.1624 25.3062 43.6118 25.2487 43.8439 24.8866C43.3908 24.8067 42.9321 24.9349 42.791 25.4139ZM7.28172 26.6246C7.20817 26.7353 7.16524 26.8634 7.1573 26.996C7.15052 27.1305 7.17935 27.2643 7.24087 27.3841C7.52312 27.3581 7.54911 26.6655 7.28172 26.6246ZM41.9461 26.5225C42.1857 27.1668 42.3008 27.8632 42.622 28.4722C42.7055 28.1166 42.6863 27.7446 42.5667 27.3994C42.447 27.0543 42.2318 26.7502 41.9461 26.5225ZM25.4737 26.7583C25.4421 27.0239 25.9007 27.0276 26.0307 26.8679C26.0623 26.6042 25.6018 26.5968 25.4737 26.7583ZM17.8846 28.1064C17.6246 28.8306 18.1148 29.488 18.579 29.9912C18.8371 30.2716 19.2754 30.2066 19.5483 29.9912C20.02 29.6458 20.6625 29.2577 20.616 28.5874C20.5696 27.917 19.9624 27.4528 19.539 26.9737C18.7592 26.8215 18.1835 27.4788 17.8846 28.112V28.1064ZM9.99277 32.0727C10.4607 31.7831 10.9212 31.4451 11.4579 31.3151C12.1282 31.0756 12.8505 31.1907 13.5469 31.161C13.9331 31.3226 14.323 31.4804 14.7093 31.6457C14.778 31.7961 14.8485 31.9465 14.9191 32.0969C14.9043 31.9855 14.8764 31.7645 14.8634 31.6531C13.467 30.5074 11.1775 30.7246 9.99277 32.0727ZM45.5336 31.3987L45.6005 31.8796C44.893 31.8072 44.2153 31.4934 43.4929 31.6104L43.6897 31.8443C44.8039 31.6791 45.7862 32.3086 46.8613 32.485C46.5086 32.2268 46.0944 32.0654 45.6599 32.017L45.6451 31.6642L46.269 31.4785C46.022 31.4507 45.7769 31.4265 45.5262 31.4024L45.5336 31.3987ZM28.4651 32.9715L28.9145 32.9863C28.62 32.6238 28.3619 32.2332 28.1439 31.8202C28.0455 32.2417 28.2701 32.6168 28.4651 32.9715ZM11.599 32.0969C10.2862 32.563 9.19617 33.6734 8.90092 35.0568C8.54811 36.6853 8.67068 38.57 9.77181 39.9032C11.3 41.9031 14.5793 42.0944 16.3879 40.3842C16.8559 39.9479 17.2167 39.4093 17.4422 38.8105C17.6677 38.2117 17.7517 37.5689 17.6877 36.9322C17.5225 34.9918 16.1539 33.3131 14.4474 32.459C13.5859 31.9743 12.559 31.9372 11.6064 32.0876L11.599 32.0969ZM50.434 32.6744C50.5918 33.302 51.1767 33.6307 51.6354 34.028C52.1925 34.288 52.7681 34.5554 53.4013 34.5294C53.73 34.9323 54.3297 34.7262 54.755 34.6204C54.4152 34.5665 54.0716 34.5387 53.73 34.5127C53.3333 34.3457 52.9181 34.2267 52.4933 34.158C51.7319 33.7866 50.9093 33.4153 50.434 32.6725V32.6744ZM16.9802 33.7347C17.2042 34.2166 17.4611 34.6825 17.749 35.1292C18.0684 35.6398 18.1204 36.2545 18.3748 36.8004C18.5438 35.6045 17.8177 34.5108 16.9802 33.7365V33.7347ZM8.00591 35.1236C7.33557 35.7717 7.64566 36.7614 7.64566 37.584L7.97805 37.5951C7.89446 36.7729 7.9038 35.9438 8.00591 35.1236ZM28.3036 35.8794C28.4707 36.0651 28.6397 36.2377 28.8049 36.4216C28.0288 37.1216 26.948 37.8217 26.9146 38.9785C27.4568 37.662 28.7325 36.9044 29.6312 35.8571L29.3954 35.8738C29.1689 35.9555 28.9386 36.0335 28.7084 36.1096C28.7994 35.9759 28.9795 35.7085 29.0797 35.5767C28.8235 35.6751 28.5672 35.7772 28.3129 35.8794H28.3036ZM7.93721 38.1318C7.77194 38.3063 8.01705 38.6777 8.23802 38.5459C8.39771 38.3713 8.16003 37.9999 7.93721 38.1318ZM40.8042 40.8391C41.2275 40.529 41.5989 40.0964 42.1374 39.9961C42.7035 39.9109 43.253 39.738 43.7659 39.4836C42.6517 39.426 41.2869 39.7008 40.7949 40.8391H40.8042ZM44.5718 39.9404C44.4956 40.1744 44.8744 40.3693 45.0657 40.2691C45.1493 40.0332 44.7612 39.8271 44.5718 39.9422V39.9404ZM15.8958 41.7007C16.2186 41.6587 16.5208 41.5186 16.7615 41.2995C17.0022 41.0803 17.17 40.7926 17.2421 40.4752C16.8206 40.9134 16.3303 41.2848 15.8958 41.7007ZM9.43013 40.685C9.61582 41.1938 10.0429 41.528 10.4867 41.8103C11.6008 42.2411 12.793 42.813 14.0148 42.6422C14.2302 42.5642 14.4493 42.4936 14.6647 42.41C13.8235 42.3042 12.9508 42.4416 12.1356 42.1594C11.1645 41.8177 10.1172 41.4983 9.42827 40.685H9.43013ZM57.1522 41.0879C57.5032 41.2848 57.8671 41.4593 58.2144 41.6729C58.442 41.6467 58.664 41.584 58.8717 41.4872L58.2032 41.4166C57.8722 41.2513 57.5177 41.1379 57.1522 41.0805V41.0879ZM59.4195 41.411C59.1837 41.6951 59.7166 41.918 59.8967 41.6877C60.1381 41.4055 59.5959 41.1826 59.4102 41.4166L59.4195 41.411ZM46.8316 45.5129C46.8725 45.162 46.9059 44.8092 46.9337 44.4582C46.8374 44.462 46.7439 44.4919 46.6631 44.5445C46.5823 44.5971 46.5173 44.6706 46.4748 44.7572C46.4324 44.8438 46.4142 44.9402 46.4221 45.0363C46.43 45.1324 46.4637 45.2246 46.5196 45.3031C46.5944 45.4088 46.7054 45.4835 46.8316 45.5129ZM14.2878 48.2982H14.531C14.9543 48.04 15.3991 47.8188 15.8605 47.6372L16.4473 47.6743C16.7592 47.8081 17.0985 47.8654 17.437 47.8414C17.1102 47.7115 16.7704 47.6112 16.4417 47.4868C15.6284 47.4144 14.8968 47.8025 14.2878 48.3001V48.2982ZM20.7665 49.2267C21.3997 50.0734 22.1888 50.805 22.6772 51.7558L22.887 51.6221C22.2947 50.7512 21.7042 49.793 20.7739 49.2267H20.7665ZM51.9121 9.32584L52.3113 9.51153L51.9919 9.90519C53.6854 10.1577 54.7773 11.7788 54.9629 13.3664C54.8849 14.7721 53.7002 15.7915 52.4951 16.3226C50.6587 16.9781 48.6161 16.4563 47.0154 15.4443C46.4862 15.0562 45.8846 14.6588 45.6525 14.0126C45.5615 13.0359 45.5615 11.9459 46.1724 11.1215C46.8167 10.2524 47.9012 9.94976 48.85 9.53938C49.7525 9.50967 50.6345 9.72508 51.5203 9.86249L51.9176 9.33327L51.9121 9.32584ZM47.2698 14.8631C47.0841 14.2893 46.8985 13.697 46.5271 13.2197C46.2095 13.9328 46.7258 14.5029 47.2828 14.8742L47.2698 14.8631ZM51.1972 14.9337C50.0236 15.2642 48.7981 15.0803 47.6022 15.0339C47.8362 15.6133 48.6439 15.8231 49.1898 15.6968L49.7246 15.8361L49.6522 16.0218C50.1703 16.1276 50.5937 15.8361 50.991 15.5446C51.329 15.5446 51.7338 15.7563 52.0161 15.4889C52.536 15.0191 53.1135 14.5697 53.4588 13.9458C52.7012 14.2689 52.0068 14.7461 51.1972 14.9374V14.9337ZM12.8728 14.5623C15.1234 13.2179 17.8864 12.9059 20.4285 13.4481C21.8769 13.7285 22.8295 15.2846 22.6289 16.707C22.4432 18.3429 21.3736 19.7151 20.2019 20.8033C18.9021 22.1328 17.2309 23.2302 15.3499 23.4791C13.194 23.6647 11.079 22.3204 10.1042 20.43L10.1172 20.3836C10.3586 19.5852 10.405 18.7496 10.4886 17.9251C10.6427 16.486 11.6176 15.2363 12.8747 14.5641L12.8728 14.5623ZM13.5636 21.9898C13.8867 22.6954 15.0379 23.0204 15.6061 22.4596C14.9081 22.4261 14.2212 22.2709 13.5766 22.001L13.5636 21.9898ZM58.374 17.862C58.5932 17.6856 59.1558 17.7895 59.1168 18.1219C58.907 18.2296 58.4056 18.1331 58.387 17.8731L58.374 17.862ZM56.7344 18.4599C57.583 18.0551 58.5244 18.1758 59.36 18.5527L58.9887 18.7254L58.6581 18.6976C58.0223 18.5638 57.3763 18.4843 56.727 18.4599H56.7344ZM35.9372 20.4282C36.3717 20.1274 36.2473 21.1319 36.4627 21.2508C36.0022 21.2619 35.8704 20.8423 35.9502 20.4449L35.9372 20.4282ZM51.7022 24.4614C52.6641 24.2051 53.6631 24.2051 54.651 24.2255H54.9536C55.8951 24.5858 56.8514 24.9924 57.5421 25.7575C58.6154 26.8604 59.412 28.4221 59.0815 29.9967C58.8786 30.5443 58.5458 31.0345 58.1118 31.4252C57.6777 31.8159 57.1554 32.0954 56.5896 32.2399C55.3028 32.6354 53.9286 32.4255 52.6381 32.1619C51.5834 31.5584 50.5287 30.6207 50.4488 29.3227C50.2966 27.6515 50.2427 25.5978 51.7189 24.4614H51.7022ZM32.1826 26.944C33.1742 26.5912 34.1435 26.0973 35.2149 26.0527C36.3829 25.9487 37.5434 26.2533 38.613 26.7026C39.2685 26.9459 39.6547 27.5605 40.1171 28.0451C40.6277 28.8028 40.7614 29.7479 40.832 30.6448C40.6188 31.9517 39.9222 33.1308 38.8804 33.9482C37.9185 34.7708 36.6206 35.0623 35.3932 35.1775C34.0246 35.0549 32.6078 34.6668 31.5494 33.7569C30.4947 32.9046 29.8912 31.5862 29.7389 30.2586C29.726 29.8765 29.8296 29.4996 30.0361 29.1778C30.5923 28.2966 31.3228 27.5383 32.1826 26.9496V26.944ZM33.8018 34.0151C33.7907 34.0708 33.7684 34.184 33.7554 34.2397C34.2147 34.4239 34.706 34.5148 35.2008 34.5072C35.6956 34.4995 36.1839 34.3935 36.6373 34.1952C36.6419 34.1495 36.6419 34.1034 36.6373 34.0578C35.7348 34.4458 34.695 34.3567 33.8018 34.0225V34.0151ZM5.00331 27.1297C5.22614 27.0536 5.45082 26.9756 5.6755 26.9069C6.15272 26.9329 6.27529 27.4751 6.33285 27.852C6.26786 28.5354 5.85933 29.1407 5.39511 29.6272H4.69878C4.22156 29.2206 4.0693 28.6171 4.0823 28.0117C4.37198 27.7035 4.62637 27.3451 5.01075 27.1371L5.00331 27.1297ZM12.3733 33.8832L12.7001 33.6177C13.3259 33.6418 13.9517 33.6567 14.5793 33.679C14.5793 33.7179 14.5923 33.7997 14.596 33.8386C15.5245 33.8071 16.1261 34.6408 16.5216 35.3687C17.0174 36.1505 17.0787 37.1235 16.9338 38.0185C16.4463 38.5605 15.9194 39.0657 15.3573 39.53C14.882 39.5616 14.4122 39.6804 14.0946 40.0611C13.3649 40.0722 12.6351 40.0741 11.9054 40.0778L11.7717 39.9497L11.6565 39.8383L10.6575 38.8522C10.613 39.1493 10.5665 39.4483 10.5201 39.7454C10.2304 39.2682 9.89065 38.817 9.72539 38.2599C9.59541 37.5747 9.65295 36.8709 9.6808 36.1783C10.0639 35.4491 10.5659 34.7889 11.1663 34.2249C11.2926 34.1135 11.4207 34.0039 11.5488 33.8943L12.3659 33.8758L12.3733 33.8832ZM61.1167 35.8775C61.3376 35.7178 61.6979 36.0632 61.5326 36.2934C61.3042 36.4253 60.97 36.0948 61.1111 35.8738L61.1167 35.8775ZM57.2803 38.5514C57.3594 38.0998 57.5552 37.6768 57.8484 37.3243C58.1416 36.9719 58.5219 36.7023 58.9515 36.5423C59.1725 36.5738 59.3935 36.6147 59.6144 36.663C59.7258 36.8245 59.8447 36.9824 59.971 37.1328C60.528 37.8031 60.3033 38.6573 60.385 39.4427C60.6636 38.6406 60.7564 37.5097 59.9858 36.9452C60.1009 36.8412 60.2198 36.7391 60.3405 36.6407C60.9867 36.9916 61.5586 37.6416 61.4843 38.4252C61.4546 39.2236 60.801 39.8197 60.0917 40.0741C59.477 39.7974 58.842 40.2895 58.2348 40.0741C57.6146 39.8884 57.1206 39.2181 57.2803 38.5589V38.5514ZM41.9554 41.0118C42.3935 40.827 42.8689 40.7475 43.3433 40.7797C43.8176 40.812 44.2778 40.9551 44.6869 41.1975C44.9118 41.3246 45.0774 41.5356 45.1474 41.7843C45.2421 42.3673 45.3052 42.956 45.3832 43.5409C45.5125 43.0473 45.7047 42.5724 45.9552 42.1278C46.1043 42.7415 46.036 43.388 45.7622 43.9571C45.4883 44.5262 45.0256 44.9828 44.4529 45.2492C43.8216 45.5705 43.0918 45.3996 42.4252 45.3031C42.4048 45.2344 42.3602 45.0933 42.3379 45.0245C43.1011 45.0245 43.9534 45.1805 44.6145 44.6959C44.919 44.5102 44.9691 44.1388 45.1084 43.8528C44.7185 44.1444 44.3657 44.5083 43.8996 44.6736C43.1772 44.8407 42.4308 44.7144 41.7177 44.5622C41.2182 44.3134 40.676 43.877 40.676 43.2624C40.5887 42.5846 41.0232 42.0182 41.3408 41.4668C41.3983 41.5986 41.5265 41.866 41.5747 41.9997C41.9461 41.762 42.3342 41.5206 42.7112 41.2792L41.9554 41.0025V41.0118ZM31.1186 43.9828C31.477 43.7544 32.3256 43.773 32.2179 44.3765C32.3683 45.0431 31.6144 45.0617 31.1595 45.0951C31.0722 44.7237 30.9255 44.3394 31.1186 43.981V43.9828ZM57.3732 46.7125C57.3732 46.4284 57.3955 46.1554 57.414 45.8657C57.9358 45.9177 58.0491 46.3151 57.9711 46.757L57.375 46.7125H57.3732ZM29.8429 46.6085C30.2143 46.3801 30.6228 46.5918 30.9942 46.6883C31.1989 47.4645 31.5569 48.1918 32.0471 48.8275C32.593 49.5591 32.9941 50.6119 32.4518 51.455C32.0118 51.9396 31.4696 52.324 31.0518 52.8328C30.883 53.052 30.6548 53.2183 30.3944 53.3118C30.1335 53.4059 29.851 53.422 29.5811 53.3583C28.5765 53.0686 27.6295 52.337 27.3528 51.2915C27.2365 50.6956 27.244 50.0821 27.375 49.4892C27.506 48.8963 27.7576 48.3366 28.1142 47.8452C28.6005 47.3214 29.1863 46.8998 29.8374 46.6048L29.8429 46.6085ZM16.0444 49.1487C17.0861 48.8553 18.1167 49.3047 18.9597 49.8915C19.9123 50.3742 20.525 51.2674 21.2214 52.0399C22.1053 53.0445 22.8796 54.2013 23.1637 55.529C23.1374 55.8616 23.0896 56.1922 23.0207 56.5187C22.4005 57.4471 21.2344 57.7424 20.1852 57.8612C19.2772 57.9596 18.3822 57.7368 17.5225 57.4731C17.3869 57.4007 17.2532 57.3246 17.1195 57.2485C16.841 57.0089 16.5624 56.7675 16.3006 56.5057L16.2078 56.4073C16.2672 56.3664 16.3285 56.3274 16.3935 56.2884C15.7547 55.8335 15.1364 55.2653 14.8968 54.4928C14.5252 53.3219 14.4255 52.0816 14.6053 50.8663C14.7241 50.1013 15.1976 49.2378 16.0481 49.1524L16.0444 49.1487ZM51.3587 51.999C51.7747 51.8412 52.2129 52.0584 52.5713 52.2609C53.0392 52.6322 53.0002 53.323 52.8906 53.8559C52.6437 54.6915 52.0309 55.3414 51.4664 55.9783C51.4664 56.0786 51.4664 56.2792 51.4776 56.3776C51.1803 56.6674 50.8606 56.9331 50.5212 57.1723C50.5212 57.111 50.5454 56.9866 50.5528 56.9309C49.3496 57.7405 47.851 57.9188 46.4417 57.7275L45.8846 57.644C45.8846 57.0869 45.7713 56.4667 46.0703 55.9561C46.5011 55.1075 47.4072 54.6934 48.0906 54.088C49.0295 53.1831 50.1383 52.4731 51.3531 51.999H51.3587ZM32.2327 58.4981C32.6301 58.0246 33.3469 57.9411 33.9207 58.0079C34.5594 58.1602 35.1202 58.5223 35.7367 58.7395C36.5314 59.0385 37.432 59.3282 37.8832 60.1118C37.9835 60.4627 37.7607 60.8007 37.6753 61.1331L37.2575 61.2965C36.329 61.7143 35.2818 61.5731 34.305 61.432C33.6421 61.1405 32.6338 61.2649 32.3312 60.4702C32.1158 59.8388 32.268 59.1499 32.2327 58.4981ZM48.6737 59.5064C49.201 59.291 49.7451 59.1202 50.2761 58.9085C50.356 59.1406 50.4396 59.3709 50.5064 59.6104C50.2483 59.7497 49.979 59.8648 49.7098 59.9818C49.6875 59.8444 49.6429 59.5696 49.6188 59.4247C49.2513 59.5155 48.8795 59.5874 48.5047 59.6401L48.6904 59.4971L48.6737 59.5064Z" fill="#00D1FF"/>
<path d="M72.0235 38.9799H73.3435V30.0199H72.0235V27.4999H78.1635C78.8302 27.4999 79.4168 27.5933 79.9235 27.7799C80.4435 27.9666 80.8768 28.2199 81.2235 28.5399C81.5835 28.8599 81.8502 29.2466 82.0235 29.6999C82.2102 30.1399 82.3035 30.6199 82.3035 31.1399V31.3799C82.3035 32.1799 82.0768 32.8199 81.6235 33.2999C81.1835 33.7799 80.6235 34.1133 79.9435 34.2999V34.6599C80.6235 34.8466 81.1835 35.1866 81.6235 35.6799C82.0768 36.1599 82.3035 36.7999 82.3035 37.5999V37.8399C82.3035 38.3599 82.2102 38.8466 82.0235 39.2999C81.8502 39.7399 81.5835 40.1266 81.2235 40.4599C80.8768 40.7799 80.4435 41.0333 79.9235 41.2199C79.4168 41.4066 78.8302 41.4999 78.1635 41.4999H72.0235V38.9799ZM75.9835 38.9799H77.9035C78.4635 38.9799 78.9168 38.8599 79.2635 38.6199C79.6102 38.3799 79.7835 37.9799 79.7835 37.4199V37.2999C79.7835 36.7399 79.6102 36.3399 79.2635 36.0999C78.9168 35.8599 78.4635 35.7399 77.9035 35.7399H75.9835V38.9799ZM75.9835 33.2199H77.9035C78.4635 33.2199 78.9168 33.1066 79.2635 32.8799C79.6102 32.6399 79.7835 32.2399 79.7835 31.6799V31.5599C79.7835 30.9999 79.6102 30.6066 79.2635 30.3799C78.9168 30.1399 78.4635 30.0199 77.9035 30.0199H75.9835V33.2199ZM84.9896 27.4999H87.6296V38.9799H93.9896V41.4999H84.9896V27.4999ZM106.756 27.4999V36.6599C106.756 38.2599 106.329 39.5133 105.476 40.4199C104.636 41.3266 103.382 41.7799 101.716 41.7799C100.049 41.7799 98.789 41.3266 97.9357 40.4199C97.0957 39.5133 96.6757 38.2599 96.6757 36.6599V27.4999H99.3157V36.6599C99.3157 37.4866 99.509 38.1333 99.8957 38.5999C100.282 39.0666 100.889 39.2999 101.716 39.2999C102.542 39.2999 103.149 39.0666 103.536 38.5999C103.922 38.1333 104.116 37.4866 104.116 36.6599V27.4999H106.756ZM109.482 27.4999H118.322V30.0199H112.122V33.2199H118.082V35.7399H112.122V38.9799H118.562V41.4999H109.482V27.4999ZM189.838 31.7799C189.838 31.2199 189.618 30.7333 189.178 30.3199C188.752 29.9066 188.145 29.6999 187.358 29.6999C186.692 29.6999 186.165 29.8399 185.778 30.1199C185.392 30.3866 185.198 30.7533 185.198 31.2199C185.198 31.4599 185.245 31.6799 185.338 31.8799C185.432 32.0666 185.592 32.2399 185.818 32.3999C186.058 32.5466 186.365 32.6799 186.738 32.7999C187.125 32.9199 187.612 33.0333 188.198 33.1399C189.665 33.4066 190.785 33.8533 191.558 34.4799C192.332 35.1066 192.718 36.0333 192.718 37.2599V37.4999C192.718 38.1533 192.598 38.7466 192.358 39.2799C192.132 39.7999 191.798 40.2466 191.358 40.6199C190.918 40.9933 190.385 41.2799 189.758 41.4799C189.132 41.6799 188.425 41.7799 187.638 41.7799C186.718 41.7799 185.905 41.6533 185.198 41.3999C184.505 41.1333 183.925 40.7733 183.458 40.3199C182.992 39.8533 182.638 39.3133 182.398 38.6999C182.158 38.0733 182.038 37.3933 182.038 36.6599V36.0599H184.678V36.5399C184.678 37.3799 184.918 38.0533 185.398 38.5599C185.892 39.0533 186.652 39.2999 187.678 39.2999C188.478 39.2999 189.072 39.1266 189.458 38.7799C189.845 38.4333 190.038 38.0199 190.038 37.5399C190.038 37.3133 189.998 37.0999 189.918 36.8999C189.838 36.6866 189.698 36.4999 189.498 36.3399C189.298 36.1666 189.025 36.0133 188.678 35.8799C188.332 35.7466 187.892 35.6333 187.358 35.5399C186.652 35.4199 186.005 35.2666 185.418 35.0799C184.832 34.8799 184.318 34.6199 183.878 34.2999C183.452 33.9799 183.118 33.5799 182.878 33.0999C182.638 32.6199 182.518 32.0333 182.518 31.3399V31.2199C182.518 30.6466 182.632 30.1199 182.858 29.6399C183.098 29.1466 183.425 28.7199 183.838 28.3599C184.265 27.9999 184.772 27.7199 185.358 27.5199C185.958 27.3199 186.625 27.2199 187.358 27.2199C188.185 27.2199 188.918 27.3399 189.558 27.5799C190.198 27.8066 190.732 28.1199 191.158 28.5199C191.598 28.9199 191.925 29.3799 192.138 29.8999C192.365 30.4199 192.478 30.9666 192.478 31.5399V32.2599H189.838V31.7799ZM194.644 27.4999H204.724V30.0199H201.004V41.4999H198.364V30.0199H194.644V27.4999ZM214.311 38.4999H209.551L208.871 41.4999H206.111L209.451 27.4999H214.411L217.751 41.4999H214.991L214.311 38.4999ZM210.111 35.9799H213.731L212.111 28.8199H211.751L210.111 35.9799ZM222.237 41.4999H219.597V27.4999H222.237V33.2399H222.817L226.517 27.4999H229.497V27.6199L225.177 34.3199V34.6799L229.737 41.3799V41.4999H226.637L222.817 35.7599H222.237V41.4999ZM231.943 27.4999H240.783V30.0199H234.583V33.2199H240.543V35.7399H234.583V38.9799H241.023V41.4999H231.943V27.4999Z" fill="#00D1FF"/>
<path d="M120.528 27.4999H125.168L125.968 38.0199V40.0599H126.448V38.0199L127.248 27.4999H131.888V41.4999H129.488V32.1399L129.728 28.9399H129.248L128.208 41.4999H124.248L123.168 28.9399H122.688L122.928 32.1399V41.4999H120.528V27.4999ZM133.294 32.9399C133.294 31.1266 133.747 29.7199 134.654 28.7199C135.574 27.7199 136.841 27.2199 138.454 27.2199C140.067 27.2199 141.327 27.7199 142.234 28.7199C143.154 29.7199 143.614 31.1266 143.614 32.9399V36.0599C143.614 37.9266 143.154 39.3466 142.234 40.3199C141.327 41.2933 140.067 41.7799 138.454 41.7799C136.841 41.7799 135.574 41.2933 134.654 40.3199C133.747 39.3466 133.294 37.9266 133.294 36.0599V32.9399ZM138.454 39.3799C138.934 39.3799 139.334 39.3066 139.654 39.1599C139.974 38.9999 140.234 38.7799 140.434 38.4999C140.634 38.2199 140.774 37.8866 140.854 37.4999C140.934 37.1133 140.974 36.6866 140.974 36.2199V32.7799C140.974 32.3399 140.927 31.9266 140.834 31.5399C140.741 31.1533 140.594 30.8199 140.394 30.5399C140.194 30.2599 139.934 30.0399 139.614 29.8799C139.294 29.7066 138.907 29.6199 138.454 29.6199C138.001 29.6199 137.614 29.7066 137.294 29.8799C136.974 30.0399 136.714 30.2599 136.514 30.5399C136.314 30.8199 136.167 31.1533 136.074 31.5399C135.981 31.9266 135.934 32.3399 135.934 32.7799V36.2199C135.934 36.6866 135.974 37.1133 136.054 37.4999C136.134 37.8866 136.274 38.2199 136.474 38.4999C136.674 38.7799 136.934 38.9999 137.254 39.1599C137.574 39.3066 137.974 39.3799 138.454 39.3799ZM145.54 32.9399C145.54 31.1266 145.993 29.7199 146.9 28.7199C147.82 27.7199 149.087 27.2199 150.7 27.2199C152.313 27.2199 153.573 27.7199 154.48 28.7199C155.4 29.7199 155.86 31.1266 155.86 32.9399V36.0599C155.86 37.9266 155.4 39.3466 154.48 40.3199C153.573 41.2933 152.313 41.7799 150.7 41.7799C149.087 41.7799 147.82 41.2933 146.9 40.3199C145.993 39.3466 145.54 37.9266 145.54 36.0599V32.9399ZM150.7 39.3799C151.18 39.3799 151.58 39.3066 151.9 39.1599C152.22 38.9999 152.48 38.7799 152.68 38.4999C152.88 38.2199 153.02 37.8866 153.1 37.4999C153.18 37.1133 153.22 36.6866 153.22 36.2199V32.7799C153.22 32.3399 153.173 31.9266 153.08 31.5399C152.987 31.1533 152.84 30.8199 152.64 30.5399C152.44 30.2599 152.18 30.0399 151.86 29.8799C151.54 29.7066 151.153 29.6199 150.7 29.6199C150.247 29.6199 149.86 29.7066 149.54 29.8799C149.22 30.0399 148.96 30.2599 148.76 30.5399C148.56 30.8199 148.413 31.1533 148.32 31.5399C148.227 31.9266 148.18 32.3399 148.18 32.7799V36.2199C148.18 36.6866 148.22 37.1133 148.3 37.4999C148.38 37.8866 148.52 38.2199 148.72 38.4999C148.92 38.7799 149.18 38.9999 149.5 39.1599C149.82 39.3066 150.22 39.3799 150.7 39.3799ZM164.846 40.1799H165.206V27.4999H167.846V41.4999H162.686L161.046 28.8199H160.686V41.4999H158.046V27.4999H163.206L164.846 40.1799Z" fill="#FFF8C9"/>
</svg>
