<svg width="25" height="25" viewBox="0 0 25 25" fill="none" xmlns="http://www.w3.org/2000/svg">
<path d="M12.4999 0.327637C5.87288 0.327637 0.499878 5.70064 0.499878 12.3276C0.499878 18.9546 5.87288 24.3276 12.4999 24.3276C19.1269 24.3276 24.4999 18.9546 24.4999 12.3276C24.4999 5.70064 19.1269 0.327637 12.4999 0.327637ZM18.3939 8.54864L16.4239 17.8286C16.2789 18.4866 15.8869 18.6466 15.3399 18.3366L12.3399 16.1266L10.8939 17.5206C10.823 17.6124 10.7321 17.6866 10.6281 17.7378C10.5241 17.7889 10.4098 17.8155 10.2939 17.8156H10.2889L10.5019 14.7616L16.0619 9.73964C16.3019 9.52664 16.0079 9.40564 15.6889 9.61864L8.81988 13.9446L5.85988 13.0206C5.21988 12.8176 5.20188 12.3806 5.99488 12.0666L17.5609 7.60864C18.0989 7.41264 18.5669 7.73664 18.3929 8.54964L18.3939 8.54864Z" fill="#FFF8C9"/>
</svg>
