<svg width="25" height="21" viewBox="0 0 25 21" fill="none" xmlns="http://www.w3.org/2000/svg">
<path d="M23.4995 1.33525C22.5419 2.01073 21.4816 2.52736 20.3595 2.86525C19.7573 2.17276 18.9568 1.68194 18.0665 1.45918C17.1762 1.23641 16.239 1.29245 15.3816 1.6197C14.5242 1.94696 13.788 2.52965 13.2725 3.28897C12.757 4.04828 12.4872 4.94759 12.4995 5.86525V6.86525C10.7421 6.91082 9.00079 6.52106 7.43052 5.7307C5.86026 4.94033 4.50983 3.77389 3.49951 2.33525C3.49951 2.33525 -0.500488 11.3353 8.49951 15.3353C6.44004 16.7332 3.98667 17.4342 1.49951 17.3353C10.4995 22.3353 21.4995 17.3353 21.4995 5.83525C21.4986 5.5567 21.4718 5.27885 21.4195 5.00525C22.4401 3.99874 23.1603 2.72796 23.4995 1.33525V1.33525Z" stroke="#FFF8C9" stroke-width="2" stroke-linecap="round" stroke-linejoin="round"/>
</svg>
